<svg width="390" height="844" viewBox="0 0 390 844" fill="none" xmlns="http://www.w3.org/2000/svg">
<g clip-path="url(#clip0_739_2)">
<rect width="390" height="844" fill="#9CE6F6"/>
<circle cx="112" cy="72" r="35" fill="#F9ED32"/>
<path d="M-47 531H-1.70222H337.576H424V844H-47V531Z" fill="#F9CA84"/>
<path d="M177.384 490.782C71.6561 444.088 -14.2586 471.326 -44 490.782V509.094H177.384V490.782Z" fill="#F9CA84"/>
<path d="M177.384 508.479C71.6561 460.875 -14.2586 488.644 -44 508.479V550.318C-44 558.298 -20.5079 556.819 -14.284 556.196C-8.06012 555.574 2.61084 548.333 20.6844 554.109C38.7579 559.886 58.6484 548.915 66.692 550.318C80.4448 552.717 177.384 550.318 177.384 550.318V508.479Z" fill="#D8B279"/>
<path d="M434.886 513.083C324.286 466.389 234.413 493.627 203.302 513.083V531.395H434.886V513.083Z" fill="#F9CA84"/>
<path d="M434.886 531.527C324.286 483.923 234.413 511.692 203.302 531.527V550.196C203.302 550.196 319.042 554.892 321.607 550.196C324.173 545.5 326.922 545.769 350.746 550.196C374.57 554.623 367.789 552.502 377.868 550.196C387.948 547.89 434.886 550.196 434.886 550.196V531.527Z" fill="#D8B279"/>
<path d="M181.025 292.42L44 572H203.787H362.441L207.127 286.889L181.025 292.42Z" fill="#BAABAB"/>
<path d="M168.933 341.211L135.365 371.394L180.577 286.718L209.263 280.932L236.701 331.274L228.736 368.614L194.036 317.461L173.363 385.056L168.933 341.211Z" fill="#CC4545"/>
<path d="M158.737 273.463C159.615 269.009 168.509 265.626 172.936 264.4C178.492 262.861 177.751 266.024 176.819 266.99C173.879 269.043 167.753 273.798 166.767 276.394C165.534 279.638 157.639 279.03 158.737 273.463Z" fill="#CC4545"/>
<path d="M206.854 258.743C216.188 256.661 218.656 261.555 218.723 264.262C218.424 265.676 217.219 268.258 214.787 267.275C211.747 266.046 208.582 260.635 201.219 265.097C193.856 269.558 195.186 261.345 206.854 258.743Z" fill="#CC4545"/>
<path d="M199.818 245.076C195.268 242.907 191.102 256.625 189.587 263.755C190.676 266.624 193.574 264.175 194.079 261.459C194.584 258.743 199.337 251.859 201.38 252.485C203.423 253.111 205.505 247.787 199.818 245.076Z" fill="#CC4545"/>
<path d="M366.927 646.181C371.11 583.438 364.935 512.977 361.325 485.59H366.927C374.397 487.681 379.999 596.012 381.866 649.916C380.671 657.983 376.139 658.755 374.023 658.132C366.554 656.34 366.18 649.418 366.927 646.181Z" fill="#B7935E"/>
<path d="M356.731 468.237C357.851 466.369 355.61 415.951 378.018 408.108C373.039 422.176 363.453 453.896 364.947 468.237C366.441 456.535 372.939 433.131 386.982 433.131C382.5 438.359 373.985 452.327 375.777 466.369C375.579 464.18 406.775 443.588 423.582 459.273C417.108 456.286 397.887 455.091 372.79 474.212C385.986 473.714 411.481 475.706 407.896 487.657C398.559 482.926 377.57 475.183 368.308 482.055C378.392 487.284 398.186 499.608 396.692 507.078C387.977 507.7 369.429 504.687 364.947 487.657C361.337 499.857 352.622 525.153 346.647 528.739C346.149 519.526 347.469 498.413 356.731 487.657C344.904 497.243 318.263 516.19 306.312 515.294C310.42 512.057 322.969 502.446 340.298 489.898C325.733 492.512 295.482 496.172 291 489.898C293.241 484.545 300.636 474.66 312.288 477.947C314.529 477.947 339.924 482.055 346.647 482.055C333.451 477.449 303.847 468.834 291 471.224C297.598 466.8 316.994 460.605 341.792 471.224C330.214 465.249 303.847 453.895 291 456.286C297.598 452.866 316.994 449.424 341.792 463.008C331.086 456.286 308.628 440.899 304.445 433.131C313.408 434.873 333.426 441.347 341.792 453.298C336.19 443.463 325.285 422.225 326.48 415.951C333.005 422.378 344.432 435.558 347.959 445.95C346.138 429.463 345.194 405.799 351.876 404C352.124 422.176 353.444 460.469 356.731 468.237Z" fill="#7DC21D"/>
<path d="M13.7139 656.163C14.443 589.815 29.2073 519.76 36.4983 493.027C48.8931 493.027 46.5235 500.014 43.7893 503.507C26.2909 615.425 34.6756 651.91 41.0552 656.163C26.4732 659.809 16.7518 657.682 13.7139 656.163Z" fill="#B7935E"/>
<path d="M55.0663 536.363C46.1298 531.001 41.2148 505.532 39.8743 493.468C26.2909 511.341 1.14963 518.937 -9.72306 520.501C-1.5015 505.667 23.044 493.021 34.289 488.553C25.557 483.191 -1.96739 485.128 -14.6381 486.766C-7.71235 480.064 48.8108 475.148 15.9693 473.361C-10.3039 471.931 -18.9574 467.255 -20 465.095C-7.13149 454.55 17.2353 466.212 27.8101 473.361C6.19363 458.533 4.20472 437.113 5.91341 428.244C4.51154 435.591 27.9655 463.911 39.8743 477.159C43.8064 464.112 33.4699 429.126 27.8101 413.263C34.7805 413.978 42.6297 442.754 45.683 457.052C47.1129 424.166 52.3854 409.987 54.8429 407.008C63.6006 406.293 52.3854 454.222 45.683 478.276C67.8008 413.487 82.0991 425.775 79.6416 425.775C77.1841 425.775 59.3111 457.946 60.4282 459.733C82.2332 439.358 99.0039 438.583 104.664 440.743C98.9765 439.499 74.8508 459.065 63.3036 469.169C78.706 455.799 105.457 460.868 116.951 465.095C99.4359 460.269 73.7584 471.872 63.1091 478.276C87.595 467.195 109.206 476.638 116.951 482.744C98.1848 477.025 70.7051 484.234 59.3111 488.553C97.023 478.544 110.026 490.787 111.813 498.16C100.732 486.543 72.1945 491.383 59.3111 495.256C67.8901 496.685 89.8441 516.256 99.7486 525.863C73.8552 521.598 55.8582 507.403 47.4167 497.908C52.3939 507.276 54.574 526.395 55.0663 536.363Z" fill="#7DC21D"/>
<path d="M315.112 695.678C319.728 690.22 326.651 699.374 329.536 704.633C332.194 708.798 322.901 709.75 315.112 708.471C307.323 707.192 309.343 702.501 315.112 695.678Z" fill="#93946B"/>
<path d="M247.368 723.678C252.214 718.22 259.484 727.374 262.513 732.633C265.304 736.798 255.546 737.75 247.368 736.471C239.19 735.192 241.31 730.501 247.368 723.678Z" fill="#93946B"/>
<path d="M41.9417 666.103C27.6441 663.524 31.1689 660.866 34.3991 652.82C36.0093 649.097 44.322 652.106 49.7412 655.323C55.1603 658.54 56.2393 668.681 41.9417 666.103Z" fill="#93946B"/>
<path d="M177.542 654.35C169.003 646.708 156.195 659.524 150.858 666.887C145.94 672.717 163.133 674.051 177.542 672.26C191.952 670.469 188.216 663.902 177.542 654.35Z" fill="#93946B"/>
<path d="M116.818 709.569C113.118 710.138 122.866 722.139 128.202 728.068H176.583C184.41 728.068 194.727 701.743 191.881 701.743C189.035 701.743 175.516 713.127 176.583 709.569C177.651 706.012 176.228 682.888 172.67 682.888C169.113 682.888 158.44 704.944 159.863 701.743C161.286 698.541 152.393 678.975 150.614 680.042C148.835 681.109 146.345 706.723 145.633 704.944C144.922 703.166 132.115 694.628 129.98 694.272C128.273 693.987 128.083 704.352 128.202 709.569C125.949 709.332 120.518 709 116.818 709.569Z" fill="#678E30"/>
<path d="M147.397 717.083C146.064 715.528 141.104 714.862 138.791 714.723C135.681 716.167 142.4 723.931 146.147 727.632H169.745C171.873 724.116 175.935 716.611 175.158 714.723C174.187 712.364 168.495 718.888 166.552 718.61C164.609 718.332 166.83 709.588 164.886 707.367C162.943 705.146 156.28 717.083 156.003 714.723C155.725 712.364 151.422 705.423 149.201 705.562C146.98 705.701 149.062 719.026 147.397 717.083Z" fill="#96B25D"/>
<path d="M334.497 647.96C332.25 648.305 338.17 655.594 341.411 659.195H370.797C375.55 659.195 381.816 643.206 380.088 643.206C378.359 643.206 370.149 650.12 370.797 647.96C371.445 645.799 370.581 631.754 368.42 631.754C366.259 631.754 359.777 645.151 360.641 643.206C361.506 641.261 356.104 629.377 355.024 630.026C353.943 630.674 352.431 646.231 351.999 645.151C351.566 644.07 343.788 638.885 342.491 638.668C341.454 638.496 341.339 644.79 341.411 647.96C340.043 647.815 336.744 647.614 334.497 647.96Z" fill="#80AD42"/>
<path d="M353.069 652.523C352.26 651.579 349.248 651.175 347.842 651.09C345.954 651.967 350.034 656.683 352.311 658.931H366.643C367.936 656.795 370.403 652.237 369.931 651.09C369.341 649.657 365.884 653.619 364.704 653.451C363.524 653.282 364.873 647.971 363.692 646.622C362.512 645.273 358.465 652.523 358.297 651.09C358.128 649.657 355.514 645.442 354.165 645.526C352.817 645.61 354.081 653.704 353.069 652.523Z" fill="#96B25D"/>
<path d="M209.497 682.96C207.25 683.305 213.17 690.594 216.411 694.195H245.797C250.55 694.195 256.816 678.206 255.088 678.206C253.359 678.206 245.149 685.12 245.797 682.96C246.445 680.799 245.581 666.754 243.42 666.754C241.259 666.754 234.777 680.151 235.641 678.206C236.506 676.261 231.104 664.377 230.024 665.026C228.943 665.674 227.431 681.231 226.999 680.151C226.566 679.07 218.788 673.885 217.491 673.668C216.454 673.496 216.339 679.79 216.411 682.96C215.043 682.815 211.744 682.614 209.497 682.96Z" fill="#80AD42"/>
<path d="M228.069 687.523C227.26 686.579 224.248 686.174 222.842 686.09C220.954 686.967 225.034 691.682 227.311 693.931H241.643C242.936 691.795 245.403 687.237 244.931 686.09C244.341 684.657 240.884 688.619 239.704 688.451C238.524 688.282 239.873 682.971 238.692 681.622C237.512 680.273 233.465 687.523 233.297 686.09C233.128 684.657 230.514 680.441 229.165 680.526C227.817 680.61 229.081 688.704 228.069 687.523Z" fill="#96B25D"/>
</g>
<defs>
<clipPath id="clip0_739_2">
<rect width="390" height="844" fill="white"/>
</clipPath>
</defs>
</svg>
