<svg width="1440" height="838" viewBox="0 0 1440 838" fill="none" xmlns="http://www.w3.org/2000/svg">
<g clip-path="url(#clip0_482_17559)">
<rect width="1440" height="838" fill="#F1FF9B"/>
<path d="M205.421 35.0514C115.151 120.468 30.8613 70.6416 0 35.0514V949.816H1440.84V35.0514C1399.17 92.7652 1288.46 59.0988 1238.31 35.0514C1201.28 81.2225 1096.89 43.4381 1050.6 24.2002C974.682 134.88 842.9 57.1751 818.789 35.0514C713.075 101.95 686.664 56.2132 648.088 35.0514C536.987 125.085 439.774 72.5654 405.055 35.0514C324.044 111.234 238.211 66.794 205.421 35.0514Z" fill="#9CE6F6"/>
<path d="M205.421 65.1403C115.151 150.557 30.8613 100.73 0 65.1403V979.905H1440.84V65.1403C1399.17 122.854 1288.46 89.1877 1238.31 65.1403C1201.28 111.311 1096.89 73.527 1050.6 54.2891C974.682 164.969 842.9 87.2639 818.789 65.1403C713.075 132.039 686.664 86.302 648.088 65.1403C536.987 155.174 439.774 102.654 405.055 65.1403C324.044 141.323 238.211 96.8829 205.421 65.1403Z" fill="#5FC6F1"/>
<path d="M270.888 468.694C295.007 423.655 280.937 360.267 270.888 334.203C286.164 367.044 312.856 441.796 297.42 478.077C281.983 514.358 299.027 571.386 309.479 595.365L234.708 587.546C222.648 560.961 240.738 524.992 270.888 468.694Z" fill="#9FCD6B"/>
<path d="M97.2261 246.627C83.719 197.835 107.678 138.722 121.346 115.265C121.346 309.181 151.495 257.574 186.469 340.458C214.448 406.765 205.363 536.981 197.323 593.801L56.2227 603.184C61.8506 543.758 77.9304 416.148 97.2261 381.118C121.346 337.33 114.11 307.617 97.2261 246.627Z" fill="#80EBA4"/>
<path d="M28.4854 318.564C23.6615 278.53 57.027 236.202 74.3127 220.042C38.1331 291.979 74.3127 357.66 102.05 373.299C129.788 388.937 155.114 478.076 134.612 485.896C118.211 492.151 111.698 562.524 110.492 596.928H18.8374C18.8374 579.726 28.4854 531.247 63.4588 465.566C98.4323 399.884 34.5153 368.607 28.4854 318.564Z" fill="#1D9CB5"/>
<path d="M149.083 423.343C180.439 493.716 121.345 584.419 117.728 590.674H193.705C210.99 553.142 235.19 473.073 193.705 453.056C152.219 433.039 146.671 336.289 149.083 290.416C138.631 311.267 123.999 367.044 149.083 423.343Z" fill="#37768E"/>
<path d="M1159.11 456.087C1204.39 377.988 1177.97 268.071 1159.11 222.875C1187.79 279.822 1237.9 409.445 1208.92 472.358C1179.94 535.271 1211.94 634.16 1231.56 675.741L1091.18 662.182C1068.54 616.082 1102.5 553.711 1159.11 456.087Z" fill="#1D9CB5"/>
<path d="M1363.85 375.138C1373.91 334.003 1356.06 284.166 1345.87 264.39C1345.87 427.875 1323.4 384.367 1297.34 454.244C1276.49 510.145 1283.26 619.927 1289.25 667.83L1394.4 675.741C1390.21 625.64 1378.23 518.056 1363.85 488.523C1345.87 451.607 1351.26 426.557 1363.85 375.138Z" fill="#80EBA4"/>
<path d="M1301.2 300.895C1307.29 242.394 1265.18 180.541 1243.36 156.928C1289.02 262.047 1243.36 358.025 1208.35 380.877C1173.33 403.729 1141.37 533.985 1167.25 545.411C1187.95 554.552 1196.17 657.385 1197.69 707.659H1313.38C1313.38 682.522 1301.2 611.681 1257.06 515.703C1212.91 419.725 1293.59 374.021 1301.2 300.895Z" fill="#9FCD6B"/>
<path d="M1069.06 472.59C1110.28 558.027 1032.6 668.146 1027.84 675.74H1127.71C1150.44 630.174 1182.25 532.966 1127.71 508.664C1073.18 484.361 1065.89 366.901 1069.06 311.209C1055.32 336.524 1036.08 404.24 1069.06 472.59Z" fill="#37768E"/>
<path d="M833.758 589.613C621.149 494.156 189.332 537.734 0 571.456L1.79513e-05 922.128H1440.84V571.456C1327.06 617.282 1046.37 685.071 833.758 589.613Z" fill="#FFF66D"/>
<ellipse cx="772.243" cy="769.983" rx="10.1948" ry="4.67825" fill="#F0E04D"/>
<ellipse cx="1105.86" cy="803.583" rx="10.1948" ry="4.67825" fill="#F0E04D"/>
<ellipse cx="1146.6" cy="722.206" rx="10.1948" ry="4.67825" fill="#F0E04D"/>
<ellipse cx="950.89" cy="698.803" rx="10.1948" ry="4.67825" fill="#F0E04D"/>
<ellipse cx="1017.65" cy="666.851" rx="10.1948" ry="4.67825" fill="#F0E04D"/>
<ellipse cx="684.661" cy="752.956" rx="10.1948" ry="4.67825" fill="#F0E04D"/>
<ellipse cx="255.801" cy="610.928" rx="10.1948" ry="4.67825" fill="#F0E04D"/>
<ellipse cx="994.913" cy="757.634" rx="7.87482" ry="3.61365" fill="#F0E04D"/>
<ellipse cx="425.523" cy="718.852" rx="7.87482" ry="3.61365" fill="#F0E04D"/>
<ellipse cx="342.674" cy="753.848" rx="7.87482" ry="3.61365" fill="#F0E04D"/>
<ellipse cx="366.861" cy="797.364" rx="7.87482" ry="3.61365" fill="#F0E04D"/>
<ellipse cx="219.009" cy="742.938" rx="7.87482" ry="3.61365" fill="#F0E04D"/>
<ellipse cx="55.1346" cy="644.982" rx="7.87482" ry="3.61365" fill="#F0E04D"/>
<ellipse cx="393.996" cy="658.559" rx="7.87482" ry="3.61365" fill="#F0E04D"/>
<ellipse cx="512.208" cy="624.042" rx="7.87482" ry="3.61365" fill="#F0E04D"/>
<ellipse cx="154.054" cy="600.073" rx="7.87482" ry="3.61365" fill="#F0E04D"/>
<path d="M17.7383 679.654C-2.60986 708.554 -32.1781 702.871 -27.0912 726.671L-3.35167 891.567C119.303 891.001 370.377 890.208 393.438 891.567C422.265 893.267 444.309 881.368 434.135 859.268C423.961 837.169 340.872 854.168 305.263 806.569C269.653 758.97 251.001 792.97 205.217 750.47C159.434 707.971 171.304 716.471 125.52 690.972C79.7368 665.472 116.96 678.368 74.5679 651.168C37.5347 627.407 38.0865 650.755 17.7383 679.654Z" fill="#9FCD6B"/>
<ellipse cx="48.2275" cy="747.543" rx="13.6826" ry="7.07432" fill="#B7E386"/>
<ellipse cx="155.491" cy="820.815" rx="11.4853" ry="4.46244" fill="#47A87B"/>
<ellipse cx="34.5453" cy="825.277" rx="11.4853" ry="4.46244" fill="#47A87B"/>
<ellipse cx="176.831" cy="763.319" rx="9.85564" ry="3.22889" fill="#B7E386"/>
<ellipse cx="231.043" cy="820.111" rx="6.58916" ry="5.16629" fill="#47A87B"/>
<ellipse cx="115.45" cy="791.32" rx="7.73365" ry="3.52287" fill="#B7E386"/>
<ellipse cx="136.866" cy="717.83" rx="7.13874" ry="5.81197" fill="#47A87B"/>
<ellipse cx="89.2755" cy="741.73" rx="7.13874" ry="5.81197" fill="#47A87B"/>
<ellipse cx="314.553" cy="839.103" rx="6.01743" ry="5.16629" fill="#47A87B"/>
<ellipse cx="72.0232" cy="689.134" rx="10.1131" ry="4.52049" fill="#B7E386"/>
<path d="M1036.77 682.501C1057.07 679.962 1069.55 716.345 1073.25 734.854C1078.01 768.169 1142.53 772.4 1149.93 756.007C1157.34 739.613 1184.84 761.824 1197.53 746.488C1210.22 731.152 1173.2 744.373 1167.91 727.979C1162.63 711.586 1211.28 729.037 1212.86 714.23C1214.45 699.423 1177.96 717.932 1173.2 701.538C1168.44 685.145 1197.53 693.077 1203.87 668.223C1210.22 643.368 1165.8 694.664 1167.91 689.375C1170.03 684.087 1149.93 653.945 1149.93 682.501C1149.93 711.057 1136.71 714.759 1142.53 679.328C1148.35 643.897 1173.2 652.358 1184.84 631.734C1196.47 611.11 1158.92 643.368 1162.1 625.388C1165.27 607.408 1188.54 628.561 1207.57 605.293C1226.61 582.025 1176.37 621.158 1173.2 605.293C1170.03 589.429 1198.06 597.361 1184.84 579.91C1171.61 562.459 1175.32 599.476 1149.93 613.754C1124.55 628.032 1147.29 595.774 1131.95 593.13C1116.62 590.486 1135.13 628.561 1119.79 631.734C1104.45 634.907 1116.09 605.293 1119.79 586.784C1123.49 568.276 1152.05 562.988 1131.95 560.872C1111.86 558.757 1169.5 525.97 1142.53 531.787C1115.56 537.604 1145.17 511.163 1131.95 511.163C1118.73 511.163 1120.32 536.547 1110.27 562.988C1100.22 589.428 1098.64 568.276 1089.12 574.093C1079.6 579.91 1107.1 586.256 1098.64 613.754C1090.18 641.253 1094.94 600.534 1080.13 613.754C1065.32 626.975 1106.57 636.493 1098.64 658.175C1090.71 679.857 1083.83 665.579 1080.13 646.541C1076.43 627.504 1044.7 621.158 1068.5 579.91C1092.29 538.662 1036.77 568.276 1055.8 554.526C1074.84 540.777 1083.3 520.682 1055.8 536.547C1028.3 552.411 1065.32 501.644 1042.05 499.529C1018.79 497.414 1061.09 589.429 1025.13 557.699C989.173 525.97 1039.41 621.158 1015.61 605.293C996.576 592.601 1001.34 610.581 1006.09 621.158C975.423 633.849 1053.16 657.118 1025.13 661.348C997.105 665.579 1011.38 685.674 1036.77 682.501Z" fill="#E53D30"/>
<ellipse cx="1101.06" cy="632.399" rx="4.27656" ry="2.9027" fill="#F25E53"/>
<ellipse cx="1066.37" cy="665.998" rx="4.27656" ry="2.9027" fill="#C82016"/>
<ellipse cx="1041.45" cy="648.39" rx="4.27656" ry="2.9027" fill="#F25E53"/>
<ellipse cx="1041.45" cy="672.513" rx="4.27656" ry="2.9027" fill="#C82016"/>
<ellipse cx="1058.85" cy="579.588" rx="4.27656" ry="2.9027" fill="#F25E53"/>
<ellipse cx="1103.95" cy="585.394" rx="4.27656" ry="2.9027" fill="#F25E53"/>
<ellipse cx="1122.22" cy="568.873" rx="4.27656" ry="2.9027" fill="#F25E53"/>
<ellipse cx="1126.49" cy="650.689" rx="4.27656" ry="2.9027" fill="#F25E53"/>
<ellipse cx="1127.73" cy="707.182" rx="4.27656" ry="2.9027" fill="#F25E53"/>
<ellipse cx="1113.14" cy="730.392" rx="4.27656" ry="2.9027" fill="#F25E53"/>
<ellipse cx="1019" cy="633.43" rx="4.27656" ry="2.9027" fill="#C82016"/>
<ellipse cx="1026.01" cy="568.873" rx="4.27656" ry="2.9027" fill="#C82016"/>
<ellipse cx="1158.05" cy="693.107" rx="4.27656" ry="2.9027" fill="#F25E53"/>
<ellipse cx="1162.57" cy="718.092" rx="4.27656" ry="2.9027" fill="#C82016"/>
<ellipse cx="1172.06" cy="742.003" rx="4.27656" ry="2.9027" fill="#C82016"/>
<ellipse cx="1110.31" cy="695.309" rx="4.27656" ry="2.9027" fill="#C82016"/>
<ellipse cx="1095.4" cy="736.197" rx="4.27656" ry="2.9027" fill="#C82016"/>
<ellipse cx="1082.38" cy="712.286" rx="4.27656" ry="2.9027" fill="#F25E53"/>
<ellipse cx="1136.02" cy="741.137" rx="7.27723" ry="4.9394" fill="#C82016"/>
<ellipse cx="1088.48" cy="680.276" rx="3.2434" ry="2.20145" fill="#C82016"/>
<ellipse cx="1130.77" cy="696.01" rx="3.2434" ry="2.20145" fill="#F25E53"/>
<ellipse cx="1100.02" cy="725.288" rx="3.2434" ry="2.20145" fill="#F25E53"/>
<ellipse cx="1152.6" cy="709.384" rx="3.2434" ry="2.20145" fill="#F25E53"/>
<ellipse cx="1110.31" cy="674.769" rx="3.2434" ry="2.20145" fill="#F25E53"/>
<ellipse cx="1062.09" cy="682.478" rx="3.2434" ry="2.20145" fill="#F25E53"/>
<ellipse cx="1027.05" cy="677.617" rx="3.2434" ry="2.20145" fill="#F25E53"/>
<ellipse cx="1134.01" cy="678.075" rx="3.2434" ry="2.20145" fill="#F25E53"/>
<ellipse cx="1152.25" cy="627.529" rx="2.89766" ry="1.96678" fill="#C82016"/>
<ellipse cx="1201.03" cy="606.498" rx="2.89766" ry="1.96678" fill="#C82016"/>
<ellipse cx="1133.12" cy="632.399" rx="2.89766" ry="1.96678" fill="#F25E53"/>
<ellipse cx="1108.75" cy="608.624" rx="2.89766" ry="1.96678" fill="#C82016"/>
<ellipse cx="1136.02" cy="539.197" rx="2.89766" ry="1.96678" fill="#F25E53"/>
<ellipse cx="1083.76" cy="620.205" rx="2.89766" ry="1.96678" fill="#F25E53"/>
<ellipse cx="1011.83" cy="613.971" rx="2.89766" ry="1.96678" fill="#F25E53"/>
<ellipse cx="1108.23" cy="646.423" rx="2.89766" ry="1.96678" fill="#C82016"/>
<ellipse cx="1070.9" cy="649.753" rx="2.89766" ry="1.96678" fill="#F25E53"/>
<ellipse cx="1051.67" cy="608.464" rx="2.89766" ry="1.96678" fill="#F25E53"/>
<ellipse cx="1047.25" cy="551.994" rx="2.89766" ry="1.96678" fill="#C82016"/>
<ellipse cx="1054.57" cy="630.432" rx="2.89766" ry="1.96678" fill="#C82016"/>
<ellipse cx="1195.23" cy="672.802" rx="2.89766" ry="1.96678" fill="#F25E53"/>
<ellipse cx="1097.13" cy="748.043" rx="2.89766" ry="1.96678" fill="#F25E53"/>
<ellipse cx="1124.63" cy="758.712" rx="2.89766" ry="1.96678" fill="#C82016"/>
<ellipse cx="1164.58" cy="609.226" rx="2.00979" ry="1.36414" fill="#F25E53"/>
<ellipse cx="1134.01" cy="606.498" rx="2.00979" ry="1.36414" fill="#F25E53"/>
<ellipse cx="1113.14" cy="582.491" rx="2.00979" ry="1.36414" fill="#C82016"/>
<ellipse cx="1119.95" cy="552.597" rx="2.00979" ry="1.36414" fill="#F25E53"/>
<ellipse cx="1123.97" cy="548.467" rx="2.00979" ry="1.36414" fill="#C82016"/>
<ellipse cx="1126.49" cy="523.108" rx="2.00979" ry="1.36414" fill="#C82016"/>
<ellipse cx="1149.36" cy="647.787" rx="2.00979" ry="1.36414" fill="#F25E53"/>
<ellipse cx="1189.08" cy="613.972" rx="2.00979" ry="1.36414" fill="#F25E53"/>
<ellipse cx="1177.82" cy="584.458" rx="2.89766" ry="1.96678" fill="#C82016"/>
<ellipse cx="1155.15" cy="633.335" rx="2.89766" ry="1.96678" fill="#C82016"/>
<ellipse cx="1026.18" cy="623.596" rx="2.89766" ry="1.96678" fill="#F25E53"/>
<ellipse cx="1026.18" cy="596.378" rx="2.89766" ry="1.96678" fill="#C82016"/>
<ellipse cx="1037" cy="580.524" rx="2.89766" ry="1.96678" fill="#F25E53"/>
<ellipse cx="1059.19" cy="543.131" rx="2.89766" ry="1.96678" fill="#F25E53"/>
<ellipse cx="1041.45" cy="513.596" rx="2.89766" ry="1.96678" fill="#C82016"/>
<ellipse cx="1182.08" cy="684.444" rx="2.89766" ry="1.96678" fill="#F25E53"/>
<ellipse cx="1173.44" cy="636.333" rx="2.89766" ry="1.96678" fill="#C82016"/>
<ellipse cx="1158.3" cy="680.042" rx="2.89766" ry="1.96678" fill="#F25E53"/>
<ellipse cx="1202.8" cy="716.125" rx="2.89766" ry="1.96678" fill="#F25E53"/>
<ellipse cx="1154.26" cy="733.294" rx="2.89766" ry="1.96678" fill="#F25E53"/>
<path d="M386.101 575.699C370.267 572.416 360.535 619.476 357.648 643.416C353.937 686.508 303.63 691.98 297.857 670.776C292.084 649.572 270.642 678.3 260.745 658.464C250.849 638.628 279.713 655.728 283.837 634.524C287.96 613.32 250.024 635.892 248.787 616.74C247.55 597.588 276.002 621.528 279.713 600.324C283.425 579.119 260.745 589.38 255.797 557.231C250.849 525.083 285.486 591.432 283.837 584.592C282.188 577.752 297.857 538.763 297.857 575.699C297.857 612.636 308.166 617.424 303.63 571.595C299.094 525.767 279.713 536.711 270.642 510.035C261.57 483.359 290.847 525.083 288.373 501.827C285.899 478.571 267.755 505.931 252.91 475.835C238.065 445.739 277.239 496.355 279.713 475.835C282.188 455.315 260.333 465.575 270.642 443.003C280.95 420.431 278.064 468.311 297.857 486.779C317.65 505.247 299.919 463.523 311.877 460.103C323.835 456.683 309.403 505.931 321.361 510.035C333.32 514.139 324.248 475.835 321.361 451.895C318.475 427.955 296.208 421.115 311.877 418.379C327.547 415.643 282.6 373.235 303.63 380.759C324.66 388.283 301.568 354.083 311.877 354.083C322.186 354.083 320.949 386.915 328.784 421.115C336.618 455.315 337.856 427.955 345.278 435.479C352.7 443.003 331.258 451.211 337.856 486.779C344.453 522.347 340.742 469.679 352.288 486.779C363.834 503.879 331.67 516.191 337.856 544.235C344.041 572.279 349.401 553.811 352.288 529.187C355.174 504.563 379.916 496.355 361.36 443.003C342.804 389.651 386.101 427.955 371.256 410.171C356.412 392.387 349.814 366.395 371.256 386.915C392.699 407.435 363.834 341.771 381.978 339.035C400.121 336.299 367.133 455.315 395.173 414.275C423.213 373.235 384.039 496.355 402.595 475.835C417.44 459.419 413.729 482.675 410.018 496.355C433.934 512.771 373.318 542.868 395.173 548.34C417.028 553.812 405.894 579.804 386.101 575.699Z" fill="#F75D2C"/>
<ellipse cx="3.33471" cy="3.7545" rx="3.33471" ry="3.7545" transform="matrix(-1 0 0 1 339.305 507.141)" fill="#F7812C"/>
<ellipse cx="3.33471" cy="3.7545" rx="3.33471" ry="3.7545" transform="matrix(-1 0 0 1 366.355 550.599)" fill="#F7382C"/>
<ellipse cx="3.33471" cy="3.7545" rx="3.33471" ry="3.7545" transform="matrix(-1 0 0 1 385.784 527.823)" fill="#F7812C"/>
<ellipse cx="3.33471" cy="3.7545" rx="3.33471" ry="3.7545" transform="matrix(-1 0 0 1 385.784 559.025)" fill="#F7382C"/>
<ellipse cx="3.33471" cy="3.7545" rx="3.33471" ry="3.7545" transform="matrix(-1 0 0 1 372.219 438.833)" fill="#F7812C"/>
<ellipse cx="3.33471" cy="3.7545" rx="3.33471" ry="3.7545" transform="matrix(-1 0 0 1 337.045 446.342)" fill="#F7812C"/>
<ellipse cx="3.33471" cy="3.7545" rx="3.33471" ry="3.7545" transform="matrix(-1 0 0 1 322.806 424.973)" fill="#F7812C"/>
<ellipse cx="3.33471" cy="3.7545" rx="3.33471" ry="3.7545" transform="matrix(-1 0 0 1 319.471 530.799)" fill="#F7812C"/>
<ellipse cx="3.33471" cy="3.7545" rx="3.33471" ry="3.7545" transform="matrix(-1 0 0 1 318.509 603.869)" fill="#F7812C"/>
<ellipse cx="3.33471" cy="3.7545" rx="3.33471" ry="3.7545" transform="matrix(-1 0 0 1 329.883 633.89)" fill="#F7812C"/>
<ellipse cx="3.33471" cy="3.7545" rx="3.33471" ry="3.7545" transform="matrix(-1 0 0 1 403.287 508.474)" fill="#F7382C"/>
<ellipse cx="3.33471" cy="3.7545" rx="3.33471" ry="3.7545" transform="matrix(-1 0 0 1 397.82 424.973)" fill="#F7382C"/>
<ellipse cx="3.33471" cy="3.7545" rx="3.33471" ry="3.7545" transform="matrix(-1 0 0 1 294.863 585.664)" fill="#F7812C"/>
<ellipse cx="3.33471" cy="3.7545" rx="3.33471" ry="3.7545" transform="matrix(-1 0 0 1 291.336 617.98)" fill="#F7382C"/>
<ellipse cx="3.33471" cy="3.7545" rx="3.33471" ry="3.7545" transform="matrix(-1 0 0 1 283.936 648.908)" fill="#F7382C"/>
<ellipse cx="3.33471" cy="3.7545" rx="3.33471" ry="3.7545" transform="matrix(-1 0 0 1 332.086 588.511)" fill="#F7382C"/>
<ellipse cx="3.33471" cy="3.7545" rx="3.33471" ry="3.7545" transform="matrix(-1 0 0 1 343.715 641.398)" fill="#F7382C"/>
<ellipse cx="3.33471" cy="3.7545" rx="3.33471" ry="3.7545" transform="matrix(-1 0 0 1 353.868 610.471)" fill="#F7812C"/>
<ellipse cx="5.67453" cy="6.38887" rx="5.67453" ry="6.38887" transform="matrix(-1 0 0 1 314.38 645.153)" fill="#F7382C"/>
<ellipse cx="2.52909" cy="2.84747" rx="2.52909" ry="2.84747" transform="matrix(-1 0 0 1 348.303 569.975)" fill="#F7382C"/>
<ellipse cx="2.52909" cy="2.84747" rx="2.52909" ry="2.84747" transform="matrix(-1 0 0 1 315.331 590.325)" fill="#F7812C"/>
<ellipse cx="2.52909" cy="2.84747" rx="2.52909" ry="2.84747" transform="matrix(-1 0 0 1 339.305 628.195)" fill="#F7812C"/>
<ellipse cx="2.52909" cy="2.84747" rx="2.52909" ry="2.84747" transform="matrix(-1 0 0 1 298.307 607.624)" fill="#F7812C"/>
<ellipse cx="2.52909" cy="2.84747" rx="2.52909" ry="2.84747" transform="matrix(-1 0 0 1 331.28 562.851)" fill="#F7812C"/>
<ellipse cx="2.52909" cy="2.84747" rx="2.52909" ry="2.84747" transform="matrix(-1 0 0 1 368.884 572.822)" fill="#F7812C"/>
<ellipse cx="2.52909" cy="2.84747" rx="2.52909" ry="2.84747" transform="matrix(-1 0 0 1 396.209 566.535)" fill="#F7812C"/>
<ellipse cx="2.52909" cy="2.84747" rx="2.52909" ry="2.84747" transform="matrix(-1 0 0 1 312.801 567.126)" fill="#F7812C"/>
<ellipse cx="2.2595" cy="2.54393" rx="2.2595" ry="2.54393" transform="matrix(-1 0 0 1 298.307 502.052)" fill="#F7382C"/>
<ellipse cx="2.2595" cy="2.54393" rx="2.2595" ry="2.54393" transform="matrix(-1 0 0 1 260.273 474.849)" fill="#F7382C"/>
<ellipse cx="2.2595" cy="2.54393" rx="2.2595" ry="2.54393" transform="matrix(-1 0 0 1 313.225 508.351)" fill="#F7812C"/>
<ellipse cx="2.2595" cy="2.54393" rx="2.2595" ry="2.54393" transform="matrix(-1 0 0 1 332.227 477.599)" fill="#F7382C"/>
<ellipse cx="2.2595" cy="2.54393" rx="2.2595" ry="2.54393" transform="matrix(-1 0 0 1 310.965 387.799)" fill="#F7812C"/>
<ellipse cx="2.2595" cy="2.54393" rx="2.2595" ry="2.54393" transform="matrix(-1 0 0 1 351.717 492.579)" fill="#F7812C"/>
<ellipse cx="2.2595" cy="2.54393" rx="2.2595" ry="2.54393" transform="matrix(-1 0 0 1 407.806 484.516)" fill="#F7812C"/>
<ellipse cx="2.2595" cy="2.54393" rx="2.2595" ry="2.54393" transform="matrix(-1 0 0 1 332.635 526.49)" fill="#F7382C"/>
<ellipse cx="2.2595" cy="2.54393" rx="2.2595" ry="2.54393" transform="matrix(-1 0 0 1 361.741 530.799)" fill="#F7812C"/>
<ellipse cx="2.2595" cy="2.54393" rx="2.2595" ry="2.54393" transform="matrix(-1 0 0 1 376.738 477.393)" fill="#F7812C"/>
<ellipse cx="2.2595" cy="2.54393" rx="2.2595" ry="2.54393" transform="matrix(-1 0 0 1 380.189 404.352)" fill="#F7382C"/>
<ellipse cx="2.2595" cy="2.54393" rx="2.2595" ry="2.54393" transform="matrix(-1 0 0 1 374.478 505.807)" fill="#F7382C"/>
<ellipse cx="2.2595" cy="2.54393" rx="2.2595" ry="2.54393" transform="matrix(-1 0 0 1 264.793 560.611)" fill="#F7812C"/>
<ellipse cx="2.2595" cy="2.54393" rx="2.2595" ry="2.54393" transform="matrix(-1 0 0 1 341.294 657.931)" fill="#F7812C"/>
<ellipse cx="2.2595" cy="2.54393" rx="2.2595" ry="2.54393" transform="matrix(-1 0 0 1 319.85 671.73)" fill="#F7382C"/>
<ellipse cx="1.56717" cy="1.76445" rx="1.56717" ry="1.76445" transform="matrix(-1 0 0 1 288.001 479.157)" fill="#F7812C"/>
<ellipse cx="1.56717" cy="1.76445" rx="1.56717" ry="1.76445" transform="matrix(-1 0 0 1 311.839 475.629)" fill="#F7812C"/>
<ellipse cx="1.56717" cy="1.76445" rx="1.56717" ry="1.76445" transform="matrix(-1 0 0 1 328.116 444.577)" fill="#F7382C"/>
<ellipse cx="1.56717" cy="1.76445" rx="1.56717" ry="1.76445" transform="matrix(-1 0 0 1 322.806 405.91)" fill="#F7812C"/>
<ellipse cx="1.56717" cy="1.76445" rx="1.56717" ry="1.76445" transform="matrix(-1 0 0 1 319.671 400.568)" fill="#F7382C"/>
<ellipse cx="1.56717" cy="1.76445" rx="1.56717" ry="1.76445" transform="matrix(-1 0 0 1 317.704 367.768)" fill="#F7382C"/>
<ellipse cx="1.56717" cy="1.76445" rx="1.56717" ry="1.76445" transform="matrix(-1 0 0 1 299.874 529.034)" fill="#F7812C"/>
<ellipse cx="1.56717" cy="1.76445" rx="1.56717" ry="1.76445" transform="matrix(-1 0 0 1 268.898 485.295)" fill="#F7812C"/>
<ellipse cx="2.2595" cy="2.54393" rx="2.2595" ry="2.54393" transform="matrix(-1 0 0 1 278.371 446.342)" fill="#F7382C"/>
<ellipse cx="2.2595" cy="2.54393" rx="2.2595" ry="2.54393" transform="matrix(-1 0 0 1 296.048 509.562)" fill="#F7382C"/>
<ellipse cx="2.2595" cy="2.54393" rx="2.2595" ry="2.54393" transform="matrix(-1 0 0 1 396.618 496.965)" fill="#F7812C"/>
<ellipse cx="2.2595" cy="2.54393" rx="2.2595" ry="2.54393" transform="matrix(-1 0 0 1 396.618 461.76)" fill="#F7382C"/>
<ellipse cx="2.2595" cy="2.54393" rx="2.2595" ry="2.54393" transform="matrix(-1 0 0 1 388.175 441.254)" fill="#F7812C"/>
<ellipse cx="2.2595" cy="2.54393" rx="2.2595" ry="2.54393" transform="matrix(-1 0 0 1 370.874 392.887)" fill="#F7812C"/>
<ellipse cx="2.2595" cy="2.54393" rx="2.2595" ry="2.54393" transform="matrix(-1 0 0 1 384.708 354.686)" fill="#F7382C"/>
<ellipse cx="2.2595" cy="2.54393" rx="2.2595" ry="2.54393" transform="matrix(-1 0 0 1 275.05 575.669)" fill="#F7812C"/>
<ellipse cx="2.2595" cy="2.54393" rx="2.2595" ry="2.54393" transform="matrix(-1 0 0 1 281.786 513.438)" fill="#F7382C"/>
<ellipse cx="2.2595" cy="2.54393" rx="2.2595" ry="2.54393" transform="matrix(-1 0 0 1 293.596 569.975)" fill="#F7812C"/>
<ellipse cx="2.2595" cy="2.54393" rx="2.2595" ry="2.54393" transform="matrix(-1 0 0 1 258.891 616.647)" fill="#F7812C"/>
<ellipse cx="2.2595" cy="2.54393" rx="2.2595" ry="2.54393" transform="matrix(-1 0 0 1 296.74 638.854)" fill="#F7812C"/>
<path d="M431.839 807.094C460.537 815.824 459.851 792.842 455.92 780.259C474.859 762.74 457.979 747.299 447.171 741.769C457.546 712.411 432.282 705.422 418.353 705.597C384.852 677.984 369.094 724.39 366.721 741.091C364.349 757.791 370.353 757.293 357.203 772.109C344.053 786.926 365.708 813.561 377.545 802.612C389.382 791.662 395.966 796.181 431.839 807.094Z" fill="#E53D30"/>
<path d="M437.083 745.524C426.364 748.096 392.223 764.059 379.545 777.171" stroke="#F25E53" stroke-linecap="round"/>
<path d="M449.309 779.198C438.715 773.103 411.247 765.222 386.124 782.462" stroke="#F25E53" stroke-linecap="round"/>
<path d="M412.696 717.025C404.943 718.1 386.227 730.229 373.386 770.151" stroke="#F25E53" stroke-linecap="round"/>
<path d="M186.016 653.962C189.889 649.207 174.56 636.087 166.411 630.121C170.531 624.202 177.712 610.959 173.472 605.336C168.172 598.308 155.218 619.693 150.199 620.592C145.179 621.491 125.574 597.649 122.251 605.705C118.928 613.76 133.105 626.969 132.241 633.133C131.377 639.298 107.195 639.07 108.865 645.506C110.536 651.941 132.157 651.176 137.228 651.719C142.298 652.261 135.585 676.672 142.071 676.443C148.558 676.214 152.669 659.832 155.746 655.033C158.824 650.233 181.175 659.906 186.016 653.962Z" fill="#F7812C"/>
<ellipse cx="129.863" cy="611.1" rx="1.13796" ry="0.834576" fill="#F9CA84"/>
<ellipse cx="128.724" cy="614.447" rx="1.13796" ry="0.834576" fill="#F9CA84"/>
<ellipse cx="142.275" cy="620.709" rx="1.13796" ry="0.834576" fill="#F9CA84"/>
<ellipse cx="138.28" cy="627.025" rx="1.13796" ry="0.834576" fill="#F9CA84"/>
<ellipse cx="145.459" cy="627.349" rx="1.13796" ry="0.834576" fill="#F9CA84"/>
<ellipse cx="156.904" cy="623.624" rx="1.13796" ry="0.834576" fill="#F9CA84"/>
<ellipse cx="152.743" cy="652.221" rx="1.13796" ry="0.834576" fill="#F9CA84"/>
<ellipse cx="145.783" cy="656.819" rx="1.13796" ry="0.834576" fill="#F9CA84"/>
<ellipse cx="146.921" cy="662.417" rx="1.13796" ry="0.834576" fill="#F9CA84"/>
<ellipse cx="144.646" cy="670.146" rx="1.13796" ry="0.834576" fill="#F9CA84"/>
<ellipse cx="170.277" cy="639.427" rx="1.13796" ry="0.834576" fill="#F9CA84"/>
<ellipse cx="162.276" cy="648.883" rx="1.13796" ry="0.834576" fill="#F9CA84"/>
<ellipse cx="172.953" cy="651.387" rx="1.13796" ry="0.834576" fill="#F9CA84"/>
<ellipse cx="181.749" cy="649.718" rx="1.13796" ry="0.834576" fill="#F9CA84"/>
<ellipse cx="161.138" cy="634.069" rx="1.13796" ry="0.834576" fill="#F9CA84"/>
<ellipse cx="145.783" cy="641.931" rx="1.13796" ry="0.834576" fill="#F9CA84"/>
<ellipse cx="135.778" cy="645.691" rx="1.13796" ry="0.834576" fill="#F9CA84"/>
<ellipse cx="126.449" cy="642.293" rx="1.13796" ry="0.834576" fill="#F9CA84"/>
<ellipse cx="119.586" cy="645.691" rx="1.13796" ry="0.834576" fill="#F9CA84"/>
<ellipse cx="164.552" cy="627.349" rx="1.13796" ry="0.834576" fill="#F9CA84"/>
<ellipse cx="169.602" cy="617.354" rx="1.13796" ry="0.834576" fill="#F9CA84"/>
<ellipse cx="170.74" cy="608.941" rx="1.13796" ry="0.834576" fill="#F9CA84"/>
<path d="M1057.42 743.122C1053.74 737.721 1035.69 749.392 1027.12 755.903C1022.32 749.896 1010.98 738.538 1003.95 741.16C995.157 744.438 1013.06 764.167 1012.46 769.567C1011.85 774.967 981.541 787.748 988.759 793.59C995.977 799.432 1013.78 788.964 1019.81 791.72C1025.84 794.476 1018.26 819.106 1025.35 819.355C1032.43 819.604 1038.21 797.287 1040.31 792.273C1042.4 787.259 1065.3 801.533 1067.03 794.838C1068.77 788.143 1053.29 778.967 1049.32 774.365C1045.35 769.764 1062.03 749.873 1057.42 743.122Z" fill="#F7812C"/>
<ellipse cx="1048.74" cy="750.08" rx="2.23476" ry="1.35481" fill="#F9CA84"/>
<ellipse cx="1044.27" cy="754.845" rx="2.23476" ry="1.35481" fill="#F9CA84"/>
<ellipse cx="1038.83" cy="763.268" rx="2.23476" ry="1.35481" fill="#F9CA84"/>
<ellipse cx="1033.38" cy="772.463" rx="2.23476" ry="1.35481" fill="#F9CA84"/>
<ellipse cx="1043.3" cy="771.114" rx="2.23476" ry="1.35481" fill="#F9CA84"/>
<ellipse cx="1025.25" cy="771.946" rx="2.23476" ry="1.35481" fill="#F9CA84"/>
<ellipse cx="1029.72" cy="763.268" rx="2.23476" ry="1.35481" fill="#F9CA84"/>
<ellipse cx="1016.53" cy="765.978" rx="2.23476" ry="1.35481" fill="#F9CA84"/>
<ellipse cx="1017.17" cy="773.823" rx="2.23476" ry="1.35481" fill="#F9CA84"/>
<ellipse cx="1012.7" cy="779.28" rx="2.23476" ry="1.35481" fill="#F9CA84"/>
<ellipse cx="1022.1" cy="780.635" rx="2.23476" ry="1.35481" fill="#F9CA84"/>
<ellipse cx="1020.78" cy="786.054" rx="2.23476" ry="1.35481" fill="#F9CA84"/>
<ellipse cx="1030.46" cy="780.635" rx="2.23476" ry="1.35481" fill="#F9CA84"/>
<ellipse cx="1042.03" cy="780.635" rx="2.23476" ry="1.35481" fill="#F9CA84"/>
<ellipse cx="1050.48" cy="786.054" rx="2.23476" ry="1.35481" fill="#F9CA84"/>
<ellipse cx="1059.73" cy="788.764" rx="2.23476" ry="1.35481" fill="#F9CA84"/>
<ellipse cx="1037.56" cy="788.258" rx="2.23476" ry="1.35481" fill="#F9CA84"/>
<ellipse cx="1028.91" cy="795.575" rx="2.23476" ry="1.35481" fill="#F9CA84"/>
<ellipse cx="1026.68" cy="803.678" rx="2.23476" ry="1.35481" fill="#F9CA84"/>
<ellipse cx="1009.29" cy="784.699" rx="2.23476" ry="1.35481" fill="#F9CA84"/>
<ellipse cx="999.181" cy="788.258" rx="2.23476" ry="1.35481" fill="#F9CA84"/>
<ellipse cx="1021.64" cy="756.704" rx="2.23476" ry="1.35481" fill="#F9CA84"/>
<ellipse cx="1011.17" cy="753.491" rx="2.23476" ry="1.35481" fill="#F9CA84"/>
<ellipse cx="1014.3" cy="747.371" rx="2.23476" ry="1.35481" fill="#F9CA84"/>
<ellipse cx="1028.91" cy="810.078" rx="2.23476" ry="1.35481" fill="#F9CA84"/>
</g>
<defs>
<clipPath id="clip0_482_17559">
<rect width="1440" height="838" fill="white"/>
</clipPath>
</defs>
</svg>
