<svg width="1025" height="769" viewBox="0 0 1025 769" fill="none" xmlns="http://www.w3.org/2000/svg">
<g clip-path="url(#clip0_743_2)">
<rect width="1024" height="768" transform="translate(0.0751953 0.520264)" fill="#9CE6F6"/>
<circle cx="340.261" cy="111.251" r="45.9627" fill="#F9ED32"/>
<path d="M-76.1533 478.623H41.017H918.617H1142.17V768.52H-76.1533V478.623Z" fill="#F9CA84"/>
<path d="M759.034 672.095C743.807 658.129 720.967 681.55 711.45 695.007C702.679 705.663 733.339 708.099 759.034 704.826C784.73 701.553 778.068 689.552 759.034 672.095Z" fill="#93946B"/>
<path d="M330.92 566.458C315.693 552.492 292.852 575.914 283.335 589.37C274.565 600.026 305.224 602.463 330.92 599.189C356.616 595.916 349.954 583.915 330.92 566.458Z" fill="#93946B"/>
<path d="M810.207 666.516C818.953 656.568 832.072 673.252 837.539 682.837C842.576 690.428 824.966 692.164 810.207 689.832C795.447 687.5 799.274 678.951 810.207 666.516Z" fill="#93946B"/>
<path d="M928.879 570.743C937.625 560.794 950.744 577.478 956.211 587.064C961.248 594.654 943.638 596.39 928.879 594.059C914.119 591.727 917.946 583.178 928.879 570.743Z" fill="#93946B"/>
<path d="M191.39 626.973C165.387 622.283 171.798 617.449 177.673 602.815C180.601 596.045 195.719 601.518 205.575 607.369C215.431 613.219 217.393 631.662 191.39 626.973Z" fill="#93946B"/>
<path d="M111.055 553.45C95.8278 539.484 72.9871 562.905 63.4702 576.362C54.6999 587.018 85.3591 589.454 111.055 586.181C136.751 582.908 130.089 570.907 111.055 553.45Z" fill="#93946B"/>
<path d="M484.889 400.154C211.541 318.004 -10.5832 365.925 -87.4766 400.154V432.371H484.889V400.154Z" fill="#F9CA84"/>
<path d="M484.889 431.289C211.54 347.538 -10.5837 396.393 -87.4771 431.289V504.897C-87.4771 518.936 -26.7406 516.334 -10.6493 515.239C5.44188 514.144 33.0306 501.404 79.7579 511.568C126.485 521.731 177.91 502.429 198.706 504.897C234.262 509.117 484.889 504.897 484.889 504.897V431.289Z" fill="#D8B279"/>
<path d="M1150.63 439.389C864.691 357.238 632.334 405.159 551.897 439.389V471.606H1150.63V439.389Z" fill="#F9CA84"/>
<path d="M1150.63 471.838C864.691 388.086 632.333 436.941 551.897 471.838V504.683C551.897 504.683 851.131 512.945 857.764 504.683C864.397 496.421 871.504 496.895 933.099 504.683C994.693 512.471 977.162 508.74 1003.22 504.683C1029.28 500.626 1150.63 504.683 1150.63 504.683V471.838Z" fill="#D8B279"/>
<path d="M486.964 156.235L202.719 531.729H534.183H863.296L541.111 148.807L486.964 156.235Z" fill="#BAABAB"/>
<path d="M461.881 221.763L392.247 262.302L486.034 148.576L545.54 140.805L602.459 208.419L585.935 258.568L513.953 189.866L471.07 280.65L461.881 221.763Z" fill="#CC4545"/>
<path d="M440.731 130.774C442.553 124.792 461.002 120.249 470.185 118.602C481.712 116.535 480.174 120.783 478.24 122.08C472.142 124.838 459.435 131.224 457.388 134.71C454.831 139.067 438.454 138.251 440.731 130.774Z" fill="#CC4545"/>
<path d="M540.543 111.004C559.906 108.208 565.026 114.78 565.165 118.416C564.545 120.315 562.045 123.784 557 122.463C550.694 120.812 544.128 113.546 528.854 119.538C513.581 125.53 516.34 114.499 540.543 111.004Z" fill="#CC4545"/>
<path d="M525.948 92.6483C516.51 89.7353 507.866 108.159 504.725 117.735C506.984 121.588 512.994 118.3 514.043 114.652C515.091 111.004 524.951 101.758 529.189 102.599C533.427 103.44 537.746 96.2896 525.948 92.6483Z" fill="#CC4545"/>
<path d="M94.0488 622.488C95.3748 501.822 122.226 374.415 135.486 325.795C158.028 325.795 153.719 338.502 148.746 344.856C116.922 548.397 132.171 614.753 143.774 622.488C117.254 629.118 99.5738 625.25 94.0488 622.488Z" fill="#B7935E"/>
<path d="M169.256 404.611C153.003 394.859 144.064 348.539 141.626 326.598C116.923 359.103 71.1988 372.918 51.4248 375.762C66.3772 348.783 111.018 325.786 131.469 317.659C115.588 307.908 65.5299 311.429 42.4859 314.409C55.0817 302.219 157.879 293.28 98.1509 290.03C50.3684 287.43 34.6305 278.924 32.7344 274.996C56.1381 255.818 100.453 277.028 119.686 290.03C80.3722 263.063 76.755 224.107 79.8625 207.976C77.313 221.338 119.968 272.843 141.626 296.937C148.778 273.209 129.979 209.58 119.686 180.732C132.363 182.032 146.638 234.365 152.191 260.369C154.791 200.56 164.38 174.772 168.85 169.355C184.777 168.055 164.38 255.222 152.191 298.969C192.416 181.138 218.42 203.485 213.95 203.485C209.481 203.485 176.976 261.994 179.007 265.245C218.664 228.189 249.164 226.78 259.458 230.708C249.114 228.446 205.237 264.029 184.237 282.407C212.249 258.09 260.9 267.309 281.805 274.996C249.95 266.22 203.251 287.321 183.883 298.969C228.415 278.816 267.719 295.989 281.805 307.095C247.674 296.694 197.698 309.804 176.976 317.659C245.562 299.457 269.209 321.723 272.46 335.131C252.306 314.003 200.407 322.806 176.976 329.849C192.578 332.449 232.505 368.042 250.519 385.514C203.427 377.758 170.696 351.942 155.344 334.673C164.396 351.709 168.361 386.482 169.256 404.611Z" fill="#7DC21D"/>
<path d="M836.763 584.856C842.177 503.644 834.185 412.441 829.512 376.991H836.763C846.431 379.698 853.682 519.919 856.099 589.69C854.552 600.132 848.687 601.131 845.948 600.325C836.279 598.005 835.796 589.046 836.763 584.856Z" fill="#B7935E"/>
<path d="M823.564 354.53C825.014 352.113 822.114 286.853 851.118 276.702C844.673 294.91 832.265 335.968 834.199 354.53C836.133 339.384 844.544 309.09 862.72 309.09C856.919 315.858 845.897 333.937 848.218 352.113C847.961 349.279 888.341 322.625 910.094 342.929C901.715 339.061 876.835 337.514 844.351 362.265C861.431 361.62 894.431 364.198 889.791 379.667C877.706 373.544 850.538 363.522 838.55 372.416C851.602 379.184 877.222 395.136 875.289 404.805C864.009 405.61 840 401.711 834.199 379.667C829.526 395.459 818.247 428.202 810.512 432.842C809.868 420.918 811.576 393.59 823.564 379.667C808.256 392.075 773.773 416.6 758.304 415.44C763.621 411.25 779.864 398.81 802.294 382.568C783.441 385.952 744.285 390.689 738.484 382.568C741.385 375.639 750.956 362.845 766.039 367.099C768.939 367.099 801.811 372.416 810.512 372.416C793.432 366.454 755.114 355.304 738.484 358.398C747.025 352.67 772.13 344.652 804.228 358.398C789.242 350.663 755.114 335.967 738.484 339.061C747.025 334.635 772.13 330.179 804.228 347.763C790.37 339.061 761.301 319.145 755.887 309.09C767.489 311.346 793.399 319.725 804.228 335.194C796.977 322.464 782.861 294.975 784.408 286.853C792.855 295.172 807.645 312.233 812.21 325.683C809.854 304.343 808.631 273.713 817.28 271.384C817.602 294.91 819.31 344.475 823.564 354.53Z" fill="#7DC21D"/>
<path d="M200.193 708.039C193.465 709.075 211.192 730.9 220.897 741.683H308.888C323.122 741.683 341.884 693.806 336.708 693.806C331.533 693.806 306.947 714.509 308.888 708.039C310.829 701.57 308.241 659.515 301.771 659.515C295.301 659.515 275.891 699.629 278.479 693.806C281.067 687.983 264.892 652.398 261.658 654.339C258.423 656.28 253.894 702.864 252.6 699.629C251.306 696.394 228.014 680.866 224.132 680.219C221.026 679.701 220.681 698.55 220.897 708.039C216.799 707.608 206.922 707.004 200.193 708.039Z" fill="#678E30"/>
<path d="M255.807 721.705C253.383 718.877 244.363 717.666 240.155 717.413C234.5 720.039 246.719 734.159 253.535 740.891H296.451C300.322 734.495 307.71 720.846 306.296 717.413C304.529 713.122 294.179 724.987 290.644 724.482C287.11 723.977 291.149 708.073 287.615 704.034C284.081 699.994 271.963 721.705 271.459 717.413C270.954 713.122 263.128 700.499 259.089 700.752C255.05 701.004 258.836 725.239 255.807 721.705Z" fill="#96B25D"/>
<path d="M792.832 599.341C788.745 599.97 799.512 613.226 805.407 619.775H858.85C867.496 619.775 878.892 590.696 875.748 590.696C872.604 590.696 857.671 603.27 858.85 599.341C860.029 595.411 858.457 569.868 854.528 569.868C850.598 569.868 838.809 594.232 840.381 590.696C841.953 587.159 832.129 565.546 830.164 566.725C828.199 567.904 825.448 596.197 824.662 594.232C823.876 592.267 809.73 582.836 807.372 582.443C805.486 582.129 805.276 593.577 805.407 599.341C802.918 599.079 796.919 598.712 792.832 599.341Z" fill="#80AD42"/>
<path d="M826.609 607.641C825.137 605.924 819.658 605.188 817.103 605.035C813.668 606.629 821.089 615.205 825.229 619.294H851.295C853.646 615.41 858.134 607.12 857.275 605.035C856.202 602.428 849.915 609.634 847.768 609.328C845.622 609.021 848.075 599.361 845.929 596.908C843.782 594.455 836.422 607.641 836.115 605.035C835.809 602.428 831.056 594.762 828.602 594.915C826.149 595.068 828.449 609.788 826.609 607.641Z" fill="#96B25D"/>
<path d="M341.165 683.241C337.078 683.869 347.845 697.126 353.74 703.675H407.183C415.829 703.675 427.225 674.595 424.081 674.595C420.937 674.595 406.004 687.17 407.183 683.241C408.362 679.311 406.79 653.768 402.861 653.768C398.931 653.768 387.142 678.132 388.714 674.595C390.286 671.059 380.462 649.446 378.497 650.625C376.532 651.803 373.781 680.097 372.995 678.132C372.209 676.167 358.063 666.736 355.705 666.343C353.819 666.029 353.609 677.477 353.74 683.241C351.251 682.979 345.252 682.612 341.165 683.241Z" fill="#80AD42"/>
<path d="M374.943 691.541C373.471 689.824 367.992 689.088 365.437 688.934C362.002 690.529 369.423 699.105 373.563 703.194H399.629C401.98 699.31 406.468 691.02 405.609 688.934C404.536 686.328 398.249 693.534 396.102 693.227C393.956 692.921 396.409 683.261 394.263 680.808C392.116 678.355 384.756 691.541 384.449 688.934C384.143 686.328 379.39 678.661 376.936 678.815C374.483 678.968 376.783 693.687 374.943 691.541Z" fill="#96B25D"/>
</g>
<defs>
<clipPath id="clip0_743_2">
<rect width="1024" height="768" fill="white" transform="translate(0.0751953 0.520264)"/>
</clipPath>
</defs>
</svg>
