<svg width="835" height="1194" viewBox="0 0 835 1194" fill="none" xmlns="http://www.w3.org/2000/svg">
<g clip-path="url(#clip0_740_1779)">
<rect width="834" height="1194" transform="translate(0.321289)" fill="#69235C"/>
<rect x="-133.994" y="871.591" width="1095.28" height="322.409" fill="#301244"/>
<ellipse cx="11.5417" cy="977.474" rx="76.1403" ry="13.7341" fill="#9952E1"/>
<ellipse cx="303.762" cy="1046.75" rx="49.1447" ry="8.8647" fill="#55BBBB"/>
<ellipse cx="817.232" cy="904.301" rx="96.7265" ry="17.4475" fill="#5EB9EC"/>
<path d="M723.718 1068C723.718 1068.33 723.536 1068.8 722.86 1069.39C722.189 1069.99 721.141 1070.6 719.697 1071.22C716.818 1072.45 712.59 1073.58 707.289 1074.53C696.705 1076.44 682.042 1077.63 665.819 1077.63C649.595 1077.63 634.932 1076.44 624.348 1074.53C619.047 1073.58 614.819 1072.45 611.94 1071.22C610.496 1070.6 609.448 1069.99 608.777 1069.39C608.101 1068.8 607.919 1068.33 607.919 1068C607.919 1067.67 608.101 1067.21 608.777 1066.61C609.448 1066.02 610.496 1065.4 611.94 1064.79C614.819 1063.56 619.047 1062.43 624.348 1061.47C634.932 1059.57 649.595 1058.38 665.819 1058.38C682.042 1058.38 696.705 1059.57 707.289 1061.47C712.59 1062.43 716.818 1063.56 719.697 1064.79C721.141 1065.4 722.189 1066.02 722.86 1066.61C723.536 1067.21 723.718 1067.67 723.718 1068Z" stroke="#F7382C" stroke-width="2"/>
<path d="M651.603 1057.38C651.603 1057.71 651.421 1058.17 650.745 1058.77C650.074 1059.36 649.026 1059.98 647.582 1060.59C644.702 1061.82 640.474 1062.95 635.174 1063.91C624.59 1065.82 609.927 1067 593.703 1067C577.479 1067 562.817 1065.82 552.233 1063.91C546.932 1062.95 542.704 1061.82 539.825 1060.59C538.381 1059.98 537.333 1059.36 536.662 1058.77C535.986 1058.17 535.804 1057.71 535.804 1057.38C535.804 1057.05 535.986 1056.58 536.662 1055.99C537.333 1055.4 538.381 1054.78 539.825 1054.16C542.704 1052.94 546.932 1051.81 552.233 1050.85C562.817 1048.94 577.479 1047.75 593.703 1047.75C609.927 1047.75 624.59 1048.94 635.174 1050.85C640.474 1051.81 644.702 1052.94 647.582 1054.16C649.026 1054.78 650.074 1055.4 650.745 1055.99C651.421 1056.58 651.603 1057.05 651.603 1057.38Z" stroke="#55BBBB" stroke-width="2"/>
<ellipse cx="524.181" cy="1138.54" rx="57.2165" ry="10.3207" fill="#F9ED32"/>
<path d="M286.521 1042.44C286.521 1042.7 286.377 1043.1 285.774 1043.63C285.175 1044.16 284.234 1044.72 282.928 1045.27C280.323 1046.38 276.494 1047.41 271.685 1048.27C262.085 1050 248.782 1051.08 234.06 1051.08C219.338 1051.08 206.035 1050 196.435 1048.27C191.627 1047.41 187.797 1046.38 185.193 1045.27C183.887 1044.72 182.946 1044.16 182.347 1043.63C181.744 1043.1 181.6 1042.7 181.6 1042.44C181.6 1042.18 181.744 1041.78 182.347 1041.25C182.946 1040.72 183.887 1040.16 185.193 1039.6C187.797 1038.49 191.627 1037.47 196.435 1036.6C206.035 1034.87 219.338 1033.8 234.06 1033.8C248.782 1033.8 262.085 1034.87 271.685 1036.6C276.494 1037.47 280.323 1038.49 282.928 1039.6C284.234 1040.16 285.175 1040.72 285.774 1041.25C286.377 1041.78 286.521 1042.18 286.521 1042.44Z" stroke="#F7812C" stroke-width="2"/>
<path d="M96.0596 1022.59L125.165 882.494H713.708L743.065 1022.59H96.0596Z" fill="#663E84"/>
<rect x="411.482" y="906.654" width="16.1468" height="115.814" fill="#663966"/>
<path d="M532.65 912.409L548.677 908.989L557.133 1022.54L540.248 1022.54L532.65 912.409Z" fill="#663966"/>
<path d="M289.474 905.544L305.5 908.963L297.373 1022.63L280.21 1022.63L289.474 905.544Z" fill="#663966"/>
<path d="M643.115 906.086L658.652 900.149L675.205 1022.63L658.652 1022.63L643.115 906.086Z" fill="#663966"/>
<path d="M179.45 885.874L193.069 891.307L177.515 1022.58L161.493 1022.58L179.45 885.874Z" fill="#663966"/>
<ellipse cx="419.068" cy="882.494" rx="294.151" ry="61.0761" fill="#F6D6ED"/>
<path d="M687.579 877.169C687.579 907.96 567.363 932.921 419.069 932.921C270.775 932.921 150.559 907.96 150.559 877.169C150.559 846.378 270.775 829.252 419.069 829.252C567.363 829.252 687.579 846.378 687.579 877.169Z" fill="#A56ECE"/>
<path d="M219.106 894.818L84.0205 177.675L154.555 141.412L239.23 367.286L232.298 141.412L314.729 96.817L402.053 424.973L490.567 101.059L568.687 123.285L554.335 320.574L643.647 129.761L724.718 171.556L615.076 894.818H219.106Z" fill="#C6986E" fill-opacity="0.47"/>
<path fill-rule="evenodd" clip-rule="evenodd" d="M-115.909 5.29791H-138.074V-1.70209H989.259V5.29791H946.173V84.7113L1022.07 -0.521373L1027.3 4.1337L951.238 89.549H989.259V96.549H-138.074V89.549H-111.269V10.6139L-186.71 95.3365L-191.938 90.6814L-115.909 5.29791ZM939.173 89.549V11.3784L869.567 89.549H939.173ZM858.674 11.5658V89.549H789.234L858.674 11.5658ZM935.214 5.29791L865.674 83.3949V5.29791H935.214ZM784.397 5.29791H854.882L784.397 84.4554V5.29791ZM777.397 12.6262V89.549H708.902L777.397 12.6262ZM696.682 11.5532V89.549H627.231L696.682 11.5532ZM774.55 5.29791L703.682 84.8853V5.29791H774.55ZM622.796 5.29791H692.879L622.796 84.0044V5.29791ZM615.796 10.6715V89.549H545.56L615.796 10.6715ZM534.52 11.7309V89.549H465.228L534.52 11.7309ZM611.208 5.29791L541.52 83.5601V5.29791H611.208ZM461.023 5.29791H530.875L461.023 83.7451V5.29791ZM454.023 10.4131V89.549H383.557L454.023 10.4131ZM373.135 11.0365V89.549H303.225L373.135 11.0365ZM449.205 5.29791L380.135 82.8661V5.29791H449.205ZM299.248 5.29791H368.872L299.248 83.4886V5.29791ZM292.248 11.6591V89.549H222.892L292.248 11.6591ZM211.483 10.6418V89.549H141.221L211.483 10.6418ZM288.539 5.29791L218.483 83.9743V5.29791H288.539ZM137.717 5.29791H206.868L137.717 82.9575V5.29791ZM130.717 11.1289V89.549H60.8889L130.717 11.1289ZM50.6084 10.8784V89.549H-19.443L50.6084 10.8784ZM126.536 5.29791L57.6084 82.707V5.29791H126.536ZM-23.139 5.29791H46.2046L-23.139 83.1736V5.29791ZM-35.4668 5.29791H-104.269V82.566L-35.4668 5.29791ZM-101.114 89.549H-30.139V9.84076L-101.114 89.549Z" fill="black"/>
<path d="M231.467 55.7173L274.843 44.4157L338.362 112.309L209.359 145.921L231.467 55.7173Z" fill="black"/>
<rect x="230.737" y="-12.498" width="12.0503" height="85.7038" transform="rotate(-14.6037 230.737 -12.498)" fill="black"/>
<rect x="205.916" y="136.361" width="135.178" height="14.3376" rx="5" transform="rotate(-14.6037 205.916 136.361)" fill="black"/>
<path d="M80.8218 110.65L115.922 98.8323L172.194 151.128L67.8041 186.275L80.8218 110.65Z" fill="black"/>
<rect x="57.3896" y="-1.6575" width="9.95665" height="130.033" transform="rotate(-18.608 57.3896 -1.6575)" fill="black"/>
<rect x="64.416" y="178.594" width="111.692" height="11.8466" rx="5" transform="rotate(-18.608 64.416 178.594)" fill="black"/>
<path d="M529.326 35.4858L572.702 46.7845L595.021 137.04L466.016 103.437L529.326 35.4858Z" fill="black"/>
<rect x="561.973" y="-24.414" width="12.0503" height="85.7038" transform="rotate(14.6 561.973 -24.414)" fill="black"/>
<rect x="467.676" y="93.4127" width="135.178" height="14.3376" rx="5" transform="rotate(14.6 467.676 93.4127)" fill="black"/>
<path d="M687.368 74.4944L729.484 89.8361L743.187 181.795L617.928 136.168L687.368 74.4944Z" fill="black"/>
<rect x="733.375" y="-3.6167" width="12.0503" height="108.649" transform="rotate(20.0149 733.375 -3.6167)" fill="black"/>
<rect x="620.526" y="126.345" width="135.178" height="14.3376" rx="5" transform="rotate(20.0149 620.526 126.345)" fill="black"/>
<ellipse cx="777.962" cy="977.474" rx="6.585" ry="3.18973" fill="#F7812C"/>
</g>
<defs>
<clipPath id="clip0_740_1779">
<rect width="834" height="1194" fill="white" transform="translate(0.321289)"/>
</clipPath>
</defs>
</svg>
