<svg width="835" height="1194" viewBox="0 0 835 1194" fill="none" xmlns="http://www.w3.org/2000/svg">
<g clip-path="url(#clip0_740_1026)">
<rect width="834" height="1194" transform="translate(0.321289)" fill="#9CE6F6"/>
<circle cx="272.362" cy="102.233" r="64.8486" fill="#F9ED32"/>
<path d="M-190.411 672.174H-73.2408H804.359H1027.91V1194H-190.411V672.174Z" fill="#F9CA84"/>
<path d="M-190.411 672.174H-73.2408H804.359H1027.91V1194H-190.411V672.174Z" fill="#F9CA84"/>
<path d="M746.203 995.468C730.976 981.502 708.136 1004.92 698.619 1018.38C689.848 1029.04 720.508 1031.47 746.203 1028.2C771.899 1024.93 765.237 1012.92 746.203 995.468Z" fill="#93946B"/>
<path d="M193.722 957.632C178.495 943.667 155.654 967.088 146.137 980.544C137.367 991.2 168.026 993.637 193.722 990.364C219.418 987.091 212.756 975.089 193.722 957.632Z" fill="#93946B"/>
<path d="M640.299 936.146C649.045 926.197 662.164 942.881 667.631 952.467C672.668 960.058 655.058 961.793 640.299 959.462C625.539 957.13 629.366 948.581 640.299 936.146Z" fill="#93946B"/>
<path d="M565.874 967.685C574.62 957.736 587.739 974.42 593.206 984.006C598.243 991.597 580.633 993.332 565.874 991.001C551.114 988.669 554.941 980.12 565.874 967.685Z" fill="#93946B"/>
<path d="M174.141 1023.96C148.138 1019.27 154.548 1014.44 160.423 999.801C163.352 993.032 178.47 998.504 188.325 1004.35C198.181 1010.21 200.143 1028.65 174.141 1023.96Z" fill="#93946B"/>
<path d="M333.477 961.31C318.25 947.344 295.409 970.766 285.892 984.222C277.122 994.878 307.781 997.315 333.477 994.041C359.173 990.768 352.511 978.767 333.477 961.31Z" fill="#93946B"/>
<path d="M395.177 541.365C121.829 420.642 -100.295 491.064 -177.188 541.365V588.709H395.177V541.365Z" fill="#F9CA84"/>
<path d="M395.177 587.119C121.829 464.043 -100.295 535.837 -177.188 587.119V695.288C-177.188 715.919 -116.452 712.096 -100.361 710.486C-84.2695 708.877 -56.6809 690.155 -9.95351 705.091C36.7738 720.027 88.1985 691.662 108.994 695.288C144.551 701.49 395.177 695.288 395.177 695.288V587.119Z" fill="#D8B279"/>
<path d="M1060.92 599.021C774.979 478.297 542.622 548.719 462.186 599.021V646.365H1060.92V599.021Z" fill="#F9CA84"/>
<path d="M1060.92 646.707C774.979 523.63 542.622 595.425 462.186 646.707V694.973C462.186 694.973 761.419 707.114 768.052 694.973C774.686 682.832 781.793 683.528 843.387 694.973C904.981 706.418 887.45 700.935 913.51 694.973C939.569 689.011 1060.92 694.973 1060.92 694.973V646.707Z" fill="#D8B279"/>
<path d="M371.92 245.058L33.1768 835.377H428.191H820.405L436.449 233.38L371.92 245.058Z" fill="#BAABAB"/>
<path d="M342.028 348.076L259.043 411.808L370.812 233.018L441.727 220.8L509.559 327.096L489.867 405.936L404.084 297.93L352.979 440.653L342.028 348.076Z" fill="#CC4545"/>
<path d="M316.823 205.03C318.994 195.626 340.98 188.483 351.923 185.894C365.66 182.645 363.827 189.323 361.523 191.363C354.256 195.698 339.112 205.738 336.673 211.218C333.625 218.068 314.109 216.785 316.823 205.03Z" fill="#CC4545"/>
<path d="M435.772 173.949C458.847 169.554 464.948 179.887 465.114 185.602C464.376 188.588 461.396 194.041 455.384 191.965C447.868 189.369 440.043 177.946 421.842 187.366C403.64 196.786 406.928 179.444 435.772 173.949Z" fill="#CC4545"/>
<path d="M418.378 145.093C407.131 140.513 396.83 169.477 393.086 184.532C395.778 190.59 402.941 185.42 404.19 179.685C405.44 173.949 417.19 159.414 422.24 160.736C427.291 162.058 432.438 150.817 418.378 145.093Z" fill="#CC4545"/>
<path d="M50.5713 918.233C51.8973 797.567 78.7488 670.161 92.0089 621.541C114.551 621.541 110.241 634.248 105.269 640.602C73.4449 844.143 88.6939 910.498 100.296 918.233C73.7764 924.863 56.0963 920.996 50.5713 918.233Z" fill="#B7935E"/>
<path d="M125.778 700.356C109.526 690.605 100.587 644.285 98.1489 622.344C73.445 654.849 27.7212 668.664 7.94729 671.508C22.8997 644.529 67.54 621.531 87.9911 613.405C72.1104 603.653 22.0523 607.175 -0.991616 610.154C11.6041 597.965 114.402 589.026 54.6734 585.776C6.89088 583.175 -8.84703 574.67 -10.7432 570.742C12.6605 551.564 56.9758 572.774 76.208 585.776C36.8946 558.809 33.2774 519.853 36.385 503.722C33.8354 517.084 76.4907 568.588 98.1489 592.683C105.3 568.954 86.5013 505.325 76.208 476.477C88.885 477.777 103.16 530.111 108.713 556.115C111.314 496.305 120.903 470.518 125.372 465.1C141.299 463.8 120.903 550.968 108.713 594.715C148.938 476.884 174.942 499.231 170.473 499.231C166.003 499.231 133.498 557.74 135.53 560.99C175.186 523.935 205.687 522.526 215.98 526.454C205.637 524.191 161.76 559.775 140.759 578.152C168.771 553.836 217.423 563.055 238.327 570.742C206.472 561.966 159.773 583.067 140.406 594.715C184.938 574.561 224.242 591.735 238.327 602.841C204.197 592.439 154.22 605.55 133.498 613.405C202.084 595.202 225.732 617.468 228.982 630.876C208.829 609.748 156.929 618.552 133.498 625.594C149.101 628.195 189.028 663.788 207.041 681.259C159.949 673.503 127.218 647.687 111.866 630.419C120.918 647.455 124.883 682.227 125.778 700.356Z" fill="#7DC21D"/>
<path d="M766.462 898.192C774.069 784.083 762.839 655.936 756.273 606.127H766.462C780.046 609.931 790.234 806.95 793.63 904.984C791.457 919.655 783.216 921.059 779.367 919.927C765.782 916.666 765.103 904.078 766.462 898.192Z" fill="#B7935E"/>
<path d="M747.917 574.568C749.954 571.172 745.879 479.477 786.632 465.213C777.576 490.797 760.143 548.486 762.86 574.568C765.576 553.286 777.395 510.721 802.934 510.721C794.783 520.23 779.297 545.633 782.557 571.172C782.197 567.19 838.932 529.739 869.497 558.267C857.724 552.833 822.767 550.659 777.123 585.435C801.122 584.53 847.49 588.152 840.97 609.887C823.989 601.284 785.817 587.201 768.973 599.699C787.312 609.208 823.31 631.622 820.593 645.207C804.745 646.339 771.01 640.86 762.86 609.887C756.294 632.075 740.445 678.081 729.578 684.602C728.672 667.847 731.072 629.449 747.917 609.887C726.408 627.321 677.957 661.78 656.222 660.15C663.693 654.263 686.515 636.784 718.031 613.963C691.542 618.717 636.525 625.374 628.374 613.963C632.449 604.227 645.898 586.25 667.09 592.228C671.165 592.228 717.352 599.699 729.578 599.699C705.579 591.322 651.739 575.655 628.374 580.002C640.374 571.954 675.648 560.688 720.748 580.002C699.692 569.134 651.739 548.486 628.374 552.833C640.374 546.614 675.648 540.353 720.748 565.059C701.277 552.833 660.433 524.849 652.826 510.721C669.127 513.891 705.534 525.664 720.748 547.399C710.56 529.513 690.727 490.888 692.9 479.477C704.768 491.165 725.549 515.137 731.964 534.035C728.653 504.051 726.935 461.014 739.087 457.742C739.54 490.797 741.94 560.44 747.917 574.568Z" fill="#7DC21D"/>
<path d="M190.43 1039.9C183.701 1040.94 201.429 1062.77 211.133 1073.55H299.124C313.358 1073.55 332.121 1025.67 326.945 1025.67C321.769 1025.67 297.183 1046.37 299.124 1039.9C301.065 1033.43 298.477 991.38 292.007 991.38C285.537 991.38 266.128 1031.49 268.716 1025.67C271.304 1019.85 255.129 984.263 251.894 986.204C248.659 988.145 244.13 1034.73 242.836 1031.49C241.542 1028.26 218.25 1012.73 214.368 1012.08C211.263 1011.57 210.918 1030.42 211.133 1039.9C207.036 1039.47 197.158 1038.87 190.43 1039.9Z" fill="#678E30"/>
<path d="M246.043 1053.57C243.62 1050.74 234.599 1049.53 230.392 1049.28C224.737 1051.9 236.955 1066.02 243.771 1072.76H286.687C290.558 1066.36 297.946 1052.71 296.532 1049.28C294.765 1044.99 284.415 1056.85 280.881 1056.35C277.347 1055.84 281.386 1039.94 277.851 1035.9C274.317 1031.86 262.2 1053.57 261.695 1049.28C261.19 1044.99 253.364 1032.36 249.325 1032.62C245.286 1032.87 249.073 1057.1 246.043 1053.57Z" fill="#96B25D"/>
<path d="M730.104 912.653C726.017 913.282 736.784 926.538 742.678 933.087H796.122C804.767 933.087 816.163 904.008 813.019 904.008C809.876 904.008 794.943 916.583 796.122 912.653C797.301 908.723 795.729 883.18 791.799 883.18C787.869 883.18 776.081 907.544 777.652 904.008C779.224 900.471 769.4 878.858 767.435 880.037C765.47 881.216 762.72 909.509 761.934 907.544C761.148 905.579 747.001 896.148 744.643 895.755C742.757 895.441 742.547 906.889 742.678 912.653C740.19 912.391 734.19 912.024 730.104 912.653Z" fill="#80AD42"/>
<path d="M763.881 920.953C762.409 919.236 756.93 918.5 754.374 918.347C750.94 919.941 758.361 928.517 762.501 932.606H788.567C790.918 928.722 795.405 920.432 794.546 918.347C793.473 915.74 787.187 922.946 785.04 922.64C782.893 922.333 785.347 912.673 783.2 910.22C781.053 907.767 773.694 920.953 773.387 918.347C773.08 915.74 768.327 908.074 765.874 908.227C763.421 908.38 765.721 923.1 763.881 920.953Z" fill="#96B25D"/>
<path d="M405.542 1008.87C401.455 1009.5 412.222 1022.75 418.117 1029.3H471.56C480.205 1029.3 491.601 1000.22 488.458 1000.22C485.314 1000.22 470.381 1012.8 471.56 1008.87C472.739 1004.94 471.167 979.395 467.238 979.395C463.308 979.395 451.519 1003.76 453.091 1000.22C454.663 996.686 444.839 975.073 442.874 976.252C440.909 977.43 438.158 1005.72 437.372 1003.76C436.586 1001.79 422.44 992.363 420.082 991.97C418.196 991.656 417.986 1003.1 418.117 1008.87C415.628 1008.61 409.629 1008.24 405.542 1008.87Z" fill="#80AD42"/>
<path d="M439.32 1017.17C437.848 1015.45 432.369 1014.71 429.814 1014.56C426.379 1016.16 433.8 1024.73 437.94 1028.82H464.006C466.357 1024.94 470.844 1016.65 469.986 1014.56C468.913 1011.95 462.626 1019.16 460.479 1018.85C458.333 1018.55 460.786 1008.89 458.639 1006.43C456.493 1003.98 449.133 1017.17 448.826 1014.56C448.52 1011.95 443.767 1004.29 441.313 1004.44C438.86 1004.59 441.16 1019.31 439.32 1017.17Z" fill="#96B25D"/>
</g>
<defs>
<clipPath id="clip0_740_1026">
<rect width="834" height="1194" fill="white" transform="translate(0.321289)"/>
</clipPath>
</defs>
</svg>
