<svg width="320" height="568" viewBox="0 0 320 568" fill="none" xmlns="http://www.w3.org/2000/svg">
<g clip-path="url(#clip0_709_341)">
<rect width="320" height="568" fill="#69235C"/>
<rect y="386" width="320" height="182" fill="#301244"/>
<path d="M20.5859 494.2L33.1938 433.513H288.139L300.856 494.2H20.5859Z" fill="#663E84"/>
<rect x="157.222" y="443.979" width="6.99449" height="50.1683" fill="#663966"/>
<path d="M209.708 446.472L216.651 444.99L220.314 494.177L212.999 494.177L209.708 446.472Z" fill="#663966"/>
<path d="M104.368 443.498L111.311 444.979L107.79 494.219L100.356 494.219L104.368 443.498Z" fill="#663966"/>
<path d="M257.559 443.733L264.289 441.161L271.46 494.218L264.29 494.218L257.559 443.733Z" fill="#663966"/>
<path d="M56.7091 434.977L62.6085 437.331L55.8707 494.196L48.9303 494.196L56.7091 434.977Z" fill="#663966"/>
<ellipse cx="160.506" cy="433.513" rx="127.42" ry="26.457" fill="#F6D6ED"/>
<path d="M276.82 431.206C276.82 444.544 224.745 455.357 160.507 455.357C96.2686 455.357 44.1934 444.544 44.1934 431.206C44.1934 417.868 96.2686 410.45 160.507 410.45C224.745 410.45 276.82 417.868 276.82 431.206Z" fill="#A56ECE"/>
<path d="M311.004 515.968C311.004 515.968 311.003 515.969 311.003 515.971C311.003 515.969 311.004 515.968 311.004 515.968ZM310.763 515.762C310.904 515.88 310.964 515.959 310.988 516C310.964 516.041 310.904 516.12 310.763 516.238C310.484 516.468 310.012 516.736 309.31 517.018C307.914 517.577 305.835 518.102 303.193 518.55C297.924 519.442 290.608 520 282.5 520C274.392 520 267.076 519.442 261.807 518.55C259.165 518.102 257.086 517.577 255.69 517.018C254.988 516.736 254.516 516.468 254.237 516.238C254.096 516.12 254.036 516.041 254.012 516C254.036 515.959 254.096 515.88 254.237 515.762C254.516 515.532 254.988 515.264 255.69 514.982C257.086 514.423 259.165 513.898 261.807 513.45C267.076 512.558 274.392 512 282.5 512C290.608 512 297.924 512.558 303.193 513.45C305.835 513.898 307.914 514.423 309.31 514.982C310.012 515.264 310.484 515.532 310.763 515.762ZM253.996 515.968C253.996 515.968 253.997 515.969 253.997 515.971C253.997 515.969 253.996 515.968 253.996 515.968ZM253.996 516.032C253.996 516.032 253.997 516.031 253.997 516.029C253.997 516.031 253.996 516.032 253.996 516.032ZM311.003 516.029C311.003 516.031 311.004 516.032 311.004 516.032C311.004 516.032 311.003 516.031 311.003 516.029Z" stroke="#F7382C" stroke-width="2"/>
<path d="M275 510.5C275 510.502 275 510.506 274.997 510.517C274.994 510.527 274.987 510.548 274.97 510.578C274.935 510.641 274.863 510.738 274.723 510.864C274.437 511.12 273.957 511.415 273.245 511.723C271.829 512.337 269.718 512.913 267.033 513.405C261.68 514.387 254.243 515 246 515C237.757 515 230.32 514.387 224.967 513.405C222.282 512.913 220.171 512.337 218.755 511.723C218.043 511.415 217.563 511.12 217.277 510.864C217.137 510.738 217.065 510.641 217.03 510.578C217.013 510.548 217.006 510.527 217.003 510.517C217 510.506 217 510.502 217 510.5C217 510.498 217 510.494 217.003 510.483C217.006 510.473 217.013 510.452 217.03 510.422C217.065 510.359 217.137 510.262 217.277 510.136C217.563 509.88 218.043 509.585 218.755 509.277C220.171 508.663 222.282 508.087 224.967 507.595C230.32 506.613 237.757 506 246 506C254.243 506 261.68 506.613 267.033 507.595C269.718 508.087 271.829 508.663 273.245 509.277C273.957 509.585 274.437 509.88 274.723 510.136C274.863 510.262 274.935 510.359 274.97 510.422C274.987 510.452 274.994 510.473 274.997 510.483C275 510.494 275 510.498 275 510.5Z" stroke="#55BBBB" stroke-width="2"/>
<ellipse cx="213" cy="541.5" rx="29" ry="5.5" fill="#F9ED32"/>
<ellipse cx="326" cy="410.5" rx="49" ry="8.5" fill="#5EB9EC"/>
<ellipse cx="5.5" cy="410" rx="38.5" ry="7" fill="#9952E1"/>
<ellipse cx="111.5" cy="506.5" rx="24.5" ry="4.5" fill="#55BBBB"/>
<path d="M102.001 503.987C102.001 503.987 102.001 503.989 102 503.991C102.001 503.989 102.001 503.987 102.001 503.987ZM101.78 503.734C101.942 503.88 101.986 503.969 101.998 504C101.986 504.031 101.942 504.12 101.78 504.266C101.534 504.49 101.113 504.752 100.477 505.03C99.2134 505.583 97.3228 506.105 94.9098 506.552C90.1002 507.443 83.414 508 76 508C68.586 508 61.8998 507.443 57.0902 506.552C54.6772 506.105 52.7866 505.583 51.5229 505.03C50.8874 504.752 50.4663 504.49 50.2195 504.266C50.0579 504.12 50.0135 504.031 50.0024 504C50.0135 503.969 50.0579 503.88 50.2195 503.734C50.4663 503.51 50.8874 503.248 51.5229 502.97C52.7866 502.417 54.6772 501.895 57.0902 501.448C61.8998 500.557 68.586 500 76 500C83.414 500 90.1002 500.557 94.9098 501.448C97.3228 501.895 99.2134 502.417 100.477 502.97C101.113 503.248 101.534 503.51 101.78 503.734ZM49.9989 503.987C49.999 503.987 49.9993 503.989 49.9996 503.991C49.9989 503.989 49.9988 503.987 49.9989 503.987ZM49.9989 504.013C49.9988 504.013 49.9989 504.011 49.9996 504.009C49.9993 504.011 49.999 504.013 49.9989 504.013ZM102 504.009C102.001 504.011 102.001 504.013 102.001 504.013C102.001 504.013 102.001 504.011 102 504.009Z" stroke="#F7812C" stroke-width="2"/>
<path d="M69 425L14 81.5L44 71L93.0318 173.557L81 64L117.5 52L157.582 202.255L196.5 48L232.5 57.5L226 145L264 64L303 79L256.5 425H69Z" fill="#C6986E" fill-opacity="0.47"/>
<path fill-rule="evenodd" clip-rule="evenodd" d="M-76.1006 6.25165H-83.4366V-0.748352H421.355V6.25165H405.928V34.5631L434.603 2.36059L439.831 7.01566L410.361 40.1117H421.355V47.1117H404.128L403.539 47.7729L402.796 47.1117H367.557L366.968 47.7729L366.226 47.1117H331.587L330.998 47.7729L330.256 47.1117H-30.5197L-31.1085 47.7729L-31.8511 47.1117H-67.0902L-67.679 47.7729L-68.4216 47.1117H-83.4366V40.1117H-71.4349V11.5379L-103.772 47.8541L-109 43.199L-76.1006 6.25165ZM398.928 40.1117V11.8803L373.79 40.1117H398.928ZM362.883 11.9652V40.1117H337.82L362.883 11.9652ZM394.567 6.25165L369.883 33.9735V6.25165H394.567ZM333.488 6.25165H358.597L333.488 34.4504V6.25165ZM326.488 12.7329V40.1117H300.513L326.488 12.7329ZM290.346 11.9514V40.1117H264.352L290.346 11.9514ZM322.988 6.25165L297.346 33.2792V6.25165H322.988ZM261.128 6.25165H286.081L261.128 33.2841V6.25165ZM254.128 12.058V40.1117H227.513L254.128 12.058ZM217.735 12.4732V40.1117H191.513L217.735 12.4732ZM249.988 6.25165L224.735 32.8702V6.25165H249.988ZM188.69 6.25165H213.988L188.69 32.9173V6.25165ZM181.69 11.5794V40.1117H155.352L181.69 11.5794ZM145.471 11.8165V40.1117H119.352L145.471 11.8165ZM177.081 6.25165L152.471 32.913V6.25165H177.081ZM116.252 6.25165H141.081L116.252 33.1502V6.25165ZM109.252 12.0537V40.1117H83.3524L109.252 12.0537ZM73.0866 12.1021V40.1117H46.5134L73.0866 12.1021ZM105.081 6.25165L80.0866 33.3294V6.25165H105.081ZM43.9211 6.25165H68.988L43.9211 32.6735V6.25165ZM36.9211 12.2765V40.0519L36.8644 40.1117H10.5134L36.9211 12.2765ZM0.864433 40.1117L1.05053 39.9155V11.657L-24.2866 40.1117H0.864433ZM8.05053 6.25165V32.5371L32.988 6.25165H8.05053ZM-28.1059 6.25165H-3.50923L-28.1059 33.8747V6.25165ZM-60.8571 40.1117H-35.1059V11.192L-60.8571 40.1117ZM-40.0797 6.25165L-64.4349 33.6035V6.25165H-40.0797Z" fill="black"/>
<path d="M82.0331 28.8282L101.456 23.7676L129.898 54.1686L72.1337 69.2191L82.0331 28.8282Z" fill="black"/>
<rect x="81.707" y="-1.71698" width="5.39582" height="38.3761" transform="rotate(-14.6037 81.707 -1.71698)" fill="black"/>
<rect x="70.5928" y="64.9384" width="60.5295" height="6.42005" rx="3.21002" transform="rotate(-14.6037 70.5928 64.9384)" fill="black"/>
<path d="M14.5795 53.4258L30.2965 48.134L55.494 71.5507L8.75055 87.2889L14.5795 53.4258Z" fill="black"/>
<rect x="4.08691" y="3.13715" width="4.45835" height="58.2257" transform="rotate(-18.608 4.08691 3.13715)" fill="black"/>
<rect x="7.23438" y="83.8495" width="50.0131" height="5.30462" rx="2.65231" transform="rotate(-18.608 7.23438 83.8495)" fill="black"/>
<path d="M215.409 19.769L234.832 24.8283L244.826 65.2425L187.061 50.1958L215.409 19.769Z" fill="black"/>
<rect x="230.028" y="-7.05264" width="5.39582" height="38.3761" transform="rotate(14.6 230.028 -7.05264)" fill="black"/>
<rect x="187.805" y="45.7073" width="60.5295" height="6.42005" rx="3.21002" transform="rotate(14.6 187.805 45.7073)" fill="black"/>
<path d="M286.177 37.2361L305.036 44.1058L311.172 85.2827L255.084 64.8519L286.177 37.2361Z" fill="black"/>
<rect x="306.778" y="2.25989" width="5.39582" height="48.6504" transform="rotate(20.0149 306.778 2.25989)" fill="black"/>
<rect x="256.247" y="60.4537" width="60.5295" height="6.42005" rx="3.21002" transform="rotate(20.0149 256.247 60.4537)" fill="black"/>
</g>
<defs>
<clipPath id="clip0_709_341">
<rect width="320" height="568" fill="white"/>
</clipPath>
</defs>
</svg>
