<svg width="320" height="568" viewBox="0 0 320 568" fill="none" xmlns="http://www.w3.org/2000/svg">
<g clip-path="url(#clip0_708_2)">
<rect width="320" height="568" fill="#9CE6F6"/>
<path d="M-18 337H15.4684H266.145H330V568H-18V337Z" fill="#F9CA84"/>
<path d="M147.766 307.112C69.6584 272.616 6.18769 292.738 -15.7842 307.112V320.64H147.766V307.112Z" fill="#F9CA84"/>
<path d="M147.766 320.186C69.6584 285.017 6.18769 305.532 -15.7842 320.186V351.094C-15.7842 356.99 1.57096 355.897 6.16894 355.437C10.7669 354.977 18.6502 349.628 32.0023 353.896C45.3544 358.163 60.0488 350.058 65.9911 351.094C76.1512 352.866 147.766 351.094 147.766 351.094V320.186Z" fill="#D8B279"/>
<path d="M338 323.587C256.293 289.091 189.898 309.213 166.914 323.587V337.115H338V323.587Z" fill="#F9CA84"/>
<path d="M338 337.213C256.293 302.044 189.898 322.559 166.914 337.213V351.005C166.914 351.005 252.418 354.474 254.314 351.005C256.209 347.535 258.24 347.734 275.84 351.005C293.441 354.275 288.431 352.708 295.878 351.005C303.324 349.301 338 351.005 338 351.005V337.213Z" fill="#D8B279"/>
<path d="M296.093 412.915C299.183 366.563 294.621 314.508 291.954 294.275H296.093C301.611 295.82 305.749 375.852 307.129 415.674C306.246 421.633 302.898 422.204 301.335 421.744C295.817 420.419 295.541 415.306 296.093 412.915Z" fill="#B7935E"/>
<path d="M288.559 281.456C289.387 280.076 287.732 242.829 304.286 237.035C300.607 247.427 293.526 270.861 294.629 281.456C295.733 272.811 300.534 255.521 310.908 255.521C307.597 259.383 301.306 269.702 302.631 280.076C302.484 278.459 325.531 263.246 337.947 274.834C333.164 272.627 318.964 271.744 300.423 285.87C310.172 285.502 329.007 286.974 326.358 295.803C319.461 292.308 303.955 286.588 297.112 291.664C304.562 295.527 319.185 304.632 318.081 310.15C311.644 310.61 297.94 308.384 294.629 295.803C291.962 304.816 285.524 323.504 281.11 326.153C280.742 319.347 281.717 303.749 288.559 295.803C279.822 302.884 260.141 316.882 251.312 316.22C254.347 313.829 263.618 306.729 276.42 297.458C265.659 299.39 243.311 302.094 240 297.458C241.655 293.504 247.118 286.201 255.727 288.629C257.382 288.629 276.144 291.664 281.11 291.664C271.361 288.261 249.491 281.897 240 283.663C244.874 280.394 259.203 275.818 277.523 283.663C268.97 279.249 249.491 270.861 240 272.627C244.874 270.101 259.203 267.557 277.523 277.593C269.614 272.627 253.023 261.259 249.933 255.521C256.554 256.808 271.343 261.591 277.523 270.42C273.385 263.154 265.328 247.464 266.211 242.829C271.032 247.577 279.473 257.314 282.079 264.991C280.734 252.811 280.036 235.329 284.973 234C285.157 247.427 286.131 275.717 288.559 281.456Z" fill="#7DC21D"/>
<path d="M15.9062 429.073C16.4449 380.057 27.3522 328.303 32.7386 308.553C41.8954 308.553 40.1448 313.715 38.1249 316.296C25.1977 398.977 31.392 425.931 36.1051 429.073C25.3324 431.766 18.1506 430.195 15.9062 429.073Z" fill="#B7935E"/>
<path d="M46.4563 340.569C39.8543 336.608 36.2233 317.792 35.233 308.88C25.198 322.084 6.6246 327.695 -1.40776 328.851C4.66603 317.891 22.7994 308.55 31.1068 305.249C24.6559 301.287 4.32185 302.718 -5.03883 303.928C0.0776768 298.977 41.835 295.346 17.5728 294.025C-1.83688 292.969 -8.22977 289.514 -9 287.919C0.506796 280.128 18.5081 288.744 26.3204 294.025C10.3509 283.071 8.88158 267.247 10.1439 260.694C9.10825 266.122 26.4352 287.044 35.233 296.831C38.1379 287.192 30.5016 261.346 26.3204 249.627C31.4699 250.155 37.2686 271.414 39.5243 281.977C40.5806 257.682 44.4757 247.206 46.2913 245.006C52.7612 244.478 44.4757 279.886 39.5243 297.656C55.8641 249.792 66.4272 258.87 64.6117 258.87C62.7961 258.87 49.5922 282.637 50.4175 283.957C66.5262 268.905 78.9159 268.333 83.0971 269.928C78.8956 269.009 61.0724 283.463 52.5418 290.929C63.9205 281.051 83.6831 284.796 92.1748 287.919C79.235 284.353 60.2654 292.925 52.3981 297.656C70.4874 289.47 86.4531 296.446 92.1748 300.957C78.3107 296.732 58.0097 302.058 49.5922 305.249C77.4524 297.854 87.0583 306.899 88.3787 312.346C80.1923 303.763 59.11 307.339 49.5922 310.2C55.9301 311.256 72.1489 325.715 79.466 332.812C60.3369 329.661 47.0413 319.174 40.8051 312.16C44.482 319.08 46.0926 333.205 46.4563 340.569Z" fill="#7DC21D"/>
<path d="M248.834 485.231C252.296 481.228 257.488 487.941 259.652 491.798C261.646 494.852 254.676 495.55 248.834 494.612C242.993 493.674 244.507 490.234 248.834 485.231Z" fill="#93946B"/>
<path d="M39.0833 431.896C28.5207 429.991 31.1248 428.027 33.5111 422.083C34.7007 419.333 40.8418 421.556 44.8453 423.933C48.8488 426.309 49.6459 433.801 39.0833 431.896Z" fill="#93946B"/>
<path d="M145.098 453.79C138.867 447.968 129.521 457.732 125.626 463.342C122.038 467.785 134.584 468.8 145.098 467.436C155.613 466.071 152.887 461.068 145.098 453.79Z" fill="#93946B"/>
<path d="M78.6042 500.744C75.8709 501.164 83.072 510.03 87.0142 514.41H122.757C128.539 514.41 136.16 494.962 134.058 494.962C131.955 494.962 121.968 503.372 122.757 500.744C123.545 498.115 122.494 481.033 119.866 481.033C117.238 481.033 109.353 497.327 110.405 494.962C111.456 492.596 104.886 478.142 103.571 478.93C102.257 479.718 100.418 498.641 99.8921 497.327C99.3665 496.013 89.9052 489.705 88.3283 489.443C87.0668 489.232 86.9266 496.889 87.0142 500.744C85.3497 500.568 81.3374 500.323 78.6042 500.744Z" fill="#678E30"/>
<path d="M101.195 506.295C100.21 505.146 96.546 504.654 94.8369 504.551C92.5399 505.618 97.5031 511.354 100.272 514.088H117.705C119.277 511.49 122.278 505.946 121.704 504.551C120.986 502.808 116.782 507.628 115.346 507.423C113.91 507.217 115.551 500.757 114.116 499.116C112.68 497.476 107.758 506.295 107.553 504.551C107.348 502.808 104.169 497.681 102.528 497.783C100.887 497.886 102.425 507.73 101.195 506.295Z" fill="#96B25D"/>
<path d="M273.367 419.268C271.707 419.523 276.081 424.908 278.475 427.568H300.184C303.696 427.568 308.325 415.756 307.048 415.756C305.771 415.756 299.705 420.864 300.184 419.268C300.663 417.672 300.025 407.296 298.428 407.296C296.832 407.296 292.043 417.193 292.682 415.756C293.32 414.319 289.33 405.54 288.531 406.019C287.733 406.498 286.616 417.991 286.297 417.193C285.977 416.395 280.231 412.564 279.273 412.404C278.507 412.276 278.422 416.927 278.475 419.268C277.464 419.161 275.027 419.012 273.367 419.268Z" fill="#80AD42"/>
<path d="M287.088 422.639C286.49 421.942 284.264 421.643 283.226 421.581C281.831 422.228 284.846 425.712 286.527 427.373H297.116C298.071 425.795 299.894 422.428 299.545 421.581C299.109 420.522 296.555 423.449 295.683 423.325C294.811 423.2 295.808 419.276 294.936 418.28C294.064 417.283 291.074 422.639 290.95 421.581C290.825 420.522 288.894 417.408 287.898 417.47C286.901 417.532 287.835 423.511 287.088 422.639Z" fill="#96B25D"/>
<path d="M188.367 465.268C186.707 465.523 191.081 470.908 193.475 473.568H215.184C218.696 473.568 223.325 461.756 222.048 461.756C220.771 461.756 214.705 466.864 215.184 465.268C215.663 463.672 215.025 453.296 213.428 453.296C211.832 453.296 207.043 463.193 207.682 461.756C208.32 460.319 204.33 451.54 203.531 452.019C202.733 452.498 201.616 463.991 201.297 463.193C200.977 462.395 195.231 458.564 194.273 458.404C193.507 458.276 193.422 462.927 193.475 465.268C192.464 465.161 190.027 465.012 188.367 465.268Z" fill="#80AD42"/>
<path d="M202.088 468.639C201.49 467.942 199.264 467.643 198.226 467.581C196.831 468.228 199.846 471.712 201.527 473.373H212.116C213.071 471.795 214.894 468.428 214.545 467.581C214.109 466.522 211.555 469.449 210.683 469.325C209.811 469.2 210.808 465.276 209.936 464.28C209.064 463.283 206.074 468.639 205.95 467.581C205.825 466.522 203.894 463.408 202.898 463.47C201.901 463.532 202.835 469.511 202.088 468.639Z" fill="#96B25D"/>
<path d="M149.005 189.954L41 410.322H166.947H292L169.579 185.594L149.005 189.954Z" fill="#BAABAB"/>
<path d="M139.475 228.411L113.016 252.202L148.652 185.459L171.263 180.898L192.89 220.579L186.612 250.01L159.26 209.691L142.966 262.97L139.475 228.411Z" fill="#CC4545"/>
<path d="M131.437 175.011C132.129 171.501 139.139 168.834 142.629 167.868C147.009 166.655 146.424 169.148 145.689 169.909C143.372 171.527 138.544 175.275 137.766 177.321C136.794 179.879 130.572 179.399 131.437 175.011Z" fill="#CC4545"/>
<path d="M169.364 163.409C176.721 161.768 178.666 165.625 178.719 167.759C178.484 168.873 177.534 170.909 175.617 170.134C173.221 169.165 170.726 164.9 164.922 168.417C159.119 171.934 160.167 165.46 169.364 163.409Z" fill="#CC4545"/>
<path d="M163.818 152.636C160.231 150.927 156.947 161.739 155.753 167.359C156.612 169.621 158.896 167.691 159.294 165.55C159.692 163.409 163.439 157.983 165.049 158.476C166.659 158.97 168.3 154.773 163.818 152.636Z" fill="#CC4545"/>
<circle cx="92" cy="52" r="29" fill="#F9ED32"/>
</g>
<defs>
<clipPath id="clip0_708_2">
<rect width="320" height="568" fill="white"/>
</clipPath>
</defs>
</svg>
