<svg width="390" height="844" viewBox="0 0 390 844" fill="none" xmlns="http://www.w3.org/2000/svg">
<g clip-path="url(#clip0_739_650)">
<rect width="390" height="844" fill="#9CE6F6"/>
<path d="M176.715 680.841C115.856 692.936 79.2184 671.868 68.5069 659.822C45.5536 665.722 -3.50072 669.852 -16.0922 639.172C-28.6837 608.492 24.1305 600.331 52.1116 600.085C47.0837 590.989 49.7507 571.617 100.641 566.897C151.532 562.177 172.562 577.222 176.715 585.335C255.937 545.805 309.844 578.697 326.895 600.085C332.797 596.029 446.907 599.347 423.954 645.441C405.591 682.316 340.667 679.489 310.499 673.466C313.56 675.924 307.089 684.159 256.723 697.434C206.357 710.709 182.399 691.903 176.715 680.841Z" fill="white"/>
<path d="M243.796 678.246C232.799 680.957 234.632 689.545 236.923 693.499C230.319 694.064 217.758 697.85 220.346 708.471C222.934 719.092 242.988 721.747 252.691 721.747C262.718 742.989 289.483 735.871 301.613 729.656C334.928 743.215 349.726 724.007 352.961 712.708C363.203 712.802 382.88 709.431 379.645 695.194C376.411 680.958 355.656 681.353 345.683 683.33C326.923 664.348 313.338 669.583 308.89 674.574C306.465 672.785 298.944 668.981 288.271 668.077C277.597 667.173 271.963 674.479 270.481 678.246C266.168 677.116 254.793 675.534 243.796 678.246Z" fill="#B9F7FF"/>
</g>
<defs>
<clipPath id="clip0_739_650">
<rect width="390" height="844" fill="white"/>
</clipPath>
</defs>
</svg>
