<svg width="1025" height="768" viewBox="0 0 1025 768" fill="none" xmlns="http://www.w3.org/2000/svg">
<rect width="1024" height="768" transform="translate(0.0751953)" fill="#9CE6F6"/>
<path d="M504.113 693.847C397.08 715.158 332.644 678.038 313.806 656.814C273.438 667.21 187.165 674.486 165.02 620.432C142.875 566.377 235.761 551.997 284.971 551.564C276.129 535.538 280.819 501.407 370.321 493.091C459.823 484.775 496.808 511.282 504.113 525.576C643.441 455.928 738.248 513.881 768.235 551.564C778.616 544.417 979.303 550.264 938.935 631.476C906.64 696.446 792.456 691.465 739.401 680.853C744.783 685.185 733.403 699.695 644.824 723.084C556.245 746.473 514.109 713.338 504.113 693.847Z" fill="white"/>
<path d="M832.879 616.982C820.808 621.242 822.82 634.733 825.335 640.946C818.086 641.834 804.299 647.781 807.14 664.467C809.98 681.153 831.992 685.325 842.643 685.325C853.649 718.698 883.027 707.515 896.341 697.751C932.909 719.053 949.152 688.875 952.702 671.124C963.945 671.272 985.543 665.976 981.992 643.609C978.442 621.242 955.661 621.863 944.714 624.97C924.122 595.147 909.211 603.372 904.329 611.212C901.667 608.402 893.412 602.425 881.696 601.005C869.98 599.585 863.797 611.064 862.169 616.982C857.436 615.206 844.95 612.721 832.879 616.982Z" fill="#B9F7FF"/>
<path d="M55.5741 588.853C36.168 593.569 39.4025 608.505 43.4456 615.384C31.7923 616.366 9.62742 622.95 14.1936 641.424C18.7597 659.897 54.1472 664.516 71.2702 664.516C88.9639 701.463 136.195 689.082 157.599 678.273C216.388 701.856 242.5 668.446 248.208 648.794C266.282 648.957 301.004 643.094 295.296 618.332C289.588 593.569 252.964 594.257 235.366 597.696C202.261 564.68 178.289 573.786 170.441 582.466C166.16 579.354 152.89 572.737 134.054 571.165C115.219 569.593 105.278 582.302 102.662 588.853C95.0521 586.887 74.9803 584.136 55.5741 588.853Z" fill="#B9F7FF"/>
</svg>
