<svg width="835" height="1194" viewBox="0 0 835 1194" fill="none" xmlns="http://www.w3.org/2000/svg">
<rect width="834" height="1194" transform="translate(0.321289)" fill="#9CE6F6"/>
<path d="M379.457 974.827C272.424 996.137 207.989 959.018 189.15 937.794C148.782 948.189 62.5098 955.466 40.365 901.411C18.2202 847.357 111.105 832.977 160.316 832.544C151.473 816.518 156.164 782.387 245.666 774.071C335.168 765.755 372.153 792.262 379.457 806.556C518.785 736.908 613.593 794.861 643.58 832.544C653.961 825.397 854.648 831.244 814.28 912.456C781.985 977.426 667.801 972.445 614.746 961.833C620.128 966.165 608.748 980.674 520.169 1004.06C431.59 1027.45 389.453 994.318 379.457 974.827Z" fill="white"/>
<path d="M555.376 938.896C535.97 943.612 539.204 958.548 543.247 965.427C531.594 966.41 509.429 972.993 513.995 991.467C518.561 1009.94 553.949 1014.56 571.072 1014.56C588.766 1051.51 635.997 1039.12 657.4 1028.32C716.189 1051.9 742.302 1018.49 748.01 998.837C766.084 999 800.805 993.137 795.098 968.375C789.39 943.612 752.766 944.3 735.167 947.739C702.063 914.723 678.091 923.829 670.243 932.509C665.962 929.397 652.692 922.78 633.856 921.208C615.021 919.636 605.08 932.345 602.464 938.896C594.854 936.93 574.782 934.179 555.376 938.896Z" fill="#B9F7FF"/>
</svg>
