<svg width="1440" height="838" viewBox="0 0 1440 838" fill="none" xmlns="http://www.w3.org/2000/svg">
<g clip-path="url(#clip0_578_2)">
<rect width="1440" height="838" fill="#9CE6F6"/>
<path d="M682.049 762.858C540.145 791.111 454.717 741.898 429.741 713.76C376.221 727.542 261.841 737.189 232.482 665.524C203.122 593.858 326.269 574.793 391.512 574.219C379.788 552.972 386.007 507.722 504.668 496.696C623.329 485.671 672.364 520.814 682.049 539.764C866.769 447.426 992.464 524.26 1032.22 574.219C1045.98 564.744 1312.05 572.496 1258.53 680.167C1215.72 766.304 1064.33 759.7 993.993 745.631C1001.13 751.373 986.041 770.61 868.603 801.619C751.165 832.628 695.301 788.699 682.049 762.858Z" fill="white"/>
<path d="M1117.93 660.95C1101.92 666.598 1104.59 684.485 1107.92 692.722C1098.31 693.899 1080.03 701.783 1083.8 723.906C1087.57 746.029 1116.75 751.559 1130.87 751.559C1145.46 795.805 1184.41 780.978 1202.06 768.034C1250.55 796.276 1272.08 756.266 1276.79 732.731C1291.69 732.928 1320.33 725.906 1315.62 696.252C1310.91 666.598 1280.71 667.422 1266.2 671.541C1238.9 632.002 1219.13 642.906 1212.65 653.301C1209.12 649.575 1198.18 641.651 1182.65 639.768C1167.11 637.886 1158.92 653.105 1156.76 660.95C1150.48 658.596 1133.93 655.301 1117.93 660.95Z" fill="#B9F7FF"/>
<path d="M87.3787 623.657C61.6501 629.91 65.9384 649.712 71.2987 658.832C55.8489 660.135 26.4627 668.863 32.5165 693.355C38.5702 717.848 85.4868 723.971 108.188 723.971C131.647 772.955 194.265 756.54 222.642 742.21C300.584 773.476 335.204 729.182 342.771 703.126C366.734 703.343 412.768 695.57 405.201 662.74C397.634 629.91 349.077 630.822 325.745 635.382C281.855 591.609 250.073 603.681 239.668 615.189C233.993 611.063 216.399 602.291 191.428 600.207C166.456 598.123 153.276 614.972 149.808 623.657C139.718 621.051 113.107 617.404 87.3787 623.657Z" fill="#B9F7FF"/>
</g>
<defs>
<clipPath id="clip0_578_2">
<rect width="1440" height="838" fill="white"/>
</clipPath>
</defs>
</svg>
