<svg width="1440" height="838" viewBox="0 0 1440 838" fill="none" xmlns="http://www.w3.org/2000/svg">
<g clip-path="url(#clip0_508_1388)">
<rect width="1440" height="838" fill="#9CE6F6"/>
<circle cx="492.183" cy="117.165" r="54.3258" fill="#F9ED32"/>
<path d="M0 584.601H138.49H1175.77H1440V927.246H0V584.601Z" fill="#F9CA84"/>
<path d="M987.154 813.276C969.156 796.77 942.159 824.452 930.911 840.357C920.545 852.952 956.783 855.832 987.154 851.963C1017.53 848.095 1009.65 833.909 987.154 813.276Z" fill="#93946B"/>
<path d="M481.142 688.418C463.144 671.911 436.147 699.594 424.899 715.499C414.533 728.093 450.771 730.974 481.142 727.105C511.513 723.236 503.639 709.051 481.142 688.418Z" fill="#93946B"/>
<path d="M1047.64 806.682C1057.97 794.924 1073.48 814.643 1079.94 825.973C1085.9 834.945 1065.08 836.996 1047.64 834.241C1030.19 831.485 1034.71 821.38 1047.64 806.682Z" fill="#93946B"/>
<path d="M1162.64 692.898C1172.98 681.14 1188.49 700.86 1194.95 712.189C1200.9 721.161 1180.09 723.213 1162.64 720.457C1145.2 717.701 1149.72 707.596 1162.64 692.898Z" fill="#93946B"/>
<path d="M316.223 759.943C285.489 754.4 293.066 748.687 300.01 731.39C303.471 723.389 321.34 729.857 332.989 736.772C344.638 743.687 346.957 765.486 316.223 759.943Z" fill="#93946B"/>
<path d="M40.4233 662.861C9.68916 657.318 17.2662 651.605 24.2097 634.308C27.671 626.306 45.54 632.775 57.189 639.69C68.8379 646.605 71.1574 668.404 40.4233 662.861Z" fill="#93946B"/>
<path d="M221.272 673.043C203.274 656.537 176.278 684.22 165.029 700.124C154.663 712.719 190.901 715.599 221.272 711.731C251.643 707.862 243.769 693.676 221.272 673.043Z" fill="#93946B"/>
<path d="M211.178 808.77C203.312 809.981 224.035 835.494 235.38 848.1H338.241C354.88 848.1 376.814 792.131 370.763 792.131C364.713 792.131 335.972 816.334 338.241 808.77C340.51 801.207 337.485 752.046 329.922 752.046C322.358 752.046 299.668 798.938 302.694 792.131C305.719 785.324 286.811 743.726 283.029 745.995C279.247 748.264 273.953 802.72 272.44 798.938C270.928 795.156 243.7 777.005 239.162 776.248C235.532 775.643 235.128 797.678 235.38 808.77C230.59 808.266 219.044 807.56 211.178 808.77Z" fill="#678E30"/>
<path d="M276.189 824.745C273.356 821.44 262.811 820.023 257.893 819.728C251.282 822.798 265.565 839.304 273.533 847.173H323.702C328.227 839.697 336.864 823.742 335.211 819.728C333.145 814.712 321.046 828.582 316.914 827.991C312.783 827.401 317.504 808.809 313.373 804.088C309.241 799.366 295.076 824.745 294.486 819.728C293.896 814.712 284.747 799.956 280.026 800.251C275.304 800.546 279.731 828.877 276.189 824.745Z" fill="#96B25D"/>
<path d="M663.127 491.855C340.041 394.756 77.5006 451.397 -13.3838 491.855V529.934H663.127V491.855Z" fill="#F9CA84"/>
<path d="M663.127 528.655C340.041 429.664 77.5006 487.409 -13.3838 528.655V615.656C-13.3838 632.249 58.404 629.174 77.4231 627.88C96.4422 626.586 129.051 611.527 184.28 623.54C239.51 635.553 300.292 612.739 324.871 615.656C366.898 620.644 663.127 615.656 663.127 615.656V528.655Z" fill="#D8B279"/>
<path d="M1450.01 538.228C1112.04 441.129 837.399 497.77 742.328 538.228V576.307H1450.01V538.228Z" fill="#F9CA84"/>
<path d="M1450.01 576.582C1112.04 477.591 837.399 535.336 742.328 576.582V615.403C742.328 615.403 1096.01 625.168 1103.85 615.403C1111.69 605.638 1120.09 606.198 1192.89 615.403C1265.69 624.608 1244.97 620.198 1275.77 615.403C1306.57 610.608 1450.01 615.403 1450.01 615.403V576.582Z" fill="#D8B279"/>
<path d="M674.922 146.793L315.395 621.736H734.646H1150.92L743.41 137.397L674.922 146.793Z" fill="#BAABAB"/>
<path d="M643.196 229.676L555.119 280.952L673.746 137.106L749.012 127.276L821.006 212.797L800.106 276.228L709.059 189.331L654.819 304.159L643.196 229.676Z" fill="#CC4545"/>
<path d="M616.444 114.589C618.749 107.023 642.083 101.276 653.699 99.1929C668.278 96.5785 666.333 101.951 663.887 103.592C656.174 107.08 640.101 115.158 637.513 119.567C634.278 125.079 613.564 124.046 616.444 114.589Z" fill="#CC4545"/>
<path d="M742.692 89.5823C767.183 86.0458 773.658 94.3591 773.834 98.9578C773.05 101.36 769.888 105.747 763.507 104.076C755.53 101.988 747.225 92.7976 727.906 100.377C708.588 107.956 712.078 94.0028 742.692 89.5823Z" fill="#CC4545"/>
<path d="M724.231 66.3655C712.293 62.681 701.361 85.9844 697.387 98.0967C700.244 102.97 707.847 98.8109 709.173 94.1966C710.498 89.5823 722.969 77.8882 728.33 78.9517C733.691 80.0153 739.153 70.9712 724.231 66.3655Z" fill="#CC4545"/>
<path d="M967.603 749.148C962.825 749.883 975.412 765.38 982.303 773.036H1044.78C1054.88 773.036 1068.21 739.042 1064.53 739.042C1060.86 739.042 1043.4 753.742 1044.78 749.148C1046.16 744.555 1044.32 714.695 1039.72 714.695C1035.13 714.695 1021.35 743.176 1023.19 739.042C1025.02 734.908 1013.54 709.642 1011.24 711.02C1008.95 712.398 1005.73 745.473 1004.81 743.176C1003.89 740.88 987.356 729.855 984.6 729.395C982.395 729.028 982.15 742.411 982.303 749.148C979.394 748.842 972.38 748.413 967.603 749.148Z" fill="#80AD42"/>
<path d="M1007.09 758.851C1005.37 756.844 998.964 755.983 995.976 755.804C991.961 757.668 1000.64 767.694 1005.48 772.473H1035.95C1038.7 767.933 1043.94 758.242 1042.94 755.804C1041.68 752.757 1034.33 761.181 1031.82 760.823C1029.32 760.464 1032.18 749.172 1029.67 746.304C1027.16 743.436 1018.56 758.851 1018.2 755.804C1017.84 752.757 1012.29 743.795 1009.42 743.974C1006.55 744.153 1009.24 761.36 1007.09 758.851Z" fill="#96B25D"/>
<path d="M387.383 801.344C382.606 802.079 395.193 817.575 402.083 825.232H464.558C474.665 825.232 487.986 791.238 484.311 791.238C480.636 791.238 463.18 805.938 464.558 801.344C465.936 796.75 464.099 766.891 459.505 766.891C454.911 766.891 441.13 795.372 442.968 791.238C444.805 787.103 433.321 761.838 431.024 763.216C428.727 764.594 425.511 797.669 424.593 795.372C423.674 793.075 407.136 782.05 404.38 781.591C402.175 781.223 401.93 794.607 402.083 801.344C399.174 801.038 392.161 800.609 387.383 801.344Z" fill="#80AD42"/>
<path d="M426.869 811.047C425.149 809.039 418.744 808.179 415.757 808C411.742 809.864 420.417 819.889 425.256 824.669H455.727C458.476 820.128 463.721 810.437 462.718 808C461.463 804.953 454.114 813.377 451.605 813.019C449.095 812.66 451.963 801.368 449.454 798.5C446.945 795.632 438.341 811.047 437.982 808C437.624 804.953 432.067 795.991 429.2 796.17C426.332 796.349 429.02 813.556 426.869 811.047Z" fill="#96B25D"/>
<path d="M106.988 763.717C108.766 601.918 144.771 431.08 162.551 365.886C192.777 365.886 186.999 382.926 180.331 391.445C137.659 664.371 158.106 753.345 173.663 763.717C138.103 772.607 114.396 767.421 106.988 763.717Z" fill="#B7935E"/>
<path d="M207.831 471.569C186.038 458.493 174.052 396.384 170.784 366.963C137.659 410.549 76.3482 429.073 49.8336 432.886C69.883 396.71 129.741 365.874 157.163 354.977C135.869 341.902 68.7469 346.623 37.8476 350.619C54.737 334.274 192.576 322.288 112.488 317.929C48.4171 314.443 27.3144 303.038 24.7719 297.771C56.1535 272.056 115.575 300.495 141.363 317.929C88.6487 281.77 83.7984 229.534 87.9653 207.905C84.5466 225.821 141.742 294.883 170.784 327.191C180.372 295.374 155.165 210.055 141.363 171.373C158.362 173.116 177.503 243.289 184.949 278.158C188.436 197.96 201.294 163.382 207.287 156.118C228.643 154.374 201.294 271.257 184.949 329.916C238.886 171.918 273.755 201.883 267.762 201.883C261.769 201.883 218.183 280.337 220.907 284.695C274.081 235.008 314.979 233.119 328.781 238.386C314.912 235.352 256.079 283.065 227.919 307.707C265.48 275.102 330.716 287.463 358.746 297.771C316.033 286.003 253.415 314.297 227.445 329.916C287.157 302.893 339.859 325.92 358.746 340.812C312.982 326.865 245.969 344.444 218.183 354.977C310.149 330.569 341.857 360.426 346.216 378.405C319.193 350.074 249.601 361.878 218.183 371.322C239.104 374.809 292.642 422.535 316.795 445.962C253.651 435.562 209.762 400.946 189.177 377.79C201.314 400.634 206.631 447.26 207.831 471.569Z" fill="#7DC21D"/>
<path d="M1195.97 744.3C1204.87 610.72 1191.73 460.708 1184.04 402.399H1195.97C1211.87 406.852 1223.8 637.489 1227.77 752.251C1225.23 769.426 1215.58 771.069 1211.08 769.744C1195.17 765.927 1194.38 751.191 1195.97 744.3Z" fill="#B7935E"/>
<path d="M1174.26 365.455C1176.64 361.479 1171.87 254.138 1219.58 237.441C1208.98 267.39 1188.57 334.922 1191.75 365.455C1194.93 340.541 1208.77 290.713 1238.66 290.713C1229.12 301.845 1210.99 331.583 1214.81 361.479C1214.39 356.817 1280.8 312.977 1316.58 346.372C1302.8 340.011 1261.88 337.466 1208.45 378.176C1236.54 377.116 1290.82 381.357 1283.19 406.801C1263.31 396.729 1218.63 380.244 1198.91 394.874C1220.37 406.005 1262.52 432.244 1259.34 448.147C1240.78 449.472 1201.29 443.058 1191.75 406.801C1184.06 432.774 1165.51 486.63 1152.79 494.264C1151.73 474.651 1154.54 429.7 1174.26 406.801C1149.08 427.209 1092.36 467.548 1066.92 465.639C1075.66 458.748 1102.38 438.287 1139.27 411.571C1108.26 417.137 1043.86 424.929 1034.32 411.571C1039.09 400.175 1054.83 379.131 1079.64 386.128C1084.41 386.128 1138.48 394.874 1152.79 394.874C1124.7 385.067 1061.67 366.727 1034.32 371.815C1048.36 362.395 1089.66 349.207 1142.45 371.815C1117.8 359.094 1061.67 334.922 1034.32 340.011C1048.36 332.731 1089.66 325.402 1142.45 354.323C1119.66 340.011 1071.85 307.252 1062.94 290.713C1082.02 294.424 1124.64 308.206 1142.45 333.65C1130.53 312.712 1107.31 267.496 1109.85 254.138C1123.75 267.821 1148.07 295.882 1155.58 318.005C1151.71 282.905 1149.7 232.524 1163.92 228.694C1164.45 267.39 1167.26 348.916 1174.26 365.455Z" fill="#7DC21D"/>
</g>
<defs>
<clipPath id="clip0_508_1388">
<rect width="1440" height="838" fill="white"/>
</clipPath>
</defs>
</svg>
