<svg width="1025" height="769" viewBox="0 0 1025 769" fill="none" xmlns="http://www.w3.org/2000/svg">
<g clip-path="url(#clip0_743_727)">
<rect width="1024" height="768" transform="translate(0.0751953 0.5)" fill="#69235C"/>
<rect x="-37.4829" y="622.197" width="1095.28" height="146.303" fill="#301244"/>
<ellipse cx="80.5133" cy="707.894" rx="76.1403" ry="11.2656" fill="#9952E1"/>
<ellipse cx="393.021" cy="751.166" rx="49.1447" ry="7.27136" fill="#55BBBB"/>
<ellipse cx="949.721" cy="670.811" rx="96.7265" ry="14.3115" fill="#5EB9EC"/>
<path d="M1024.49 739.892C1024.49 740.004 1024.41 740.331 1023.71 740.838C1023.04 741.323 1021.99 741.832 1020.53 742.34C1017.64 743.352 1013.4 744.28 1008.09 745.065C997.498 746.633 982.824 747.606 966.593 747.606C950.362 747.606 935.688 746.633 925.091 745.065C919.785 744.28 915.544 743.352 912.652 742.34C911.2 741.832 910.147 741.323 909.476 740.838C908.775 740.331 908.693 740.004 908.693 739.892C908.693 739.78 908.775 739.452 909.476 738.946C910.147 738.461 911.2 737.952 912.652 737.444C915.544 736.432 919.785 735.504 925.091 734.719C935.688 733.151 950.362 732.177 966.593 732.177C982.824 732.177 997.498 733.151 1008.09 734.719C1013.4 735.504 1017.64 736.432 1020.53 737.444C1021.99 737.952 1023.04 738.461 1023.71 738.946C1024.41 739.452 1024.49 739.78 1024.49 739.892Z" stroke="#F7382C" stroke-width="2"/>
<path d="M952.377 731.177C952.377 731.29 952.295 731.617 951.595 732.123C950.924 732.608 949.871 733.117 948.418 733.626C945.526 734.637 941.286 735.565 935.98 736.35C925.383 737.918 910.709 738.892 894.478 738.892C878.246 738.892 863.573 737.918 852.976 736.35C847.67 735.565 843.429 734.637 840.537 733.626C839.085 733.117 838.031 732.608 837.361 732.123C836.66 731.617 836.578 731.29 836.578 731.177C836.578 731.065 836.66 730.738 837.361 730.231C838.031 729.746 839.085 729.237 840.537 728.729C843.429 727.717 847.67 726.789 852.976 726.004C863.573 724.436 878.246 723.463 894.478 723.463C910.709 723.463 925.383 724.436 935.98 726.004C941.286 726.789 945.526 727.717 948.418 728.729C949.871 729.237 950.924 729.746 951.595 730.231C952.295 730.738 952.377 731.065 952.377 731.177Z" stroke="#55BBBB" stroke-width="2"/>
<ellipse cx="705.773" cy="747.599" rx="57.2165" ry="8.46564" fill="#F9ED32"/>
<path d="M375.78 747.626C375.78 747.683 375.736 747.956 375.107 748.41C374.509 748.842 373.563 749.301 372.248 749.761C369.631 750.676 365.789 751.518 360.975 752.23C351.362 753.652 338.048 754.536 323.319 754.536C308.589 754.536 295.275 753.652 285.663 752.23C280.849 751.518 277.006 750.676 274.389 749.761C273.075 749.301 272.128 748.842 271.53 748.41C270.902 747.956 270.858 747.683 270.858 747.626C270.858 747.569 270.902 747.296 271.53 746.842C272.128 746.41 273.075 745.951 274.389 745.491C277.006 744.575 280.849 743.734 285.663 743.022C295.275 741.6 308.589 740.716 323.319 740.716C338.048 740.716 351.362 741.6 360.975 743.022C365.789 743.734 369.631 744.575 372.248 745.491C373.563 745.951 374.509 746.41 375.107 746.842C375.736 747.296 375.78 747.569 375.78 747.626Z" stroke="#F7812C" stroke-width="2"/>
<path d="M479.858 644.501L930.597 4.09979H974.291L615.54 644.501H479.858Z" fill="#D159B6" fill-opacity="0.31"/>
<path d="M1019.21 667.815L754.298 2.81827H699.865L888.567 667.815H1019.21Z" fill="#A576FB" fill-opacity="0.6"/>
<path d="M175.911 671.367L-11.9416 4.09979H-47.4525L74.7249 671.367H175.911Z" fill="#893477" fill-opacity="0.51"/>
<path d="M38.707 645.443L206.584 0.5H241.079L121.496 645.443H38.707Z" fill="#5A4482" fill-opacity="0.6"/>
<path d="M188.572 731.936L217.677 644.715H806.22L835.578 731.936H188.572Z" fill="#663E84"/>
<rect x="503.995" y="659.757" width="16.1468" height="72.1026" fill="#663966"/>
<path d="M625.162 663.34L641.189 661.211L649.645 731.902L632.76 731.902L625.162 663.34Z" fill="#663966"/>
<path d="M381.986 659.066L398.013 661.194L389.885 731.963L372.722 731.963L381.986 659.066Z" fill="#663966"/>
<path d="M735.627 659.403L751.165 655.707L767.718 731.96L751.165 731.96L735.627 659.403Z" fill="#663966"/>
<path d="M271.962 646.82L285.581 650.202L270.026 731.929L254.004 731.929L271.962 646.82Z" fill="#663966"/>
<ellipse cx="511.58" cy="644.715" rx="294.151" ry="38.0243" fill="#F6D6ED"/>
<path d="M780.09 641.4C780.09 660.57 659.874 676.11 511.58 676.11C363.286 676.11 243.07 660.57 243.07 641.4C243.07 622.23 363.286 611.568 511.58 611.568C659.874 611.568 780.09 622.23 780.09 641.4Z" fill="#A56ECE"/>
<path d="M312.201 654.11L182.867 185.229L248.83 141.156L343.631 365.753L325.393 126.264L407.824 95.0204L495.147 324.931L587.102 85.0101L661.781 113.564L637.474 321.998L745.789 120.381L815.791 169.808L708.17 654.11H312.201Z" fill="#C6986E" fill-opacity="0.47"/>
<path fill-rule="evenodd" clip-rule="evenodd" d="M-21.5122 7.77899H-43.6774V0.778992H1083.66V7.77899H1040.57V87.1924L1116.46 1.95971L1121.69 6.61478L1045.63 92.03H1083.66V99.03H-43.6774V92.03H-16.8728V13.0949L-92.3132 97.8176L-97.541 93.1625L-21.5122 7.77899ZM1033.57 92.03V13.8595L963.963 92.03H1033.57ZM953.07 14.0469V92.03H883.631L953.07 14.0469ZM1029.61 7.77899L960.07 85.8759V7.77899H1029.61ZM878.793 7.77899H949.278L878.793 86.9365V7.77899ZM871.793 15.1073V92.03H803.298L871.793 15.1073ZM791.078 14.0343V92.03H721.628L791.078 14.0343ZM868.946 7.77899L798.078 87.3664V7.77899H868.946ZM717.192 7.77899H787.275L717.192 86.4855V7.77899ZM710.192 13.1526V92.03H639.957L710.192 13.1526ZM628.916 14.2119V92.03H559.624L628.916 14.2119ZM705.604 7.77899L635.916 86.0411V7.77899H705.604ZM555.419 7.77899H625.272L555.419 86.2262V7.77899ZM548.419 12.8942V92.03H477.954L548.419 12.8942ZM467.531 13.5176V92.03H397.621L467.531 13.5176ZM543.601 7.77899L474.531 85.3472V7.77899H543.601ZM393.644 7.77899H463.269L393.644 85.9697V7.77899ZM386.644 14.1402V92.03H317.288L386.644 14.1402ZM305.879 13.1229V92.03H235.617L305.879 13.1229ZM382.936 7.77899L312.879 86.4553V7.77899H382.936ZM232.114 7.77899H301.265L232.114 85.4386V7.77899ZM225.114 13.61V92.03H155.285L225.114 13.61ZM145.005 13.3595V92.03H74.9535L145.005 13.3595ZM220.933 7.77899L152.005 85.1881V7.77899H220.933ZM71.2575 7.77899H140.601L71.2575 85.6547V7.77899ZM58.9297 7.77899H-9.87283V85.0471L58.9297 7.77899ZM-6.71783 92.03H64.2575V12.3218L-6.71783 92.03Z" fill="black"/>
<path d="M325.863 58.1984L369.239 46.8968L432.758 114.79L303.755 148.402L325.863 58.1984Z" fill="black"/>
<rect x="325.134" y="-10.0169" width="12.0503" height="85.7038" transform="rotate(-14.6037 325.134 -10.0169)" fill="black"/>
<rect x="300.312" y="138.842" width="135.178" height="14.3376" rx="5" transform="rotate(-14.6037 300.312 138.842)" fill="black"/>
<path d="M170.622 117.482L203.867 101.159L266.516 145.617L167.641 194.161L170.622 117.482Z" fill="black"/>
<rect x="132.653" y="9.2204" width="9.95665" height="130.033" transform="rotate(-26.1491 132.653 9.2204)" fill="black"/>
<rect x="163.274" y="186.991" width="111.692" height="11.8466" rx="5" transform="rotate(-26.1491 163.274 186.991)" fill="black"/>
<path d="M623.722 37.9668L667.098 49.2656L689.417 139.521L560.412 105.918L623.722 37.9668Z" fill="black"/>
<rect x="656.369" y="-21.9329" width="12.0503" height="85.7038" transform="rotate(14.6 656.369 -21.9329)" fill="black"/>
<rect x="562.072" y="95.8937" width="135.178" height="14.3376" rx="5" transform="rotate(14.6 562.072 95.8937)" fill="black"/>
<path d="M791.79 76.1488L831.978 96.0015L835.548 188.907L716.027 129.864L791.79 76.1488Z" fill="black"/>
<rect x="846.06" y="3.53372" width="12.0503" height="108.649" transform="rotate(26.2893 846.06 3.53372)" fill="black"/>
<rect x="719.683" y="120.384" width="135.178" height="14.3376" rx="5" transform="rotate(26.2893 719.683 120.384)" fill="black"/>
</g>
<defs>
<clipPath id="clip0_743_727">
<rect width="1024" height="768" fill="white" transform="translate(0.0751953 0.5)"/>
</clipPath>
</defs>
</svg>
