<svg width="835" height="1194" viewBox="0 0 835 1194" fill="none" xmlns="http://www.w3.org/2000/svg">
<g clip-path="url(#clip0_740_1224)">
<rect width="834" height="1194" transform="translate(0.321289)" fill="#F1FF9B"/>
<path d="M119.225 66.1817C66.9743 147.112 18.1847 99.9027 0.321289 66.1817V932.902H834.321V66.1817C810.206 120.864 746.12 88.9661 717.092 66.1817C695.656 109.928 635.237 74.1279 608.442 55.9004C564.496 160.767 488.217 87.1434 474.261 66.1817C413.071 129.567 397.783 86.232 375.454 66.1817C311.145 151.487 254.876 101.725 234.779 66.1817C187.888 138.363 138.205 96.2572 119.225 66.1817Z" fill="#9CE6F6"/>
<path d="M119.225 94.6902C66.9743 175.621 18.1847 128.411 0.321289 94.6902V961.411H834.321V94.6902C810.206 149.373 746.12 117.475 717.092 94.6902C695.656 138.436 635.237 102.636 608.442 84.4089C564.496 189.276 488.217 115.652 474.261 94.6902C413.071 158.076 397.783 114.741 375.454 94.6902C311.145 179.995 254.876 130.234 234.779 94.6902C187.888 166.871 138.205 124.766 119.225 94.6902Z" fill="#5FC6F1"/>
<path d="M210.392 611.322C227.374 579.613 217.468 534.985 210.392 516.634C221.147 539.756 239.94 592.385 229.072 617.929C218.204 643.472 230.204 683.623 237.563 700.506L184.92 695.001C176.43 676.283 189.166 650.959 210.392 611.322Z" fill="#9FCD6B"/>
<path d="M88.1263 454.977C78.6166 420.625 95.4851 379.006 105.108 362.491C105.108 499.018 126.335 462.684 150.958 521.038C170.656 567.722 164.26 659.401 158.6 699.405L59.2578 706.011C63.2202 664.172 74.5412 574.328 88.1263 549.665C105.108 518.836 100.013 497.917 88.1263 454.977Z" fill="#80EBA4"/>
<path d="M39.7292 505.624C36.3329 477.438 59.8239 447.637 71.994 436.26C46.5217 486.907 71.994 533.15 91.5227 544.16C111.051 555.17 128.882 617.929 114.448 623.434C102.9 627.838 98.3153 677.384 97.4663 701.607H32.9365C32.9365 689.496 39.7292 655.364 64.3523 609.121C88.9754 562.878 43.9746 540.857 39.7292 505.624Z" fill="#1D9CB5"/>
<path d="M124.637 579.393C146.712 628.939 105.108 692.799 102.561 697.203H156.052C168.222 670.778 185.26 614.406 156.052 600.313C126.844 586.219 122.938 518.103 124.637 485.806C117.278 500.486 106.976 539.756 124.637 579.393Z" fill="#37768E"/>
<path d="M659.932 614.96C691.815 559.974 673.217 482.587 659.932 450.767C680.125 490.861 715.409 582.122 695.004 626.416C674.598 670.71 697.129 740.333 710.945 769.607L612.108 760.061C596.166 727.604 620.078 683.692 659.932 614.96Z" fill="#1D9CB5"/>
<path d="M804.08 557.968C811.167 529.006 798.596 493.919 791.425 479.995C791.425 595.098 775.607 564.466 757.258 613.662C742.578 653.02 747.345 730.312 751.563 764.038L825.593 769.607C822.64 734.334 814.204 658.589 804.08 637.797C791.425 611.806 795.222 594.169 804.08 557.968Z" fill="#80EBA4"/>
<path d="M759.975 505.697C764.262 464.509 734.611 420.962 719.25 404.337C751.401 478.346 719.25 545.92 694.6 562.008C669.95 578.097 647.444 669.804 665.663 677.849C680.239 684.284 686.026 756.685 687.098 792.08H768.549C768.549 774.382 759.975 724.507 728.895 656.933C697.815 589.36 754.616 557.182 759.975 505.697Z" fill="#9FCD6B"/>
<path d="M596.535 626.58C625.554 686.732 570.864 764.261 567.516 769.608H637.831C653.829 737.526 676.225 669.087 637.831 651.977C599.437 634.867 594.302 552.169 596.535 512.959C586.862 530.782 573.319 578.458 596.535 626.58Z" fill="#37768E"/>
<path d="M508.05 696.116C355.587 614.041 45.9279 651.51 -89.8438 680.504L-40.4694 1216.63H943.391V680.504C861.803 719.906 660.512 778.192 508.05 696.116Z" fill="#FFF66D"/>
<ellipse cx="468.442" cy="838.006" rx="7.31074" ry="4.02239" fill="#F0E04D"/>
<ellipse cx="412.94" cy="905.646" rx="7.31074" ry="4.02239" fill="#F0E04D"/>
<ellipse cx="537.672" cy="932.647" rx="7.31074" ry="4.02239" fill="#F0E04D"/>
<ellipse cx="707.678" cy="866.896" rx="7.31074" ry="4.02239" fill="#F0E04D"/>
<ellipse cx="683.653" cy="928.341" rx="7.31074" ry="4.02239" fill="#F0E04D"/>
<ellipse cx="736.899" cy="796.927" rx="7.31074" ry="4.02239" fill="#F0E04D"/>
<ellipse cx="596.549" cy="776.805" rx="7.31074" ry="4.02239" fill="#F0E04D"/>
<ellipse cx="644.422" cy="749.333" rx="7.31074" ry="4.02239" fill="#F0E04D"/>
<ellipse cx="405.629" cy="823.364" rx="7.31074" ry="4.02239" fill="#F0E04D"/>
<ellipse cx="98.09" cy="701.248" rx="7.31074" ry="4.02239" fill="#F0E04D"/>
<ellipse cx="628.118" cy="827.389" rx="5.64708" ry="3.10704" fill="#F0E04D"/>
<ellipse cx="219.8" cy="794.042" rx="5.64708" ry="3.10704" fill="#F0E04D"/>
<ellipse cx="160.388" cy="824.131" rx="5.64708" ry="3.10704" fill="#F0E04D"/>
<ellipse cx="177.733" cy="861.547" rx="5.64708" ry="3.10704" fill="#F0E04D"/>
<ellipse cx="71.7076" cy="814.751" rx="5.64708" ry="3.10704" fill="#F0E04D"/>
<ellipse cx="197.191" cy="742.201" rx="5.64708" ry="3.10704" fill="#F0E04D"/>
<ellipse cx="281.962" cy="712.524" rx="5.64708" ry="3.10704" fill="#F0E04D"/>
<ellipse cx="25.1266" cy="691.914" rx="5.64708" ry="3.10704" fill="#F0E04D"/>
<ellipse cx="520.131" cy="1083.61" rx="7.31074" ry="4.02239" fill="#F0E04D"/>
<ellipse cx="464.631" cy="1151.25" rx="7.31074" ry="4.02239" fill="#F0E04D"/>
<ellipse cx="589.363" cy="1178.25" rx="7.31074" ry="4.02239" fill="#F0E04D"/>
<ellipse cx="759.369" cy="1112.5" rx="7.31074" ry="4.02239" fill="#F0E04D"/>
<ellipse cx="735.344" cy="1173.94" rx="7.31074" ry="4.02239" fill="#F0E04D"/>
<ellipse cx="788.59" cy="1042.53" rx="7.31074" ry="4.02239" fill="#F0E04D"/>
<ellipse cx="648.24" cy="1022.4" rx="7.31074" ry="4.02239" fill="#F0E04D"/>
<ellipse cx="696.113" cy="994.933" rx="7.31074" ry="4.02239" fill="#F0E04D"/>
<ellipse cx="457.32" cy="1068.96" rx="7.31074" ry="4.02239" fill="#F0E04D"/>
<ellipse cx="149.781" cy="946.847" rx="7.31074" ry="4.02239" fill="#F0E04D"/>
<ellipse cx="679.809" cy="1072.99" rx="5.64708" ry="3.10704" fill="#F0E04D"/>
<ellipse cx="271.491" cy="1039.64" rx="5.64708" ry="3.10704" fill="#F0E04D"/>
<ellipse cx="212.079" cy="1069.73" rx="5.64708" ry="3.10704" fill="#F0E04D"/>
<ellipse cx="229.422" cy="1107.15" rx="5.64708" ry="3.10704" fill="#F0E04D"/>
<ellipse cx="123.399" cy="1060.35" rx="5.64708" ry="3.10704" fill="#F0E04D"/>
<ellipse cx="5.88244" cy="976.127" rx="5.64708" ry="3.10704" fill="#F0E04D"/>
<ellipse cx="248.881" cy="987.801" rx="5.64708" ry="3.10704" fill="#F0E04D"/>
<ellipse cx="333.653" cy="958.123" rx="5.64708" ry="3.10704" fill="#F0E04D"/>
<ellipse cx="76.817" cy="937.514" rx="5.64708" ry="3.10704" fill="#F0E04D"/>
<path d="M12.9218 1017.6C-7.18041 1042.83 -36.3912 1037.87 -31.3658 1058.65L-7.91325 1202.62C113.258 1202.12 361.297 1201.43 384.08 1202.62C412.558 1204.1 434.335 1193.71 424.284 1174.42C414.233 1155.12 332.149 1169.97 296.97 1128.41C261.791 1086.85 243.364 1116.54 198.134 1079.43C152.904 1042.33 164.631 1049.75 119.401 1027.48C74.1707 1005.22 110.944 1016.48 69.0643 992.732C32.4788 971.987 33.0239 992.371 12.9218 1017.6Z" fill="#9FCD6B"/>
<ellipse cx="43.0416" cy="1076.87" rx="13.5171" ry="6.17641" fill="#B7E386"/>
<ellipse cx="149.009" cy="1140.85" rx="11.3464" ry="3.89604" fill="#47A87B"/>
<ellipse cx="29.5261" cy="1144.74" rx="11.3464" ry="3.89604" fill="#47A87B"/>
<ellipse cx="170.091" cy="1090.65" rx="9.73648" ry="2.81906" fill="#B7E386"/>
<ellipse cx="223.647" cy="1140.23" rx="6.50949" ry="4.51055" fill="#47A87B"/>
<ellipse cx="109.453" cy="1115.09" rx="7.64015" ry="3.07573" fill="#B7E386"/>
<ellipse cx="254.158" cy="1179.64" rx="7.64015" ry="3.07573" fill="#B7E386"/>
<ellipse cx="130.609" cy="1050.93" rx="7.05243" ry="5.07428" fill="#47A87B"/>
<ellipse cx="83.5944" cy="1071.8" rx="7.05243" ry="5.07428" fill="#47A87B"/>
<ellipse cx="306.149" cy="1156.81" rx="5.94468" ry="4.51055" fill="#47A87B"/>
<ellipse cx="190.234" cy="1161.32" rx="7.18523" ry="3.38279" fill="#B7E386"/>
<ellipse cx="66.5504" cy="1025.88" rx="9.99082" ry="3.94672" fill="#B7E386"/>
<ellipse cx="73.4039" cy="1160.76" rx="10.3795" ry="2.81906" fill="#B7E386"/>
<path d="M686.7 967.637C700.997 965.85 709.783 991.466 712.389 1004.5C715.74 1027.95 761.163 1030.93 766.375 1019.39C771.588 1007.85 790.948 1023.48 799.884 1012.69C808.819 1001.89 782.757 1011.2 779.034 999.657C775.311 988.115 809.564 1000.4 810.681 989.976C811.798 979.552 786.108 992.583 782.757 981.041C779.406 969.499 799.884 975.084 804.351 957.585C808.819 940.086 777.545 976.201 779.034 972.478C780.523 968.754 766.375 947.532 766.375 967.637C766.375 987.743 757.067 990.349 761.163 965.404C765.258 940.458 782.757 946.415 790.948 931.895C799.139 917.375 772.705 940.086 774.938 927.427C777.172 914.769 793.554 929.661 806.958 913.279C820.361 896.897 784.991 924.449 782.757 913.279C780.523 902.11 800.256 907.695 790.948 895.408C781.64 883.122 784.246 909.184 766.375 919.236C748.504 929.289 764.514 906.578 753.716 904.716C742.919 902.854 755.95 929.661 745.153 931.895C734.356 934.129 742.547 913.279 745.153 900.248C747.759 887.217 767.864 883.494 753.716 882.005C739.568 880.516 780.151 857.432 761.163 861.527C742.175 865.623 763.024 847.007 753.716 847.007C744.409 847.007 745.525 864.878 738.451 883.494C731.377 902.11 730.261 887.217 723.559 891.313C716.857 895.408 736.218 899.876 730.261 919.236C724.303 938.597 727.654 909.928 717.229 919.236C706.805 928.544 735.845 935.246 730.261 950.511C724.676 965.776 719.836 955.723 717.229 942.32C714.623 928.917 692.284 924.449 709.039 895.408C725.793 866.367 686.7 887.217 700.103 877.537C713.506 867.857 719.463 853.709 700.103 864.878C680.742 876.048 706.805 840.305 690.423 838.816C674.041 837.327 703.826 902.11 678.509 879.771C653.191 857.432 688.561 924.449 671.807 913.279C658.404 904.344 661.754 917.003 665.105 924.449C643.511 933.384 698.242 949.766 678.509 952.745C658.776 955.723 668.829 969.871 686.7 967.637Z" fill="#E53D30"/>
<ellipse cx="731.963" cy="932.363" rx="3.01092" ry="2.04365" fill="#F25E53"/>
<ellipse cx="707.539" cy="956.019" rx="3.01092" ry="2.04365" fill="#C82016"/>
<ellipse cx="689.997" cy="943.621" rx="3.01092" ry="2.04365" fill="#F25E53"/>
<ellipse cx="689.997" cy="960.605" rx="3.01092" ry="2.04365" fill="#C82016"/>
<ellipse cx="702.244" cy="895.182" rx="3.01092" ry="2.04365" fill="#F25E53"/>
<ellipse cx="734.003" cy="899.269" rx="3.01092" ry="2.04365" fill="#F25E53"/>
<ellipse cx="746.86" cy="887.638" rx="3.01092" ry="2.04365" fill="#F25E53"/>
<ellipse cx="749.871" cy="945.241" rx="3.01092" ry="2.04365" fill="#F25E53"/>
<ellipse cx="750.739" cy="985.015" rx="3.01092" ry="2.04365" fill="#F25E53"/>
<ellipse cx="740.469" cy="1001.36" rx="3.01092" ry="2.04365" fill="#F25E53"/>
<ellipse cx="674.194" cy="933.089" rx="3.01092" ry="2.04365" fill="#C82016"/>
<ellipse cx="679.129" cy="887.638" rx="3.01092" ry="2.04365" fill="#C82016"/>
<ellipse cx="772.088" cy="975.105" rx="3.01092" ry="2.04365" fill="#F25E53"/>
<ellipse cx="775.274" cy="992.695" rx="3.01092" ry="2.04365" fill="#C82016"/>
<ellipse cx="781.955" cy="1009.53" rx="3.01092" ry="2.04365" fill="#C82016"/>
<ellipse cx="738.481" cy="976.655" rx="3.01092" ry="2.04365" fill="#C82016"/>
<ellipse cx="727.981" cy="1005.44" rx="3.01092" ry="2.04365" fill="#C82016"/>
<ellipse cx="718.813" cy="988.608" rx="3.01092" ry="2.04365" fill="#F25E53"/>
<ellipse cx="756.581" cy="1008.92" rx="5.12354" ry="3.47759" fill="#C82016"/>
<ellipse cx="723.111" cy="966.071" rx="2.28352" ry="1.54993" fill="#C82016"/>
<ellipse cx="752.881" cy="977.149" rx="2.28352" ry="1.54993" fill="#F25E53"/>
<ellipse cx="731.236" cy="997.762" rx="2.28352" ry="1.54993" fill="#F25E53"/>
<ellipse cx="768.252" cy="986.565" rx="2.28352" ry="1.54993" fill="#F25E53"/>
<ellipse cx="738.481" cy="962.194" rx="2.28352" ry="1.54993" fill="#F25E53"/>
<ellipse cx="704.528" cy="967.621" rx="2.28352" ry="1.54993" fill="#F25E53"/>
<ellipse cx="679.857" cy="964.199" rx="2.28352" ry="1.54993" fill="#F25E53"/>
<ellipse cx="755.165" cy="964.521" rx="2.28352" ry="1.54993" fill="#F25E53"/>
<ellipse cx="768.009" cy="928.935" rx="2.0401" ry="1.38472" fill="#C82016"/>
<ellipse cx="802.349" cy="914.128" rx="2.0401" ry="1.38472" fill="#C82016"/>
<ellipse cx="754.54" cy="932.363" rx="2.0401" ry="1.38472" fill="#F25E53"/>
<ellipse cx="737.382" cy="915.624" rx="2.0401" ry="1.38472" fill="#C82016"/>
<ellipse cx="756.58" cy="866.745" rx="2.0401" ry="1.38472" fill="#F25E53"/>
<ellipse cx="719.784" cy="923.778" rx="2.0401" ry="1.38472" fill="#F25E53"/>
<ellipse cx="669.142" cy="919.389" rx="2.0401" ry="1.38472" fill="#F25E53"/>
<ellipse cx="737.014" cy="942.237" rx="2.0401" ry="1.38472" fill="#C82016"/>
<ellipse cx="710.734" cy="944.582" rx="2.0401" ry="1.38472" fill="#F25E53"/>
<ellipse cx="697.193" cy="915.512" rx="2.0401" ry="1.38472" fill="#F25E53"/>
<ellipse cx="694.077" cy="875.754" rx="2.0401" ry="1.38472" fill="#C82016"/>
<ellipse cx="699.233" cy="930.978" rx="2.0401" ry="1.38472" fill="#C82016"/>
<ellipse cx="798.269" cy="960.809" rx="2.0401" ry="1.38472" fill="#F25E53"/>
<ellipse cx="729.195" cy="1013.78" rx="2.0401" ry="1.38472" fill="#F25E53"/>
<ellipse cx="748.558" cy="1021.29" rx="2.0401" ry="1.38472" fill="#C82016"/>
<ellipse cx="776.688" cy="916.048" rx="1.415" ry="0.960425" fill="#F25E53"/>
<ellipse cx="755.165" cy="914.128" rx="1.415" ry="0.960425" fill="#F25E53"/>
<ellipse cx="740.469" cy="897.226" rx="1.415" ry="0.960425" fill="#C82016"/>
<ellipse cx="745.264" cy="876.178" rx="1.415" ry="0.960425" fill="#F25E53"/>
<ellipse cx="748.094" cy="873.27" rx="1.415" ry="0.960425" fill="#C82016"/>
<ellipse cx="749.87" cy="855.417" rx="1.415" ry="0.960425" fill="#C82016"/>
<ellipse cx="765.968" cy="943.197" rx="1.415" ry="0.960425" fill="#F25E53"/>
<ellipse cx="793.936" cy="919.389" rx="1.415" ry="0.960425" fill="#F25E53"/>
<ellipse cx="786.01" cy="898.61" rx="2.0401" ry="1.38472" fill="#C82016"/>
<ellipse cx="770.049" cy="933.022" rx="2.0401" ry="1.38472" fill="#C82016"/>
<ellipse cx="679.244" cy="926.165" rx="2.0401" ry="1.38472" fill="#F25E53"/>
<ellipse cx="679.244" cy="907.003" rx="2.0401" ry="1.38472" fill="#C82016"/>
<ellipse cx="686.866" cy="895.841" rx="2.0401" ry="1.38472" fill="#F25E53"/>
<ellipse cx="702.487" cy="869.514" rx="2.0401" ry="1.38472" fill="#F25E53"/>
<ellipse cx="689.996" cy="848.72" rx="2.0401" ry="1.38472" fill="#C82016"/>
<ellipse cx="789.007" cy="969.006" rx="2.0401" ry="1.38472" fill="#F25E53"/>
<ellipse cx="782.927" cy="935.133" rx="2.0401" ry="1.38472" fill="#C82016"/>
<ellipse cx="772.263" cy="965.906" rx="2.0401" ry="1.38472" fill="#F25E53"/>
<ellipse cx="803.598" cy="991.311" rx="2.0401" ry="1.38472" fill="#F25E53"/>
<ellipse cx="769.423" cy="1003.4" rx="2.0401" ry="1.38472" fill="#F25E53"/>
<path d="M221.941 638.162C209.343 635.851 201.601 668.983 199.305 685.838C196.352 716.177 156.329 720.03 151.736 705.101C147.144 690.172 130.084 710.398 122.211 696.433C114.338 682.467 137.302 694.506 140.582 679.577C143.863 664.649 113.682 680.541 112.697 667.057C111.713 653.573 134.349 670.428 137.302 655.499C140.254 640.57 122.211 647.794 118.274 625.16C114.338 602.526 141.895 649.238 140.582 644.423C139.27 639.607 151.736 612.157 151.736 638.162C151.736 664.167 159.938 667.538 156.329 635.273C152.721 603.007 137.302 610.713 130.084 591.931C122.867 573.15 146.159 602.526 144.191 586.152C142.223 569.779 127.788 589.042 115.978 567.853C104.168 546.664 135.333 582.3 137.302 567.853C139.27 553.406 121.883 560.629 130.084 544.737C138.286 528.845 135.99 562.555 151.736 575.558C167.483 588.56 153.377 559.184 162.89 556.777C172.404 554.369 160.922 589.042 170.436 591.931C179.949 594.821 172.732 567.853 170.436 550.998C168.139 534.143 150.424 529.327 162.89 527.401C175.357 525.474 139.598 495.617 156.329 500.914C173.06 506.211 154.689 482.133 162.89 482.133C171.092 482.133 170.108 505.248 176.341 529.327C182.574 553.406 183.558 534.143 189.463 539.44C195.368 544.737 178.309 550.516 183.558 575.558C188.807 600.6 185.854 563.519 195.04 575.558C204.226 587.597 178.637 596.265 183.558 616.01C188.479 635.754 192.744 622.752 195.04 605.415C197.336 588.079 217.02 582.3 202.257 544.737C187.495 507.175 221.941 534.143 210.131 521.622C198.321 509.101 193.072 490.801 210.131 505.248C227.19 519.695 204.226 473.465 218.66 471.538C233.095 469.612 206.85 553.406 229.158 524.511C251.466 495.617 220.301 582.3 235.063 567.853C246.873 556.295 243.921 572.668 240.968 582.3C259.996 593.858 211.771 615.047 229.158 618.9C246.545 622.752 237.688 641.052 221.941 638.162Z" fill="#F75D2C"/>
<ellipse cx="2.653" cy="2.64336" rx="2.653" ry="2.64336" transform="matrix(-1 0 0 1 184.712 589.894)" fill="#F7812C"/>
<ellipse cx="2.653" cy="2.64336" rx="2.653" ry="2.64336" transform="matrix(-1 0 0 1 206.231 620.491)" fill="#F7382C"/>
<ellipse cx="2.653" cy="2.64336" rx="2.653" ry="2.64336" transform="matrix(-1 0 0 1 221.688 604.455)" fill="#F7812C"/>
<ellipse cx="2.653" cy="2.64336" rx="2.653" ry="2.64336" transform="matrix(-1 0 0 1 221.688 626.423)" fill="#F7382C"/>
<ellipse cx="2.653" cy="2.64336" rx="2.653" ry="2.64336" transform="matrix(-1 0 0 1 210.896 541.801)" fill="#F7812C"/>
<ellipse cx="2.653" cy="2.64336" rx="2.653" ry="2.64336" transform="matrix(-1 0 0 1 182.914 547.088)" fill="#F7812C"/>
<ellipse cx="2.653" cy="2.64336" rx="2.653" ry="2.64336" transform="matrix(-1 0 0 1 171.586 532.043)" fill="#F7812C"/>
<ellipse cx="2.653" cy="2.64336" rx="2.653" ry="2.64336" transform="matrix(-1 0 0 1 168.933 606.55)" fill="#F7812C"/>
<ellipse cx="2.653" cy="2.64336" rx="2.653" ry="2.64336" transform="matrix(-1 0 0 1 168.167 657.995)" fill="#F7812C"/>
<ellipse cx="2.653" cy="2.64336" rx="2.653" ry="2.64336" transform="matrix(-1 0 0 1 177.216 679.131)" fill="#F7812C"/>
<ellipse cx="2.653" cy="2.64336" rx="2.653" ry="2.64336" transform="matrix(-1 0 0 1 235.614 590.832)" fill="#F7382C"/>
<ellipse cx="2.653" cy="2.64336" rx="2.653" ry="2.64336" transform="matrix(-1 0 0 1 231.265 532.043)" fill="#F7382C"/>
<ellipse cx="2.653" cy="2.64336" rx="2.653" ry="2.64336" transform="matrix(-1 0 0 1 149.355 645.178)" fill="#F7812C"/>
<ellipse cx="2.653" cy="2.64336" rx="2.653" ry="2.64336" transform="matrix(-1 0 0 1 146.549 667.93)" fill="#F7382C"/>
<ellipse cx="2.653" cy="2.64336" rx="2.653" ry="2.64336" transform="matrix(-1 0 0 1 140.661 689.705)" fill="#F7382C"/>
<ellipse cx="2.653" cy="2.64336" rx="2.653" ry="2.64336" transform="matrix(-1 0 0 1 178.968 647.183)" fill="#F7382C"/>
<ellipse cx="2.653" cy="2.64336" rx="2.653" ry="2.64336" transform="matrix(-1 0 0 1 188.22 684.418)" fill="#F7382C"/>
<ellipse cx="2.653" cy="2.64336" rx="2.653" ry="2.64336" transform="matrix(-1 0 0 1 196.298 662.643)" fill="#F7812C"/>
<ellipse cx="4.5145" cy="4.49809" rx="4.5145" ry="4.49809" transform="matrix(-1 0 0 1 164.882 687.061)" fill="#F7382C"/>
<ellipse cx="2.01207" cy="2.00476" rx="2.01207" ry="2.00476" transform="matrix(-1 0 0 1 191.87 634.132)" fill="#F7382C"/>
<ellipse cx="2.01207" cy="2.00476" rx="2.01207" ry="2.00476" transform="matrix(-1 0 0 1 165.638 648.46)" fill="#F7812C"/>
<ellipse cx="2.01207" cy="2.00476" rx="2.01207" ry="2.00476" transform="matrix(-1 0 0 1 184.712 675.122)" fill="#F7812C"/>
<ellipse cx="2.01207" cy="2.00476" rx="2.01207" ry="2.00476" transform="matrix(-1 0 0 1 152.095 660.639)" fill="#F7812C"/>
<ellipse cx="2.01207" cy="2.00476" rx="2.01207" ry="2.00476" transform="matrix(-1 0 0 1 178.328 629.117)" fill="#F7812C"/>
<ellipse cx="2.01207" cy="2.00476" rx="2.01207" ry="2.00476" transform="matrix(-1 0 0 1 208.244 636.136)" fill="#F7812C"/>
<ellipse cx="2.01207" cy="2.00476" rx="2.01207" ry="2.00476" transform="matrix(-1 0 0 1 229.983 631.71)" fill="#F7812C"/>
<ellipse cx="2.01207" cy="2.00476" rx="2.01207" ry="2.00476" transform="matrix(-1 0 0 1 163.625 632.127)" fill="#F7812C"/>
<ellipse cx="1.79759" cy="1.79106" rx="1.79759" ry="1.79106" transform="matrix(-1 0 0 1 152.095 586.311)" fill="#F7382C"/>
<ellipse cx="1.79759" cy="1.79106" rx="1.79759" ry="1.79106" transform="matrix(-1 0 0 1 121.837 567.159)" fill="#F7382C"/>
<ellipse cx="1.79759" cy="1.79106" rx="1.79759" ry="1.79106" transform="matrix(-1 0 0 1 163.963 590.746)" fill="#F7812C"/>
<ellipse cx="1.79759" cy="1.79106" rx="1.79759" ry="1.79106" transform="matrix(-1 0 0 1 179.08 569.094)" fill="#F7382C"/>
<ellipse cx="1.79759" cy="1.79106" rx="1.79759" ry="1.79106" transform="matrix(-1 0 0 1 162.165 505.871)" fill="#F7812C"/>
<ellipse cx="1.79759" cy="1.79106" rx="1.79759" ry="1.79106" transform="matrix(-1 0 0 1 194.587 579.641)" fill="#F7812C"/>
<ellipse cx="1.79759" cy="1.79106" rx="1.79759" ry="1.79106" transform="matrix(-1 0 0 1 239.209 573.964)" fill="#F7812C"/>
<ellipse cx="1.79759" cy="1.79106" rx="1.79759" ry="1.79106" transform="matrix(-1 0 0 1 179.405 603.517)" fill="#F7382C"/>
<ellipse cx="1.79759" cy="1.79106" rx="1.79759" ry="1.79106" transform="matrix(-1 0 0 1 202.561 606.55)" fill="#F7812C"/>
<ellipse cx="1.79759" cy="1.79106" rx="1.79759" ry="1.79106" transform="matrix(-1 0 0 1 214.492 568.95)" fill="#F7812C"/>
<ellipse cx="1.79759" cy="1.79106" rx="1.79759" ry="1.79106" transform="matrix(-1 0 0 1 217.238 517.524)" fill="#F7382C"/>
<ellipse cx="1.79759" cy="1.79106" rx="1.79759" ry="1.79106" transform="matrix(-1 0 0 1 212.694 588.955)" fill="#F7382C"/>
<ellipse cx="1.79759" cy="1.79106" rx="1.79759" ry="1.79106" transform="matrix(-1 0 0 1 125.433 627.539)" fill="#F7812C"/>
<ellipse cx="1.79759" cy="1.79106" rx="1.79759" ry="1.79106" transform="matrix(-1 0 0 1 186.294 696.057)" fill="#F7812C"/>
<ellipse cx="1.79759" cy="1.79106" rx="1.79759" ry="1.79106" transform="matrix(-1 0 0 1 169.233 705.773)" fill="#F7382C"/>
<ellipse cx="1.24728" cy="1.24275" rx="1.24728" ry="1.24275" transform="matrix(-1 0 0 1 143.896 570.192)" fill="#F7812C"/>
<ellipse cx="1.24728" cy="1.24275" rx="1.24728" ry="1.24275" transform="matrix(-1 0 0 1 162.86 567.708)" fill="#F7812C"/>
<ellipse cx="1.24728" cy="1.24275" rx="1.24728" ry="1.24275" transform="matrix(-1 0 0 1 175.81 545.846)" fill="#F7382C"/>
<ellipse cx="1.24728" cy="1.24275" rx="1.24728" ry="1.24275" transform="matrix(-1 0 0 1 171.586 518.622)" fill="#F7812C"/>
<ellipse cx="1.24728" cy="1.24275" rx="1.24728" ry="1.24275" transform="matrix(-1 0 0 1 169.092 514.861)" fill="#F7382C"/>
<ellipse cx="1.24728" cy="1.24275" rx="1.24728" ry="1.24275" transform="matrix(-1 0 0 1 167.526 491.768)" fill="#F7382C"/>
<ellipse cx="1.24728" cy="1.24275" rx="1.24728" ry="1.24275" transform="matrix(-1 0 0 1 153.342 605.308)" fill="#F7812C"/>
<ellipse cx="1.24728" cy="1.24275" rx="1.24728" ry="1.24275" transform="matrix(-1 0 0 1 128.698 574.513)" fill="#F7812C"/>
<ellipse cx="1.79759" cy="1.79106" rx="1.79759" ry="1.79106" transform="matrix(-1 0 0 1 136.234 547.088)" fill="#F7382C"/>
<ellipse cx="1.79759" cy="1.79106" rx="1.79759" ry="1.79106" transform="matrix(-1 0 0 1 150.297 591.598)" fill="#F7382C"/>
<ellipse cx="1.79759" cy="1.79106" rx="1.79759" ry="1.79106" transform="matrix(-1 0 0 1 230.309 582.729)" fill="#F7812C"/>
<ellipse cx="1.79759" cy="1.79106" rx="1.79759" ry="1.79106" transform="matrix(-1 0 0 1 230.309 557.943)" fill="#F7382C"/>
<ellipse cx="1.79759" cy="1.79106" rx="1.79759" ry="1.79106" transform="matrix(-1 0 0 1 223.592 543.506)" fill="#F7812C"/>
<ellipse cx="1.79759" cy="1.79106" rx="1.79759" ry="1.79106" transform="matrix(-1 0 0 1 209.827 509.453)" fill="#F7812C"/>
<ellipse cx="1.79759" cy="1.79106" rx="1.79759" ry="1.79106" transform="matrix(-1 0 0 1 220.833 482.557)" fill="#F7382C"/>
<ellipse cx="1.79759" cy="1.79106" rx="1.79759" ry="1.79106" transform="matrix(-1 0 0 1 133.593 638.141)" fill="#F7812C"/>
<ellipse cx="1.79759" cy="1.79106" rx="1.79759" ry="1.79106" transform="matrix(-1 0 0 1 138.951 594.328)" fill="#F7382C"/>
<ellipse cx="1.79759" cy="1.79106" rx="1.79759" ry="1.79106" transform="matrix(-1 0 0 1 148.347 634.132)" fill="#F7812C"/>
<ellipse cx="1.79759" cy="1.79106" rx="1.79759" ry="1.79106" transform="matrix(-1 0 0 1 120.736 666.992)" fill="#F7812C"/>
<ellipse cx="1.79759" cy="1.79106" rx="1.79759" ry="1.79106" transform="matrix(-1 0 0 1 150.849 682.627)" fill="#F7812C"/>
<path d="M249.289 1019.7C269.494 1025.84 269.011 1009.66 266.244 1000.8C279.578 988.468 267.693 977.597 260.084 973.704C267.388 953.034 249.601 948.114 239.794 948.237C216.208 928.796 205.114 961.468 203.443 973.226C201.773 984.984 206 984.633 196.742 995.065C187.484 1005.5 202.73 1024.25 211.063 1016.54C219.397 1008.83 224.033 1012.01 249.289 1019.7Z" fill="#E53D30"/>
<path d="M252.981 976.348C245.434 978.159 221.397 989.397 212.471 998.629" stroke="#F25E53" stroke-linecap="round"/>
<path d="M261.588 1000.06C254.129 995.764 234.79 990.216 217.103 1002.35" stroke="#F25E53" stroke-linecap="round"/>
<path d="M235.811 956.283C230.352 957.04 217.175 965.579 208.135 993.687" stroke="#F25E53" stroke-linecap="round"/>
<path d="M605.634 1029.04C601.144 1022.52 579.115 1036.62 568.661 1044.49C562.814 1037.23 548.975 1023.5 540.397 1026.67C529.675 1030.63 551.519 1054.48 550.779 1061.01C550.039 1067.54 513.066 1082.99 521.871 1090.05C530.676 1097.11 552.39 1084.45 559.75 1087.79C567.11 1091.12 557.864 1120.89 566.502 1121.19C575.139 1121.49 582.201 1094.52 584.756 1088.45C587.311 1082.39 615.238 1099.65 617.357 1091.56C619.475 1083.46 600.588 1072.37 595.748 1066.81C590.909 1061.25 611.246 1037.2 605.634 1029.04Z" fill="#F7812C"/>
<ellipse cx="595.042" cy="1037.46" rx="2.72612" ry="1.63758" fill="#F9CA84"/>
<ellipse cx="589.59" cy="1043.21" rx="2.72612" ry="1.63758" fill="#F9CA84"/>
<ellipse cx="582.945" cy="1053.4" rx="2.72612" ry="1.63758" fill="#F9CA84"/>
<ellipse cx="576.303" cy="1064.51" rx="2.72612" ry="1.63758" fill="#F9CA84"/>
<ellipse cx="588.398" cy="1062.88" rx="2.72612" ry="1.63758" fill="#F9CA84"/>
<ellipse cx="566.389" cy="1063.89" rx="2.72612" ry="1.63758" fill="#F9CA84"/>
<ellipse cx="571.84" cy="1053.4" rx="2.72612" ry="1.63758" fill="#F9CA84"/>
<ellipse cx="555.753" cy="1056.67" rx="2.72612" ry="1.63758" fill="#F9CA84"/>
<ellipse cx="556.528" cy="1066.15" rx="2.72612" ry="1.63758" fill="#F9CA84"/>
<ellipse cx="551.078" cy="1072.75" rx="2.72612" ry="1.63758" fill="#F9CA84"/>
<ellipse cx="562.538" cy="1074.39" rx="2.72612" ry="1.63758" fill="#F9CA84"/>
<ellipse cx="560.937" cy="1080.94" rx="2.72612" ry="1.63758" fill="#F9CA84"/>
<ellipse cx="572.738" cy="1074.39" rx="2.72612" ry="1.63758" fill="#F9CA84"/>
<ellipse cx="586.856" cy="1074.39" rx="2.72612" ry="1.63758" fill="#F9CA84"/>
<ellipse cx="597.16" cy="1080.94" rx="2.72612" ry="1.63758" fill="#F9CA84"/>
<ellipse cx="608.449" cy="1084.21" rx="2.72612" ry="1.63758" fill="#F9CA84"/>
<ellipse cx="581.404" cy="1083.6" rx="2.72612" ry="1.63758" fill="#F9CA84"/>
<ellipse cx="570.852" cy="1092.45" rx="2.72612" ry="1.63758" fill="#F9CA84"/>
<ellipse cx="568.127" cy="1102.24" rx="2.72612" ry="1.63758" fill="#F9CA84"/>
<ellipse cx="546.921" cy="1079.3" rx="2.72612" ry="1.63758" fill="#F9CA84"/>
<ellipse cx="534.584" cy="1083.6" rx="2.72612" ry="1.63758" fill="#F9CA84"/>
<ellipse cx="561.981" cy="1045.46" rx="2.72612" ry="1.63758" fill="#F9CA84"/>
<ellipse cx="549.214" cy="1041.58" rx="2.72612" ry="1.63758" fill="#F9CA84"/>
<ellipse cx="553.026" cy="1034.18" rx="2.72612" ry="1.63758" fill="#F9CA84"/>
<ellipse cx="570.852" cy="1109.98" rx="2.72612" ry="1.63758" fill="#F9CA84"/>
<path d="M127.047 900.927C130.693 896.45 116.261 884.098 108.589 878.481C112.469 872.909 119.229 860.442 115.237 855.148C110.248 848.531 98.0518 868.664 93.3262 869.51C88.6006 870.357 70.1433 847.911 67.0146 855.495C63.886 863.078 77.2337 875.514 76.4199 881.317C75.6061 887.121 52.8398 886.907 54.4128 892.966C55.9858 899.024 76.3413 898.304 81.1149 898.815C85.8885 899.325 79.5679 922.308 85.6746 922.092C91.7813 921.876 95.6516 906.453 98.549 901.935C101.446 897.416 122.489 906.523 127.047 900.927Z" fill="#F7812C"/>
<ellipse cx="74.1811" cy="860.574" rx="1.07176" ry="0.786026" fill="#F9CA84"/>
<ellipse cx="73.1098" cy="863.725" rx="1.07176" ry="0.786026" fill="#F9CA84"/>
<ellipse cx="85.8667" cy="869.62" rx="1.07176" ry="0.786026" fill="#F9CA84"/>
<ellipse cx="82.1059" cy="875.567" rx="1.07176" ry="0.786026" fill="#F9CA84"/>
<ellipse cx="88.8647" cy="875.871" rx="1.07176" ry="0.786026" fill="#F9CA84"/>
<ellipse cx="99.6401" cy="872.365" rx="1.07176" ry="0.786026" fill="#F9CA84"/>
<ellipse cx="95.7222" cy="899.288" rx="1.07176" ry="0.786026" fill="#F9CA84"/>
<ellipse cx="89.1694" cy="903.617" rx="1.07176" ry="0.786026" fill="#F9CA84"/>
<ellipse cx="90.2407" cy="908.886" rx="1.07176" ry="0.786026" fill="#F9CA84"/>
<ellipse cx="88.0991" cy="916.163" rx="1.07176" ry="0.786026" fill="#F9CA84"/>
<ellipse cx="112.23" cy="887.243" rx="1.07176" ry="0.786026" fill="#F9CA84"/>
<ellipse cx="104.697" cy="896.145" rx="1.07176" ry="0.786026" fill="#F9CA84"/>
<ellipse cx="114.749" cy="898.502" rx="1.07176" ry="0.786026" fill="#F9CA84"/>
<ellipse cx="123.03" cy="896.931" rx="1.07176" ry="0.786026" fill="#F9CA84"/>
<ellipse cx="103.625" cy="882.199" rx="1.07176" ry="0.786026" fill="#F9CA84"/>
<ellipse cx="89.1694" cy="889.6" rx="1.07176" ry="0.786026" fill="#F9CA84"/>
<ellipse cx="79.7495" cy="893.14" rx="1.07176" ry="0.786026" fill="#F9CA84"/>
<ellipse cx="70.9673" cy="889.941" rx="1.07176" ry="0.786026" fill="#F9CA84"/>
<ellipse cx="64.5054" cy="893.14" rx="1.07176" ry="0.786026" fill="#F9CA84"/>
<ellipse cx="106.839" cy="875.871" rx="1.07176" ry="0.786026" fill="#F9CA84"/>
<ellipse cx="111.594" cy="866.462" rx="1.07176" ry="0.786026" fill="#F9CA84"/>
<ellipse cx="112.666" cy="858.541" rx="1.07176" ry="0.786026" fill="#F9CA84"/>
</g>
<defs>
<clipPath id="clip0_740_1224">
<rect width="834" height="1194" fill="white" transform="translate(0.321289)"/>
</clipPath>
</defs>
</svg>
