<svg width="320" height="568" viewBox="0 0 320 568" fill="none" xmlns="http://www.w3.org/2000/svg">
<g clip-path="url(#clip0_709_197)">
<rect width="320" height="568" fill="#9CE6F6"/>
<path d="M139.708 466.13C94.1666 475.202 66.75 459.401 58.7344 450.366C41.5581 454.791 4.85002 457.889 -4.57238 434.879C-13.9948 411.869 25.5269 405.748 46.4655 405.564C42.7031 398.742 44.6988 384.213 82.781 380.673C120.863 377.133 136.6 388.417 139.708 394.501C198.991 364.854 239.33 389.523 252.09 405.564C256.506 402.521 341.897 405.01 324.721 439.581C310.98 467.237 262.395 465.116 239.821 460.599C242.111 462.443 237.269 468.619 199.579 478.576C161.89 488.532 143.961 474.427 139.708 466.13Z" fill="white"/>
<path d="M205.847 464.684C197.599 466.718 198.974 473.159 200.692 476.125C195.739 476.548 186.319 479.387 188.259 487.353C190.2 495.319 205.241 497.31 212.518 497.31C220.038 513.242 240.113 507.903 249.21 503.242C274.196 513.411 285.295 499.005 287.72 490.531C295.402 490.601 310.16 488.073 307.734 477.396C305.308 466.718 289.742 467.015 282.262 468.498C268.192 454.261 258.003 458.187 254.668 461.93C252.848 460.588 247.208 457.735 239.203 457.058C231.197 456.38 226.972 461.86 225.861 464.684C222.626 463.837 214.095 462.651 205.847 464.684Z" fill="#B9F7FF"/>
</g>
<defs>
<clipPath id="clip0_709_197">
<rect width="320" height="568" fill="white"/>
</clipPath>
</defs>
</svg>
