<svg width="1025" height="769" viewBox="0 0 1025 769" fill="none" xmlns="http://www.w3.org/2000/svg">
<g clip-path="url(#clip0_743_201)">
<rect width="1024" height="768" transform="translate(0.0751953 0.5)" fill="#F1FF9B"/>
<path d="M145.935 59.6601C81.839 120.311 21.9884 84.9311 0.0751953 59.6601V709.194H1023.15V59.6601C993.567 100.64 914.953 76.7351 879.344 59.6601C853.049 92.4441 778.931 65.6151 746.062 51.9551C692.154 130.544 598.581 75.3691 581.461 59.6601C506.398 107.162 487.645 74.6861 460.254 59.6601C381.366 123.589 312.339 86.2971 287.687 59.6601C230.164 113.754 169.218 82.1991 145.935 59.6601Z" fill="#9CE6F6"/>
<path d="M145.935 81.0248C81.839 141.675 21.9884 106.296 0.0751953 81.0248V730.559H1023.15V81.0248C993.567 122.005 914.953 98.0998 879.344 81.0248C853.049 113.809 778.931 86.9798 746.062 73.3198C692.154 151.909 598.581 96.7338 581.461 81.0248C506.398 128.527 487.645 96.0508 460.254 81.0248C381.366 144.954 312.339 107.662 287.687 81.0248C230.164 135.118 169.218 103.564 145.935 81.0248Z" fill="#5FC6F1"/>
<path d="M202.508 421.295C219.489 389.585 209.583 344.957 202.508 326.607C213.263 349.728 232.056 402.358 221.188 427.901C210.319 453.445 222.32 493.596 229.678 510.478L177.036 504.973C168.545 486.256 181.281 460.932 202.508 421.295Z" fill="#9FCD6B"/>
<path d="M80.2411 264.949C70.7314 230.597 87.5998 188.978 97.2227 172.463C97.2227 308.99 118.449 272.656 143.073 331.011C162.771 377.694 156.375 469.373 150.714 509.377L51.3726 515.983C55.3349 474.144 66.6559 384.301 80.2411 359.638C97.2225 328.809 92.1282 307.889 80.2411 264.949Z" fill="#80EBA4"/>
<path d="M31.8444 315.597C28.4482 287.41 51.9392 257.609 64.1092 246.232C38.6369 296.879 64.1092 343.122 83.638 354.133C103.167 365.143 120.997 427.902 106.563 433.407C95.0156 437.811 90.4306 487.357 89.5815 511.579H25.0518C25.0518 499.468 31.8444 465.336 56.4675 419.093C81.0906 372.85 36.0898 350.83 31.8444 315.597Z" fill="#1D9CB5"/>
<path d="M116.751 389.366C138.827 438.912 97.2225 502.771 94.6753 507.176H148.167C160.337 480.751 177.375 424.378 148.167 410.285C118.959 396.192 115.053 328.075 116.751 295.779C109.393 310.459 99.0905 349.729 116.751 389.366Z" fill="#37768E"/>
<path d="M827.858 412.42C859.741 357.434 841.142 280.047 827.858 248.226C848.05 288.32 883.334 379.581 862.929 423.875C842.524 468.169 865.055 537.792 878.871 567.067L780.033 557.521C764.092 525.064 788.004 481.152 827.858 412.42Z" fill="#1D9CB5"/>
<path d="M972.006 355.427C979.092 326.466 966.522 291.378 959.351 277.455C959.351 392.557 943.533 361.925 925.183 411.122C910.504 450.479 915.271 527.771 919.489 561.497L993.519 567.067C990.566 531.794 982.129 456.049 972.006 435.256C959.351 409.265 963.147 391.629 972.006 355.427Z" fill="#80EBA4"/>
<path d="M927.901 303.157C932.188 261.969 902.537 218.422 887.175 201.796C919.327 275.805 887.175 343.379 862.526 359.468C837.876 375.557 815.37 467.264 833.589 475.308C848.165 481.744 853.952 554.144 855.024 589.54H936.475C936.475 571.842 927.901 521.966 896.821 454.393C865.741 386.819 922.542 354.641 927.901 303.157Z" fill="#9FCD6B"/>
<path d="M764.46 424.039C793.48 484.191 738.79 561.72 735.441 567.067H805.757C821.754 534.986 844.151 466.546 805.757 449.437C767.362 432.327 762.228 349.629 764.46 310.418C754.787 328.241 741.245 375.917 764.46 424.039Z" fill="#37768E"/>
<path d="M591.796 518.535C439.333 442.628 129.674 477.281 -6.09766 504.096L-6.09764 782.948H1027.14V504.096C945.549 540.537 744.258 594.442 591.796 518.535Z" fill="#FFF66D"/>
<ellipse cx="552.188" cy="649.762" rx="7.31074" ry="3.7201" fill="#F0E04D"/>
<ellipse cx="496.687" cy="712.319" rx="7.31074" ry="3.7201" fill="#F0E04D"/>
<ellipse cx="621.419" cy="737.29" rx="7.31074" ry="3.7201" fill="#F0E04D"/>
<ellipse cx="791.424" cy="676.48" rx="7.31074" ry="3.7201" fill="#F0E04D"/>
<ellipse cx="981.44" cy="745.446" rx="7.31074" ry="3.7201" fill="#F0E04D"/>
<ellipse cx="936.371" cy="709.793" rx="7.31074" ry="3.7201" fill="#F0E04D"/>
<ellipse cx="767.399" cy="733.307" rx="7.31074" ry="3.7201" fill="#F0E04D"/>
<ellipse cx="820.646" cy="611.77" rx="7.31074" ry="3.7201" fill="#F0E04D"/>
<ellipse cx="680.297" cy="593.16" rx="7.31074" ry="3.7201" fill="#F0E04D"/>
<ellipse cx="728.168" cy="567.752" rx="7.31074" ry="3.7201" fill="#F0E04D"/>
<ellipse cx="489.376" cy="636.22" rx="7.31074" ry="3.7201" fill="#F0E04D"/>
<ellipse cx="181.837" cy="523.281" rx="7.31074" ry="3.7201" fill="#F0E04D"/>
<ellipse cx="711.866" cy="639.942" rx="5.64708" ry="2.87354" fill="#F0E04D"/>
<ellipse cx="303.547" cy="609.101" rx="5.64708" ry="2.87354" fill="#F0E04D"/>
<ellipse cx="244.135" cy="636.93" rx="5.64708" ry="2.87354" fill="#F0E04D"/>
<ellipse cx="261.479" cy="671.533" rx="5.64708" ry="2.87354" fill="#F0E04D"/>
<ellipse cx="155.455" cy="628.254" rx="5.64708" ry="2.87354" fill="#F0E04D"/>
<ellipse cx="37.9386" cy="550.36" rx="5.64708" ry="2.87354" fill="#F0E04D"/>
<ellipse cx="280.938" cy="561.157" rx="5.64708" ry="2.87354" fill="#F0E04D"/>
<ellipse cx="365.709" cy="533.709" rx="5.64708" ry="2.87354" fill="#F0E04D"/>
<ellipse cx="108.873" cy="514.649" rx="5.64708" ry="2.87354" fill="#F0E04D"/>
<path d="M14.8086 622.709C0.482431 643.056 -20.3352 639.055 -16.7537 655.811L-0.0398407 771.907C86.3152 771.508 263.084 770.949 279.321 771.907C299.616 773.104 315.136 764.726 307.973 749.166C300.81 733.607 242.311 745.576 217.24 712.064C192.17 678.552 179.037 702.489 146.803 672.567C114.57 642.646 122.926 648.63 90.6926 630.677C58.4587 612.724 84.6658 621.803 54.8195 602.654C28.7463 585.925 29.1347 602.363 14.8086 622.709Z" fill="#9FCD6B"/>
<ellipse cx="36.2743" cy="670.506" rx="9.63322" ry="4.98068" fill="#B7E386"/>
<ellipse cx="111.793" cy="722.093" rx="8.08622" ry="3.14178" fill="#47A87B"/>
<ellipse cx="26.6419" cy="725.235" rx="8.08622" ry="3.14178" fill="#47A87B"/>
<ellipse cx="126.818" cy="681.613" rx="6.93887" ry="2.2733" fill="#B7E386"/>
<ellipse cx="164.986" cy="721.598" rx="4.6391" ry="3.63733" fill="#47A87B"/>
<ellipse cx="83.6026" cy="701.327" rx="5.44488" ry="2.48028" fill="#B7E386"/>
<ellipse cx="186.73" cy="753.374" rx="5.44488" ry="2.48028" fill="#B7E386"/>
<ellipse cx="98.6808" cy="649.587" rx="5.02604" ry="4.09193" fill="#47A87B"/>
<ellipse cx="65.1745" cy="666.414" rx="5.02604" ry="4.09193" fill="#47A87B"/>
<ellipse cx="223.781" cy="734.969" rx="4.23658" ry="3.63733" fill="#47A87B"/>
<ellipse cx="141.172" cy="738.606" rx="5.12067" ry="2.7279" fill="#B7E386"/>
<ellipse cx="53.0283" cy="629.384" rx="7.12013" ry="3.18265" fill="#B7E386"/>
<ellipse cx="57.9123" cy="738.151" rx="7.39713" ry="2.2733" fill="#B7E386"/>
<path d="M741.725 611.826C756.022 610.039 764.809 635.654 767.415 648.685C770.766 672.141 816.188 675.12 821.401 663.578C826.613 652.036 845.973 667.674 854.909 656.876C863.845 646.079 837.782 655.387 834.059 643.845C830.336 632.304 864.589 644.59 865.706 634.165C866.823 623.74 841.133 636.771 837.782 625.23C834.432 613.688 854.909 619.273 859.377 601.774C863.845 584.275 832.57 620.389 834.059 616.666C835.549 612.943 821.401 591.721 821.401 611.826C821.401 631.931 812.093 634.537 816.188 609.592C820.284 584.647 837.782 590.604 845.973 576.084C854.164 561.564 827.73 584.275 829.964 571.616C832.198 558.957 848.58 573.85 861.983 557.468C875.386 541.086 840.016 568.638 837.782 557.468C835.549 546.299 855.281 551.883 845.973 539.597C836.666 527.31 839.272 553.373 821.401 563.425C803.529 573.478 819.539 550.766 808.742 548.905C797.945 547.043 810.976 573.85 800.179 576.084C789.381 578.318 797.572 557.468 800.179 544.437C802.785 531.406 822.89 527.683 808.742 526.193C794.594 524.704 835.176 501.621 816.188 505.716C797.2 509.812 818.05 491.196 808.742 491.196C799.434 491.196 800.551 509.067 793.477 527.683C786.403 546.299 785.286 531.406 778.584 535.501C771.883 539.597 791.243 544.065 785.286 563.425C779.329 582.786 782.68 554.117 772.255 563.425C761.83 572.733 790.871 579.435 785.286 594.7C779.701 609.965 774.861 599.912 772.255 586.509C769.649 573.105 747.31 568.638 764.064 539.597C780.818 510.556 741.725 531.406 755.128 521.726C768.532 512.045 774.489 497.897 755.128 509.067C735.768 520.236 761.83 484.494 745.448 483.005C729.066 481.516 758.851 546.299 733.534 523.96C708.217 501.621 743.587 568.638 726.832 557.468C713.429 548.532 716.78 561.191 720.131 568.638C698.536 577.573 753.267 593.955 733.534 596.934C713.801 599.912 723.854 614.06 741.725 611.826Z" fill="#E53D30"/>
<ellipse cx="786.988" cy="576.552" rx="3.01092" ry="2.04365" fill="#F25E53"/>
<ellipse cx="762.565" cy="600.208" rx="3.01092" ry="2.04365" fill="#C82016"/>
<ellipse cx="745.023" cy="587.81" rx="3.01092" ry="2.04365" fill="#F25E53"/>
<ellipse cx="745.023" cy="604.794" rx="3.01092" ry="2.04365" fill="#C82016"/>
<ellipse cx="757.27" cy="539.371" rx="3.01092" ry="2.04365" fill="#F25E53"/>
<ellipse cx="789.029" cy="543.458" rx="3.01092" ry="2.04365" fill="#F25E53"/>
<ellipse cx="801.885" cy="531.826" rx="3.01092" ry="2.04365" fill="#F25E53"/>
<ellipse cx="804.897" cy="589.43" rx="3.01092" ry="2.04365" fill="#F25E53"/>
<ellipse cx="805.765" cy="629.203" rx="3.01092" ry="2.04365" fill="#F25E53"/>
<ellipse cx="795.494" cy="645.544" rx="3.01092" ry="2.04365" fill="#F25E53"/>
<ellipse cx="729.219" cy="577.278" rx="3.01092" ry="2.04365" fill="#C82016"/>
<ellipse cx="734.154" cy="531.826" rx="3.01092" ry="2.04365" fill="#C82016"/>
<ellipse cx="827.113" cy="619.294" rx="3.01092" ry="2.04365" fill="#F25E53"/>
<ellipse cx="830.299" cy="636.884" rx="3.01092" ry="2.04365" fill="#C82016"/>
<ellipse cx="836.981" cy="653.719" rx="3.01092" ry="2.04365" fill="#C82016"/>
<ellipse cx="793.506" cy="620.844" rx="3.01092" ry="2.04365" fill="#C82016"/>
<ellipse cx="783.006" cy="649.631" rx="3.01092" ry="2.04365" fill="#C82016"/>
<ellipse cx="773.838" cy="632.797" rx="3.01092" ry="2.04365" fill="#F25E53"/>
<ellipse cx="811.606" cy="653.109" rx="5.12354" ry="3.47759" fill="#C82016"/>
<ellipse cx="778.136" cy="610.26" rx="2.28352" ry="1.54993" fill="#C82016"/>
<ellipse cx="807.907" cy="621.337" rx="2.28352" ry="1.54993" fill="#F25E53"/>
<ellipse cx="786.261" cy="641.95" rx="2.28352" ry="1.54993" fill="#F25E53"/>
<ellipse cx="823.278" cy="630.753" rx="2.28352" ry="1.54993" fill="#F25E53"/>
<ellipse cx="793.506" cy="606.383" rx="2.28352" ry="1.54993" fill="#F25E53"/>
<ellipse cx="759.553" cy="611.81" rx="2.28352" ry="1.54993" fill="#F25E53"/>
<ellipse cx="734.882" cy="608.388" rx="2.28352" ry="1.54993" fill="#F25E53"/>
<ellipse cx="810.191" cy="608.71" rx="2.28352" ry="1.54993" fill="#F25E53"/>
<ellipse cx="823.034" cy="573.124" rx="2.0401" ry="1.38472" fill="#C82016"/>
<ellipse cx="857.374" cy="558.316" rx="2.0401" ry="1.38472" fill="#C82016"/>
<ellipse cx="809.565" cy="576.552" rx="2.0401" ry="1.38472" fill="#F25E53"/>
<ellipse cx="792.407" cy="559.813" rx="2.0401" ry="1.38472" fill="#C82016"/>
<ellipse cx="811.606" cy="510.933" rx="2.0401" ry="1.38472" fill="#F25E53"/>
<ellipse cx="774.81" cy="567.967" rx="2.0401" ry="1.38472" fill="#F25E53"/>
<ellipse cx="724.167" cy="563.578" rx="2.0401" ry="1.38472" fill="#F25E53"/>
<ellipse cx="792.039" cy="586.425" rx="2.0401" ry="1.38472" fill="#C82016"/>
<ellipse cx="765.76" cy="588.771" rx="2.0401" ry="1.38472" fill="#F25E53"/>
<ellipse cx="752.219" cy="559.701" rx="2.0401" ry="1.38472" fill="#F25E53"/>
<ellipse cx="749.103" cy="519.943" rx="2.0401" ry="1.38472" fill="#C82016"/>
<ellipse cx="754.259" cy="575.167" rx="2.0401" ry="1.38472" fill="#C82016"/>
<ellipse cx="853.294" cy="604.998" rx="2.0401" ry="1.38472" fill="#F25E53"/>
<ellipse cx="784.221" cy="657.971" rx="2.0401" ry="1.38472" fill="#F25E53"/>
<ellipse cx="803.583" cy="665.483" rx="2.0401" ry="1.38472" fill="#C82016"/>
<ellipse cx="831.714" cy="560.237" rx="1.415" ry="0.960425" fill="#F25E53"/>
<ellipse cx="810.19" cy="558.316" rx="1.415" ry="0.960425" fill="#F25E53"/>
<ellipse cx="795.494" cy="541.414" rx="1.415" ry="0.960425" fill="#C82016"/>
<ellipse cx="800.289" cy="520.367" rx="1.415" ry="0.960425" fill="#F25E53"/>
<ellipse cx="803.119" cy="517.459" rx="1.415" ry="0.960425" fill="#C82016"/>
<ellipse cx="804.895" cy="499.605" rx="1.415" ry="0.960425" fill="#C82016"/>
<ellipse cx="820.993" cy="587.386" rx="1.415" ry="0.960425" fill="#F25E53"/>
<ellipse cx="848.962" cy="563.578" rx="1.415" ry="0.960425" fill="#F25E53"/>
<ellipse cx="841.035" cy="542.799" rx="2.0401" ry="1.38472" fill="#C82016"/>
<ellipse cx="825.074" cy="577.211" rx="2.0401" ry="1.38472" fill="#C82016"/>
<ellipse cx="734.27" cy="570.354" rx="2.0401" ry="1.38472" fill="#F25E53"/>
<ellipse cx="734.27" cy="551.191" rx="2.0401" ry="1.38472" fill="#C82016"/>
<ellipse cx="741.892" cy="540.03" rx="2.0401" ry="1.38472" fill="#F25E53"/>
<ellipse cx="757.513" cy="513.703" rx="2.0401" ry="1.38472" fill="#F25E53"/>
<ellipse cx="745.022" cy="492.909" rx="2.0401" ry="1.38472" fill="#C82016"/>
<ellipse cx="844.032" cy="613.195" rx="2.0401" ry="1.38472" fill="#F25E53"/>
<ellipse cx="837.952" cy="579.321" rx="2.0401" ry="1.38472" fill="#C82016"/>
<ellipse cx="827.288" cy="610.095" rx="2.0401" ry="1.38472" fill="#F25E53"/>
<ellipse cx="858.623" cy="635.499" rx="2.0401" ry="1.38472" fill="#F25E53"/>
<ellipse cx="824.448" cy="647.588" rx="2.0401" ry="1.38472" fill="#F25E53"/>
<path d="M283.624 536.633C272.476 534.321 265.624 567.453 263.592 584.308C260.979 614.648 225.56 618.5 221.496 603.571C217.431 588.643 202.335 608.869 195.367 594.903C188.399 580.937 208.722 592.977 211.625 578.048C214.528 563.119 187.819 579.011 186.948 565.527C186.077 552.043 206.109 568.898 208.722 553.969C211.335 539.041 195.367 546.264 191.883 523.63C188.399 500.996 212.786 547.709 211.625 542.893C210.464 538.078 221.496 510.628 221.496 536.633C221.496 562.638 228.754 566.009 225.56 533.743C222.367 501.478 208.722 509.183 202.335 490.402C195.948 471.621 216.56 500.997 214.818 484.623C213.076 468.25 200.302 487.512 189.851 466.323C179.399 445.134 206.98 480.771 208.722 466.323C210.464 451.876 195.077 459.1 202.335 443.208C209.593 427.316 207.56 461.026 221.496 474.028C235.431 487.031 222.947 457.655 231.367 455.247C239.786 452.839 229.625 487.512 238.044 490.402C246.463 493.291 240.076 466.323 238.044 449.468C236.012 432.613 220.334 427.798 231.367 425.871C242.399 423.945 210.754 394.087 225.56 399.385C240.366 404.682 224.109 380.603 231.367 380.603C238.625 380.603 237.754 403.719 243.27 427.798C248.786 451.876 249.657 432.613 254.882 437.911C260.108 443.208 245.012 448.987 249.657 474.028C254.302 499.07 251.689 461.989 259.818 474.028C267.947 486.068 245.302 494.736 249.657 514.481C254.011 534.225 257.786 521.223 259.818 503.886C261.85 486.549 279.269 480.771 266.205 443.208C253.14 405.645 283.624 432.613 273.173 420.092C262.721 407.571 258.076 389.272 273.173 403.719C288.269 418.166 267.947 371.935 280.721 370.009C293.495 368.083 270.269 451.876 290.011 422.982C309.753 394.088 282.172 480.771 295.237 466.323C305.688 454.766 303.075 471.139 300.462 480.771C317.301 492.328 274.624 513.518 290.011 517.37C305.398 521.223 297.559 539.522 283.624 536.633Z" fill="#F75D2C"/>
<ellipse cx="2.34781" cy="2.64336" rx="2.34781" ry="2.64336" transform="matrix(-1 0 0 1 250.677 488.364)" fill="#F7812C"/>
<ellipse cx="2.34781" cy="2.64336" rx="2.34781" ry="2.64336" transform="matrix(-1 0 0 1 269.722 518.961)" fill="#F7382C"/>
<ellipse cx="2.34781" cy="2.64336" rx="2.34781" ry="2.64336" transform="matrix(-1 0 0 1 283.4 502.926)" fill="#F7812C"/>
<ellipse cx="2.34781" cy="2.64336" rx="2.34781" ry="2.64336" transform="matrix(-1 0 0 1 283.4 524.894)" fill="#F7382C"/>
<ellipse cx="2.34781" cy="2.64336" rx="2.34781" ry="2.64336" transform="matrix(-1 0 0 1 273.85 440.272)" fill="#F7812C"/>
<ellipse cx="2.34781" cy="2.64336" rx="2.34781" ry="2.64336" transform="matrix(-1 0 0 1 249.086 445.558)" fill="#F7812C"/>
<ellipse cx="2.34781" cy="2.64336" rx="2.34781" ry="2.64336" transform="matrix(-1 0 0 1 239.062 430.514)" fill="#F7812C"/>
<ellipse cx="2.34781" cy="2.64336" rx="2.34781" ry="2.64336" transform="matrix(-1 0 0 1 236.713 505.021)" fill="#F7812C"/>
<ellipse cx="2.34781" cy="2.64336" rx="2.34781" ry="2.64336" transform="matrix(-1 0 0 1 236.036 556.466)" fill="#F7812C"/>
<ellipse cx="2.34781" cy="2.64336" rx="2.34781" ry="2.64336" transform="matrix(-1 0 0 1 244.043 577.602)" fill="#F7812C"/>
<ellipse cx="2.34781" cy="2.64336" rx="2.34781" ry="2.64336" transform="matrix(-1 0 0 1 295.724 489.302)" fill="#F7382C"/>
<ellipse cx="2.34781" cy="2.64336" rx="2.34781" ry="2.64336" transform="matrix(-1 0 0 1 291.875 430.514)" fill="#F7382C"/>
<ellipse cx="2.34781" cy="2.64336" rx="2.34781" ry="2.64336" transform="matrix(-1 0 0 1 219.388 543.648)" fill="#F7812C"/>
<ellipse cx="2.34781" cy="2.64336" rx="2.34781" ry="2.64336" transform="matrix(-1 0 0 1 216.905 566.401)" fill="#F7382C"/>
<ellipse cx="2.34781" cy="2.64336" rx="2.34781" ry="2.64336" transform="matrix(-1 0 0 1 211.694 588.175)" fill="#F7382C"/>
<ellipse cx="2.34781" cy="2.64336" rx="2.34781" ry="2.64336" transform="matrix(-1 0 0 1 245.594 545.653)" fill="#F7382C"/>
<ellipse cx="2.34781" cy="2.64336" rx="2.34781" ry="2.64336" transform="matrix(-1 0 0 1 253.782 582.889)" fill="#F7382C"/>
<ellipse cx="2.34781" cy="2.64336" rx="2.34781" ry="2.64336" transform="matrix(-1 0 0 1 260.93 561.114)" fill="#F7812C"/>
<ellipse cx="3.99516" cy="4.49809" rx="3.99516" ry="4.49809" transform="matrix(-1 0 0 1 233.128 585.532)" fill="#F7382C"/>
<ellipse cx="1.78061" cy="2.00476" rx="1.78061" ry="2.00476" transform="matrix(-1 0 0 1 257.012 532.602)" fill="#F7382C"/>
<ellipse cx="1.78061" cy="2.00476" rx="1.78061" ry="2.00476" transform="matrix(-1 0 0 1 233.798 546.931)" fill="#F7812C"/>
<ellipse cx="1.78061" cy="2.00476" rx="1.78061" ry="2.00476" transform="matrix(-1 0 0 1 250.677 573.592)" fill="#F7812C"/>
<ellipse cx="1.78061" cy="2.00476" rx="1.78061" ry="2.00476" transform="matrix(-1 0 0 1 221.812 559.11)" fill="#F7812C"/>
<ellipse cx="1.78061" cy="2.00476" rx="1.78061" ry="2.00476" transform="matrix(-1 0 0 1 245.028 527.587)" fill="#F7812C"/>
<ellipse cx="1.78061" cy="2.00476" rx="1.78061" ry="2.00476" transform="matrix(-1 0 0 1 271.503 534.607)" fill="#F7812C"/>
<ellipse cx="1.78061" cy="2.00476" rx="1.78061" ry="2.00476" transform="matrix(-1 0 0 1 290.741 530.18)" fill="#F7812C"/>
<ellipse cx="1.78061" cy="2.00476" rx="1.78061" ry="2.00476" transform="matrix(-1 0 0 1 232.017 530.597)" fill="#F7812C"/>
<ellipse cx="1.5908" cy="1.79106" rx="1.5908" ry="1.79106" transform="matrix(-1 0 0 1 221.812 484.782)" fill="#F7382C"/>
<ellipse cx="1.5908" cy="1.79106" rx="1.5908" ry="1.79106" transform="matrix(-1 0 0 1 195.035 465.629)" fill="#F7382C"/>
<ellipse cx="1.5908" cy="1.79106" rx="1.5908" ry="1.79106" transform="matrix(-1 0 0 1 232.315 489.216)" fill="#F7812C"/>
<ellipse cx="1.5908" cy="1.79106" rx="1.5908" ry="1.79106" transform="matrix(-1 0 0 1 245.694 467.565)" fill="#F7382C"/>
<ellipse cx="1.5908" cy="1.79106" rx="1.5908" ry="1.79106" transform="matrix(-1 0 0 1 230.724 404.342)" fill="#F7812C"/>
<ellipse cx="1.5908" cy="1.79106" rx="1.5908" ry="1.79106" transform="matrix(-1 0 0 1 259.416 478.112)" fill="#F7812C"/>
<ellipse cx="1.5908" cy="1.79106" rx="1.5908" ry="1.79106" transform="matrix(-1 0 0 1 298.905 472.435)" fill="#F7812C"/>
<ellipse cx="1.5908" cy="1.79106" rx="1.5908" ry="1.79106" transform="matrix(-1 0 0 1 245.981 501.987)" fill="#F7382C"/>
<ellipse cx="1.5908" cy="1.79106" rx="1.5908" ry="1.79106" transform="matrix(-1 0 0 1 266.473 505.021)" fill="#F7812C"/>
<ellipse cx="1.5908" cy="1.79106" rx="1.5908" ry="1.79106" transform="matrix(-1 0 0 1 277.032 467.42)" fill="#F7812C"/>
<ellipse cx="1.5908" cy="1.79106" rx="1.5908" ry="1.79106" transform="matrix(-1 0 0 1 279.462 415.995)" fill="#F7382C"/>
<ellipse cx="1.5908" cy="1.79106" rx="1.5908" ry="1.79106" transform="matrix(-1 0 0 1 275.44 487.425)" fill="#F7382C"/>
<ellipse cx="1.5908" cy="1.79106" rx="1.5908" ry="1.79106" transform="matrix(-1 0 0 1 198.217 526.01)" fill="#F7812C"/>
<ellipse cx="1.5908" cy="1.79106" rx="1.5908" ry="1.79106" transform="matrix(-1 0 0 1 252.078 594.528)" fill="#F7812C"/>
<ellipse cx="1.5908" cy="1.79106" rx="1.5908" ry="1.79106" transform="matrix(-1 0 0 1 236.979 604.244)" fill="#F7382C"/>
<ellipse cx="1.1038" cy="1.24275" rx="1.1038" ry="1.24275" transform="matrix(-1 0 0 1 214.557 468.663)" fill="#F7812C"/>
<ellipse cx="1.1038" cy="1.24275" rx="1.1038" ry="1.24275" transform="matrix(-1 0 0 1 231.34 466.178)" fill="#F7812C"/>
<ellipse cx="1.1038" cy="1.24275" rx="1.1038" ry="1.24275" transform="matrix(-1 0 0 1 242.799 444.317)" fill="#F7382C"/>
<ellipse cx="1.1038" cy="1.24275" rx="1.1038" ry="1.24275" transform="matrix(-1 0 0 1 239.062 417.093)" fill="#F7812C"/>
<ellipse cx="1.1038" cy="1.24275" rx="1.1038" ry="1.24275" transform="matrix(-1 0 0 1 236.854 413.331)" fill="#F7382C"/>
<ellipse cx="1.1038" cy="1.24275" rx="1.1038" ry="1.24275" transform="matrix(-1 0 0 1 235.469 390.239)" fill="#F7382C"/>
<ellipse cx="1.1038" cy="1.24275" rx="1.1038" ry="1.24275" transform="matrix(-1 0 0 1 222.916 503.778)" fill="#F7812C"/>
<ellipse cx="1.1038" cy="1.24275" rx="1.1038" ry="1.24275" transform="matrix(-1 0 0 1 201.107 472.984)" fill="#F7812C"/>
<ellipse cx="1.5908" cy="1.79106" rx="1.5908" ry="1.79106" transform="matrix(-1 0 0 1 207.776 445.558)" fill="#F7382C"/>
<ellipse cx="1.5908" cy="1.79106" rx="1.5908" ry="1.79106" transform="matrix(-1 0 0 1 220.222 490.068)" fill="#F7382C"/>
<ellipse cx="1.5908" cy="1.79106" rx="1.5908" ry="1.79106" transform="matrix(-1 0 0 1 291.029 481.2)" fill="#F7812C"/>
<ellipse cx="1.5908" cy="1.79106" rx="1.5908" ry="1.79106" transform="matrix(-1 0 0 1 291.028 456.413)" fill="#F7382C"/>
<ellipse cx="1.5908" cy="1.79106" rx="1.5908" ry="1.79106" transform="matrix(-1 0 0 1 285.084 441.977)" fill="#F7812C"/>
<ellipse cx="1.5908" cy="1.79106" rx="1.5908" ry="1.79106" transform="matrix(-1 0 0 1 272.903 407.924)" fill="#F7812C"/>
<ellipse cx="1.5908" cy="1.79106" rx="1.5908" ry="1.79106" transform="matrix(-1 0 0 1 282.644 381.028)" fill="#F7382C"/>
<ellipse cx="1.5908" cy="1.79106" rx="1.5908" ry="1.79106" transform="matrix(-1 0 0 1 205.438 536.612)" fill="#F7812C"/>
<ellipse cx="1.5908" cy="1.79106" rx="1.5908" ry="1.79106" transform="matrix(-1 0 0 1 210.181 492.798)" fill="#F7382C"/>
<ellipse cx="1.5908" cy="1.79106" rx="1.5908" ry="1.79106" transform="matrix(-1 0 0 1 218.496 532.602)" fill="#F7812C"/>
<ellipse cx="1.5908" cy="1.79106" rx="1.5908" ry="1.79106" transform="matrix(-1 0 0 1 194.062 565.462)" fill="#F7812C"/>
<ellipse cx="1.5908" cy="1.79106" rx="1.5908" ry="1.79106" transform="matrix(-1 0 0 1 220.709 581.097)" fill="#F7812C"/>
<path d="M315.827 699.546C336.032 705.693 335.549 689.512 332.781 680.653C346.115 668.318 334.23 657.448 326.621 653.554C333.926 632.885 316.138 627.964 306.332 628.087C282.746 608.646 271.651 641.319 269.981 653.076C268.31 664.834 272.538 664.484 263.28 674.915C254.021 685.347 269.267 704.099 277.601 696.39C285.935 688.681 290.57 691.863 315.827 699.546Z" fill="#E53D30"/>
<path d="M319.518 656.198C311.971 658.009 287.935 669.247 279.008 678.479" stroke="#F25E53" stroke-linecap="round"/>
<path d="M328.126 679.906C320.667 675.615 301.329 670.066 283.641 682.204" stroke="#F25E53" stroke-linecap="round"/>
<path d="M302.349 636.133C296.89 636.89 283.713 645.43 274.673 673.537" stroke="#F25E53" stroke-linecap="round"/>
<path d="M756.269 654.411C753.678 650.608 740.964 658.825 734.931 663.409C731.556 659.18 723.569 651.183 718.618 653.029C712.43 655.337 725.037 669.227 724.61 673.029C724.183 676.831 702.844 685.83 707.926 689.942C713.008 694.055 725.539 686.686 729.787 688.626C734.035 690.566 728.699 707.907 733.684 708.082C738.67 708.258 742.745 692.546 744.22 689.015C745.694 685.485 761.813 695.535 763.035 690.821C764.258 686.108 753.357 679.647 750.564 676.407C747.771 673.168 759.508 659.163 756.269 654.411Z" fill="#F7812C"/>
<ellipse cx="750.156" cy="659.31" rx="1.57339" ry="0.953852" fill="#F9CA84"/>
<ellipse cx="747.01" cy="662.664" rx="1.57339" ry="0.953852" fill="#F9CA84"/>
<ellipse cx="743.175" cy="668.595" rx="1.57339" ry="0.953852" fill="#F9CA84"/>
<ellipse cx="739.342" cy="675.068" rx="1.57339" ry="0.953852" fill="#F9CA84"/>
<ellipse cx="746.322" cy="674.118" rx="1.57339" ry="0.953852" fill="#F9CA84"/>
<ellipse cx="733.619" cy="674.704" rx="1.57339" ry="0.953852" fill="#F9CA84"/>
<ellipse cx="736.766" cy="668.595" rx="1.57339" ry="0.953852" fill="#F9CA84"/>
<ellipse cx="727.481" cy="670.502" rx="1.57339" ry="0.953852" fill="#F9CA84"/>
<ellipse cx="727.928" cy="676.026" rx="1.57339" ry="0.953852" fill="#F9CA84"/>
<ellipse cx="724.782" cy="679.868" rx="1.57339" ry="0.953852" fill="#F9CA84"/>
<ellipse cx="731.397" cy="680.822" rx="1.57339" ry="0.953852" fill="#F9CA84"/>
<ellipse cx="730.473" cy="684.637" rx="1.57339" ry="0.953852" fill="#F9CA84"/>
<ellipse cx="737.283" cy="680.822" rx="1.57339" ry="0.953852" fill="#F9CA84"/>
<ellipse cx="745.432" cy="680.822" rx="1.57339" ry="0.953852" fill="#F9CA84"/>
<ellipse cx="751.379" cy="684.637" rx="1.57339" ry="0.953852" fill="#F9CA84"/>
<ellipse cx="757.895" cy="686.545" rx="1.57339" ry="0.953852" fill="#F9CA84"/>
<ellipse cx="742.285" cy="686.188" rx="1.57339" ry="0.953852" fill="#F9CA84"/>
<ellipse cx="736.195" cy="691.34" rx="1.57339" ry="0.953852" fill="#F9CA84"/>
<ellipse cx="734.622" cy="697.045" rx="1.57339" ry="0.953852" fill="#F9CA84"/>
<ellipse cx="722.384" cy="683.683" rx="1.57339" ry="0.953852" fill="#F9CA84"/>
<ellipse cx="715.263" cy="686.188" rx="1.57339" ry="0.953852" fill="#F9CA84"/>
<ellipse cx="731.075" cy="663.973" rx="1.57339" ry="0.953852" fill="#F9CA84"/>
<ellipse cx="723.707" cy="661.71" rx="1.57339" ry="0.953852" fill="#F9CA84"/>
<ellipse cx="725.907" cy="657.402" rx="1.57339" ry="0.953852" fill="#F9CA84"/>
<ellipse cx="736.195" cy="701.551" rx="1.57339" ry="0.953852" fill="#F9CA84"/>
<path d="M142.754 591.734C145.481 588.386 134.688 579.149 128.951 574.949C131.852 570.782 136.908 561.458 133.923 557.499C130.191 552.551 121.071 567.607 117.537 568.24C114.003 568.873 100.2 552.087 97.8602 557.759C95.5205 563.43 105.502 572.73 104.894 577.07C104.285 581.41 87.2598 581.25 88.4361 585.781C89.6125 590.311 104.835 589.773 108.405 590.155C111.975 590.537 107.248 607.723 111.815 607.562C116.381 607.401 119.276 595.867 121.442 592.488C123.609 589.109 139.346 595.919 142.754 591.734Z" fill="#F7812C"/>
<ellipse cx="103.219" cy="561.557" rx="0.801495" ry="0.587814" fill="#F9CA84"/>
<ellipse cx="102.418" cy="563.914" rx="0.801495" ry="0.587814" fill="#F9CA84"/>
<ellipse cx="111.958" cy="568.322" rx="0.801495" ry="0.587814" fill="#F9CA84"/>
<ellipse cx="109.146" cy="572.769" rx="0.801495" ry="0.587814" fill="#F9CA84"/>
<ellipse cx="114.2" cy="572.997" rx="0.801495" ry="0.587814" fill="#F9CA84"/>
<ellipse cx="122.259" cy="570.375" rx="0.801495" ry="0.587814" fill="#F9CA84"/>
<ellipse cx="119.328" cy="590.508" rx="0.801495" ry="0.587814" fill="#F9CA84"/>
<ellipse cx="114.428" cy="593.746" rx="0.801495" ry="0.587814" fill="#F9CA84"/>
<ellipse cx="115.23" cy="597.687" rx="0.801495" ry="0.587814" fill="#F9CA84"/>
<ellipse cx="113.628" cy="603.129" rx="0.801495" ry="0.587814" fill="#F9CA84"/>
<ellipse cx="131.674" cy="581.501" rx="0.801495" ry="0.587814" fill="#F9CA84"/>
<ellipse cx="126.04" cy="588.158" rx="0.801495" ry="0.587814" fill="#F9CA84"/>
<ellipse cx="133.557" cy="589.921" rx="0.801495" ry="0.587814" fill="#F9CA84"/>
<ellipse cx="139.75" cy="588.746" rx="0.801495" ry="0.587814" fill="#F9CA84"/>
<ellipse cx="125.239" cy="577.729" rx="0.801495" ry="0.587814" fill="#F9CA84"/>
<ellipse cx="114.428" cy="583.264" rx="0.801495" ry="0.587814" fill="#F9CA84"/>
<ellipse cx="107.384" cy="585.911" rx="0.801495" ry="0.587814" fill="#F9CA84"/>
<ellipse cx="100.816" cy="583.518" rx="0.801495" ry="0.587814" fill="#F9CA84"/>
<ellipse cx="95.9836" cy="585.911" rx="0.801495" ry="0.587814" fill="#F9CA84"/>
<ellipse cx="127.642" cy="572.997" rx="0.801495" ry="0.587814" fill="#F9CA84"/>
<ellipse cx="131.198" cy="565.96" rx="0.801495" ry="0.587814" fill="#F9CA84"/>
<ellipse cx="131.999" cy="560.037" rx="0.801495" ry="0.587814" fill="#F9CA84"/>
</g>
<defs>
<clipPath id="clip0_743_201">
<rect width="1024" height="768" fill="white" transform="translate(0.0751953 0.5)"/>
</clipPath>
</defs>
</svg>
