<svg width="1440" height="838" viewBox="0 0 1440 838" fill="none" xmlns="http://www.w3.org/2000/svg">
<g clip-path="url(#clip0_578_147)">
<rect width="1440" height="838" fill="#69235C"/>
<rect x="0.000244141" y="645.65" width="1440" height="192.35" fill="#301244"/>
<ellipse cx="155.135" cy="758.319" rx="100.104" ry="14.8112" fill="#9952E1"/>
<ellipse cx="565.998" cy="815.211" rx="64.6123" ry="9.55991" fill="#55BBBB"/>
<ellipse cx="1297.91" cy="709.565" rx="127.17" ry="18.8158" fill="#5EB9EC"/>
<path d="M1396.53 800.388C1396.53 800.69 1396.32 801.202 1395.37 801.887C1394.45 802.55 1393.04 803.232 1391.11 803.904C1387.28 805.244 1381.69 806.467 1374.7 807.5C1360.75 809.565 1341.44 810.845 1320.09 810.845C1298.74 810.845 1279.43 809.565 1265.48 807.5C1258.5 806.467 1252.9 805.244 1249.07 803.904C1247.15 803.232 1245.73 802.55 1244.81 801.887C1243.87 801.202 1243.66 800.69 1243.66 800.388C1243.66 800.086 1243.87 799.574 1244.81 798.889C1245.73 798.226 1247.15 797.544 1249.07 796.872C1252.9 795.532 1258.5 794.309 1265.48 793.275C1279.43 791.211 1298.74 789.93 1320.09 789.93C1341.44 789.93 1360.75 791.211 1374.7 793.275C1381.69 794.309 1387.28 795.532 1391.11 796.872C1393.04 797.544 1394.45 798.226 1395.37 798.889C1396.32 799.574 1396.53 800.086 1396.53 800.388Z" stroke="#F7382C" stroke-width="2"/>
<path d="M1301.72 788.931C1301.72 789.232 1301.51 789.744 1300.56 790.429C1299.64 791.093 1298.22 791.774 1296.3 792.446C1292.47 793.786 1286.87 795.01 1279.89 796.043C1265.94 798.107 1246.63 799.388 1225.28 799.388C1203.93 799.388 1184.62 798.107 1170.67 796.043C1163.69 795.01 1158.09 793.786 1154.26 792.446C1152.34 791.774 1150.92 791.093 1150 790.429C1149.06 789.744 1148.84 789.232 1148.84 788.931C1148.84 788.629 1149.06 788.117 1150 787.432C1150.92 786.768 1152.34 786.087 1154.26 785.415C1158.09 784.075 1163.69 782.851 1170.67 781.818C1184.62 779.754 1203.93 778.473 1225.28 778.473C1246.63 778.473 1265.94 779.754 1279.89 781.818C1286.87 782.851 1292.47 784.075 1296.3 785.415C1298.22 786.087 1299.64 786.768 1300.56 787.432C1301.51 788.117 1301.72 788.629 1301.72 788.931Z" stroke="#55BBBB" stroke-width="2"/>
<ellipse cx="977.183" cy="810.521" rx="75.2244" ry="11.1301" fill="#F9ED32"/>
<path d="M543.645 810.556C543.645 810.785 543.484 811.226 542.631 811.842C541.809 812.436 540.532 813.051 538.792 813.66C535.323 814.874 530.249 815.983 523.912 816.921C511.255 818.793 493.734 819.956 474.359 819.956C454.983 819.956 437.462 818.793 424.805 816.921C418.468 815.983 413.394 814.874 409.925 813.66C408.185 813.051 406.908 812.436 406.086 811.842C405.233 811.226 405.072 810.785 405.072 810.556C405.072 810.328 405.233 809.887 406.086 809.271C406.908 808.676 408.185 808.061 409.925 807.452C413.394 806.239 418.468 805.129 424.805 804.192C437.462 802.319 454.983 801.157 474.359 801.157C493.734 801.157 511.255 802.319 523.912 804.192C530.249 805.129 535.323 806.239 538.792 807.452C540.532 808.061 541.809 808.676 542.631 809.271C543.484 809.887 543.645 810.328 543.645 810.556Z" stroke="#F7812C" stroke-width="2"/>
<path d="M680.167 682.021L1272.77 8.03027H1330.21L858.552 682.021H680.167Z" fill="#D159B6" fill-opacity="0.31"/>
<path d="M1389.27 706.558L1040.98 6.68164H969.416L1217.51 706.558H1389.27Z" fill="#A576FB" fill-opacity="0.6"/>
<path d="M280.557 710.296L33.5812 8.03027H-13.1062L147.525 710.296H280.557Z" fill="#893477" fill-opacity="0.51"/>
<path d="M100.17 683.012L320.884 4.2417H366.236L209.015 683.012H100.17Z" fill="#5A4482" fill-opacity="0.6"/>
<path d="M297.203 789.928L335.469 675.256H1109.25L1147.84 789.928H297.203Z" fill="#663E84"/>
<rect x="711.901" y="695.032" width="21.2288" height="94.7958" fill="#663966"/>
<path d="M871.204 699.742L892.275 696.943L903.392 789.883L881.193 789.883L871.204 699.742Z" fill="#663966"/>
<path d="M551.49 694.123L572.561 696.921L561.876 789.964L539.312 789.964L551.49 694.123Z" fill="#663966"/>
<path d="M1016.44 694.567L1036.86 689.707L1058.63 789.96L1036.86 789.96L1016.44 694.567Z" fill="#663966"/>
<path d="M406.839 678.023L424.744 682.47L404.294 789.919L383.229 789.919L406.839 678.023Z" fill="#663966"/>
<ellipse cx="721.874" cy="675.256" rx="386.73" ry="49.9919" fill="#F6D6ED"/>
<path d="M1074.89 670.897C1074.89 696.1 916.841 716.531 721.874 716.531C526.907 716.531 368.854 696.1 368.854 670.897C368.854 645.694 526.907 631.676 721.874 631.676C916.841 631.676 1074.89 645.694 1074.89 670.897Z" fill="#A56ECE"/>
<path d="M459.742 697.616L289.702 238.596L376.427 195.449L501.064 415.323L477.086 180.871L585.461 150.284L700.268 375.359L821.165 140.484L919.348 168.438L887.39 372.488L1029.8 175.111L1121.83 223.498L980.337 697.616H459.742Z" fill="#C6986E" fill-opacity="0.47"/>
<path fill-rule="evenodd" clip-rule="evenodd" d="M345.245 13.3838V119.472H347.023L346.441 120.125L346.688 120.345H250.003L345.245 13.3838ZM345.245 0.373758H-8.14394V7.37376H22.4728L-78.1372 120.363L-72.9094 125.018L27.0971 12.7066V120.345H-8.14394V127.345H1474V120.345H1420.58L1523.18 5.11063L1517.96 0.455562L1415.15 115.913V7.37376H1474V0.373758H564.615V0.18335H557.615V0.373758H352.245V0.18335H345.245V0.373758ZM1408.15 13.712L1313.2 120.345H1408.15V13.712ZM557.615 14.0806L462.994 120.345H559.68L559.433 120.125L560.015 119.472H557.615V14.0806ZM564.615 114.305L659.831 7.37376H564.615V114.305ZM352.245 7.37376V113.607L446.839 7.37376H352.245ZM1302.31 13.9582V120.345H1207.58L1302.31 13.9582ZM1309.31 114.181L1404.42 7.37376H1309.31V114.181ZM1202.56 7.37376H1298.8L1202.46 115.576V7.49056L1202.56 7.37376ZM1195.46 15.3518L1101.97 120.345H1195.46V15.3518ZM1089.34 13.9406V120.345H994.592L1089.34 13.9406ZM1096.34 116.14L1193.19 7.37376H1096.34V116.14ZM989.995 7.37376H1085.81L989.995 114.982V7.37376ZM982.995 12.7817L887.217 120.345H982.995V12.7817ZM876.138 14.1757V120.345H781.601L876.138 14.1757ZM883.138 114.399L978.437 7.37376H883.138V114.399ZM777.305 7.37376H872.822L777.305 114.643V7.37376ZM770.305 12.4429L674.226 120.345H770.305V12.4429ZM663.96 13.2629V120.345H568.61L663.96 13.2629ZM670.96 113.486L765.446 7.37376H670.96V113.486ZM451.43 12.744V120.345H355.618L451.43 12.744ZM458.43 114.944L554.215 7.37376H458.43V114.944ZM239.923 13.0538V120.345H144.388L239.923 13.0538ZM246.923 113.277L341.224 7.37376H246.923V113.277ZM140.762 7.37376H235.608L140.762 113.89V7.37376ZM128.232 7.37376H34.0971V113.091L128.232 7.37376ZM37.0114 120.345H133.762V11.69L37.0114 120.345Z" fill="black"/>
<path d="M477.704 73.6617L534.731 58.8032L618.242 148.065L448.638 192.255L477.704 73.6617Z" fill="black"/>
<rect x="476.746" y="-16.0232" width="15.8429" height="112.678" transform="rotate(-14.6037 476.746 -16.0232)" fill="black"/>
<rect x="444.112" y="179.687" width="177.723" height="18.8502" rx="5" transform="rotate(-14.6037 444.112 179.687)" fill="black"/>
<path d="M273.603 151.603L317.312 130.144L399.679 188.594L269.685 252.416L273.603 151.603Z" fill="black"/>
<rect x="223.683" y="9.2688" width="13.0904" height="170.959" transform="rotate(-26.1491 223.683 9.2688)" fill="black"/>
<rect x="263.943" y="242.99" width="146.846" height="15.5751" rx="5" transform="rotate(-26.1491 263.943 242.99)" fill="black"/>
<path d="M869.308 47.0629L926.337 61.9178L955.68 180.58L786.073 136.4L869.308 47.0629Z" fill="black"/>
<rect x="912.23" y="-31.6895" width="15.8429" height="112.678" transform="rotate(14.6 912.23 -31.6895)" fill="black"/>
<rect x="788.255" y="123.221" width="177.723" height="18.8502" rx="5" transform="rotate(14.6 788.255 123.221)" fill="black"/>
<path d="M1090.27 97.2617L1143.11 123.363L1147.8 245.509L990.665 167.882L1090.27 97.2617Z" fill="black"/>
<rect x="1161.62" y="1.79224" width="15.8429" height="142.845" transform="rotate(26.2893 1161.62 1.79224)" fill="black"/>
<rect x="995.472" y="155.419" width="177.723" height="18.8502" rx="5" transform="rotate(26.2893 995.472 155.419)" fill="black"/>
</g>
<defs>
<clipPath id="clip0_578_147">
<rect width="1440" height="838" fill="white"/>
</clipPath>
</defs>
</svg>
