<svg width="390" height="845" viewBox="0 0 390 845" fill="none" xmlns="http://www.w3.org/2000/svg">
<g clip-path="url(#clip0_739_265)">
<rect width="390" height="844" transform="translate(0 0.5)" fill="#F1FF9B"/>
<path d="M67.1308 46.5C19.6141 114.515 -24.755 74.8394 -41 46.5V774.901H390V46.5C334.354 99.7697 320.451 63.3505 300.145 46.5C241.663 118.191 190.491 76.3713 172.216 46.5C129.572 107.162 84.3911 71.7757 67.1308 46.5Z" fill="#9CE6F6"/>
<path d="M67.1308 70.459C19.6141 138.474 -24.755 98.7984 -41 70.459V798.86H390V70.459C334.354 123.729 320.451 87.3095 300.145 70.459C241.663 142.15 190.491 100.33 172.216 70.459C129.572 131.121 84.3911 95.7347 67.1308 70.459Z" fill="#5FC6F1"/>
<path d="M91.0747 455.316C99.79 436.734 94.7061 410.582 91.0747 399.829C96.5944 413.378 106.239 444.219 100.662 459.187C95.0838 474.156 101.243 497.685 105.019 507.578L78.0017 504.352C73.644 493.383 80.1805 478.543 91.0747 455.316Z" fill="#9FCD6B"/>
<path d="M28.3249 363.697C23.4442 343.567 32.1016 319.178 37.0403 309.5C37.0403 389.505 47.9344 368.214 60.5717 402.409C70.6815 429.766 67.3987 483.49 64.4936 506.932L13.5088 510.804C15.5424 486.286 21.3526 433.637 28.3249 419.185C37.0402 401.119 34.4257 388.86 28.3249 363.697Z" fill="#80EBA4"/>
<path d="M3.48618 393.377C1.74312 376.859 13.7993 359.396 20.0453 352.729C6.97227 382.408 20.0453 409.507 30.068 415.959C40.0906 422.411 49.2417 459.187 41.8337 462.414C35.9073 464.994 33.5541 494.028 33.1183 508.223H0C0 501.126 3.48618 481.124 16.1234 454.026C28.7606 426.927 5.66501 414.023 3.48618 393.377Z" fill="#1D9CB5"/>
<path d="M47.0624 436.605C58.3924 465.64 37.0397 503.061 35.7324 505.642H63.1857C69.4317 490.157 78.1761 457.123 63.1857 448.864C48.1953 440.606 46.1908 400.689 47.0624 381.763C43.2857 390.366 37.9984 413.378 47.0624 436.605Z" fill="#37768E"/>
<path d="M312.431 443.437C328.794 410.82 319.249 364.916 312.431 346.041C322.794 369.824 340.903 423.958 330.43 450.232C319.958 476.506 331.521 517.805 338.612 535.17L287.886 529.507C279.704 510.255 291.977 484.207 312.431 443.437Z" fill="#1D9CB5"/>
<path d="M386.411 409.63C390.048 392.451 383.597 371.638 379.916 363.379C379.916 431.655 371.798 413.485 362.381 442.667C354.847 466.013 357.293 511.861 359.458 531.866L397.452 535.17C395.937 514.247 391.607 469.317 386.411 456.983C379.917 441.566 381.865 431.104 386.411 409.63Z" fill="#80EBA4"/>
<path d="M363.774 378.624C365.975 354.193 350.757 328.362 342.873 318.5C359.374 362.4 342.873 402.483 330.222 412.027C317.571 421.571 306.021 475.969 315.371 480.741C322.852 484.558 325.822 527.504 326.372 548.5H368.175C368.175 538.002 363.774 508.417 347.823 468.334C331.872 428.251 361.024 409.164 363.774 378.624Z" fill="#9FCD6B"/>
<path d="M279.893 450.329C294.787 486.01 266.718 531.998 265 535.17H301.088C309.298 516.14 320.793 475.543 301.088 465.394C281.383 455.245 278.748 406.19 279.893 382.932C274.929 393.504 267.979 421.784 279.893 450.329Z" fill="#37768E"/>
<path d="M244 504.31C142.4 459.51 23.6667 493.977 -23 516.81V844.81H413L405.5 516.81C394 531.31 345.6 549.11 244 504.31Z" fill="#FFF66D"/>
<ellipse cx="30" cy="545" rx="6" ry="3.5" fill="#F0E04D"/>
<ellipse cx="65" cy="592.5" rx="6" ry="3" fill="#F0E04D"/>
<ellipse cx="30" cy="653" rx="6" ry="3.5" fill="#F0E04D"/>
<ellipse cx="121" cy="682" rx="6" ry="3.5" fill="#F0E04D"/>
<ellipse cx="190" cy="657" rx="6" ry="3.5" fill="#F0E04D"/>
<ellipse cx="299" cy="722.5" rx="6" ry="3" fill="#F0E04D"/>
<ellipse cx="315" cy="640" rx="6" ry="3.5" fill="#F0E04D"/>
<ellipse cx="336.5" cy="592" rx="5.5" ry="3.5" fill="#F0E04D"/>
<ellipse cx="321" cy="561.5" rx="6" ry="3" fill="#F0E04D"/>
<ellipse cx="377" cy="640.5" rx="6" ry="3" fill="#F0E04D"/>
<ellipse cx="365" cy="805.5" rx="6" ry="3" fill="#F0E04D"/>
<ellipse cx="250" cy="741" rx="6" ry="3.5" fill="#F0E04D"/>
<ellipse cx="133" cy="822" rx="6" ry="3.5" fill="#F0E04D"/>
<ellipse cx="334" cy="766.5" rx="6" ry="3" fill="#F0E04D"/>
<ellipse cx="298" cy="818.5" rx="6" ry="3" fill="#F0E04D"/>
<ellipse cx="332" cy="692" rx="6" ry="3.5" fill="#F0E04D"/>
<ellipse cx="233" cy="695" rx="6" ry="3.5" fill="#F0E04D"/>
<ellipse cx="73" cy="502" rx="6" ry="3.5" fill="#F0E04D"/>
<ellipse cx="181" cy="713" rx="6" ry="3.5" fill="#F0E04D"/>
<ellipse cx="127" cy="747.5" rx="6" ry="3" fill="#F0E04D"/>
<ellipse cx="67" cy="712.5" rx="6" ry="3" fill="#F0E04D"/>
<ellipse cx="205" cy="778" rx="6" ry="3.5" fill="#F0E04D"/>
<path d="M12.0071 745.134C0.800991 759.199 -15.4828 756.434 -12.6813 768.017L0.392465 848.272C67.9403 847.996 206.211 847.61 218.911 848.272C234.787 849.099 246.926 843.308 241.323 832.552C235.72 821.796 189.962 830.07 170.352 806.903C150.741 783.737 140.469 800.284 115.255 779.6C90.0412 758.916 96.5781 763.053 71.3644 750.642C46.1507 738.231 66.6501 744.508 43.304 731.27C22.9093 719.705 23.2132 731.069 12.0071 745.134Z" fill="#9FCD6B"/>
<ellipse cx="28.7979" cy="778.175" rx="7.53521" ry="3.44307" fill="#B7E386"/>
<ellipse cx="87.8691" cy="813.837" rx="6.32513" ry="2.17187" fill="#47A87B"/>
<ellipse cx="21.2636" cy="816.009" rx="6.32513" ry="2.17187" fill="#47A87B"/>
<ellipse cx="99.622" cy="785.853" rx="5.42766" ry="1.5715" fill="#B7E386"/>
<ellipse cx="129.477" cy="813.494" rx="3.62876" ry="2.51443" fill="#47A87B"/>
<ellipse cx="65.8186" cy="799.482" rx="4.25905" ry="1.71458" fill="#B7E386"/>
<ellipse cx="146.486" cy="835.461" rx="4.25905" ry="1.71458" fill="#B7E386"/>
<ellipse cx="77.6121" cy="763.714" rx="3.93142" ry="2.82869" fill="#47A87B"/>
<ellipse cx="51.4041" cy="775.346" rx="3.93142" ry="2.82869" fill="#47A87B"/>
<ellipse cx="175.468" cy="822.737" rx="3.3139" ry="2.51443" fill="#47A87B"/>
<ellipse cx="110.851" cy="825.252" rx="4.00545" ry="1.88576" fill="#B7E386"/>
<ellipse cx="41.9025" cy="749.748" rx="5.56945" ry="2.20012" fill="#B7E386"/>
<ellipse cx="45.7236" cy="824.937" rx="5.78612" ry="1.5715" fill="#B7E386"/>
<path d="M290.997 741.07C301.158 739.8 307.403 758.004 309.255 767.265C311.636 783.935 343.917 786.052 347.622 777.849C351.326 769.647 365.085 780.76 371.436 773.086C377.786 765.413 359.264 772.028 356.618 763.825C353.972 755.623 378.315 764.355 379.109 756.946C379.903 749.537 361.646 758.798 359.264 750.595C356.883 742.393 371.436 746.362 374.611 733.926C377.786 721.489 355.56 747.156 356.618 744.51C357.677 741.864 347.622 726.781 347.622 741.07C347.622 755.358 341.007 757.21 343.917 739.482C346.828 721.754 359.264 725.988 365.085 715.668C370.907 705.349 352.12 721.489 353.708 712.493C355.295 703.496 366.938 714.08 376.463 702.438C385.989 690.796 360.852 710.376 359.264 702.438C357.677 694.5 371.7 698.469 365.085 689.737C358.47 681.005 360.323 699.527 347.622 706.672C334.921 713.816 346.299 697.675 338.625 696.352C330.952 695.029 340.213 714.08 332.54 715.668C324.866 717.256 330.687 702.438 332.54 693.177C334.392 683.916 348.68 681.27 338.625 680.212C328.571 679.153 357.412 662.748 343.917 665.659C330.423 668.569 345.24 655.339 338.625 655.339C332.01 655.339 332.804 668.04 327.777 681.27C322.749 694.5 321.955 683.916 317.193 686.827C312.43 689.737 326.189 692.912 321.955 706.672C317.722 720.431 320.103 700.057 312.694 706.672C305.286 713.287 325.925 718.05 321.955 728.898C317.986 739.747 314.547 732.603 312.694 723.077C310.842 713.551 294.966 710.376 306.873 689.737C318.78 669.098 290.997 683.916 300.523 677.036C310.048 670.157 314.282 660.102 300.523 668.04C286.764 675.978 305.286 650.576 293.643 649.518C282.001 648.46 303.169 694.5 285.176 678.624C267.183 662.748 292.32 710.376 280.413 702.438C270.888 696.088 273.269 705.084 275.65 710.376C260.304 716.727 299.2 728.369 285.176 730.486C271.152 732.603 278.297 742.657 290.997 741.07Z" fill="#E53D30"/>
<ellipse cx="323.164" cy="716.001" rx="2.13982" ry="1.4524" fill="#F25E53"/>
<ellipse cx="305.807" cy="732.813" rx="2.13982" ry="1.4524" fill="#C82016"/>
<ellipse cx="293.34" cy="724.002" rx="2.13982" ry="1.4524" fill="#F25E53"/>
<ellipse cx="293.34" cy="736.072" rx="2.13982" ry="1.4524" fill="#C82016"/>
<ellipse cx="302.044" cy="689.576" rx="2.13982" ry="1.4524" fill="#F25E53"/>
<ellipse cx="324.614" cy="692.481" rx="2.13982" ry="1.4524" fill="#F25E53"/>
<ellipse cx="333.751" cy="684.215" rx="2.13982" ry="1.4524" fill="#F25E53"/>
<ellipse cx="335.892" cy="725.153" rx="2.13982" ry="1.4524" fill="#F25E53"/>
<ellipse cx="336.509" cy="753.419" rx="2.13982" ry="1.4524" fill="#F25E53"/>
<ellipse cx="329.209" cy="765.033" rx="2.13982" ry="1.4524" fill="#F25E53"/>
<ellipse cx="282.109" cy="716.516" rx="2.13982" ry="1.4524" fill="#C82016"/>
<ellipse cx="285.616" cy="684.215" rx="2.13982" ry="1.4524" fill="#C82016"/>
<ellipse cx="351.681" cy="746.377" rx="2.13982" ry="1.4524" fill="#F25E53"/>
<ellipse cx="353.945" cy="758.878" rx="2.13982" ry="1.4524" fill="#C82016"/>
<ellipse cx="358.694" cy="770.842" rx="2.13982" ry="1.4524" fill="#C82016"/>
<ellipse cx="327.797" cy="747.478" rx="2.13982" ry="1.4524" fill="#C82016"/>
<ellipse cx="320.334" cy="767.937" rx="2.13982" ry="1.4524" fill="#C82016"/>
<ellipse cx="313.819" cy="755.973" rx="2.13982" ry="1.4524" fill="#F25E53"/>
<ellipse cx="340.66" cy="770.409" rx="3.64124" ry="2.47148" fill="#C82016"/>
<ellipse cx="316.873" cy="739.957" rx="1.62287" ry="1.10152" fill="#C82016"/>
<ellipse cx="338.031" cy="747.829" rx="1.62287" ry="1.10152" fill="#F25E53"/>
<ellipse cx="322.647" cy="762.479" rx="1.62287" ry="1.10152" fill="#F25E53"/>
<ellipse cx="348.955" cy="754.521" rx="1.62287" ry="1.10152" fill="#F25E53"/>
<ellipse cx="327.797" cy="737.201" rx="1.62287" ry="1.10152" fill="#F25E53"/>
<ellipse cx="303.667" cy="741.058" rx="1.62287" ry="1.10152" fill="#F25E53"/>
<ellipse cx="286.134" cy="738.626" rx="1.62287" ry="1.10152" fill="#F25E53"/>
<ellipse cx="339.654" cy="738.855" rx="1.62287" ry="1.10152" fill="#F25E53"/>
<ellipse cx="348.782" cy="713.564" rx="1.44988" ry="0.9841" fill="#C82016"/>
<ellipse cx="373.187" cy="703.041" rx="1.44988" ry="0.9841" fill="#C82016"/>
<ellipse cx="339.21" cy="716.001" rx="1.44988" ry="0.9841" fill="#F25E53"/>
<ellipse cx="327.015" cy="704.105" rx="1.44988" ry="0.9841" fill="#C82016"/>
<ellipse cx="340.66" cy="669.366" rx="1.44988" ry="0.9841" fill="#F25E53"/>
<ellipse cx="314.509" cy="709.899" rx="1.44988" ry="0.9841" fill="#F25E53"/>
<ellipse cx="278.518" cy="706.78" rx="1.44988" ry="0.9841" fill="#F25E53"/>
<ellipse cx="326.755" cy="723.018" rx="1.44988" ry="0.9841" fill="#C82016"/>
<ellipse cx="308.078" cy="724.684" rx="1.44988" ry="0.9841" fill="#F25E53"/>
<ellipse cx="298.455" cy="704.025" rx="1.44988" ry="0.9841" fill="#F25E53"/>
<ellipse cx="296.24" cy="675.769" rx="1.44988" ry="0.9841" fill="#C82016"/>
<ellipse cx="299.904" cy="715.017" rx="1.44988" ry="0.9841" fill="#C82016"/>
<ellipse cx="370.287" cy="736.217" rx="1.44988" ry="0.9841" fill="#F25E53"/>
<ellipse cx="321.198" cy="773.864" rx="1.44988" ry="0.9841" fill="#F25E53"/>
<ellipse cx="334.959" cy="779.203" rx="1.44988" ry="0.9841" fill="#C82016"/>
<ellipse cx="354.95" cy="704.406" rx="1.00562" ry="0.682562" fill="#F25E53"/>
<ellipse cx="339.654" cy="703.041" rx="1.00562" ry="0.682562" fill="#F25E53"/>
<ellipse cx="329.21" cy="691.029" rx="1.00562" ry="0.682562" fill="#C82016"/>
<ellipse cx="332.617" cy="676.071" rx="1.00562" ry="0.682562" fill="#F25E53"/>
<ellipse cx="334.629" cy="674.004" rx="1.00562" ry="0.682562" fill="#C82016"/>
<ellipse cx="335.891" cy="661.316" rx="1.00562" ry="0.682562" fill="#C82016"/>
<ellipse cx="347.332" cy="723.7" rx="1.00562" ry="0.682562" fill="#F25E53"/>
<ellipse cx="367.209" cy="706.78" rx="1.00562" ry="0.682562" fill="#F25E53"/>
<ellipse cx="361.575" cy="692.013" rx="1.44988" ry="0.9841" fill="#C82016"/>
<ellipse cx="350.232" cy="716.469" rx="1.44988" ry="0.9841" fill="#C82016"/>
<ellipse cx="285.698" cy="711.596" rx="1.44988" ry="0.9841" fill="#F25E53"/>
<ellipse cx="285.698" cy="697.977" rx="1.44988" ry="0.9841" fill="#C82016"/>
<ellipse cx="291.115" cy="690.045" rx="1.44988" ry="0.9841" fill="#F25E53"/>
<ellipse cx="302.216" cy="671.335" rx="1.44988" ry="0.9841" fill="#F25E53"/>
<ellipse cx="293.34" cy="656.556" rx="1.44988" ry="0.9841" fill="#C82016"/>
<ellipse cx="363.705" cy="742.042" rx="1.44988" ry="0.9841" fill="#F25E53"/>
<ellipse cx="359.383" cy="717.969" rx="1.44988" ry="0.9841" fill="#C82016"/>
<ellipse cx="351.805" cy="739.839" rx="1.44988" ry="0.9841" fill="#F25E53"/>
<ellipse cx="374.075" cy="757.894" rx="1.44988" ry="0.9841" fill="#F25E53"/>
<ellipse cx="349.787" cy="766.485" rx="1.44988" ry="0.9841" fill="#F25E53"/>
<path d="M231.949 734.49C234.089 731.863 225.62 724.614 221.119 721.319C223.395 718.049 227.362 710.733 225.02 707.627C222.092 703.744 214.936 715.558 212.163 716.055C209.39 716.551 198.559 703.38 196.723 707.83C194.888 712.28 202.72 719.578 202.242 722.983C201.765 726.388 188.406 726.263 189.329 729.818C190.252 733.373 202.196 732.951 204.997 733.25C207.798 733.55 204.089 747.035 207.673 746.909C211.256 746.782 213.527 737.732 215.227 735.081C216.927 732.43 229.275 737.773 231.949 734.49Z" fill="#F7812C"/>
<ellipse cx="200.928" cy="710.811" rx="0.628894" ry="0.461228" fill="#F9CA84"/>
<ellipse cx="200.3" cy="712.66" rx="0.628894" ry="0.461228" fill="#F9CA84"/>
<ellipse cx="207.786" cy="716.119" rx="0.628894" ry="0.461228" fill="#F9CA84"/>
<ellipse cx="205.579" cy="719.608" rx="0.628894" ry="0.461228" fill="#F9CA84"/>
<ellipse cx="209.544" cy="719.787" rx="0.628894" ry="0.461228" fill="#F9CA84"/>
<ellipse cx="215.867" cy="717.73" rx="0.628894" ry="0.461228" fill="#F9CA84"/>
<ellipse cx="213.568" cy="733.528" rx="0.628894" ry="0.461228" fill="#F9CA84"/>
<ellipse cx="209.724" cy="736.068" rx="0.628894" ry="0.461228" fill="#F9CA84"/>
<ellipse cx="210.353" cy="739.16" rx="0.628894" ry="0.461228" fill="#F9CA84"/>
<ellipse cx="209.095" cy="743.43" rx="0.628894" ry="0.461228" fill="#F9CA84"/>
<ellipse cx="223.255" cy="726.46" rx="0.628894" ry="0.461228" fill="#F9CA84"/>
<ellipse cx="218.835" cy="731.684" rx="0.628894" ry="0.461228" fill="#F9CA84"/>
<ellipse cx="224.732" cy="733.067" rx="0.628894" ry="0.461228" fill="#F9CA84"/>
<ellipse cx="229.592" cy="732.145" rx="0.628894" ry="0.461228" fill="#F9CA84"/>
<ellipse cx="218.206" cy="723.5" rx="0.628894" ry="0.461228" fill="#F9CA84"/>
<ellipse cx="209.724" cy="727.843" rx="0.628894" ry="0.461228" fill="#F9CA84"/>
<ellipse cx="204.196" cy="729.92" rx="0.628894" ry="0.461228" fill="#F9CA84"/>
<ellipse cx="199.043" cy="728.043" rx="0.628894" ry="0.461228" fill="#F9CA84"/>
<ellipse cx="195.251" cy="729.92" rx="0.628894" ry="0.461228" fill="#F9CA84"/>
<ellipse cx="220.092" cy="719.787" rx="0.628894" ry="0.461228" fill="#F9CA84"/>
<ellipse cx="222.882" cy="714.266" rx="0.628894" ry="0.461228" fill="#F9CA84"/>
<ellipse cx="223.511" cy="709.618" rx="0.628894" ry="0.461228" fill="#F9CA84"/>
<path d="M361.874 599.866C365.25 600.15 366.458 589.069 366.639 583.493C370.623 583.528 378.902 582.677 380.145 578.99C381.7 574.383 367.908 575.138 365.934 573.128C363.96 571.119 368.725 554.746 364.015 555.741C359.305 556.735 357.698 567.319 354.617 568.845C351.536 570.372 344.104 559.271 341.689 562.038C339.274 564.806 346.361 574.43 347.693 576.912C349.026 579.394 335.799 583.939 337.925 586.826C340.051 589.713 348.804 586.484 351.953 586.392C355.101 586.3 357.654 599.51 361.874 599.866Z" fill="#F7812C"/>
<ellipse cx="361.299" cy="560.893" rx="0.628894" ry="0.461228" transform="rotate(55.6597 361.299 560.893)" fill="#F9CA84"/>
<ellipse cx="359.417" cy="561.417" rx="0.628894" ry="0.461228" transform="rotate(55.6597 359.417 561.417)" fill="#F9CA84"/>
<ellipse cx="360.784" cy="569.55" rx="0.628894" ry="0.461228" transform="rotate(55.6597 360.784 569.55)" fill="#F9CA84"/>
<ellipse cx="356.659" cy="569.696" rx="0.628894" ry="0.461228" transform="rotate(55.6597 356.659 569.696)" fill="#F9CA84"/>
<ellipse cx="358.747" cy="573.071" rx="0.628894" ry="0.461228" transform="rotate(55.6597 358.747 573.071)" fill="#F9CA84"/>
<ellipse cx="364.013" cy="577.131" rx="0.628894" ry="0.461228" transform="rotate(55.6597 364.013 577.131)" fill="#F9CA84"/>
<ellipse cx="349.672" cy="584.145" rx="0.628894" ry="0.461228" transform="rotate(55.6597 349.672 584.145)" fill="#F9CA84"/>
<ellipse cx="345.406" cy="582.403" rx="0.628894" ry="0.461228" transform="rotate(55.6597 345.406 582.403)" fill="#F9CA84"/>
<ellipse cx="343.207" cy="584.667" rx="0.628894" ry="0.461228" transform="rotate(55.6597 343.207 584.667)" fill="#F9CA84"/>
<ellipse cx="338.972" cy="586.037" rx="0.628894" ry="0.461228" transform="rotate(55.6597 338.972 586.037)" fill="#F9CA84"/>
<ellipse cx="360.972" cy="588.156" rx="0.628894" ry="0.461228" transform="rotate(55.6597 360.972 588.156)" fill="#F9CA84"/>
<ellipse cx="354.165" cy="587.453" rx="0.628894" ry="0.461228" transform="rotate(55.6597 354.165 587.453)" fill="#F9CA84"/>
<ellipse cx="356.351" cy="593.103" rx="0.628894" ry="0.461228" transform="rotate(55.6597 356.351 593.103)" fill="#F9CA84"/>
<ellipse cx="359.853" cy="596.596" rx="0.628894" ry="0.461228" transform="rotate(55.6597 359.853 596.596)" fill="#F9CA84"/>
<ellipse cx="360.568" cy="582.317" rx="0.628894" ry="0.461228" transform="rotate(55.6597 360.568 582.317)" fill="#F9CA84"/>
<ellipse cx="352.197" cy="577.763" rx="0.628894" ry="0.461228" transform="rotate(55.6597 352.197 577.763)" fill="#F9CA84"/>
<ellipse cx="347.364" cy="574.371" rx="0.628894" ry="0.461228" transform="rotate(55.6597 347.364 574.371)" fill="#F9CA84"/>
<ellipse cx="346.007" cy="569.057" rx="0.628894" ry="0.461228" transform="rotate(55.6597 346.007 569.057)" fill="#F9CA84"/>
<ellipse cx="342.318" cy="566.985" rx="0.628894" ry="0.461228" transform="rotate(55.6597 342.318 566.985)" fill="#F9CA84"/>
<ellipse cx="364.698" cy="581.78" rx="0.628894" ry="0.461228" transform="rotate(55.6597 364.698 581.78)" fill="#F9CA84"/>
<ellipse cx="370.83" cy="580.97" rx="0.628894" ry="0.461228" transform="rotate(55.6597 370.83 580.97)" fill="#F9CA84"/>
<ellipse cx="375.023" cy="578.866" rx="0.628894" ry="0.461228" transform="rotate(55.6597 375.023 578.866)" fill="#F9CA84"/>
<path d="M85.8463 490.823C78.7165 489.514 74.3347 508.266 73.035 517.806C71.3639 534.977 48.7121 537.157 46.1127 528.708C43.5133 520.259 33.8584 531.706 29.4023 523.802C24.9462 515.898 37.9432 522.712 39.7999 514.262C41.6566 505.813 24.5748 514.808 24.0178 507.176C23.4608 499.544 36.2721 509.084 37.9432 500.635C39.6142 492.185 29.4023 496.274 27.1742 483.464C24.9462 470.654 40.5426 497.091 39.7999 494.366C39.0572 491.64 46.1127 476.105 46.1127 490.823C46.1127 505.541 50.7545 507.449 48.7121 489.187C46.6697 470.926 37.9432 475.287 33.8584 464.657C29.7736 454.028 42.9563 470.654 41.8423 461.387C40.7282 452.12 32.5587 463.022 25.8745 451.03C19.1904 439.037 36.8291 459.206 37.9432 451.03C39.0572 442.853 29.2166 446.941 33.8584 437.947C38.5002 428.953 37.2005 448.031 46.1127 455.39C55.0249 462.749 47.0411 446.124 52.4255 444.761C57.81 443.398 51.3115 463.022 56.696 464.657C62.0804 466.293 57.9956 451.03 56.696 441.49C55.3963 431.951 45.37 429.225 52.4255 428.135C59.481 427.045 39.2429 410.146 48.7121 413.144C58.1813 416.143 47.7837 402.515 52.4255 402.515C57.0673 402.515 56.5103 415.597 60.038 429.225C63.5658 442.853 64.1228 431.951 67.4649 434.949C70.807 437.947 61.1521 441.218 64.1228 455.39C67.0935 469.563 65.4225 448.577 70.6213 455.39C75.8201 462.204 61.3377 467.11 64.1228 478.285C66.9079 489.46 69.3216 482.101 70.6213 472.289C71.921 462.477 83.0613 459.206 74.706 437.947C66.3508 416.688 85.8463 431.951 79.1622 424.864C72.4781 417.778 69.5073 407.421 79.1622 415.597C88.8171 423.774 75.8201 397.609 83.9896 396.519C92.1591 395.428 77.3054 442.853 89.931 426.5C102.557 410.146 84.918 459.206 93.2732 451.03C99.9573 444.488 98.2862 453.755 96.6152 459.206C107.384 465.748 80.0904 477.74 89.931 479.921C99.7716 482.101 94.7585 492.458 85.8463 490.823Z" fill="#F75D2C"/>
<ellipse cx="1.50152" cy="1.49606" rx="1.50152" ry="1.49606" transform="matrix(-1 0 0 1 64.7764 463.504)" fill="#F7812C"/>
<ellipse cx="1.50152" cy="1.49606" rx="1.50152" ry="1.49606" transform="matrix(-1 0 0 1 76.9561 480.821)" fill="#F7382C"/>
<ellipse cx="1.50152" cy="1.49606" rx="1.50152" ry="1.49606" transform="matrix(-1 0 0 1 85.7041 471.745)" fill="#F7812C"/>
<ellipse cx="1.50152" cy="1.49606" rx="1.50152" ry="1.49606" transform="matrix(-1 0 0 1 85.7041 484.178)" fill="#F7382C"/>
<ellipse cx="1.50152" cy="1.49606" rx="1.50152" ry="1.49606" transform="matrix(-1 0 0 1 79.5967 436.285)" fill="#F7812C"/>
<ellipse cx="1.50152" cy="1.49606" rx="1.50152" ry="1.49606" transform="matrix(-1 0 0 1 63.7588 439.277)" fill="#F7812C"/>
<ellipse cx="1.50152" cy="1.49606" rx="1.50152" ry="1.49606" transform="matrix(-1 0 0 1 57.3477 430.762)" fill="#F7812C"/>
<ellipse cx="1.50152" cy="1.49606" rx="1.50152" ry="1.49606" transform="matrix(-1 0 0 1 55.8457 472.931)" fill="#F7812C"/>
<ellipse cx="1.50152" cy="1.49606" rx="1.50152" ry="1.49606" transform="matrix(-1 0 0 1 55.4131 502.048)" fill="#F7812C"/>
<ellipse cx="1.50152" cy="1.49606" rx="1.50152" ry="1.49606" transform="matrix(-1 0 0 1 60.5342 514.01)" fill="#F7812C"/>
<ellipse cx="1.50152" cy="1.49606" rx="1.50152" ry="1.49606" transform="matrix(-1 0 0 1 93.5859 464.035)" fill="#F7382C"/>
<ellipse cx="1.50152" cy="1.49606" rx="1.50152" ry="1.49606" transform="matrix(-1 0 0 1 91.124 430.762)" fill="#F7382C"/>
<ellipse cx="1.50152" cy="1.49606" rx="1.50152" ry="1.49606" transform="matrix(-1 0 0 1 44.7656 494.793)" fill="#F7812C"/>
<ellipse cx="1.50152" cy="1.49606" rx="1.50152" ry="1.49606" transform="matrix(-1 0 0 1 43.1768 507.67)" fill="#F7382C"/>
<ellipse cx="1.50152" cy="1.49606" rx="1.50152" ry="1.49606" transform="matrix(-1 0 0 1 39.8447 519.994)" fill="#F7382C"/>
<ellipse cx="1.50152" cy="1.49606" rx="1.50152" ry="1.49606" transform="matrix(-1 0 0 1 61.5254 495.928)" fill="#F7382C"/>
<ellipse cx="1.50152" cy="1.49606" rx="1.50152" ry="1.49606" transform="matrix(-1 0 0 1 66.7617 517.002)" fill="#F7382C"/>
<ellipse cx="1.50152" cy="1.49606" rx="1.50152" ry="1.49606" transform="matrix(-1 0 0 1 71.334 504.678)" fill="#F7812C"/>
<ellipse cx="2.55507" cy="2.54578" rx="2.55507" ry="2.54578" transform="matrix(-1 0 0 1 53.5537 518.498)" fill="#F7382C"/>
<ellipse cx="1.13877" cy="1.13463" rx="1.13877" ry="1.13463" transform="matrix(-1 0 0 1 68.8281 488.542)" fill="#F7382C"/>
<ellipse cx="1.13877" cy="1.13463" rx="1.13877" ry="1.13463" transform="matrix(-1 0 0 1 53.9814 496.651)" fill="#F7812C"/>
<ellipse cx="1.13877" cy="1.13463" rx="1.13877" ry="1.13463" transform="matrix(-1 0 0 1 64.7764 511.74)" fill="#F7812C"/>
<ellipse cx="1.13877" cy="1.13463" rx="1.13877" ry="1.13463" transform="matrix(-1 0 0 1 46.3164 503.544)" fill="#F7812C"/>
<ellipse cx="1.13877" cy="1.13463" rx="1.13877" ry="1.13463" transform="matrix(-1 0 0 1 61.1631 485.703)" fill="#F7812C"/>
<ellipse cx="1.13877" cy="1.13463" rx="1.13877" ry="1.13463" transform="matrix(-1 0 0 1 78.0957 489.676)" fill="#F7812C"/>
<ellipse cx="1.13877" cy="1.13463" rx="1.13877" ry="1.13463" transform="matrix(-1 0 0 1 90.3984 487.171)" fill="#F7812C"/>
<ellipse cx="1.13877" cy="1.13463" rx="1.13877" ry="1.13463" transform="matrix(-1 0 0 1 52.8418 487.407)" fill="#F7812C"/>
<ellipse cx="1.01738" cy="1.01369" rx="1.01738" ry="1.01369" transform="matrix(-1 0 0 1 46.3164 461.476)" fill="#F7382C"/>
<ellipse cx="1.01738" cy="1.01369" rx="1.01738" ry="1.01369" transform="matrix(-1 0 0 1 29.1914 450.637)" fill="#F7382C"/>
<ellipse cx="1.01738" cy="1.01369" rx="1.01738" ry="1.01369" transform="matrix(-1 0 0 1 53.0332 463.986)" fill="#F7812C"/>
<ellipse cx="1.01738" cy="1.01369" rx="1.01738" ry="1.01369" transform="matrix(-1 0 0 1 61.5889 451.732)" fill="#F7382C"/>
<ellipse cx="1.01738" cy="1.01369" rx="1.01738" ry="1.01369" transform="matrix(-1 0 0 1 52.0156 415.95)" fill="#F7812C"/>
<ellipse cx="1.01738" cy="1.01369" rx="1.01738" ry="1.01369" transform="matrix(-1 0 0 1 70.3662 457.701)" fill="#F7812C"/>
<ellipse cx="1.01738" cy="1.01369" rx="1.01738" ry="1.01369" transform="matrix(-1 0 0 1 95.6201 454.489)" fill="#F7812C"/>
<ellipse cx="1.01738" cy="1.01369" rx="1.01738" ry="1.01369" transform="matrix(-1 0 0 1 61.7725 471.214)" fill="#F7382C"/>
<ellipse cx="1.01738" cy="1.01369" rx="1.01738" ry="1.01369" transform="matrix(-1 0 0 1 74.8779 472.931)" fill="#F7812C"/>
<ellipse cx="1.01738" cy="1.01369" rx="1.01738" ry="1.01369" transform="matrix(-1 0 0 1 81.6318 451.65)" fill="#F7812C"/>
<ellipse cx="1.01738" cy="1.01369" rx="1.01738" ry="1.01369" transform="matrix(-1 0 0 1 83.1855 422.545)" fill="#F7382C"/>
<ellipse cx="1.01738" cy="1.01369" rx="1.01738" ry="1.01369" transform="matrix(-1 0 0 1 80.6133 462.973)" fill="#F7382C"/>
<ellipse cx="1.01738" cy="1.01369" rx="1.01738" ry="1.01369" transform="matrix(-1 0 0 1 31.2266 484.81)" fill="#F7812C"/>
<ellipse cx="1.01738" cy="1.01369" rx="1.01738" ry="1.01369" transform="matrix(-1 0 0 1 65.6719 523.589)" fill="#F7812C"/>
<ellipse cx="1.01738" cy="1.01369" rx="1.01738" ry="1.01369" transform="matrix(-1 0 0 1 56.0166 529.088)" fill="#F7382C"/>
<ellipse cx="0.705923" cy="0.703357" rx="0.705923" ry="0.703357" transform="matrix(-1 0 0 1 41.6758 452.354)" fill="#F7812C"/>
<ellipse cx="0.705923" cy="0.703357" rx="0.705923" ry="0.703357" transform="matrix(-1 0 0 1 52.4092 450.947)" fill="#F7812C"/>
<ellipse cx="0.705923" cy="0.703357" rx="0.705923" ry="0.703357" transform="matrix(-1 0 0 1 59.7383 438.574)" fill="#F7382C"/>
<ellipse cx="0.705923" cy="0.703357" rx="0.705923" ry="0.703357" transform="matrix(-1 0 0 1 57.3477 423.166)" fill="#F7812C"/>
<ellipse cx="0.705923" cy="0.703357" rx="0.705923" ry="0.703357" transform="matrix(-1 0 0 1 55.9365 421.038)" fill="#F7382C"/>
<ellipse cx="0.705923" cy="0.703357" rx="0.705923" ry="0.703357" transform="matrix(-1 0 0 1 55.0508 407.968)" fill="#F7382C"/>
<ellipse cx="0.705923" cy="0.703357" rx="0.705923" ry="0.703357" transform="matrix(-1 0 0 1 47.0225 472.228)" fill="#F7812C"/>
<ellipse cx="0.705923" cy="0.703357" rx="0.705923" ry="0.703357" transform="matrix(-1 0 0 1 33.0752 454.799)" fill="#F7812C"/>
<ellipse cx="1.01738" cy="1.01369" rx="1.01738" ry="1.01369" transform="matrix(-1 0 0 1 37.3398 439.277)" fill="#F7382C"/>
<ellipse cx="1.01738" cy="1.01369" rx="1.01738" ry="1.01369" transform="matrix(-1 0 0 1 45.2988 464.469)" fill="#F7382C"/>
<ellipse cx="1.01738" cy="1.01369" rx="1.01738" ry="1.01369" transform="matrix(-1 0 0 1 90.583 459.449)" fill="#F7812C"/>
<ellipse cx="1.01738" cy="1.01369" rx="1.01738" ry="1.01369" transform="matrix(-1 0 0 1 90.583 445.421)" fill="#F7382C"/>
<ellipse cx="1.01738" cy="1.01369" rx="1.01738" ry="1.01369" transform="matrix(-1 0 0 1 86.7812 437.25)" fill="#F7812C"/>
<ellipse cx="1.01738" cy="1.01369" rx="1.01738" ry="1.01369" transform="matrix(-1 0 0 1 78.9912 417.977)" fill="#F7812C"/>
<ellipse cx="1.01738" cy="1.01369" rx="1.01738" ry="1.01369" transform="matrix(-1 0 0 1 85.2197 402.755)" fill="#F7382C"/>
<ellipse cx="1.01738" cy="1.01369" rx="1.01738" ry="1.01369" transform="matrix(-1 0 0 1 35.8447 490.811)" fill="#F7812C"/>
<ellipse cx="1.01738" cy="1.01369" rx="1.01738" ry="1.01369" transform="matrix(-1 0 0 1 38.877 466.014)" fill="#F7382C"/>
<ellipse cx="1.01738" cy="1.01369" rx="1.01738" ry="1.01369" transform="matrix(-1 0 0 1 44.1953 488.542)" fill="#F7812C"/>
<ellipse cx="1.01738" cy="1.01369" rx="1.01738" ry="1.01369" transform="matrix(-1 0 0 1 28.5684 507.139)" fill="#F7812C"/>
<ellipse cx="1.01738" cy="1.01369" rx="1.01738" ry="1.01369" transform="matrix(-1 0 0 1 45.6104 515.988)" fill="#F7812C"/>
<path d="M73.2641 691.379C84.3465 694.751 84.0813 685.876 82.5635 681.017C89.877 674.251 83.3584 668.289 79.1849 666.153C83.1913 654.816 73.4351 652.117 68.0562 652.185C55.1194 641.522 49.0343 659.442 48.118 665.891C47.2018 672.34 49.5205 672.148 44.4425 677.87C39.3644 683.591 47.7266 693.877 52.2976 689.649C56.8686 685.42 59.4112 687.165 73.2641 691.379Z" fill="#E53D30"/>
<path d="M75.2887 667.603C71.1496 668.597 57.9656 674.761 53.0697 679.824" stroke="#F25E53" stroke-linecap="round"/>
<path d="M80.0093 680.607C75.9185 678.253 65.3113 675.21 55.6097 681.868" stroke="#F25E53" stroke-linecap="round"/>
<path d="M65.8709 656.598C62.8769 657.013 55.6493 661.697 50.6909 677.114" stroke="#F25E53" stroke-linecap="round"/>
</g>
<defs>
<clipPath id="clip0_739_265">
<rect width="390" height="844" fill="white" transform="translate(0 0.5)"/>
</clipPath>
</defs>
</svg>
