<svg width="390" height="845" viewBox="0 0 390 845" fill="none" xmlns="http://www.w3.org/2000/svg">
<g clip-path="url(#clip0_739_794)">
<rect width="390" height="844" transform="translate(0 0.5)" fill="#69235C"/>
<rect y="563.5" width="389" height="281" fill="#301244"/>
<path d="M25 697.33L40.3114 623.63H349.924L365.368 697.33H25Z" fill="#663E84"/>
<rect x="190.934" y="636.34" width="8.49431" height="60.9258" fill="#663966"/>
<path d="M254.676 639.367L263.107 637.568L267.555 697.301L258.672 697.301L254.676 639.367Z" fill="#663966"/>
<path d="M126.748 635.756L135.179 637.555L130.904 697.353L121.875 697.353L126.748 635.756Z" fill="#663966"/>
<path d="M312.787 636.041L320.961 632.918L329.669 697.351L320.961 697.351L312.787 636.041Z" fill="#663966"/>
<path d="M68.8687 625.409L76.0331 628.266L67.8505 697.325L59.4218 697.325L68.8687 625.409Z" fill="#663966"/>
<ellipse cx="194.924" cy="623.63" rx="154.743" ry="32.1301" fill="#F6D6ED"/>
<path d="M336.178 620.829C336.178 637.027 272.937 650.158 194.924 650.158C116.912 650.158 53.6699 637.027 53.6699 620.829C53.6699 604.631 116.912 595.621 194.924 595.621C272.937 595.621 336.178 604.631 336.178 620.829Z" fill="#A56ECE"/>
<path d="M366 733C366 733.045 365.978 733.233 365.607 733.56C365.241 733.883 364.643 734.241 363.778 734.61C362.058 735.345 359.506 736.029 356.278 736.612C349.838 737.775 340.9 738.5 331 738.5C321.1 738.5 312.162 737.775 305.722 736.612C302.494 736.029 299.942 735.345 298.222 734.61C297.357 734.241 296.759 733.883 296.393 733.56C296.022 733.233 296 733.045 296 733C296 732.955 296.022 732.767 296.393 732.44C296.759 732.117 297.357 731.759 298.222 731.39C299.942 730.655 302.494 729.971 305.722 729.388C312.162 728.225 321.1 727.5 331 727.5C340.9 727.5 349.838 728.225 356.278 729.388C359.506 729.971 362.058 730.655 363.778 731.39C364.643 731.759 365.241 732.117 365.607 732.44C365.978 732.767 366 732.955 366 733Z" stroke="#F7382C" stroke-width="2"/>
<path d="M322 726C322 726.045 321.978 726.233 321.607 726.56C321.241 726.883 320.643 727.241 319.778 727.61C318.058 728.345 315.506 729.029 312.278 729.612C305.838 730.775 296.9 731.5 287 731.5C277.1 731.5 268.162 730.775 261.722 729.612C258.494 729.029 255.942 728.345 254.222 727.61C253.357 727.241 252.759 726.883 252.393 726.56C252.022 726.233 252 726.045 252 726C252 725.955 252.022 725.767 252.393 725.44C252.759 725.117 253.357 724.759 254.222 724.39C255.942 723.655 258.494 722.971 261.722 722.388C268.162 721.225 277.1 720.5 287 720.5C296.9 720.5 305.838 721.225 312.278 722.388C315.506 722.971 318.058 723.655 319.778 724.39C320.643 724.759 321.241 725.117 321.607 725.44C321.978 725.767 322 725.955 322 726Z" stroke="#55BBBB" stroke-width="2"/>
<ellipse cx="243" cy="777" rx="35" ry="6.5" fill="#F9ED32"/>
<ellipse cx="395.5" cy="597" rx="59.5" ry="10.5" fill="#5EB9EC"/>
<ellipse cx="-16.5" cy="639" rx="46.5" ry="8.5" fill="#9952E1"/>
<ellipse cx="106" cy="738.5" rx="30" ry="5" fill="#55BBBB"/>
<path d="M95 735.5C95 735.514 94.9958 735.668 94.6653 735.962C94.339 736.252 93.7999 736.578 93.0118 736.917C91.4433 737.591 89.1122 738.221 86.1556 738.759C80.2589 739.831 72.0716 740.5 63 740.5C53.9284 740.5 45.7411 739.831 39.8444 738.759C36.8878 738.221 34.5567 737.591 32.9882 736.917C32.2001 736.578 31.661 736.252 31.3347 735.962C31.0042 735.668 31 735.514 31 735.5C31 735.486 31.0042 735.332 31.3347 735.038C31.661 734.748 32.2001 734.422 32.9882 734.083C34.5567 733.409 36.8878 732.779 39.8444 732.241C45.7411 731.169 53.9284 730.5 63 730.5C72.0716 730.5 80.2589 731.169 86.1556 732.241C89.1122 732.779 91.4433 733.409 93.0118 734.083C93.7999 734.422 94.339 734.748 94.6653 735.038C94.9958 735.332 95 735.486 95 735.5Z" stroke="#F7812C" stroke-width="2"/>
<path d="M100.734 618.5L21.5 99L61 85L107.5 187.5L98 77.5L147 64L200 234L240 56L285.5 68.5L275 186L318.5 74.6891L366 95L302.212 618.5H100.734Z" fill="#C6986E" fill-opacity="0.47"/>
<path fill-rule="evenodd" clip-rule="evenodd" d="M-85.4983 7.57501H-95.105V0.575012H504.987V7.57501H485.326V43.7096L521.229 3.38878L526.457 8.04385L489.855 49.149H504.987V56.149H483.622L483.313 56.4957L482.924 56.149H440.148L439.839 56.4957L439.45 56.149H397.387L397.078 56.4957L396.688 56.149H-33.0825L-33.3912 56.4957L-33.7805 56.149H-76.5568L-76.8655 56.4957L-77.2549 56.149H-95.105V49.149H-80.8372V12.8665L-119.772 56.5921L-125 51.937L-85.4983 7.57501ZM478.326 49.149V13.2735L446.381 49.149H478.326ZM435.475 13.3736V49.149H403.62L435.475 13.3736ZM474.027 7.57501L442.475 43.0089V7.57501H474.027ZM399.21 7.57501H431.266L399.21 43.5755V7.57501ZM392.21 13.7351V49.149H359.81L392.21 13.7351ZM349.245 12.6034V49.149H315.81L349.245 12.6034ZM388.358 7.57501L356.245 42.6751V7.57501H388.358ZM313.19 7.57501H344.358L313.19 41.6427V7.57501ZM306.19 12.664V49.149H272.81L306.19 12.664ZM262.925 12.9535V49.149H229.81L262.925 12.9535ZM301.358 7.57501L269.925 41.9322V7.57501H301.358ZM227.075 7.57501H258.358L227.075 41.7678V7.57501ZM220.075 12.7891V49.149H186.81L220.075 12.7891ZM177.019 12.8507V49.149H143.81L177.019 12.8507ZM215.358 7.57501L184.019 41.8294V7.57501H215.358ZM140.961 7.57501H172.358L140.961 41.8919V7.57501ZM133.961 12.9132V49.149H100.81L133.961 12.9132ZM90.9684 12.9057V49.149H57.8096L90.9684 12.9057ZM129.358 7.57501L97.9684 41.8844V7.57501H129.358ZM54.9753 7.57501H86.3578L54.9753 41.8768V7.57501ZM47.9753 12.8981V49.149H14.8096L47.9753 12.8981ZM5.32204 49.149L5.33342 49.1365V13.0063L-26.8494 49.149H5.32204ZM12.3334 7.57501V41.4854L43.3578 7.57501H12.3334ZM-30.649 7.57501H0.796768L-30.649 42.8899V7.57501ZM-70.3238 49.149H-37.649V12.4538L-70.3238 49.149ZM-42.6776 7.57501L-73.8372 42.5686V7.57501H-42.6776Z" fill="black"/>
<path d="M101.605 34.4138L124.694 28.3979L158.506 64.5382L89.8363 82.43L101.605 34.4138Z" fill="black"/>
<rect x="101.217" y="-1.89801" width="6.41449" height="45.6211" transform="rotate(-14.6037 101.217 -1.89801)" fill="black"/>
<rect x="88.0039" y="77.3412" width="71.9568" height="7.63209" rx="3.81604" transform="rotate(-14.6037 88.0039 77.3412)" fill="black"/>
<path d="M21.4163 63.6552L40.1005 57.3644L70.055 85.2019L14.4868 103.911L21.4163 63.6552Z" fill="black"/>
<rect x="8.94238" y="3.87256" width="5.30004" height="69.2181" transform="rotate(-18.608 8.94238 3.87256)" fill="black"/>
<rect x="12.6846" y="99.8226" width="59.455" height="6.30608" rx="3.15304" transform="rotate(-18.608 12.6846 99.8226)" fill="black"/>
<path d="M260.16 23.6443L283.25 29.6588L295.13 77.7027L226.459 59.8153L260.16 23.6443Z" fill="black"/>
<rect x="277.539" y="-8.241" width="6.41449" height="45.6211" transform="rotate(14.6 277.539 -8.241)" fill="black"/>
<rect x="227.344" y="54.4795" width="71.9568" height="7.63209" rx="3.81604" transform="rotate(14.6 227.344 54.4795)" fill="black"/>
<path d="M344.288 44.4091L366.708 52.5756L374.002 101.526L307.325 77.2384L344.288 44.4091Z" fill="black"/>
<rect x="368.778" y="2.82965" width="6.4145" height="57.8351" transform="rotate(20.0149 368.778 2.82965)" fill="black"/>
<rect x="308.707" y="72.0099" width="71.9568" height="7.63209" rx="3.81604" transform="rotate(20.0149 308.707 72.0099)" fill="black"/>
</g>
<defs>
<clipPath id="clip0_739_794">
<rect width="390" height="844" fill="white" transform="translate(0 0.5)"/>
</clipPath>
</defs>
</svg>
