<svg width="320" height="568" viewBox="0 0 320 568" fill="none" xmlns="http://www.w3.org/2000/svg">
<g clip-path="url(#clip0_634_2062)">
<rect width="320" height="568" fill="#F1FF9B"/>
<path d="M76.5725 25C40.7265 76.3094 7.25501 46.3789 -5 25V574.496H320.141V25C278.162 65.186 267.674 37.7118 252.355 25C208.237 79.0829 169.634 47.5345 155.847 25C123.678 70.7624 89.5934 44.0677 76.5725 25Z" fill="#9CE6F6"/>
<path d="M76.5725 43.0742C40.7265 94.3836 7.25501 64.4531 -5 43.0742V592.57H320.141V43.0742C278.162 83.2602 267.674 55.786 252.355 43.0742C208.237 97.1571 169.634 65.6088 155.847 43.0742C123.678 88.8367 89.5934 62.1419 76.5725 43.0742Z" fill="#5FC6F1"/>
<path d="M64.7053 333.002C71.28 318.984 67.4448 299.255 64.7053 291.143C68.8693 301.364 76.1454 324.63 71.9376 335.923C67.7297 347.215 72.3759 364.964 75.2249 372.428L54.8432 369.994C51.5558 361.719 56.4869 350.525 64.7053 333.002Z" fill="#9FCD6B"/>
<path d="M17.3675 263.886C13.6856 248.699 20.2166 230.301 23.9423 223C23.9423 283.355 32.1607 267.293 41.6941 293.09C49.3208 313.727 46.8443 354.256 44.6527 371.94L6.19043 374.861C7.72454 356.365 12.1077 316.648 17.3675 305.745C23.9422 292.116 21.9698 282.868 17.3675 263.886Z" fill="#80EBA4"/>
<path d="M-1.37007 286.275C-2.68501 273.815 6.41004 260.641 11.1219 255.611C1.25979 278.001 11.1219 298.444 18.6829 303.311C26.2439 308.179 33.1473 335.922 27.5588 338.356C23.088 340.303 21.3128 362.206 20.9841 372.914H-4C-4 367.56 -1.37007 352.471 8.16329 332.028C17.6966 311.586 0.27361 301.851 -1.37007 286.275Z" fill="#1D9CB5"/>
<path d="M31.5032 318.887C40.0504 340.79 23.9422 369.02 22.9561 370.967H43.6665C48.3784 359.286 54.9751 334.365 43.6665 328.135C32.3579 321.905 30.8458 291.792 31.5032 277.514C28.6542 284.004 24.6655 301.364 31.5032 318.887Z" fill="#37768E"/>
<path d="M268.782 325.251C281.126 300.645 273.925 266.016 268.782 251.777C276.6 269.718 290.261 310.556 282.36 330.377C274.46 350.198 283.183 381.353 288.532 394.453L250.265 390.181C244.093 375.657 253.351 356.007 268.782 325.251Z" fill="#1D9CB5"/>
<path d="M324.591 299.748C327.335 286.788 322.468 271.087 319.691 264.856C319.691 316.363 313.567 302.655 306.463 324.67C300.779 342.282 302.625 376.869 304.258 391.961L332.92 394.453C331.777 378.669 328.51 344.774 324.591 335.47C319.691 323.839 321.161 315.947 324.591 299.748Z" fill="#80EBA4"/>
<path d="M307.514 276.357C309.174 257.926 297.694 238.439 291.747 231C304.195 264.118 291.747 294.356 282.203 301.556C272.659 308.755 263.946 349.793 271 353.392C276.643 356.272 278.884 388.67 279.298 404.509H310.834C310.834 396.59 307.514 374.271 295.481 344.033C283.448 313.795 305.44 299.396 307.514 276.357Z" fill="#9FCD6B"/>
<path d="M244.235 330.45C255.471 357.367 234.296 392.06 233 394.453H260.224C266.418 380.097 275.089 349.472 260.224 341.815C245.359 334.159 243.371 297.153 244.235 279.607C240.49 287.582 235.247 308.916 244.235 330.45Z" fill="#37768E"/>
<path d="M199.862 361.554C123.429 327.55 34.107 353.711 -1 371.042V620H327L321.358 371.042C312.706 382.048 276.295 395.558 199.862 361.554Z" fill="#FFF66D"/>
<ellipse cx="18.5263" cy="389.64" rx="4.52632" ry="2.64036" fill="#F0E04D"/>
<ellipse cx="59.9296" cy="387.913" rx="4.52632" ry="2.26316" fill="#F0E04D"/>
<ellipse cx="33.5263" cy="433.553" rx="4.52632" ry="2.64036" fill="#F0E04D"/>
<ellipse cx="102.176" cy="455.43" rx="4.52632" ry="2.64036" fill="#F0E04D"/>
<ellipse cx="19.5263" cy="465.64" rx="4.52632" ry="2.64036" fill="#F0E04D"/>
<ellipse cx="81.5263" cy="495.64" rx="4.52632" ry="2.64036" fill="#F0E04D"/>
<ellipse cx="154.228" cy="436.57" rx="4.52632" ry="2.64036" fill="#F0E04D"/>
<ellipse cx="236.456" cy="485.983" rx="4.52632" ry="2.26316" fill="#F0E04D"/>
<ellipse cx="248.526" cy="423.746" rx="4.52632" ry="2.64036" fill="#F0E04D"/>
<ellipse cx="264.747" cy="387.535" rx="4.14913" ry="2.64036" fill="#F0E04D"/>
<ellipse cx="213.526" cy="404.263" rx="4.52632" ry="2.26316" fill="#F0E04D"/>
<ellipse cx="295.298" cy="424.123" rx="4.52632" ry="2.26316" fill="#F0E04D"/>
<ellipse cx="286.246" cy="548.597" rx="4.52632" ry="2.26316" fill="#F0E04D"/>
<ellipse cx="199.491" cy="499.939" rx="4.52632" ry="2.64036" fill="#F0E04D"/>
<ellipse cx="111.227" cy="561.044" rx="4.52632" ry="2.64036" fill="#F0E04D"/>
<ellipse cx="262.861" cy="519.176" rx="4.52632" ry="2.26316" fill="#F0E04D"/>
<ellipse cx="235.702" cy="558.404" rx="4.52632" ry="2.26316" fill="#F0E04D"/>
<ellipse cx="261.352" cy="462.974" rx="4.52632" ry="2.64036" fill="#F0E04D"/>
<ellipse cx="186.668" cy="465.237" rx="4.52632" ry="2.64036" fill="#F0E04D"/>
<ellipse cx="102.526" cy="398.64" rx="4.52632" ry="2.64036" fill="#F0E04D"/>
<ellipse cx="147.439" cy="478.816" rx="4.52632" ry="2.64036" fill="#F0E04D"/>
<ellipse cx="106.701" cy="504.842" rx="4.52632" ry="2.26316" fill="#F0E04D"/>
<ellipse cx="61.4384" cy="478.439" rx="4.52632" ry="2.26316" fill="#F0E04D"/>
<ellipse cx="165.544" cy="527.851" rx="4.52632" ry="2.64036" fill="#F0E04D"/>
<path d="M6.86502 502.057C-1.58871 512.668 -13.873 510.582 -11.7596 519.32L-1.89689 579.863C49.0603 579.655 153.37 579.364 162.951 579.863C174.927 580.488 184.085 576.118 179.858 568.004C175.632 559.89 141.112 566.132 126.318 548.655C111.524 531.179 103.775 543.662 84.7539 528.058C65.733 512.454 70.6643 515.575 51.6434 506.212C32.6225 496.85 48.087 501.585 30.4751 491.598C15.0895 482.874 15.3187 491.447 6.86502 502.057Z" fill="#9FCD6B"/>
<ellipse cx="19.5321" cy="526.983" rx="5.68447" ry="2.59741" fill="#B7E386"/>
<ellipse cx="64.0939" cy="553.886" rx="4.7716" ry="1.63843" fill="#47A87B"/>
<ellipse cx="13.8478" cy="555.524" rx="4.7716" ry="1.63843" fill="#47A87B"/>
<ellipse cx="72.9608" cy="532.776" rx="4.09456" ry="1.18552" fill="#B7E386"/>
<ellipse cx="95.4836" cy="553.627" rx="2.73749" ry="1.89686" fill="#47A87B"/>
<ellipse cx="47.4591" cy="543.056" rx="3.21297" ry="1.29346" fill="#B7E386"/>
<ellipse cx="56.3564" cy="516.074" rx="2.96581" ry="2.13393" fill="#47A87B"/>
<ellipse cx="36.5859" cy="524.849" rx="2.96581" ry="2.13393" fill="#47A87B"/>
<ellipse cx="130.179" cy="560.6" rx="2.49996" ry="1.89686" fill="#47A87B"/>
<ellipse cx="81.4308" cy="562.497" rx="3.02166" ry="1.42259" fill="#B7E386"/>
<ellipse cx="29.4173" cy="505.538" rx="4.20152" ry="1.65974" fill="#B7E386"/>
<ellipse cx="32.3005" cy="562.26" rx="4.36498" ry="1.18552" fill="#B7E386"/>
<path d="M228.76 510.506C235.585 509.653 239.779 521.88 241.023 528.101C242.623 539.297 264.306 540.719 266.794 535.21C269.282 529.7 278.524 537.165 282.789 532.011C287.055 526.857 274.614 531.3 272.836 525.79C271.059 520.281 287.41 526.146 287.943 521.169C288.476 516.193 276.213 522.413 274.614 516.904C273.014 511.394 282.789 514.06 284.922 505.707C287.055 497.354 272.126 514.593 272.836 512.816C273.547 511.039 266.794 500.908 266.794 510.506C266.794 520.103 262.351 521.347 264.306 509.439C266.261 497.532 274.614 500.375 278.524 493.444C282.434 486.513 269.815 497.354 270.881 491.311C271.948 485.268 279.768 492.378 286.166 484.558C292.564 476.738 275.68 489.889 274.614 484.558C273.547 479.226 282.967 481.892 278.524 476.027C274.081 470.162 275.325 482.603 266.794 487.401C258.263 492.2 265.905 481.358 260.751 480.47C255.597 479.581 261.817 492.378 256.663 493.444C251.509 494.51 255.419 484.558 256.663 478.337C257.907 472.117 267.505 470.339 260.751 469.628C253.997 468.918 273.37 457.898 264.306 459.853C255.241 461.808 265.194 452.922 260.751 452.922C256.308 452.922 256.841 461.453 253.464 470.339C250.087 479.226 249.554 472.117 246.355 474.072C243.156 476.027 252.398 478.159 249.554 487.401C246.711 496.643 248.31 482.958 243.334 487.401C238.357 491.844 252.22 495.043 249.554 502.33C246.888 509.617 244.578 504.818 243.334 498.42C242.09 492.022 231.426 489.889 239.424 476.027C247.421 462.164 228.76 472.117 235.158 467.496C241.556 462.875 244.4 456.121 235.158 461.453C225.916 466.785 238.357 449.723 230.537 449.012C222.717 448.301 236.936 479.226 224.85 468.562C212.765 457.898 229.649 489.889 221.651 484.558C215.253 480.292 216.852 486.335 218.452 489.889C208.144 494.155 234.27 501.975 224.85 503.397C215.431 504.818 220.229 511.572 228.76 510.506Z" fill="#E53D30"/>
<ellipse cx="250.367" cy="493.667" rx="1.43728" ry="0.975549" fill="#F25E53"/>
<ellipse cx="238.709" cy="504.96" rx="1.43728" ry="0.975549" fill="#C82016"/>
<ellipse cx="230.335" cy="499.042" rx="1.43728" ry="0.975549" fill="#F25E53"/>
<ellipse cx="230.335" cy="507.149" rx="1.43728" ry="0.975549" fill="#C82016"/>
<ellipse cx="236.181" cy="475.919" rx="1.43728" ry="0.975549" fill="#F25E53"/>
<ellipse cx="251.341" cy="477.87" rx="1.43728" ry="0.975549" fill="#F25E53"/>
<ellipse cx="257.478" cy="472.318" rx="1.43728" ry="0.975549" fill="#F25E53"/>
<ellipse cx="258.916" cy="499.815" rx="1.43728" ry="0.975549" fill="#F25E53"/>
<ellipse cx="259.331" cy="518.801" rx="1.43728" ry="0.975549" fill="#F25E53"/>
<ellipse cx="254.428" cy="526.601" rx="1.43728" ry="0.975549" fill="#F25E53"/>
<ellipse cx="222.79" cy="494.014" rx="1.43728" ry="0.975549" fill="#C82016"/>
<ellipse cx="225.146" cy="472.318" rx="1.43728" ry="0.975549" fill="#C82016"/>
<ellipse cx="269.52" cy="514.07" rx="1.43728" ry="0.975549" fill="#F25E53"/>
<ellipse cx="271.042" cy="522.467" rx="1.43728" ry="0.975549" fill="#C82016"/>
<ellipse cx="274.231" cy="530.503" rx="1.43728" ry="0.975549" fill="#C82016"/>
<ellipse cx="253.478" cy="514.81" rx="1.43728" ry="0.975549" fill="#C82016"/>
<ellipse cx="248.467" cy="528.552" rx="1.43728" ry="0.975549" fill="#C82016"/>
<ellipse cx="244.09" cy="520.516" rx="1.43728" ry="0.975549" fill="#F25E53"/>
<ellipse cx="262.119" cy="530.212" rx="2.44575" ry="1.66005" fill="#C82016"/>
<ellipse cx="246.141" cy="509.758" rx="1.09005" ry="0.739869" fill="#C82016"/>
<ellipse cx="260.353" cy="515.046" rx="1.09005" ry="0.739869" fill="#F25E53"/>
<ellipse cx="250.02" cy="524.886" rx="1.09005" ry="0.739869" fill="#F25E53"/>
<ellipse cx="267.691" cy="519.541" rx="1.09005" ry="0.739869" fill="#F25E53"/>
<ellipse cx="253.479" cy="507.907" rx="1.09005" ry="0.739869" fill="#F25E53"/>
<ellipse cx="237.271" cy="510.498" rx="1.09005" ry="0.739869" fill="#F25E53"/>
<ellipse cx="225.495" cy="508.864" rx="1.09005" ry="0.739869" fill="#F25E53"/>
<ellipse cx="261.443" cy="509.018" rx="1.09005" ry="0.739869" fill="#F25E53"/>
<ellipse cx="267.574" cy="492.031" rx="0.973855" ry="0.661002" fill="#C82016"/>
<ellipse cx="283.966" cy="484.963" rx="0.973855" ry="0.661002" fill="#C82016"/>
<ellipse cx="261.145" cy="493.668" rx="0.973855" ry="0.661002" fill="#F25E53"/>
<ellipse cx="252.954" cy="485.677" rx="0.973855" ry="0.661002" fill="#C82016"/>
<ellipse cx="262.118" cy="462.344" rx="0.973855" ry="0.661002" fill="#F25E53"/>
<ellipse cx="244.555" cy="489.569" rx="0.973855" ry="0.661002" fill="#F25E53"/>
<ellipse cx="220.379" cy="487.474" rx="0.973855" ry="0.661002" fill="#F25E53"/>
<ellipse cx="252.779" cy="498.38" rx="0.973855" ry="0.661002" fill="#C82016"/>
<ellipse cx="240.234" cy="499.5" rx="0.973855" ry="0.661002" fill="#F25E53"/>
<ellipse cx="233.771" cy="485.624" rx="0.973855" ry="0.661002" fill="#F25E53"/>
<ellipse cx="232.282" cy="466.645" rx="0.973855" ry="0.661002" fill="#C82016"/>
<ellipse cx="234.744" cy="493.006" rx="0.973855" ry="0.661002" fill="#C82016"/>
<ellipse cx="282.019" cy="507.246" rx="0.973855" ry="0.661002" fill="#F25E53"/>
<ellipse cx="249.046" cy="532.533" rx="0.973855" ry="0.661002" fill="#F25E53"/>
<ellipse cx="258.289" cy="536.119" rx="0.973855" ry="0.661002" fill="#C82016"/>
<ellipse cx="271.716" cy="485.879" rx="0.675456" ry="0.458464" fill="#F25E53"/>
<ellipse cx="261.443" cy="484.963" rx="0.675456" ry="0.458464" fill="#F25E53"/>
<ellipse cx="254.428" cy="476.894" rx="0.675456" ry="0.458464" fill="#C82016"/>
<ellipse cx="256.716" cy="466.847" rx="0.675456" ry="0.458464" fill="#F25E53"/>
<ellipse cx="258.067" cy="465.459" rx="0.675456" ry="0.458464" fill="#C82016"/>
<ellipse cx="258.916" cy="456.937" rx="0.675456" ry="0.458464" fill="#C82016"/>
<ellipse cx="266.6" cy="498.839" rx="0.675456" ry="0.458464" fill="#F25E53"/>
<ellipse cx="279.95" cy="487.474" rx="0.675456" ry="0.458464" fill="#F25E53"/>
<ellipse cx="276.167" cy="477.555" rx="0.973855" ry="0.661002" fill="#C82016"/>
<ellipse cx="268.548" cy="493.982" rx="0.973855" ry="0.661002" fill="#C82016"/>
<ellipse cx="225.202" cy="490.709" rx="0.973855" ry="0.661002" fill="#F25E53"/>
<ellipse cx="225.202" cy="481.561" rx="0.973855" ry="0.661002" fill="#C82016"/>
<ellipse cx="228.84" cy="476.233" rx="0.973855" ry="0.661002" fill="#F25E53"/>
<ellipse cx="236.297" cy="463.666" rx="0.973855" ry="0.661002" fill="#F25E53"/>
<ellipse cx="230.335" cy="453.74" rx="0.973855" ry="0.661002" fill="#C82016"/>
<ellipse cx="277.597" cy="511.159" rx="0.973855" ry="0.661002" fill="#F25E53"/>
<ellipse cx="274.695" cy="494.99" rx="0.973855" ry="0.661002" fill="#C82016"/>
<ellipse cx="269.605" cy="509.679" rx="0.973855" ry="0.661002" fill="#F25E53"/>
<ellipse cx="284.563" cy="521.806" rx="0.973855" ry="0.661002" fill="#F25E53"/>
<ellipse cx="268.249" cy="527.577" rx="0.973855" ry="0.661002" fill="#F25E53"/>
<path d="M159.681 498.922C161.295 496.94 154.906 491.472 151.511 488.986C153.228 486.519 156.22 481.001 154.453 478.657C152.245 475.728 146.846 484.64 144.754 485.015C142.662 485.389 134.492 475.454 133.107 478.811C131.722 482.168 137.63 487.673 137.27 490.241C136.91 492.81 126.832 492.716 127.529 495.398C128.225 498.08 137.235 497.761 139.349 497.987C141.462 498.213 138.664 508.386 141.367 508.291C144.07 508.195 145.783 501.368 147.066 499.368C148.349 497.368 157.663 501.399 159.681 498.922Z" fill="#F7812C"/>
<ellipse cx="136.278" cy="481.059" rx="0.474429" ry="0.347945" fill="#F9CA84"/>
<ellipse cx="135.805" cy="482.454" rx="0.474429" ry="0.347945" fill="#F9CA84"/>
<ellipse cx="141.452" cy="485.064" rx="0.474429" ry="0.347945" fill="#F9CA84"/>
<ellipse cx="139.787" cy="487.696" rx="0.474429" ry="0.347945" fill="#F9CA84"/>
<ellipse cx="142.778" cy="487.831" rx="0.474429" ry="0.347945" fill="#F9CA84"/>
<ellipse cx="147.548" cy="486.279" rx="0.474429" ry="0.347945" fill="#F9CA84"/>
<ellipse cx="145.814" cy="498.196" rx="0.474429" ry="0.347945" fill="#F9CA84"/>
<ellipse cx="142.914" cy="500.113" rx="0.474429" ry="0.347945" fill="#F9CA84"/>
<ellipse cx="143.388" cy="502.445" rx="0.474429" ry="0.347945" fill="#F9CA84"/>
<ellipse cx="142.44" cy="505.667" rx="0.474429" ry="0.347945" fill="#F9CA84"/>
<ellipse cx="153.122" cy="492.865" rx="0.474429" ry="0.347945" fill="#F9CA84"/>
<ellipse cx="149.788" cy="496.805" rx="0.474429" ry="0.347945" fill="#F9CA84"/>
<ellipse cx="154.236" cy="497.849" rx="0.474429" ry="0.347945" fill="#F9CA84"/>
<ellipse cx="157.901" cy="497.153" rx="0.474429" ry="0.347945" fill="#F9CA84"/>
<ellipse cx="149.313" cy="490.632" rx="0.474429" ry="0.347945" fill="#F9CA84"/>
<ellipse cx="142.914" cy="493.908" rx="0.474429" ry="0.347945" fill="#F9CA84"/>
<ellipse cx="138.745" cy="495.475" rx="0.474429" ry="0.347945" fill="#F9CA84"/>
<ellipse cx="134.855" cy="494.059" rx="0.474429" ry="0.347945" fill="#F9CA84"/>
<ellipse cx="131.996" cy="495.475" rx="0.474429" ry="0.347945" fill="#F9CA84"/>
<ellipse cx="150.734" cy="487.831" rx="0.474429" ry="0.347945" fill="#F9CA84"/>
<ellipse cx="152.84" cy="483.665" rx="0.474429" ry="0.347945" fill="#F9CA84"/>
<ellipse cx="153.314" cy="480.159" rx="0.474429" ry="0.347945" fill="#F9CA84"/>
<path d="M298.923 442.452C301.47 442.667 302.381 434.307 302.519 430.101C305.524 430.127 311.769 429.485 312.707 426.704C313.88 423.228 303.476 423.798 301.986 422.282C300.497 420.766 304.092 408.415 300.539 409.165C296.986 409.915 295.773 417.899 293.449 419.051C291.125 420.202 285.518 411.828 283.696 413.916C281.874 416.003 287.22 423.264 288.226 425.136C289.231 427.008 279.253 430.437 280.857 432.615C282.46 434.793 289.064 432.357 291.439 432.287C293.814 432.218 295.74 442.183 298.923 442.452Z" fill="#F7812C"/>
<ellipse cx="298.49" cy="413.051" rx="0.474429" ry="0.347945" transform="rotate(55.6597 298.49 413.051)" fill="#F9CA84"/>
<ellipse cx="297.069" cy="413.447" rx="0.474429" ry="0.347945" transform="rotate(55.6597 297.069 413.447)" fill="#F9CA84"/>
<ellipse cx="298.1" cy="419.582" rx="0.474429" ry="0.347945" transform="rotate(55.6597 298.1 419.582)" fill="#F9CA84"/>
<ellipse cx="294.988" cy="419.692" rx="0.474429" ry="0.347945" transform="rotate(55.6597 294.988 419.692)" fill="#F9CA84"/>
<ellipse cx="296.564" cy="422.238" rx="0.474429" ry="0.347945" transform="rotate(55.6597 296.564 422.238)" fill="#F9CA84"/>
<ellipse cx="300.536" cy="425.301" rx="0.474429" ry="0.347945" transform="rotate(55.6597 300.536 425.301)" fill="#F9CA84"/>
<ellipse cx="289.718" cy="430.593" rx="0.474429" ry="0.347945" transform="rotate(55.6597 289.718 430.593)" fill="#F9CA84"/>
<ellipse cx="286.5" cy="429.278" rx="0.474429" ry="0.347945" transform="rotate(55.6597 286.5 429.278)" fill="#F9CA84"/>
<ellipse cx="284.84" cy="430.986" rx="0.474429" ry="0.347945" transform="rotate(55.6597 284.84 430.986)" fill="#F9CA84"/>
<ellipse cx="281.645" cy="432.02" rx="0.474429" ry="0.347945" transform="rotate(55.6597 281.645 432.02)" fill="#F9CA84"/>
<ellipse cx="298.242" cy="433.618" rx="0.474429" ry="0.347945" transform="rotate(55.6597 298.242 433.618)" fill="#F9CA84"/>
<ellipse cx="293.107" cy="433.088" rx="0.474429" ry="0.347945" transform="rotate(55.6597 293.107 433.088)" fill="#F9CA84"/>
<ellipse cx="294.757" cy="437.35" rx="0.474429" ry="0.347945" transform="rotate(55.6597 294.757 437.35)" fill="#F9CA84"/>
<ellipse cx="297.398" cy="439.985" rx="0.474429" ry="0.347945" transform="rotate(55.6597 297.398 439.985)" fill="#F9CA84"/>
<ellipse cx="297.937" cy="429.214" rx="0.474429" ry="0.347945" transform="rotate(55.6597 297.937 429.214)" fill="#F9CA84"/>
<ellipse cx="291.622" cy="425.778" rx="0.474429" ry="0.347945" transform="rotate(55.6597 291.622 425.778)" fill="#F9CA84"/>
<ellipse cx="287.975" cy="423.219" rx="0.474429" ry="0.347945" transform="rotate(55.6597 287.975 423.219)" fill="#F9CA84"/>
<ellipse cx="286.954" cy="419.21" rx="0.474429" ry="0.347945" transform="rotate(55.6597 286.954 419.21)" fill="#F9CA84"/>
<ellipse cx="284.169" cy="417.647" rx="0.474429" ry="0.347945" transform="rotate(55.6597 284.169 417.647)" fill="#F9CA84"/>
<ellipse cx="301.053" cy="428.808" rx="0.474429" ry="0.347945" transform="rotate(55.6597 301.053 428.808)" fill="#F9CA84"/>
<ellipse cx="305.679" cy="428.197" rx="0.474429" ry="0.347945" transform="rotate(55.6597 305.679 428.197)" fill="#F9CA84"/>
<ellipse cx="308.841" cy="426.61" rx="0.474429" ry="0.347945" transform="rotate(55.6597 308.841 426.61)" fill="#F9CA84"/>
<path d="M74.5928 349.959C69.6826 349.058 66.6649 361.973 65.7698 368.542C64.6189 380.368 49.0187 381.87 47.2285 376.051C45.4384 370.232 38.7891 378.116 35.7202 372.672C32.6513 367.229 41.6022 371.921 42.8809 366.102C44.1596 360.283 32.3956 366.478 32.0119 361.222C31.6283 355.966 40.4514 362.536 41.6022 356.717C42.7531 350.898 35.7202 353.714 34.1857 344.891C32.6513 336.069 43.3924 354.277 42.8809 352.4C42.3695 350.523 47.2285 339.823 47.2285 349.959C47.2285 360.096 50.4253 361.41 49.0187 348.833C47.6122 336.257 41.6022 339.26 38.7891 331.94C35.9759 324.619 45.0547 336.069 44.2875 329.687C43.5203 323.305 37.894 330.813 33.2907 322.554C28.6873 314.295 40.835 328.185 41.6022 322.554C42.3695 316.923 35.5923 319.739 38.7891 313.544C41.9859 307.35 41.0908 320.489 47.2285 325.558C53.3663 330.626 47.8679 319.175 51.5761 318.237C55.2844 317.298 50.8089 330.813 54.5172 331.94C58.2254 333.066 55.4123 322.554 54.5172 315.984C53.6221 309.415 46.7171 307.538 51.5761 306.787C56.4352 306.036 42.4973 294.398 49.0187 296.463C55.5401 298.528 48.3794 289.142 51.5761 289.142C54.7729 289.142 54.3893 298.152 56.8188 307.538C59.2484 316.923 59.632 309.415 61.9337 311.479C64.2353 313.544 57.5861 315.797 59.632 325.558C61.6779 335.318 60.5271 320.865 64.1075 325.558C67.6878 330.25 57.7139 333.629 59.632 341.325C61.55 349.021 63.2124 343.953 64.1075 337.195C65.0026 330.438 72.6748 328.185 66.9206 313.544C61.1664 298.903 74.5928 309.415 69.9895 304.534C65.3862 299.654 63.3402 292.521 69.9895 298.152C76.6388 303.783 67.6878 285.764 73.3141 285.013C78.9404 284.262 68.7108 316.923 77.4059 305.661C86.1011 294.398 73.9535 328.185 79.7077 322.554C84.311 318.049 83.1601 324.431 82.0093 328.185C89.4258 332.69 70.6288 340.95 77.4059 342.451C84.1831 343.953 80.7306 351.086 74.5928 349.959Z" fill="#F75D2C"/>
<ellipse cx="1.03409" cy="1.03033" rx="1.03409" ry="1.03033" transform="matrix(-1 0 0 1 60.0811 331.145)" fill="#F7812C"/>
<ellipse cx="1.03409" cy="1.03033" rx="1.03409" ry="1.03033" transform="matrix(-1 0 0 1 68.4707 343.071)" fill="#F7382C"/>
<ellipse cx="1.03409" cy="1.03033" rx="1.03409" ry="1.03033" transform="matrix(-1 0 0 1 74.4941 336.821)" fill="#F7812C"/>
<ellipse cx="1.03409" cy="1.03033" rx="1.03409" ry="1.03033" transform="matrix(-1 0 0 1 74.4941 345.384)" fill="#F7382C"/>
<ellipse cx="1.03409" cy="1.03033" rx="1.03409" ry="1.03033" transform="matrix(-1 0 0 1 70.2891 312.4)" fill="#F7812C"/>
<ellipse cx="1.03409" cy="1.03033" rx="1.03409" ry="1.03033" transform="matrix(-1 0 0 1 59.3809 314.46)" fill="#F7812C"/>
<ellipse cx="1.03409" cy="1.03033" rx="1.03409" ry="1.03033" transform="matrix(-1 0 0 1 54.9648 308.596)" fill="#F7812C"/>
<ellipse cx="1.03409" cy="1.03033" rx="1.03409" ry="1.03033" transform="matrix(-1 0 0 1 53.9316 337.637)" fill="#F7812C"/>
<ellipse cx="1.03409" cy="1.03033" rx="1.03409" ry="1.03033" transform="matrix(-1 0 0 1 53.6328 357.69)" fill="#F7812C"/>
<ellipse cx="1.03409" cy="1.03033" rx="1.03409" ry="1.03033" transform="matrix(-1 0 0 1 57.1592 365.928)" fill="#F7812C"/>
<ellipse cx="1.03409" cy="1.03033" rx="1.03409" ry="1.03033" transform="matrix(-1 0 0 1 79.9219 331.511)" fill="#F7382C"/>
<ellipse cx="1.03409" cy="1.03033" rx="1.03409" ry="1.03033" transform="matrix(-1 0 0 1 78.2275 308.596)" fill="#F7382C"/>
<ellipse cx="1.03409" cy="1.03033" rx="1.03409" ry="1.03033" transform="matrix(-1 0 0 1 46.3008 352.694)" fill="#F7812C"/>
<ellipse cx="1.03409" cy="1.03033" rx="1.03409" ry="1.03033" transform="matrix(-1 0 0 1 45.2061 361.562)" fill="#F7382C"/>
<ellipse cx="1.03409" cy="1.03033" rx="1.03409" ry="1.03033" transform="matrix(-1 0 0 1 42.9102 370.049)" fill="#F7382C"/>
<ellipse cx="1.03409" cy="1.03033" rx="1.03409" ry="1.03033" transform="matrix(-1 0 0 1 57.8428 353.475)" fill="#F7382C"/>
<ellipse cx="1.03409" cy="1.03033" rx="1.03409" ry="1.03033" transform="matrix(-1 0 0 1 61.4492 367.989)" fill="#F7382C"/>
<ellipse cx="1.03409" cy="1.03033" rx="1.03409" ry="1.03033" transform="matrix(-1 0 0 1 64.5977 359.501)" fill="#F7812C"/>
<ellipse cx="1.75966" cy="1.75327" rx="1.75966" ry="1.75327" transform="matrix(-1 0 0 1 52.3535 369.019)" fill="#F7382C"/>
<ellipse cx="0.784266" cy="0.781415" rx="0.784266" ry="0.781415" transform="matrix(-1 0 0 1 62.8721 348.388)" fill="#F7382C"/>
<ellipse cx="0.784266" cy="0.781415" rx="0.784266" ry="0.781415" transform="matrix(-1 0 0 1 52.6465 353.973)" fill="#F7812C"/>
<ellipse cx="0.784266" cy="0.781415" rx="0.784266" ry="0.781415" transform="matrix(-1 0 0 1 60.0811 364.365)" fill="#F7812C"/>
<ellipse cx="0.784266" cy="0.781415" rx="0.784266" ry="0.781415" transform="matrix(-1 0 0 1 47.3682 358.72)" fill="#F7812C"/>
<ellipse cx="0.784266" cy="0.781415" rx="0.784266" ry="0.781415" transform="matrix(-1 0 0 1 57.5928 346.434)" fill="#F7812C"/>
<ellipse cx="0.784266" cy="0.781415" rx="0.784266" ry="0.781415" transform="matrix(-1 0 0 1 69.2539 349.17)" fill="#F7812C"/>
<ellipse cx="0.784266" cy="0.781415" rx="0.784266" ry="0.781415" transform="matrix(-1 0 0 1 77.7275 347.444)" fill="#F7812C"/>
<ellipse cx="0.784266" cy="0.781415" rx="0.784266" ry="0.781415" transform="matrix(-1 0 0 1 51.8623 347.607)" fill="#F7812C"/>
<ellipse cx="0.700666" cy="0.698119" rx="0.700666" ry="0.698119" transform="matrix(-1 0 0 1 47.3682 329.749)" fill="#F7382C"/>
<ellipse cx="0.700666" cy="0.698119" rx="0.700666" ry="0.698119" transform="matrix(-1 0 0 1 35.5742 322.283)" fill="#F7382C"/>
<ellipse cx="0.700666" cy="0.698119" rx="0.700666" ry="0.698119" transform="matrix(-1 0 0 1 51.9951 331.477)" fill="#F7812C"/>
<ellipse cx="0.700666" cy="0.698119" rx="0.700666" ry="0.698119" transform="matrix(-1 0 0 1 57.8857 323.038)" fill="#F7382C"/>
<ellipse cx="0.700666" cy="0.698119" rx="0.700666" ry="0.698119" transform="matrix(-1 0 0 1 51.293 298.395)" fill="#F7812C"/>
<ellipse cx="0.700666" cy="0.698119" rx="0.700666" ry="0.698119" transform="matrix(-1 0 0 1 63.9307 327.149)" fill="#F7812C"/>
<ellipse cx="0.700666" cy="0.698119" rx="0.700666" ry="0.698119" transform="matrix(-1 0 0 1 81.3232 324.936)" fill="#F7812C"/>
<ellipse cx="0.700666" cy="0.698119" rx="0.700666" ry="0.698119" transform="matrix(-1 0 0 1 58.0127 336.455)" fill="#F7382C"/>
<ellipse cx="0.700666" cy="0.698119" rx="0.700666" ry="0.698119" transform="matrix(-1 0 0 1 67.0381 337.637)" fill="#F7812C"/>
<ellipse cx="0.700666" cy="0.698119" rx="0.700666" ry="0.698119" transform="matrix(-1 0 0 1 71.6895 322.981)" fill="#F7812C"/>
<ellipse cx="0.700666" cy="0.698119" rx="0.700666" ry="0.698119" transform="matrix(-1 0 0 1 72.7598 302.937)" fill="#F7382C"/>
<ellipse cx="0.700666" cy="0.698119" rx="0.700666" ry="0.698119" transform="matrix(-1 0 0 1 70.9883 330.779)" fill="#F7382C"/>
<ellipse cx="0.700666" cy="0.698119" rx="0.700666" ry="0.698119" transform="matrix(-1 0 0 1 36.9756 345.819)" fill="#F7812C"/>
<ellipse cx="0.700666" cy="0.698119" rx="0.700666" ry="0.698119" transform="matrix(-1 0 0 1 60.6992 372.526)" fill="#F7812C"/>
<ellipse cx="0.700666" cy="0.698119" rx="0.700666" ry="0.698119" transform="matrix(-1 0 0 1 54.0479 376.312)" fill="#F7382C"/>
<ellipse cx="0.486165" cy="0.484398" rx="0.486165" ry="0.484398" transform="matrix(-1 0 0 1 44.1719 323.466)" fill="#F7812C"/>
<ellipse cx="0.486165" cy="0.484398" rx="0.486165" ry="0.484398" transform="matrix(-1 0 0 1 51.5645 322.497)" fill="#F7812C"/>
<ellipse cx="0.486165" cy="0.484398" rx="0.486165" ry="0.484398" transform="matrix(-1 0 0 1 56.6113 313.976)" fill="#F7382C"/>
<ellipse cx="0.486165" cy="0.484398" rx="0.486165" ry="0.484398" transform="matrix(-1 0 0 1 54.9648 303.365)" fill="#F7812C"/>
<ellipse cx="0.486165" cy="0.484398" rx="0.486165" ry="0.484398" transform="matrix(-1 0 0 1 53.9941 301.899)" fill="#F7382C"/>
<ellipse cx="0.486165" cy="0.484398" rx="0.486165" ry="0.484398" transform="matrix(-1 0 0 1 53.3838 292.897)" fill="#F7382C"/>
<ellipse cx="0.486165" cy="0.484398" rx="0.486165" ry="0.484398" transform="matrix(-1 0 0 1 47.8545 337.153)" fill="#F7812C"/>
<ellipse cx="0.486165" cy="0.484398" rx="0.486165" ry="0.484398" transform="matrix(-1 0 0 1 38.249 325.15)" fill="#F7812C"/>
<ellipse cx="0.700666" cy="0.698119" rx="0.700666" ry="0.698119" transform="matrix(-1 0 0 1 41.1865 314.46)" fill="#F7382C"/>
<ellipse cx="0.700666" cy="0.698119" rx="0.700666" ry="0.698119" transform="matrix(-1 0 0 1 46.666 331.81)" fill="#F7382C"/>
<ellipse cx="0.700666" cy="0.698119" rx="0.700666" ry="0.698119" transform="matrix(-1 0 0 1 77.8545 328.353)" fill="#F7812C"/>
<ellipse cx="0.700666" cy="0.698119" rx="0.700666" ry="0.698119" transform="matrix(-1 0 0 1 77.8545 318.691)" fill="#F7382C"/>
<ellipse cx="0.700666" cy="0.698119" rx="0.700666" ry="0.698119" transform="matrix(-1 0 0 1 75.2363 313.064)" fill="#F7812C"/>
<ellipse cx="0.700666" cy="0.698119" rx="0.700666" ry="0.698119" transform="matrix(-1 0 0 1 69.8721 299.791)" fill="#F7812C"/>
<ellipse cx="0.700666" cy="0.698119" rx="0.700666" ry="0.698119" transform="matrix(-1 0 0 1 74.1611 289.308)" fill="#F7382C"/>
<ellipse cx="0.700666" cy="0.698119" rx="0.700666" ry="0.698119" transform="matrix(-1 0 0 1 40.1572 349.951)" fill="#F7812C"/>
<ellipse cx="0.700666" cy="0.698119" rx="0.700666" ry="0.698119" transform="matrix(-1 0 0 1 42.2441 332.873)" fill="#F7382C"/>
<ellipse cx="0.700666" cy="0.698119" rx="0.700666" ry="0.698119" transform="matrix(-1 0 0 1 45.9072 348.388)" fill="#F7812C"/>
<ellipse cx="0.700666" cy="0.698119" rx="0.700666" ry="0.698119" transform="matrix(-1 0 0 1 35.1455 361.196)" fill="#F7812C"/>
<ellipse cx="0.700666" cy="0.698119" rx="0.700666" ry="0.698119" transform="matrix(-1 0 0 1 46.8818 367.291)" fill="#F7812C"/>
<path d="M56.1297 468.646C64.4901 471.189 64.2901 464.494 63.145 460.829C68.6623 455.725 63.7447 451.227 60.5963 449.616C63.6187 441.063 56.2587 439.027 52.2009 439.078C42.4416 431.034 37.851 444.553 37.1598 449.418C36.4686 454.283 38.2179 454.138 34.387 458.454C30.5562 462.771 36.8646 470.53 40.3129 467.34C43.7611 464.15 45.6792 465.467 56.1297 468.646Z" fill="#E53D30"/>
<path d="M57.6557 450.71C54.5333 451.459 44.5874 456.109 40.894 459.929" stroke="#F25E53" stroke-linecap="round"/>
<path d="M61.2177 460.52C58.1316 458.744 50.1297 456.448 42.8109 461.47" stroke="#F25E53" stroke-linecap="round"/>
<path d="M50.5517 442.408C48.293 442.721 42.8406 446.254 39.1 457.884" stroke="#F25E53" stroke-linecap="round"/>
</g>
<defs>
<clipPath id="clip0_634_2062">
<rect width="320" height="568" fill="white"/>
</clipPath>
</defs>
</svg>
