<svg width="310" height="224" viewBox="0 0 310 224" fill="none" xmlns="http://www.w3.org/2000/svg">
<path d="M211.372 161.316C211.372 163.039 210.458 164.67 208.84 165.902C207.222 167.135 204.943 167.927 202.385 167.927C199.826 167.927 197.547 167.135 195.929 165.902C194.312 164.67 193.397 163.039 193.397 161.316C193.397 159.593 194.312 157.962 195.929 156.73C197.547 155.497 199.826 154.705 202.385 154.705C204.943 154.705 207.222 155.497 208.84 156.73C210.458 157.962 211.372 159.593 211.372 161.316Z" stroke="#9CE6F6" stroke-width="2"/>
<path d="M18.9742 36.211C18.9742 37.9342 18.0601 39.5648 16.4429 40.7972C14.8249 42.0302 12.5457 42.8217 9.98709 42.8217C7.42844 42.8217 5.14929 42.0302 3.53127 40.7972C1.91407 39.5648 1 37.9342 1 36.211C1 34.4879 1.91407 32.8572 3.53127 31.6248C5.14929 30.3918 7.42844 29.6003 9.98709 29.6003C12.5457 29.6003 14.8249 30.3918 16.4429 31.6248C18.0601 32.8572 18.9742 34.4879 18.9742 36.211Z" stroke="#9CE6F6" stroke-width="2"/>
<path d="M37.8029 150.464C37.8029 153.082 36.4128 155.523 34.0258 157.342C31.638 159.162 28.2954 160.316 24.5621 160.316C20.8288 160.316 17.4862 159.162 15.0984 157.342C12.7115 155.523 11.3213 153.082 11.3213 150.464C11.3213 147.845 12.7115 145.404 15.0984 143.585C17.4862 141.766 20.8288 140.611 24.5621 140.611C28.2954 140.611 31.638 141.766 34.0258 143.585C36.4128 145.404 37.8029 147.845 37.8029 150.464Z" stroke="#9CE6F6" stroke-width="2"/>
<path d="M309 100.232C309 101.955 308.085 103.586 306.468 104.818C304.85 106.051 302.571 106.843 300.012 106.843C297.454 106.843 295.175 106.051 293.557 104.818C291.939 103.586 291.025 101.955 291.025 100.232C291.025 98.5091 291.939 96.8785 293.557 95.6461C295.175 94.4131 297.454 93.6216 300.012 93.6216C302.571 93.6216 304.85 94.4131 306.468 95.6461C308.085 96.8785 309 98.5091 309 100.232Z" stroke="#9CE6F6" stroke-width="2"/>
<ellipse cx="99.2196" cy="136.13" rx="6.44614" ry="4.9123" fill="#9CE6F6"/>
<ellipse cx="83.2723" cy="43.8217" rx="6.44614" ry="4.9123" fill="#9CE6F6"/>
<ellipse cx="231.533" cy="4.9123" rx="6.44614" ry="4.9123" fill="#9CE6F6"/>
<ellipse cx="271.503" cy="157.954" rx="6.44614" ry="4.9123" fill="#9CE6F6"/>
<ellipse cx="248.133" cy="207.911" rx="6.44614" ry="4.9123" fill="#9CE6F6"/>
<ellipse cx="177.67" cy="63.9204" rx="10.3746" ry="7.90598" fill="#9CE6F6"/>
<ellipse cx="69.5064" cy="215.394" rx="10.3746" ry="7.90598" fill="#9CE6F6"/>
<ellipse cx="39.6148" cy="85.2744" rx="10.3746" ry="7.90598" fill="#9CE6F6"/>
<ellipse cx="277.462" cy="39.2006" rx="6.44614" ry="4.9123" fill="#9CE6F6"/>
</svg>
