<svg width="1213" height="260" viewBox="0 0 1213 260" fill="none" xmlns="http://www.w3.org/2000/svg">
<path d="M914.154 120.978C914.154 125.749 911.563 130.147 907.218 133.387C902.873 136.627 896.825 138.661 890.1 138.661C883.376 138.661 877.328 136.627 872.983 133.387C868.638 130.147 866.047 125.749 866.047 120.978C866.047 116.207 868.638 111.809 872.983 108.569C877.328 105.329 883.376 103.296 890.1 103.296C896.825 103.296 902.873 105.329 907.218 108.569C911.563 111.809 914.154 116.207 914.154 120.978Z" stroke="#9CE6F6" stroke-width="2"/>
<path d="M188.699 77.3324C188.699 82.1036 186.107 86.5015 181.763 89.7413C177.418 92.9812 171.369 95.0149 164.645 95.0149C157.921 95.0149 151.872 92.9812 147.528 89.7413C143.183 86.5015 140.592 82.1036 140.592 77.3324C140.592 72.5612 143.183 68.1634 147.528 64.9235C151.872 61.6836 157.921 59.6499 164.645 59.6499C171.369 59.6499 177.418 61.6836 181.763 64.9235C186.107 68.1634 188.699 72.5612 188.699 77.3324Z" stroke="#9CE6F6" stroke-width="2"/>
<path d="M298.854 177.718C298.854 184.687 295.069 191.074 288.793 195.754C282.517 200.434 273.801 203.358 264.13 203.358C254.459 203.358 245.743 200.434 239.467 195.754C233.192 191.074 229.406 184.687 229.406 177.718C229.406 170.75 233.192 164.362 239.467 159.683C245.743 155.003 254.459 152.078 264.13 152.078C273.801 152.078 282.517 155.003 288.793 159.683C295.069 164.362 298.854 170.75 298.854 177.718Z" stroke="#9CE6F6" stroke-width="2"/>
<path d="M1032.92 77.3324C1032.92 82.1036 1030.33 86.5015 1025.98 89.7413C1021.64 92.9812 1015.59 95.0149 1008.86 95.0149C1002.14 95.0149 996.091 92.9812 991.746 89.7413C987.402 86.5015 984.811 82.1036 984.811 77.3324C984.811 72.5612 987.402 68.1634 991.746 64.9235C996.091 61.6836 1002.14 59.6499 1008.86 59.6499C1015.59 59.6499 1021.64 61.6836 1025.98 64.9235C1030.33 68.1634 1032.92 72.5612 1032.92 77.3324Z" stroke="#9CE6F6" stroke-width="2"/>
<ellipse cx="399.522" cy="177.718" rx="16.1706" ry="12.0586" fill="#9CE6F6"/>
<ellipse cx="714.875" cy="20.56" rx="16.1706" ry="12.0586" fill="#9CE6F6"/>
<ellipse cx="948.514" cy="163.137" rx="16.1706" ry="12.0586" fill="#9CE6F6"/>
<ellipse cx="1180.44" cy="51.3012" rx="16.1706" ry="12.0586" fill="#9CE6F6"/>
<ellipse cx="16.3132" cy="171.094" rx="16.1706" ry="12.0586" fill="#9CE6F6"/>
<ellipse cx="67.6922" cy="19.8354" rx="26.0254" ry="19.4074" fill="#9CE6F6"/>
<ellipse cx="1186.16" cy="240.242" rx="26.0254" ry="19.4074" fill="#9CE6F6"/>
</svg>
