<svg width="767" height="411" viewBox="0 0 767 411" fill="none" xmlns="http://www.w3.org/2000/svg">
<path d="M576.742 210.99C576.742 214.244 575.014 217.26 572.08 219.496C569.146 221.732 565.048 223.144 560.481 223.144C555.914 223.144 551.817 221.732 548.882 219.496C545.949 217.26 544.221 214.244 544.221 210.99C544.221 207.737 545.949 204.72 548.882 202.485C551.817 200.249 555.914 198.837 560.481 198.837C565.048 198.837 569.146 200.249 572.08 202.485C575.014 204.72 576.742 207.737 576.742 210.99Z" stroke="#9CE6F6" stroke-width="2"/>
<path d="M483.411 147.429C483.411 150.683 481.683 153.699 478.749 155.934C475.815 158.17 471.717 159.582 467.15 159.582C462.583 159.582 458.486 158.17 455.551 155.934C452.618 153.699 450.89 150.683 450.89 147.429C450.89 144.175 452.618 141.159 455.551 138.923C458.486 136.687 462.583 135.275 467.15 135.275C471.717 135.275 475.815 136.687 478.749 138.923C481.683 141.159 483.411 144.175 483.411 147.429Z" stroke="#9CE6F6" stroke-width="2"/>
<path d="M483.104 279.306C483.104 282.56 481.376 285.576 478.442 287.811C475.508 290.047 471.411 291.459 466.844 291.459C462.276 291.459 458.179 290.047 455.245 287.811C452.311 285.576 450.583 282.56 450.583 279.306C450.583 276.052 452.311 273.036 455.245 270.8C458.179 268.564 462.276 267.152 466.844 267.152C471.411 267.152 475.508 268.564 478.442 270.8C481.376 273.036 483.104 276.052 483.104 279.306Z" stroke="#9CE6F6" stroke-width="2"/>
<path d="M150.588 63.0887C150.588 66.3425 148.86 69.3588 145.927 71.5942C142.993 73.8303 138.895 75.2422 134.328 75.2422C129.761 75.2422 125.663 73.8303 122.729 71.5942C119.796 69.3588 118.067 66.3425 118.067 63.0887C118.067 59.835 119.796 56.8187 122.729 54.5832C125.663 52.3472 129.761 50.9353 134.328 50.9353C138.895 50.9353 142.993 52.3472 145.927 54.5832C148.86 56.8187 150.588 59.835 150.588 63.0887Z" stroke="#9CE6F6" stroke-width="2"/>
<path d="M183.129 260.55C183.129 265.351 180.578 269.768 176.314 273.017C172.05 276.267 166.114 278.306 159.517 278.306C152.92 278.306 146.984 276.267 142.72 273.017C138.456 269.768 135.905 265.351 135.905 260.55C135.905 255.749 138.456 251.332 142.72 248.083C146.984 244.833 152.92 242.794 159.517 242.794C166.114 242.794 172.05 244.833 176.314 248.083C180.578 251.332 183.129 255.749 183.129 260.55Z" stroke="#9CE6F6" stroke-width="2"/>
<path d="M651.837 173.736C651.837 176.989 650.109 180.006 647.176 182.241C644.242 184.477 640.144 185.889 635.577 185.889C631.01 185.889 626.912 184.477 623.978 182.241C621.045 180.006 619.316 176.989 619.316 173.736C619.316 170.482 621.045 167.466 623.978 165.23C626.912 162.994 631.01 161.582 635.577 161.582C640.144 161.582 644.242 162.994 647.176 165.23C650.109 167.466 651.837 170.482 651.837 173.736Z" stroke="#9CE6F6" stroke-width="2"/>
<ellipse cx="288.546" cy="235.777" rx="11.1408" ry="8.48985" fill="#9CE6F6"/>
<ellipse cx="260.984" cy="76.2423" rx="11.1408" ry="8.48985" fill="#9CE6F6"/>
<ellipse cx="517.222" cy="8.99571" rx="11.1408" ry="8.48985" fill="#9CE6F6"/>
<ellipse cx="586.303" cy="273.495" rx="11.1408" ry="8.48985" fill="#9CE6F6"/>
<ellipse cx="545.913" cy="359.834" rx="11.1408" ry="8.48985" fill="#9CE6F6"/>
<ellipse cx="728.064" cy="17.4855" rx="11.1408" ry="8.48985" fill="#9CE6F6"/>
<ellipse cx="11.5993" cy="195.379" rx="11.1408" ry="8.48985" fill="#9CE6F6"/>
<ellipse cx="55.2471" cy="25.9753" rx="17.9302" ry="13.6638" fill="#9CE6F6"/>
<ellipse cx="424.131" cy="110.978" rx="17.9302" ry="13.6638" fill="#9CE6F6"/>
<ellipse cx="748.349" cy="397.011" rx="17.9302" ry="13.6638" fill="#9CE6F6"/>
</svg>
