<svg width="854" height="184" viewBox="0 0 854 184" fill="none" xmlns="http://www.w3.org/2000/svg">
<path d="M643.397 85.7404C643.397 88.9848 641.636 92.0003 638.633 94.2396C635.63 96.4789 631.435 97.8938 626.758 97.8938C622.081 97.8938 617.886 96.4789 614.883 94.2396C611.88 92.0003 610.119 88.9848 610.119 85.7404C610.119 82.4959 611.88 79.4804 614.883 77.2411C617.886 75.0018 622.081 73.5869 626.758 73.5869C631.435 73.5869 635.63 75.0018 638.633 77.2411C641.636 79.4804 643.397 82.4959 643.397 85.7404Z" stroke="#9CE6F6" stroke-width="2"/>
<path d="M132.639 55.0113C132.639 58.2558 130.878 61.2713 127.875 63.5106C124.872 65.7499 120.677 67.1648 116 67.1648C111.323 67.1648 107.128 65.7499 104.125 63.5106C101.123 61.2713 99.3613 58.2558 99.3613 55.0113C99.3613 51.7669 101.123 48.7514 104.125 46.5121C107.128 44.2728 111.323 42.8579 116 42.8579C120.677 42.8579 124.872 44.2728 127.875 46.5121C130.878 48.7514 132.639 51.7669 132.639 55.0113Z" stroke="#9CE6F6" stroke-width="2"/>
<path d="M210.195 125.688C210.195 130.479 207.593 134.896 203.23 138.149C198.868 141.402 192.795 143.444 186.043 143.444C179.292 143.444 173.219 141.402 168.856 138.149C164.494 134.896 161.892 130.479 161.892 125.688C161.892 120.896 164.494 116.48 168.856 113.227C173.219 109.974 179.292 107.932 186.043 107.932C192.795 107.932 198.868 109.974 203.23 113.227C207.593 116.48 210.195 120.896 210.195 125.688Z" stroke="#9CE6F6" stroke-width="2"/>
<path d="M727.013 55.0113C727.013 58.2558 725.251 61.2713 722.248 63.5106C719.246 65.7499 715.05 67.1648 710.374 67.1648C705.697 67.1648 701.502 65.7499 698.499 63.5106C695.496 61.2713 693.735 58.2558 693.735 55.0113C693.735 51.7669 695.496 48.7514 698.499 46.5121C701.502 44.2728 705.697 42.8579 710.374 42.8579C715.05 42.8579 719.246 44.2728 722.248 46.5121C725.251 48.7514 727.013 51.7669 727.013 55.0113Z" stroke="#9CE6F6" stroke-width="2"/>
<ellipse cx="281.365" cy="125.688" rx="11.3849" ry="8.48985" fill="#9CE6F6"/>
<ellipse cx="503.39" cy="15.0406" rx="11.3849" ry="8.48985" fill="#9CE6F6"/>
<ellipse cx="667.884" cy="115.422" rx="11.3849" ry="8.48985" fill="#9CE6F6"/>
<ellipse cx="831.17" cy="36.6842" rx="11.3849" ry="8.48985" fill="#9CE6F6"/>
<ellipse cx="11.5671" cy="121.025" rx="11.3849" ry="8.48985" fill="#9CE6F6"/>
<ellipse cx="47.7402" cy="14.5305" rx="18.3232" ry="13.6638" fill="#9CE6F6"/>
<ellipse cx="835.198" cy="169.708" rx="18.3232" ry="13.6638" fill="#9CE6F6"/>
</svg>
