<svg width="1440" height="838" viewBox="0 0 1440 838" fill="none" xmlns="http://www.w3.org/2000/svg">
<g clip-path="url(#clip0_554_3622)">
<rect width="1440" height="838" fill="#69235C"/>
<ellipse cx="1300.78" cy="303.241" rx="8.65753" ry="4.19364" fill="#5EB9EC"/>
<ellipse cx="1188.59" cy="429.103" rx="8.65753" ry="4.19364" fill="#5EB9EC"/>
<ellipse cx="1327.9" cy="724.461" rx="8.65753" ry="4.19364" fill="#5EB9EC"/>
<ellipse cx="1360.99" cy="554.284" rx="8.65753" ry="4.19364" fill="#F7382C"/>
<ellipse cx="307.658" cy="66.1936" rx="8.65753" ry="4.19364" fill="#F7382C"/>
<ellipse cx="1150.12" cy="691.54" rx="8.65753" ry="4.19364" fill="#F7382C"/>
<ellipse cx="1056.71" cy="244.056" rx="8.65753" ry="4.19364" fill="#F7382C"/>
<ellipse cx="1213.66" cy="167.194" rx="8.65753" ry="4.19364" fill="#F7382C"/>
<ellipse cx="1360.99" cy="88.7747" rx="8.65753" ry="4.19364" fill="#F7382C"/>
<ellipse cx="442.336" cy="158.543" rx="8.65753" ry="4.19364" fill="#F7382C"/>
<ellipse cx="459.658" cy="360.194" rx="8.65753" ry="4.19364" fill="#F7382C"/>
<ellipse cx="255.83" cy="209.53" rx="8.65753" ry="4.19364" fill="#F7382C"/>
<ellipse cx="66.0355" cy="410.719" rx="8.65753" ry="4.19364" fill="#F7382C"/>
<ellipse cx="279.856" cy="724.461" rx="8.65753" ry="4.19364" fill="#F7382C"/>
<ellipse cx="74.6932" cy="764.34" rx="8.65753" ry="4.19364" fill="#F9ED32"/>
<ellipse cx="205.658" cy="528.194" rx="8.65753" ry="4.19364" fill="#F9ED32"/>
<ellipse cx="132.523" cy="209.53" rx="8.65753" ry="4.19364" fill="#F9ED32"/>
<ellipse cx="613.39" cy="480.554" rx="8.65753" ry="4.19364" fill="#F9ED32"/>
<ellipse cx="539.032" cy="278.729" rx="8.65753" ry="4.19364" fill="#F9ED32"/>
<ellipse cx="726.257" cy="58.2859" rx="8.65753" ry="4.19364" fill="#F9ED32"/>
<ellipse cx="884.202" cy="250.848" rx="8.65753" ry="4.19364" fill="#F9ED32"/>
<ellipse cx="961.658" cy="106.194" rx="8.65753" ry="4.19364" fill="#F9ED32"/>
<ellipse cx="1405.72" cy="435.231" rx="8.65753" ry="4.19364" fill="#F9ED32"/>
<ellipse cx="621.658" cy="745.194" rx="8.65753" ry="4.19364" fill="#F9ED32"/>
<ellipse cx="1028.77" cy="602.149" rx="8.65753" ry="4.19364" fill="#F9ED32"/>
<ellipse cx="801.658" cy="655.194" rx="8.65753" ry="4.19364" fill="#F9ED32"/>
<ellipse cx="1360.99" cy="202.484" rx="8.65753" ry="4.19364" fill="#F7812C"/>
<ellipse cx="429.686" cy="510.731" rx="8.65753" ry="4.19364" fill="#F7812C"/>
<ellipse cx="149.838" cy="97.9905" rx="8.65753" ry="4.19364" fill="#F7812C"/>
<ellipse cx="1196.6" cy="788.095" rx="8.65753" ry="4.19364" fill="#F7812C"/>
<ellipse cx="595.925" cy="614.405" rx="8.65753" ry="4.19364" fill="#F7812C"/>
<ellipse cx="851.658" cy="503.194" rx="8.65753" ry="4.19364" fill="#F7812C"/>
<ellipse cx="733.776" cy="290.985" rx="8.65753" ry="4.19364" fill="#5EB9EC"/>
<ellipse cx="909.503" cy="385.182" rx="8.65753" ry="4.19364" fill="#5EB9EC"/>
<ellipse cx="1045.66" cy="329.194" rx="8.65753" ry="4.19364" fill="#5EB9EC"/>
<ellipse cx="477.872" cy="596.021" rx="8.65753" ry="4.19364" fill="#5EB9EC"/>
<ellipse cx="1011.66" cy="756.194" rx="8.65753" ry="4.19364" fill="#5EB9EC"/>
<ellipse cx="784.658" cy="741.194" rx="8.65753" ry="4.19364" fill="#5EB9EC"/>
<ellipse cx="290.201" cy="416.847" rx="8.65753" ry="4.19364" fill="#5EB9EC"/>
<ellipse cx="197.235" cy="337.03" rx="8.65753" ry="4.19364" fill="#5EB9EC"/>
<ellipse cx="119.872" cy="647.264" rx="8.65753" ry="4.19364" fill="#5EB9EC"/>
<ellipse cx="378.837" cy="736.717" rx="8.65753" ry="4.19364" fill="#5EB9EC"/>
<path d="M427 892.507L721.766 -14H782.334L572.364 892.507H427Z" fill="#5A4482" fill-opacity="0.6"/>
<path d="M726 900.123L1517.43 0H1594.15L964.236 900.123H726Z" fill="#D159B6" fill-opacity="0.31"/>
<path d="M410.191 832.885L80.3513 -105H17.9997L232.524 832.885H410.191Z" fill="#893477" fill-opacity="0.51"/>
<path d="M1277.19 837.584L272.553 -80.7576L207 -40.4339L1119.87 934.361L1277.19 837.584Z" fill="#A576FB" fill-opacity="0.6"/>
<path fill-rule="evenodd" clip-rule="evenodd" d="M953.336 70.3552L959.499 71.0701L946.372 184.263L973.225 212.674L968.716 216.937L945.439 192.309L942.893 214.262L936.729 213.547L939.255 191.768L910.909 210.448L907.494 205.267L940.188 183.722L953.336 70.3552Z" fill="black"/>
<path d="M959.74 41.8602L1014.78 85.1105L896.263 71.366L959.74 41.8602Z" fill="#F9ED32"/>
<path fill-rule="evenodd" clip-rule="evenodd" d="M1226.2 185.451L1232.36 186.166L1224.65 252.65L1251.5 281.061L1246.99 285.324L1223.72 260.696L1221.17 282.648L1215.01 281.934L1217.53 260.155L1189.19 278.835L1185.77 273.654L1218.47 252.109L1226.2 185.451Z" fill="black"/>
<rect x="1177.88" y="137.238" width="109.457" height="61.4391" rx="5" transform="rotate(6.61514 1177.88 137.238)" fill="#F16B38"/>
<mask id="mask0_554_3622" style="mask-type:alpha" maskUnits="userSpaceOnUse" x="1171" y="138" width="115" height="74">
<rect x="1177.76" y="138.266" width="109.457" height="61.4391" rx="5" transform="rotate(6.61514 1177.76 138.266)" fill="#E24536"/>
</mask>
<g mask="url(#mask0_554_3622)">
<path d="M1172.3 175.57L1193.31 163.983L1210.5 180L1231.21 168.378L1246.27 184.148L1267.28 172.562L1283.26 188.438" stroke="white"/>
</g>
<path fill-rule="evenodd" clip-rule="evenodd" d="M884.241 143.966L890.405 144.68L882.695 211.164L909.548 239.576L905.039 243.838L881.762 219.211L879.216 241.163L873.052 240.448L875.578 218.67L847.231 237.35L843.816 232.169L876.511 210.623L884.241 143.966Z" fill="black"/>
<rect x="835.921" y="95.752" width="109.457" height="61.4391" rx="5" transform="rotate(6.61514 835.921 95.752)" fill="#F16B38"/>
<mask id="mask1_554_3622" style="mask-type:alpha" maskUnits="userSpaceOnUse" x="829" y="97" width="115" height="73">
<rect x="835.801" y="96.7798" width="109.457" height="61.4391" rx="5" transform="rotate(6.61514 835.801 96.7798)" fill="#E24536"/>
</mask>
<g mask="url(#mask1_554_3622)">
<path d="M830.347 134.084L851.354 122.498L868.545 138.514L889.248 126.892L904.317 142.663L925.324 131.076L941.302 146.952" stroke="white"/>
</g>
<circle cx="1055.1" cy="176.343" r="93.9863" transform="rotate(6.61514 1055.1 176.343)" fill="#F16B38"/>
<circle cx="1055.1" cy="176.342" r="75.5806" transform="rotate(6.61514 1055.1 176.342)" fill="white"/>
<path d="M1060.49 123.134L1067.15 160.937L1102.42 165.027L1071.27 184.301L1077.93 222.104L1052.01 196.212L1020.86 215.486L1036 180.211L1010.09 154.319L1045.35 158.409L1060.49 123.134Z" fill="#F9ED32"/>
<path fill-rule="evenodd" clip-rule="evenodd" d="M385.975 349.447C383.74 347.825 380.614 348.322 378.992 350.556L374.54 356.691L370.751 353.942L371.01 353.585C371.659 352.691 371.46 351.44 370.566 350.791L369.022 349.671C368.128 349.022 366.878 349.221 366.229 350.115L363.093 354.435C362.444 355.329 362.643 356.58 363.537 357.229L365.081 358.349C365.975 358.998 367.226 358.799 367.875 357.905L368.133 357.549L371.922 360.299L366.869 367.261L363.08 364.511L363.339 364.154C363.988 363.26 363.789 362.01 362.895 361.361L361.351 360.24C360.457 359.591 359.206 359.79 358.558 360.684L355.422 365.005C354.773 365.899 354.972 367.149 355.866 367.798L357.41 368.919C358.304 369.568 359.555 369.369 360.204 368.475L360.462 368.119L364.251 370.869L359.198 377.83L355.41 375.081L355.669 374.724C356.318 373.83 356.119 372.579 355.225 371.931L353.681 370.81C352.787 370.161 351.536 370.36 350.888 371.254L347.752 375.575C347.103 376.469 347.302 377.719 348.196 378.368L349.74 379.489C350.634 380.137 351.885 379.939 352.534 379.045L352.792 378.689L356.58 381.438L350.279 390.121C348.657 392.355 349.154 395.482 351.389 397.104L353.075 398.328L298.186 473.96C268.402 460.519 235.8 465.246 219.751 487.361C211.532 498.685 208.994 512.722 211.429 526.966C183.877 524.274 158.181 533.339 143.333 553.8C118.406 588.147 133.486 641.599 177.015 673.189C220.543 704.779 276.037 702.544 300.964 668.198C315.813 647.737 316.465 620.497 305.363 595.137C319.661 593.036 332.219 586.271 340.437 574.947C356.487 552.831 350.873 520.369 328.858 496.219L383.747 420.587L385.436 421.813C387.67 423.435 390.797 422.938 392.419 420.703L398.72 412.021L402.505 414.767L402.245 415.125C401.597 416.019 401.795 417.269 402.689 417.918L404.234 419.039C405.128 419.687 406.378 419.489 407.027 418.595L410.163 414.274C410.811 413.38 410.613 412.13 409.719 411.481L408.174 410.36C407.28 409.711 406.03 409.91 405.381 410.804L405.123 411.16L401.338 408.413L406.391 401.45L410.176 404.198L409.917 404.555C409.268 405.449 409.467 406.699 410.361 407.348L411.905 408.469C412.799 409.118 414.05 408.919 414.698 408.025L417.834 403.704C418.483 402.81 418.284 401.56 417.39 400.911L415.846 399.79C414.952 399.141 413.701 399.34 413.052 400.234L412.794 400.59L409.009 397.843L414.061 390.881L417.846 393.628L417.588 393.985C416.939 394.879 417.138 396.13 418.032 396.778L419.576 397.899C420.47 398.548 421.721 398.349 422.369 397.455L425.505 393.134C426.154 392.24 425.955 390.99 425.061 390.341L423.517 389.22C422.623 388.572 421.372 388.77 420.723 389.664L420.465 390.021L416.68 387.274L421.132 381.139C422.754 378.904 422.257 375.777 420.022 374.155L385.975 349.447Z" fill="#F16B38"/>
<ellipse cx="252.261" cy="569.504" rx="34.9591" ry="27.5849" transform="rotate(35.9695 252.261 569.504)" fill="black"/>
<rect x="384.025" y="383.833" width="4.82905" height="286.437" rx="1" transform="rotate(35.9695 384.025 383.833)" fill="white"/>
<rect x="391.08" y="388.953" width="4.82905" height="286.437" rx="1" transform="rotate(35.9695 391.08 388.953)" fill="white"/>
<rect x="376.97" y="378.713" width="4.82905" height="286.437" rx="1" transform="rotate(35.9695 376.97 378.713)" fill="white"/>
<rect x="194.205" y="593.925" width="65.2843" height="11.2882" rx="2" transform="rotate(35.9695 194.205 593.925)" fill="black"/>
<path d="M548.055 205.889L112.874 354.696L57.9007 167.881L457.094 31.3796L548.055 205.889Z" fill="white"/>
<path d="M491.795 97.9414L78.855 239.143L57.8963 167.883L457.089 31.3822L491.795 97.9414Z" fill="#2E2F35"/>
<path d="M472.542 61.0229L67.2359 199.614L57.9006 167.882L457.094 31.3813L472.542 61.0229Z" fill="#646672"/>
<ellipse cx="436.812" cy="94.1778" rx="17.3366" ry="13.0025" transform="rotate(161.122 436.812 94.1778)" fill="#F9ED32"/>
<ellipse cx="103.312" cy="208.215" rx="13.902" ry="10.4265" transform="rotate(161.122 103.312 208.215)" fill="#F16B38"/>
<ellipse cx="139.835" cy="195.728" rx="13.902" ry="10.4265" transform="rotate(161.122 139.835 195.728)" fill="#F16B38"/>
<ellipse cx="393.17" cy="109.101" rx="10.4674" ry="7.85052" transform="rotate(161.122 393.17 109.101)" fill="#F16B38"/>
<path fill-rule="evenodd" clip-rule="evenodd" d="M158.662 339.1L162.386 337.827L147.138 287.626L155.537 285.101L135.673 219.714L127.285 222.264L126.853 220.842L123.075 221.99L123.507 223.412L115.461 225.858L135.356 291.168L143.365 288.76L158.662 339.1ZM258.171 305.058L261.907 303.78L222.345 188.079L218.608 189.356L258.171 305.058ZM355.085 271.883L358.979 270.552L337.644 221.536L345.31 218.236L318.107 155.546L310.381 158.9L309.558 157.01L305.935 158.582L306.756 160.474L298.728 163.959L325.954 226.568L333.937 223.132L355.085 271.883ZM453.083 238.371L456.895 237.068L432.711 184.918L438.927 182.061L410.199 120.054L391.032 128.938L419.78 190.864L429.095 186.581L453.083 238.371ZM503.077 221.24L506.865 219.974L451.494 110.173L447.968 111.951L503.077 221.24ZM408.483 253.62L404.686 254.919L353.51 142.724L357.103 141.086L408.483 253.62ZM311.336 286.837L307.607 288.112L288.751 237.895L280.062 241.126L256.028 177.223L264.741 173.952L264.617 173.624L268.315 172.236L268.438 172.564L275.805 169.798L299.814 233.78L292.447 236.52L311.336 286.837ZM212.602 320.595L208.779 321.902L172.153 204.398L175.923 203.22L212.602 320.595Z" fill="#2E2F35"/>
<rect x="314.042" y="147.128" width="32.3401" height="7.79629" transform="rotate(161.122 314.042 147.128)" fill="#646672"/>
<rect x="310.117" y="135.651" width="32.3401" height="7.79629" transform="rotate(161.122 310.117 135.651)" fill="#646672"/>
<rect x="274.699" y="160.582" width="32.3401" height="7.79629" transform="rotate(161.122 274.699 160.582)" fill="#646672"/>
<rect x="270.773" y="149.104" width="32.3401" height="7.79629" transform="rotate(161.122 270.773 149.104)" fill="#646672"/>
<rect x="235.355" y="174.035" width="32.3401" height="7.79629" transform="rotate(161.122 235.355 174.035)" fill="#646672"/>
<rect x="231.431" y="162.557" width="32.3401" height="7.79629" transform="rotate(161.122 231.431 162.557)" fill="#646672"/>
<path d="M1075.32 509.502C1093.35 524.604 1130.11 555.601 1132.83 558.764L1150.39 524.318C1133.58 514.656 1097.16 493.979 1085.99 488.568C1074.81 483.156 1079.17 490.544 1082.75 494.915C1071.17 489.847 1075.51 497.547 1079.12 502.031C1065.77 499.07 1071.02 505.778 1075.32 509.502Z" fill="#76A92C"/>
<path d="M1239.58 381.069C1232.12 363.716 1210.45 369.503 1200.55 374.565L1220.06 543.101L1274.13 648.176L1384.29 594.844C1382.34 587.697 1374.54 573.842 1358.94 575.593C1343.35 577.343 1341.48 596.503 1342.5 605.864C1340.04 598.149 1331.32 583.366 1316.06 585.957C1300.8 588.547 1299.03 605.11 1300.06 613.068L1281.36 608.391C1287.96 602.503 1299.52 588.204 1292.9 578.112C1286.28 568.02 1272.51 568.301 1266.45 569.703C1274.43 567.6 1289.62 558.816 1286.51 540.501C1283.4 522.185 1264.84 517.822 1255.94 517.93C1265.13 516.183 1282.38 508.059 1277.86 489.534C1273.34 471.01 1253.8 471.561 1244.59 474.153C1253.65 468.314 1269.67 452.285 1261.22 434.877C1252.77 417.468 1234.68 421.064 1226.68 425.037C1234.09 417.611 1247.04 398.421 1239.58 381.069Z" fill="#F9ED32"/>
<path fill-rule="evenodd" clip-rule="evenodd" d="M1281.74 664.061L1288.94 738.167L1269.33 741.497L1244.29 745.746C1240.09 739.479 1238.02 726.094 1263.39 722.692C1263.86 722.629 1264.32 722.567 1264.77 722.507L1251.97 669.115L1281.74 664.061Z" fill="#76A92C"/>
<path fill-rule="evenodd" clip-rule="evenodd" d="M1234.69 664.103L1241.88 738.209L1222.27 741.538L1197.24 745.788C1193.03 739.521 1190.96 726.135 1216.34 722.734C1216.81 722.671 1217.27 722.609 1217.72 722.548L1204.92 669.156L1234.69 664.103Z" fill="#76A92C"/>
<path d="M1044.27 358.958C1053.74 326.08 1071.95 337.322 1079.87 347.053C1105.63 353.353 1161.66 365.349 1179.7 362.927C1202.24 359.899 1221.9 389.304 1229.83 403.13C1236.18 414.191 1269.43 543.085 1285.26 606.149C1324.18 614.874 1380.27 591.085 1403.45 578.099C1371.51 669.771 1234.72 690.167 1164.94 697.125C1109.12 702.692 1127.13 556.631 1143.11 482.905C1134.88 479.741 1108.76 471.927 1070.13 465.975C1021.85 458.535 1032.44 400.057 1044.27 358.958Z" fill="#84BC33"/>
<mask id="mask2_554_3622" style="mask-type:alpha" maskUnits="userSpaceOnUse" x="1034" y="337" width="370" height="361">
<path d="M1044.27 358.958C1053.74 326.08 1071.95 337.322 1079.87 347.053C1105.63 353.353 1161.66 365.349 1179.7 362.927C1202.24 359.899 1221.9 389.304 1229.83 403.13C1236.18 414.191 1269.43 543.085 1285.26 606.149C1324.18 614.874 1380.27 591.085 1403.45 578.099C1371.51 669.771 1234.72 690.167 1164.94 697.125C1109.12 702.692 1127.13 556.631 1143.11 482.905C1134.88 479.741 1108.76 471.927 1070.13 465.975C1021.85 458.535 1032.44 400.057 1044.27 358.958Z" fill="#84BC33"/>
</mask>
<g mask="url(#mask2_554_3622)">
<ellipse cx="1164.65" cy="641.755" rx="53.2676" ry="96.3507" transform="rotate(-9.63441 1164.65 641.755)" fill="#BDDB91"/>
</g>
<path d="M1064.59 417.902C1041.37 445.599 1036.94 421.167 1037.64 405.413C1047.03 410.206 1056.03 414.343 1064.59 417.902C1064.69 417.78 1064.79 417.657 1064.89 417.533C1064.89 417.697 1064.89 417.861 1064.89 418.027C1117.15 439.704 1153.21 439.85 1165.99 436.546C1161.65 466.222 1147.98 450.172 1141.69 438.437C1133.18 465.606 1121.72 447.336 1117.05 434.805C1102.67 463.327 1094.69 442.322 1092.5 428.255C1070 455.041 1064.73 432.892 1064.89 418.027C1064.79 417.985 1064.69 417.944 1064.59 417.902Z" fill="#D9D9D9"/>
<path d="M1035.57 403.794C1068.29 422.081 1143.27 452.994 1181.45 430.351" stroke="black" stroke-width="3"/>
<ellipse cx="1156.36" cy="357.791" rx="12.5984" ry="18.939" transform="rotate(-9.63441 1156.36 357.791)" fill="#F5F5F5"/>
<ellipse cx="1157.68" cy="365.068" rx="8.17424" ry="12.2882" transform="rotate(-9.63441 1157.68 365.068)" fill="black"/>
<ellipse cx="1122.68" cy="352.837" rx="12.5984" ry="18.939" transform="rotate(-9.63441 1122.68 352.837)" fill="#F5F5F5"/>
<ellipse cx="1123.07" cy="359.812" rx="8.17424" ry="12.2882" transform="rotate(-9.63441 1123.07 359.812)" fill="black"/>
<ellipse cx="10.3717" cy="8.58041" rx="10.3717" ry="8.58041" transform="matrix(0.617535 -0.786544 0.699895 0.714246 1198.68 444.112)" fill="#F9ED32"/>
<ellipse cx="7.2156" cy="5.9694" rx="7.2156" ry="5.9694" transform="matrix(0.617535 -0.786544 0.699895 0.714246 1197.48 413.496)" fill="#F9ED32"/>
<ellipse cx="7.2156" cy="5.9694" rx="7.2156" ry="5.9694" transform="matrix(0.617535 -0.786544 0.699895 0.714246 1215.95 422.121)" fill="#F9ED32"/>
<rect width="2.48552" height="14.1254" transform="matrix(-0.928461 0.371431 -0.325657 -0.945488 1147.53 666.366)" fill="#76A92C"/>
<rect width="2.48552" height="14.1254" transform="matrix(-0.928461 0.371431 -0.325657 -0.945488 1183.76 674.884)" fill="#76A92C"/>
<rect width="2.48552" height="14.1254" transform="matrix(-0.928461 0.371431 -0.325657 -0.945488 1194.44 654.51)" fill="#76A92C"/>
<rect width="2.47797" height="14.1588" transform="matrix(-0.999521 0.0309362 -0.0628352 -0.998024 1154.73 638.431)" fill="#76A92C"/>
<rect width="2.47703" height="14.1629" transform="matrix(-0.999061 0.04333 -0.0723721 -0.997378 1161.32 667.97)" fill="#76A92C"/>
<rect width="2.47797" height="14.1588" transform="matrix(-0.999521 0.0309362 -0.0628352 -0.998024 1170.57 652.131)" fill="#76A92C"/>
<rect width="2.47276" height="14.1817" transform="matrix(-0.980706 0.195488 -0.188901 -0.981996 1142.07 625.883)" fill="#76A92C"/>
<rect width="2.47963" height="14.1514" transform="matrix(-0.999936 0.0112974 -0.0476912 -0.998862 1142.17 589.262)" fill="#76A92C"/>
<rect width="2.47341" height="14.1788" transform="matrix(-0.993639 0.112611 -0.125482 -0.992096 1179.15 630.202)" fill="#76A92C"/>
<rect width="2.47341" height="14.1788" transform="matrix(-0.993639 0.112611 -0.125482 -0.992096 1191.31 632.36)" fill="#76A92C"/>
<rect width="2.47341" height="14.1788" transform="matrix(-0.993639 0.112611 -0.125482 -0.992096 1167.2 609.174)" fill="#76A92C"/>
<rect width="2.47721" height="14.1621" transform="matrix(-0.956697 0.291086 -0.262603 -0.964904 1153.3 612.884)" fill="#76A92C"/>
<rect width="2.48387" height="14.1327" transform="matrix(-0.999545 -0.0301684 -0.0155551 -0.999879 1176 586.927)" fill="#76A92C"/>
<rect width="2.48387" height="14.1327" transform="matrix(-0.999545 -0.0301684 -0.0155551 -0.999879 1182.79 606.19)" fill="#76A92C"/>
<rect width="2.48387" height="14.1327" transform="matrix(-0.999545 -0.0301684 -0.0155551 -0.999879 1199.51 680.91)" fill="#76A92C"/>
<rect width="2.4756" height="14.1692" transform="matrix(-0.963436 0.267938 -0.244657 -0.96961 1158.46 586.573)" fill="#76A92C"/>
<path d="M1257.3 492.445C1239.71 506.462 1203.67 534.943 1200.28 536.735L1224.29 568C1236.99 553.358 1264.29 521.547 1271.89 511.446C1279.49 501.345 1272.11 503.397 1267.47 505.685C1274.89 495.023 1267.25 496.936 1262.51 499.226C1268.65 485.901 1261.59 489.153 1257.3 492.445Z" fill="#76A92C"/>
</g>
<defs>
<clipPath id="clip0_554_3622">
<rect width="1440" height="838" fill="white"/>
</clipPath>
</defs>
</svg>
