<svg width="834" height="1194" viewBox="0 0 834 1194" fill="none" xmlns="http://www.w3.org/2000/svg">
<g clip-path="url(#clip0_717_460)">
<rect width="834" height="1194" fill="#69235C"/>
<path d="M20.6706 1307.17L318.8 -68.0182L382.28 -68.5179L173.022 1305.98L20.6706 1307.17Z" fill="#5A4482" fill-opacity="0.6"/>
<path d="M1028.63 991.254L-32.5381 176.397L-93.3452 221.404L882.697 1099.27L1028.63 991.254Z" fill="#A576FB" fill-opacity="0.6"/>
<path d="M65.919 1296.74L749.477 -51.5693L843.182 -75.6977L356.899 1221.82L65.919 1296.74Z" fill="#D159B6" fill-opacity="0.31"/>
<ellipse cx="741.383" cy="889.203" rx="8.47967" ry="4.10749" fill="#5EB9EC"/>
<ellipse cx="778.686" cy="644.23" rx="8.47967" ry="4.10749" fill="#F7382C"/>
<ellipse cx="271.051" cy="59.0494" rx="8.47967" ry="4.10749" fill="#F7382C"/>
<ellipse cx="314.923" cy="299.313" rx="8.47967" ry="4.10749" fill="#F7382C"/>
<ellipse cx="90.86" cy="114.493" rx="8.47967" ry="4.10749" fill="#F7382C"/>
<ellipse cx="72.4015" cy="610.279" rx="8.47967" ry="4.10749" fill="#F7382C"/>
<ellipse cx="324.609" cy="1078.65" rx="8.47967" ry="4.10749" fill="#F7382C"/>
<ellipse cx="191.584" cy="835.241" rx="8.47967" ry="4.10749" fill="#F9ED32"/>
<ellipse cx="271.051" cy="514.017" rx="8.47967" ry="4.10749" fill="#F9ED32"/>
<ellipse cx="535.347" cy="974.86" rx="8.47967" ry="4.10749" fill="#F9ED32"/>
<ellipse cx="361.563" cy="152.027" rx="8.47967" ry="4.10749" fill="#F9ED32"/>
<ellipse cx="451.353" cy="730.257" rx="8.47967" ry="4.10749" fill="#F9ED32"/>
<ellipse cx="490.602" cy="264.507" rx="8.47967" ry="4.10749" fill="#F9ED32"/>
<ellipse cx="699.642" cy="124.72" rx="8.47967" ry="4.10749" fill="#F9ED32"/>
<ellipse cx="333.088" cy="652.445" rx="8.47967" ry="4.10749" fill="#F7812C"/>
<ellipse cx="72.4015" cy="379.263" rx="8.47967" ry="4.10749" fill="#F7812C"/>
<ellipse cx="589.174" cy="827.027" rx="8.47967" ry="4.10749" fill="#F7812C"/>
<ellipse cx="400.366" cy="889.203" rx="8.47967" ry="4.10749" fill="#F7812C"/>
<ellipse cx="63.923" cy="1070.44" rx="8.47967" ry="4.10749" fill="#F7812C"/>
<ellipse cx="606.133" cy="375.156" rx="8.47967" ry="4.10749" fill="#F7812C"/>
<ellipse cx="552.306" cy="164.031" rx="8.47967" ry="4.10749" fill="#5EB9EC"/>
<ellipse cx="724.423" cy="256.294" rx="8.47967" ry="4.10749" fill="#5EB9EC"/>
<ellipse cx="691.162" cy="480.807" rx="8.47967" ry="4.10749" fill="#5EB9EC"/>
<ellipse cx="526.866" cy="522.232" rx="8.47967" ry="4.10749" fill="#5EB9EC"/>
<ellipse cx="38.1887" cy="799.33" rx="8.47967" ry="4.10749" fill="#5EB9EC"/>
<ellipse cx="200.064" cy="387.478" rx="8.47967" ry="4.10749" fill="#5EB9EC"/>
<ellipse cx="597.654" cy="1086.87" rx="8.47967" ry="4.10749" fill="#5EB9EC"/>
<ellipse cx="174.625" cy="1155.37" rx="8.47967" ry="4.10749" fill="#F7382C"/>
<ellipse cx="779.249" cy="1161.99" rx="8.47967" ry="4.10749" fill="#5EB9EC"/>
<path fill-rule="evenodd" clip-rule="evenodd" d="M281.49 53.7035C279.189 52.1774 276.086 52.806 274.56 55.1074L269.637 62.5312L265.326 59.6724L265.713 59.089C266.323 58.1685 266.072 56.9273 265.151 56.3169L263.042 54.9181C262.121 54.3077 260.88 54.5591 260.27 55.4797L256.775 60.7497C256.165 61.6702 256.416 62.9114 257.337 63.5218L259.446 64.9206C260.367 65.531 261.608 65.2796 262.218 64.359L262.603 63.7793L266.914 66.6382L261.661 74.5608L257.349 71.7019L257.735 71.1203C258.345 70.1997 258.094 68.9586 257.173 68.3482L255.064 66.9494C254.143 66.339 252.902 66.5904 252.292 67.511L248.797 72.781C248.187 73.7015 248.438 74.9427 249.359 75.5531L251.468 76.9518C252.389 77.5623 253.63 77.3108 254.24 76.3903L254.626 75.8088L258.937 78.6677L253.683 86.5923L249.372 83.7338L249.757 83.1531C250.367 82.2325 250.116 80.9914 249.195 80.381L247.086 78.9822C246.165 78.3718 244.924 78.6232 244.314 79.5438L240.819 84.8138C240.209 85.7343 240.46 86.9755 241.381 87.5859L243.49 88.9847C244.411 89.5951 245.652 89.3437 246.262 88.4231L246.648 87.8408L250.959 90.6992L244.113 101.024C242.587 103.326 243.215 106.429 245.517 107.955L247.877 109.52L190.788 195.615C157.263 182.16 121.476 188.903 104.782 214.078C96.2347 226.969 94.0868 242.591 97.4416 258.209C66.885 256.522 38.9276 267.734 23.483 291.026C-2.44318 330.125 16.7087 388.457 66.2599 421.314C115.811 454.171 176.998 449.111 202.924 410.012C218.368 386.721 217.816 356.605 204.371 329.114C220.064 326.126 233.619 318.068 242.167 305.177C258.86 280.002 251.144 244.412 225.703 218.768L282.792 132.672L285.153 134.237C287.454 135.763 290.557 135.135 292.083 132.833L298.926 122.513L303.236 125.371L302.85 125.953C302.24 126.873 302.491 128.114 303.412 128.725L305.521 130.123C306.442 130.734 307.683 130.482 308.293 129.562L311.788 124.292C312.398 123.371 312.147 122.13 311.226 121.52L309.117 120.121C308.196 119.511 306.955 119.762 306.345 120.683L305.96 121.264L301.65 118.406L306.906 110.479L311.214 113.336L310.828 113.918C310.217 114.839 310.469 116.08 311.389 116.69L313.499 118.089C314.419 118.699 315.66 118.448 316.271 117.527L319.765 112.258C320.376 111.337 320.124 110.096 319.204 109.485L317.094 108.087C316.174 107.476 314.932 107.728 314.322 108.648L313.937 109.229L309.629 106.372L314.884 98.4471L319.193 101.304L318.806 101.887C318.196 102.807 318.447 104.049 319.368 104.659L321.477 106.058C322.398 106.668 323.639 106.417 324.249 105.496L327.744 100.226C328.354 99.3057 328.103 98.0646 327.182 97.4541L325.073 96.0554C324.152 95.4449 322.911 95.6964 322.301 96.6169L321.916 97.1971L317.607 94.3401L322.53 86.9162C324.056 84.6147 323.428 81.5119 321.126 79.9859L281.49 53.7035Z" fill="#F16B38"/>
<ellipse cx="144.525" cy="303.285" rx="38.6456" ry="30.4938" transform="rotate(33.548 144.525 303.285)" fill="black"/>
<rect x="281.382" y="92.0645" width="5.33827" height="316.642" rx="1" transform="rotate(33.548 281.382 92.0645)" fill="white"/>
<rect x="289.413" y="97.3896" width="5.33827" height="316.642" rx="1" transform="rotate(33.548 289.413 97.3896)" fill="white"/>
<rect x="273.352" y="86.7397" width="5.33827" height="316.642" rx="1" transform="rotate(33.548 273.352 86.7397)" fill="white"/>
<rect x="81.5449" y="332.971" width="72.1685" height="12.4785" rx="2" transform="rotate(33.548 81.5449 332.971)" fill="black"/>
<path d="M532.486 833.968C551.977 841.85 591.854 857.811 595.433 858.599L578.82 888.291C563.852 878.97 531.61 858.665 522.39 852.013C513.17 845.36 520.589 845.593 525.451 846.542C516.287 839.405 523.921 839.479 528.883 840.408C520.405 830.889 527.753 832.149 532.486 833.968Z" fill="#EEB00F"/>
<path fill-rule="evenodd" clip-rule="evenodd" d="M725.862 1021.75L709.39 1025.72L709.389 1025.72L688.365 1030.78C684.499 1025.99 682.105 1015.32 703.459 1010.92C703.854 1010.84 704.241 1010.76 704.621 1010.68L691.214 968.413L716.218 962.393L725.862 1021.75Z" fill="#ECBC40"/>
<path fill-rule="evenodd" clip-rule="evenodd" d="M681.986 1027.74L683.72 1027.32L674.077 967.964L649.073 973.985L662.48 1016.25C662.1 1016.33 661.713 1016.41 661.318 1016.49C639.964 1020.89 642.358 1031.57 646.224 1036.35L681.986 1027.74L681.986 1027.74Z" fill="#ECBC40"/>
<path d="M627.127 722.637C663.576 674.742 625.521 685.257 601.937 696.501L675.233 970.821L816.314 945.145C811.813 908.425 793.417 929.377 784.782 944.443C788.092 895.007 756.266 918.967 739.939 937.126C766.787 879.825 725.563 900.045 701.595 917.317C759.827 860.051 713.263 869.774 682.703 881.793C729.595 843.151 693.585 843.393 669.719 848.345C725.409 820.306 685.75 818.246 658.96 820.721C716.585 792.534 676.049 787.055 648.578 787.839C704.014 742.369 663.815 745.343 636.786 752.514C687.981 724.921 651.678 721.099 627.127 722.637Z" fill="#EB5D3A"/>
<path d="M570.953 691.384C602.685 683.234 618.852 695.349 622.969 702.424C644.851 765.431 692.369 896.195 707.384 915.193C722.398 934.191 798.96 942.813 835.364 944.75C763.23 967.927 613.232 1009.98 590.316 992.747C567.399 975.518 560.5 920.93 559.915 895.79L574.019 775.578C561.418 779.598 531.171 787.451 510.985 786.707C490.8 785.963 489.904 772.04 491.98 765.171C476.012 709.786 531.288 701.572 570.953 691.384Z" fill="#FCC537"/>
<mask id="mask0_717_460" style="mask-type:alpha" maskUnits="userSpaceOnUse" x="489" y="688" width="347" height="309">
<path d="M570.953 691.384C602.685 683.234 618.852 695.349 622.969 702.424C644.851 765.431 692.369 896.195 707.384 915.193C722.398 934.191 798.96 942.813 835.364 944.75C763.23 967.927 613.232 1009.98 590.316 992.747C567.399 975.518 560.5 920.93 559.915 895.79L574.019 775.578C561.418 779.598 531.171 787.451 510.985 786.707C490.8 785.963 489.904 772.04 491.98 765.171C476.012 709.786 531.288 701.572 570.953 691.384Z" fill="#FCC537"/>
</mask>
<g mask="url(#mask0_717_460)">
<path d="M655.338 994.75C631.91 883.39 579.079 891.431 555.592 909.371L576.49 1013.74L655.338 994.75Z" fill="#FDCF8C"/>
</g>
<ellipse cx="14.1248" cy="17.9762" rx="14.1248" ry="17.9762" transform="matrix(-0.972215 0.234092 0.234092 0.972215 568.847 667.886)" fill="#F5F5F5"/>
<ellipse cx="9.16459" cy="11.6635" rx="9.16459" ry="11.6635" transform="matrix(-0.972215 0.234092 0.234092 0.972215 566.979 681.322)" fill="black"/>
<ellipse cx="14.1248" cy="17.9762" rx="14.1248" ry="17.9762" transform="matrix(-0.972215 0.234092 0.234092 0.972215 536.367 670.203)" fill="#F5F5F5"/>
<ellipse cx="9.16459" cy="11.6635" rx="9.16459" ry="11.6635" transform="matrix(-0.972215 0.234092 0.234092 0.972215 534.5 683.638)" fill="black"/>
<path d="M513.736 763.95C496.054 722.575 492.288 763.259 491.564 765.452C532.07 765.23 552.41 757.33 557.516 753.409C570.733 760.928 593.347 769.294 578.074 742.603C590.809 747.546 611.351 751.35 591.639 727.02C588.844 732.741 578.106 746.028 557.516 753.409C537.578 730.911 533.839 748.947 534.462 760.777C522.122 737.257 515.503 753.092 513.736 763.95Z" fill="white"/>
<path d="M491.634 765.445C519.192 766.385 578.417 758.879 594.851 721.332" stroke="black" stroke-width="3"/>
<ellipse cx="9.53551" cy="7.40761" rx="9.53551" ry="7.40761" transform="matrix(-0.972215 0.234092 0.234092 0.972215 731.306 943.583)" fill="#EB5D3A"/>
<ellipse cx="6.63386" cy="5.15348" rx="6.63386" ry="5.15348" transform="matrix(-0.972215 0.234092 0.234092 0.972215 708.719 931.242)" fill="#EB5D3A"/>
<ellipse cx="6.63386" cy="5.15348" rx="6.63386" ry="5.15348" transform="matrix(-0.972215 0.234092 0.234092 0.972215 706.316 949.6)" fill="#EB5D3A"/>
<rect width="2.76906" height="13.4773" transform="matrix(-0.998449 0.0556771 0.0437519 0.999042 573.924 914.866)" fill="#FCC537"/>
<rect width="2.77082" height="13.4682" transform="matrix(-0.93846 0.345388 0.352701 0.935736 592.61 936.078)" fill="#FCC537"/>
<rect width="2.77103" height="13.4671" transform="matrix(-0.942052 0.335468 0.342155 0.939643 587.591 907.777)" fill="#FCC537"/>
<rect width="2.77082" height="13.4682" transform="matrix(-0.93846 0.345388 0.352701 0.935736 602.428 921.608)" fill="#FCC537"/>
<rect width="2.77203" height="13.462" transform="matrix(-0.977598 0.210482 0.208879 0.977942 583.792 949.183)" fill="#FCC537"/>
<rect width="2.77043" height="13.4702" transform="matrix(-0.93255 0.361041 0.369325 0.9293 590.04 973.339)" fill="#FCC537"/>
<rect width="2.77188" height="13.4627" transform="matrix(-0.96019 0.279349 0.282388 0.9593 621.251 933.111)" fill="#FCC537"/>
<rect width="2.77188" height="13.4627" transform="matrix(-0.96019 0.279349 0.282388 0.9593 617.292 956.257)" fill="#FCC537"/>
<rect width="2.77099" height="13.4673" transform="matrix(-0.991765 0.128072 0.120886 0.992666 601.385 958.788)" fill="#FCC537"/>
<rect width="2.76944" height="13.4753" transform="matrix(-0.919178 0.393842 0.404091 0.914719 635.35 971.886)" fill="#FCC537"/>
<rect width="2.76944" height="13.4753" transform="matrix(-0.919178 0.393842 0.404091 0.914719 634.664 952.401)" fill="#FCC537"/>
<rect width="2.77137" height="13.4654" transform="matrix(-0.988933 0.148364 0.142542 0.989789 617.302 979.437)" fill="#FCC537"/>
<path d="M618.258 903.794C624.139 883.902 636.002 843.227 636.409 839.667L668.588 851.49C660.734 867.227 643.583 901.157 637.814 910.979C632.045 920.801 631.458 913.619 631.885 908.801C625.615 918.638 624.84 911.271 625.237 906.358C616.458 915.87 616.926 908.612 618.258 903.794Z" fill="#EEB00F"/>
<path d="M791.718 383.941L356.777 271.845L412.166 89.912L811.139 192.739L791.718 383.941Z" fill="white"/>
<path d="M803.739 265.672L391.027 159.305L412.163 89.9127L811.136 192.739L803.739 265.672Z" fill="#2E2F35"/>
<path d="M807.838 225.214L402.756 120.813L412.166 89.912L811.139 192.739L807.838 225.214Z" fill="#646672"/>
<ellipse cx="760.893" cy="233.096" rx="16.9308" ry="12.6981" transform="rotate(-165.548 760.893 233.096)" fill="#F9ED32"/>
<ellipse cx="427.576" cy="147.191" rx="13.5766" ry="10.1824" transform="rotate(-165.548 427.576 147.191)" fill="#F16B38"/>
<ellipse cx="464.08" cy="156.598" rx="13.5766" ry="10.1824" transform="rotate(-165.548 464.08 156.598)" fill="#F16B38"/>
<ellipse cx="717.275" cy="221.856" rx="10.2223" ry="7.66675" transform="rotate(-165.548 717.275 221.856)" fill="#F16B38"/>
<path fill-rule="evenodd" clip-rule="evenodd" d="M402.511 283.689L406.232 284.648L420.728 235.503L428.937 237.95L447.815 173.938L439.602 171.517L440.012 170.126L436.313 169.036L435.903 170.427L428.026 168.105L409.214 232.071L417.041 234.404L402.511 283.689ZM501.974 309.308L505.708 310.27L535.512 194.633L531.778 193.67L501.974 309.308ZM598.854 334.242L602.746 335.245L611.639 283.802L619.663 285.222L631.106 219.472L623.004 218.063L623.346 216.08L619.547 215.419L619.201 217.402L610.779 215.938L599.398 281.635L607.758 283.114L598.854 334.242ZM696.797 359.483L700.606 360.465L708.857 304.937L715.462 305.941L725.295 239.931L704.888 236.894L695.116 302.849L705.014 304.353L696.797 359.483ZM746.785 372.332L750.554 373.331L764.293 254.026L760.462 253.584L746.785 372.332ZM652.223 347.992L648.428 347.014L666.874 228.007L670.685 228.598L652.223 347.992ZM555.132 322.968L551.404 322.008L562.965 270.913L554.141 268.887L568.819 203.848L577.686 205.855L577.761 205.522L581.523 206.373L581.447 206.706L588.942 208.402L574.199 273.492L566.719 271.775L555.132 322.968ZM456.453 297.533L452.633 296.548L485.799 181.016L489.507 182.078L456.453 297.533Z" fill="#2E2F35"/>
<rect x="632.304" y="210.423" width="31.583" height="7.61379" transform="rotate(-165.548 632.304 210.423)" fill="#646672"/>
<rect x="635.261" y="198.954" width="31.583" height="7.61379" transform="rotate(-165.548 635.261 198.954)" fill="#646672"/>
<rect x="592.982" y="200.291" width="31.583" height="7.61379" transform="rotate(-165.548 592.982 200.291)" fill="#646672"/>
<rect x="595.939" y="188.818" width="31.583" height="7.61379" transform="rotate(-165.548 595.939 188.818)" fill="#646672"/>
<rect x="553.662" y="190.154" width="31.583" height="7.61379" transform="rotate(-165.548 553.662 190.154)" fill="#646672"/>
<rect x="556.618" y="178.685" width="31.583" height="7.61379" transform="rotate(-165.548 556.618 178.685)" fill="#646672"/>
<path fill-rule="evenodd" clip-rule="evenodd" d="M171.35 790.261L177.538 791.275L158.926 904.91L184.686 934.861L179.932 938.95L157.603 912.988L153.993 935.027L147.805 934.013L151.386 912.149L121.888 929.663L118.686 924.271L152.71 904.071L171.35 790.261Z" fill="black"/>
<path d="M179.163 761.8L232.671 808.064L113.691 788.577L179.163 761.8Z" fill="#F9ED32"/>
<path fill-rule="evenodd" clip-rule="evenodd" d="M441.348 919.383L447.536 920.396L436.604 987.14L462.365 1017.09L457.611 1021.18L435.281 995.217L431.671 1017.26L425.483 1016.24L429.064 994.378L399.566 1011.89L396.365 1006.5L430.387 986.301L441.348 919.383Z" fill="black"/>
<rect x="394.859" y="868.428" width="110.608" height="62.0855" rx="5" transform="rotate(9.30173 394.859 868.428)" fill="#F16B38"/>
<mask id="mask1_717_460" style="mask-type:alpha" maskUnits="userSpaceOnUse" x="385" y="870" width="119" height="78">
<rect x="394.689" y="869.46" width="110.608" height="62.0855" rx="5" transform="rotate(9.30173 394.689 869.46)" fill="#E24536"/>
</mask>
<g mask="url(#mask1_717_460)">
<path d="M387.416 906.857L409.169 896.157L425.763 913.138L447.212 902.387L461.676 919.02L483.429 908.319L498.806 925.101" stroke="white"/>
</g>
<path fill-rule="evenodd" clip-rule="evenodd" d="M98.1163 861.29L104.304 862.303L93.3724 929.047L119.133 958.999L114.379 963.088L92.0494 937.125L88.4398 959.164L82.2518 958.15L85.8327 936.287L56.3354 953.8L53.1343 948.408L87.1557 928.209L98.1163 861.29Z" fill="black"/>
<rect x="51.626" y="810.336" width="110.608" height="62.0855" rx="5" transform="rotate(9.30173 51.626 810.336)" fill="#F16B38"/>
<mask id="mask2_717_460" style="mask-type:alpha" maskUnits="userSpaceOnUse" x="42" y="812" width="118" height="78">
<rect x="51.4575" y="811.367" width="110.608" height="62.0855" rx="5" transform="rotate(9.30173 51.4575 811.367)" fill="#E24536"/>
</mask>
<g mask="url(#mask2_717_460)">
<path d="M44.1843 848.764L65.9374 838.063L82.5315 855.045L103.98 844.294L118.444 860.927L140.197 850.226L155.574 867.008" stroke="white"/>
</g>
<circle cx="269.049" cy="902.065" r="94.975" transform="rotate(9.30173 269.049 902.065)" fill="#F16B38"/>
<circle cx="269.047" cy="902.065" r="76.3757" transform="rotate(9.30173 269.047 902.065)" fill="white"/>
<path d="M277.01 848.61L281.943 887.085L317.347 892.883L284.991 910.863L289.923 949.337L264.994 921.975L232.638 939.955L249.587 905.064L224.658 877.702L260.062 883.501L277.01 848.61Z" fill="#F9ED32"/>
</g>
<defs>
<clipPath id="clip0_717_460">
<rect width="834" height="1194" fill="white"/>
</clipPath>
</defs>
</svg>
