<svg width="320" height="568" viewBox="0 0 320 568" fill="none" xmlns="http://www.w3.org/2000/svg">
<g clip-path="url(#clip0_717_460)">
<rect width="320" height="568" fill="#69235C"/>
<path d="M-6.06781 709.242L153.72 -27.8166L187.743 -28.0844L75.5878 708.6L-6.06781 709.242Z" fill="#5A4482" fill-opacity="0.6"/>
<path d="M450.434 462.106L0.726433 51.0277L-28.6171 69.0778L380.01 505.426L450.434 462.106Z" fill="#A576FB" fill-opacity="0.6"/>
<path d="M62.2325 611.208L323.736 95.3948L359.585 86.1641L173.551 582.545L62.2325 611.208Z" fill="#D159B6" fill-opacity="0.31"/>
<ellipse cx="284.19" cy="343.36" rx="3.05885" ry="1.48168" fill="#5EB9EC"/>
<ellipse cx="297.646" cy="254.991" rx="3.05885" ry="1.48168" fill="#F7382C"/>
<ellipse cx="114.528" cy="43.9006" rx="3.05885" ry="1.48168" fill="#F7382C"/>
<ellipse cx="130.354" cy="130.57" rx="3.05885" ry="1.48168" fill="#F7382C"/>
<ellipse cx="49.5281" cy="63.9006" rx="3.05885" ry="1.48168" fill="#F7382C"/>
<ellipse cx="42.8699" cy="242.744" rx="3.05885" ry="1.48168" fill="#F7382C"/>
<ellipse cx="133.848" cy="411.7" rx="3.05885" ry="1.48168" fill="#F7382C"/>
<ellipse cx="85.8621" cy="323.895" rx="3.05885" ry="1.48168" fill="#F9ED32"/>
<ellipse cx="114.528" cy="208.02" rx="3.05885" ry="1.48168" fill="#F9ED32"/>
<ellipse cx="209.867" cy="374.259" rx="3.05885" ry="1.48168" fill="#F9ED32"/>
<ellipse cx="147.178" cy="77.4402" rx="3.05885" ry="1.48168" fill="#F9ED32"/>
<ellipse cx="179.568" cy="286.024" rx="3.05885" ry="1.48168" fill="#F9ED32"/>
<ellipse cx="193.726" cy="118.015" rx="3.05885" ry="1.48168" fill="#F9ED32"/>
<ellipse cx="269.133" cy="67.5896" rx="3.05885" ry="1.48168" fill="#F9ED32"/>
<ellipse cx="136.907" cy="257.955" rx="3.05885" ry="1.48168" fill="#F7812C"/>
<ellipse cx="42.8699" cy="159.41" rx="3.05885" ry="1.48168" fill="#F7812C"/>
<ellipse cx="229.284" cy="320.931" rx="3.05885" ry="1.48168" fill="#F7812C"/>
<ellipse cx="161.176" cy="343.36" rx="3.05885" ry="1.48168" fill="#F7812C"/>
<ellipse cx="39.8113" cy="408.737" rx="3.05885" ry="1.48168" fill="#F7812C"/>
<ellipse cx="235.402" cy="157.929" rx="3.05885" ry="1.48168" fill="#F7812C"/>
<ellipse cx="215.985" cy="81.7703" rx="3.05885" ry="1.48168" fill="#5EB9EC"/>
<ellipse cx="278.072" cy="115.052" rx="3.05885" ry="1.48168" fill="#5EB9EC"/>
<ellipse cx="266.074" cy="196.04" rx="3.05885" ry="1.48168" fill="#5EB9EC"/>
<ellipse cx="206.808" cy="210.983" rx="3.05885" ry="1.48168" fill="#5EB9EC"/>
<ellipse cx="30.5281" cy="310.94" rx="3.05885" ry="1.48168" fill="#5EB9EC"/>
<ellipse cx="88.9212" cy="162.374" rx="3.05885" ry="1.48168" fill="#5EB9EC"/>
<ellipse cx="232.343" cy="414.664" rx="3.05885" ry="1.48168" fill="#5EB9EC"/>
<ellipse cx="79.7444" cy="439.376" rx="3.05885" ry="1.48168" fill="#F7382C"/>
<ellipse cx="297.849" cy="441.763" rx="3.05885" ry="1.48168" fill="#5EB9EC"/>
<path fill-rule="evenodd" clip-rule="evenodd" d="M108.32 -11.0284C106.193 -12.7893 103.041 -12.4923 101.28 -10.3652L99.9348 -8.73965L97.8782 -10.4421C98.2727 -11.1335 98.1257 -12.0289 97.4914 -12.554C96.7811 -13.142 95.7286 -13.0428 95.1406 -12.3325L93.9042 -10.839C93.3162 -10.1286 93.4154 -9.07614 94.1257 -8.48815C94.7595 -7.96349 95.6658 -7.98592 96.2714 -8.50146L98.3282 -6.79882L95.2285 -3.05426L93.1716 -4.75689C93.5658 -5.44827 93.4187 -6.34341 92.7846 -6.86835C92.0743 -7.45635 91.0218 -7.35719 90.4338 -6.64687L89.1974 -5.15331C88.6094 -4.443 88.7086 -3.39051 89.4189 -2.80251C90.0528 -2.27774 90.9593 -2.30029 91.5649 -2.81615L93.6218 -1.11344L90.5222 2.63097L88.4654 0.928302C88.8588 0.237061 88.7116 -0.657474 88.0778 -1.18216C87.3674 -1.77016 86.315 -1.671 85.727 -0.960683L84.4906 0.532877C83.9026 1.24319 84.0018 2.29568 84.7121 2.88368C85.3463 3.40871 86.2534 3.38588 86.859 2.8693L88.9156 4.57179L86.4343 7.56928C84.8908 9.43393 84.9285 12.086 86.3941 13.8982L52.6508 54.661C36.3336 46.0074 17.7739 47.5009 7.92541 59.3981C2.88258 65.4899 0.946046 73.3161 1.80729 81.4384C-13.6371 78.9287 -28.4574 83.1178 -37.569 94.1248C-52.8642 112.602 -46.2807 143.294 -22.8642 162.679C0.552338 182.063 31.9344 182.798 47.2297 164.321C56.3411 153.314 57.6886 137.973 52.3389 123.269C60.4794 122.598 67.8064 119.234 72.8494 113.142C82.6977 101.245 80.6988 82.7335 69.1506 68.3198L102.894 27.5568C104.948 28.6579 107.56 28.1995 109.104 26.335L111.583 23.3403L113.639 25.0425C113.245 25.7338 113.392 26.6287 114.026 27.1535C114.737 27.7415 115.789 27.6424 116.377 26.9321L117.613 25.4385C118.201 24.7282 118.102 23.6757 117.392 23.0877C116.758 22.5628 115.851 22.5855 115.246 23.1017L113.189 21.3995L116.29 17.6536L118.346 19.3554C117.952 20.0468 118.099 20.9419 118.733 21.4668C119.443 22.0548 120.496 21.9556 121.084 21.2453L122.32 19.7518C122.908 19.0414 122.809 17.989 122.099 17.401C121.465 16.8762 120.558 16.8987 119.953 17.4146L117.897 15.7128L120.997 11.9672L123.053 13.6691C122.659 14.3605 122.806 15.2561 123.44 15.7812C124.15 16.3692 125.203 16.27 125.791 15.5597L127.027 14.0661C127.615 13.3558 127.516 12.3033 126.806 11.7153C126.172 11.1907 125.266 11.2131 124.66 11.7285L122.604 10.0264L123.95 8.40051C125.711 6.27334 125.414 3.12148 123.287 1.36061L108.32 -11.0284Z" fill="#F16B38"/>
<ellipse cx="23.3086" cy="106.901" rx="19.759" ry="15.5911" transform="rotate(39.6179 23.3086 106.901)" fill="black"/>
<rect x="104.309" y="6.91113" width="2.72939" height="161.895" rx="1" transform="rotate(39.6179 104.309 6.91113)" fill="white"/>
<rect x="108.104" y="10.0527" width="2.72939" height="161.895" rx="1" transform="rotate(39.6179 108.104 10.0527)" fill="white"/>
<rect x="100.514" y="3.76953" width="2.72939" height="161.895" rx="1" transform="rotate(39.6179 100.514 3.76953)" fill="white"/>
<rect x="-10.3164" y="118.589" width="36.8988" height="6.3801" rx="2" transform="rotate(39.6179 -10.3164 118.589)" fill="black"/>
<path d="M248.617 397.986C260.304 401.335 284.207 408.093 286.313 408.329L278.562 426.414C269.387 421.962 249.612 412.243 243.906 408.976C238.2 405.71 242.481 405.394 245.334 405.644C239.63 402.096 244.025 401.675 246.936 401.908C241.482 396.949 245.784 397.227 248.617 397.986Z" fill="#EEB00F"/>
<path fill-rule="evenodd" clip-rule="evenodd" d="M346.359 500.345L347.331 500L338.181 466.449L324.167 471.429L334.444 494.925C334.231 494.993 334.013 495.062 333.791 495.133C321.777 498.96 323.802 504.952 326.316 507.469L346.36 500.345L346.359 500.345Z" fill="#ECBC40"/>
<path d="M296.284 328.213C314.337 298.455 293.09 306.813 280.21 314.712L339.02 468.022L418.596 444.689C413.777 423.845 404.47 437.011 400.419 446.2C399.321 417.568 382.472 433.28 374.185 444.715C386.146 410.131 363.666 424.262 350.931 435.651C380.943 399.181 354.755 407.6 337.909 416.369C362.53 391.298 341.836 393.624 328.411 397.921C358.736 378.414 335.803 379.638 320.546 382.688C351.975 362.979 328.33 362.289 312.579 364.408C341.699 334.892 318.761 339.043 303.652 344.808C331.419 325.831 310.309 325.837 296.284 328.213Z" fill="#EB5D3A"/>
<path d="M262.081 313.65C279.835 307.036 289.868 313.021 292.665 316.841C309.076 351.747 344.343 424.064 354.132 434.078C363.92 444.091 408.475 444.401 429.528 443.304C389.451 461.014 305.741 494.304 291.516 485.787C277.29 477.271 270.008 446.296 268.145 431.873L268.956 361.884C261.954 364.961 245.035 371.314 233.382 372.111C221.728 372.909 220.367 364.956 221.144 360.88C208.598 329.998 239.888 321.917 262.081 313.65Z" fill="#FCC537"/>
<mask id="mask0_717_460" style="mask-type:alpha" maskUnits="userSpaceOnUse" x="218" y="310" width="212" height="178">
<path d="M262.081 313.65C279.835 307.036 289.868 313.021 292.665 316.841C309.076 351.747 344.343 424.064 354.132 434.078C363.92 444.091 408.475 444.401 429.528 443.304C389.451 461.014 305.741 494.304 291.516 485.787C277.29 477.271 270.008 446.296 268.145 431.873L268.956 361.884C261.954 364.961 245.035 371.314 233.382 372.111C221.728 372.909 220.367 364.956 221.144 360.88C208.598 329.998 239.888 321.917 262.081 313.65Z" fill="#FCC537"/>
</mask>
<g mask="url(#mask0_717_460)">
<path d="M329.032 482.991C308.796 420.371 278.902 428.203 266.484 439.946L284.839 498.697L329.032 482.991Z" fill="#FDCF8C"/>
</g>
<ellipse cx="8.16829" cy="10.3955" rx="8.16829" ry="10.3955" transform="matrix(-0.94226 0.334882 0.334882 0.94226 259.442 300.264)" fill="#F5F5F5"/>
<ellipse cx="5.29984" cy="6.74494" rx="5.29984" ry="6.74494" transform="matrix(-0.94226 0.334882 0.334882 0.94226 259.185 308.104)" fill="black"/>
<ellipse cx="8.16829" cy="10.3955" rx="8.16829" ry="10.3955" transform="matrix(-0.94226 0.334882 0.334882 0.94226 240.905 303.569)" fill="#F5F5F5"/>
<ellipse cx="5.29984" cy="6.74494" rx="5.29984" ry="6.74494" transform="matrix(-0.94226 0.334882 0.334882 0.94226 240.646 311.409)" fill="black"/>
<path d="M233.582 358.856C220.9 336.135 221.205 359.761 220.922 361.067C244.203 358.479 255.421 352.701 258.12 350.136C266.177 353.657 279.69 357.095 269.286 342.673C276.91 344.742 288.955 345.683 276.141 332.888C274.881 336.347 269.512 344.641 258.12 350.136C245.287 338.408 244.232 349.007 245.308 355.773C236.784 342.996 233.939 352.505 233.582 358.856Z" fill="white"/>
<path d="M220.961 361.058C236.867 359.926 270.471 352.013 277.643 329.421" stroke="black" stroke-width="3"/>
<rect width="1.60133" height="7.79387" transform="matrix(-0.987083 0.160208 0.148411 0.988926 277.36 441.993)" fill="#FCC537"/>
<rect width="1.60235" height="7.78861" transform="matrix(-0.897006 0.442019 0.449005 0.893529 289.394 453.058)" fill="#FCC537"/>
<rect width="1.60248" height="7.78795" transform="matrix(-0.901619 0.43253 0.438928 0.898522 284.79 437.087)" fill="#FCC537"/>
<rect width="1.60235" height="7.78861" transform="matrix(-0.897006 0.442019 0.449005 0.893529 294.162 444.141)" fill="#FCC537"/>
<rect width="1.60305" height="7.78498" transform="matrix(-0.950093 0.311968 0.310409 0.950603 285.118 461.13)" fill="#FCC537"/>
<rect width="1.60213" height="7.78977" transform="matrix(-0.889485 0.456965 0.464861 0.885384 290.179 474.643)" fill="#FCC537"/>
<rect width="1.60296" height="7.78543" transform="matrix(-0.92555 0.378626 0.381555 0.924346 305.686 449.612)" fill="#FCC537"/>
<rect width="1.60296" height="7.78543" transform="matrix(-0.92555 0.378626 0.381555 0.924346 304.814 463.164)" fill="#FCC537"/>
<rect width="1.60245" height="7.78808" transform="matrix(-0.972835 0.231501 0.224449 0.974486 295.819 465.585)" fill="#FCC537"/>
<rect width="1.60156" height="7.79272" transform="matrix(-0.872743 0.48818 0.497905 0.867232 316.147 471.056)" fill="#FCC537"/>
<rect width="1.60156" height="7.79272" transform="matrix(-0.872743 0.48818 0.497905 0.867232 314.57 459.892)" fill="#FCC537"/>
<rect width="1.60267" height="7.78696" transform="matrix(-0.967888 0.251383 0.245683 0.96935 306.228 476.494)" fill="#FCC537"/>
<path d="M302.184 432.934C304.358 421.137 308.711 397.025 308.729 394.953L327.953 399.798C324.392 409.326 316.588 429.88 313.867 435.879C311.146 441.878 310.372 437.783 310.325 434.986C307.316 441.024 306.423 436.835 306.353 433.985C301.882 439.988 301.711 435.786 302.184 432.934Z" fill="#EEB00F"/>
<path d="M324.474 117.989L123.306 66.1424L148.924 -18.0047L333.456 29.5545L324.474 117.989Z" fill="white"/>
<path d="M330.033 63.2876L139.146 14.0906L148.922 -18.0044L333.454 29.5548L330.033 63.2876Z" fill="#2E2F35"/>
<path d="M331.929 44.5752L144.572 -3.71225L148.924 -18.0046L333.456 29.5546L331.929 44.5752Z" fill="#646672"/>
<ellipse cx="310.216" cy="48.2207" rx="7.8308" ry="5.8731" transform="rotate(-165.548 310.216 48.2207)" fill="#F9ED32"/>
<ellipse cx="156.051" cy="8.48802" rx="6.27941" ry="4.70956" transform="rotate(-165.548 156.051 8.48802)" fill="#F16B38"/>
<ellipse cx="172.935" cy="12.8391" rx="6.27941" ry="4.70956" transform="rotate(-165.548 172.935 12.8391)" fill="#F16B38"/>
<ellipse cx="290.042" cy="43.022" rx="4.72802" ry="3.54601" transform="rotate(-165.548 290.042 43.022)" fill="#F16B38"/>
<path fill-rule="evenodd" clip-rule="evenodd" d="M144.458 71.6208L146.179 72.0645L152.884 49.3343L156.68 50.466L165.412 20.8591L161.613 19.7394L161.803 19.096L160.092 18.5916L159.902 19.2351L156.259 18.1613L147.558 47.7468L151.178 48.8259L144.458 71.6208ZM190.462 83.4701L192.189 83.9151L205.974 30.4309L204.246 29.9855L190.462 83.4701ZM235.27 95.0025L237.07 95.4664L241.183 71.6731L244.895 72.3303L250.188 41.9196L246.44 41.2681L246.598 40.3505L244.841 40.0449L244.681 40.9624L240.786 40.2852L235.522 70.671L239.388 71.3553L235.27 95.0025ZM280.57 106.677L282.333 107.131L286.149 81.4486L289.204 81.9128L293.752 51.3819L284.313 49.9777L279.793 80.483L284.371 81.1785L280.57 106.677ZM303.691 112.62L305.434 113.082L311.789 57.901L310.017 57.697L303.691 112.62ZM259.955 101.362L258.199 100.91L266.731 45.8668L268.493 46.1401L259.955 101.362ZM215.048 89.7884L213.324 89.3443L218.671 65.7118L214.59 64.7748L221.379 34.6931L225.479 35.6212L225.514 35.4672L227.254 35.861L227.219 36.0149L230.686 36.7995L223.867 66.9046L220.407 66.1103L215.048 89.7884ZM169.407 78.024L167.64 77.5685L182.98 24.133L184.695 24.6239L169.407 78.024Z" fill="#2E2F35"/>
<rect x="250.742" y="37.7339" width="14.6077" height="3.52151" transform="rotate(-165.548 250.742 37.7339)" fill="#646672"/>
<rect x="252.109" y="32.4292" width="14.6077" height="3.52151" transform="rotate(-165.548 252.109 32.4292)" fill="#646672"/>
<rect x="232.555" y="33.0474" width="14.6077" height="3.52151" transform="rotate(-165.548 232.555 33.0474)" fill="#646672"/>
<rect x="233.922" y="27.7412" width="14.6077" height="3.52151" transform="rotate(-165.548 233.922 27.7412)" fill="#646672"/>
<rect x="214.368" y="28.3594" width="14.6077" height="3.52151" transform="rotate(-165.548 214.368 28.3594)" fill="#646672"/>
<rect x="215.735" y="23.0547" width="14.6077" height="3.52151" transform="rotate(-165.548 215.735 23.0547)" fill="#646672"/>
<path fill-rule="evenodd" clip-rule="evenodd" d="M52.5434 355.2L55.4403 356.025L40.293 409.225L50.9341 424.938L48.4401 426.627L39.2162 413.007L36.2785 423.324L33.3816 422.5L36.2959 412.264L21.2541 418.995L20.0238 416.245L37.3727 408.482L52.5434 355.2Z" fill="black"/>
<path d="M57.841 342.05L80.8238 367.077L25.1221 351.218L57.841 342.05Z" fill="#F9ED32"/>
<path fill-rule="evenodd" clip-rule="evenodd" d="M174.264 431.704L177.161 432.529L168.265 463.776L178.906 479.489L176.412 481.178L167.188 467.558L164.25 477.875L161.353 477.05L164.268 466.814L149.226 473.545L147.995 470.796L165.344 463.033L174.264 431.704Z" fill="black"/>
<rect x="154.89" y="404.826" width="53.1326" height="29.8238" rx="5" transform="rotate(15.8931 154.89 404.826)" fill="#F16B38"/>
<mask id="mask1_717_460" style="mask-type:alpha" maskUnits="userSpaceOnUse" x="147" y="406" width="58" height="42">
<rect x="154.752" y="405.309" width="53.1326" height="29.8238" rx="5" transform="rotate(15.8931 154.752 405.309)" fill="#E24536"/>
</mask>
<g mask="url(#mask1_717_460)">
<path d="M149.219 422.753L160.19 418.846L167.172 427.865L178 423.917L183.985 432.652L194.955 428.745L201.367 437.601" stroke="white"/>
</g>
<path fill-rule="evenodd" clip-rule="evenodd" d="M13.6805 385.057L16.5775 385.882L7.68065 417.129L18.3222 432.842L15.8282 434.531L6.60389 420.911L3.66623 431.228L0.76926 430.403L3.68351 420.168L-11.3578 426.899L-12.588 424.149L4.76027 416.386L13.6805 385.057Z" fill="black"/>
<rect x="-5.69482" y="358.179" width="53.1326" height="29.8238" rx="5" transform="rotate(15.8931 -5.69482 358.179)" fill="#F16B38"/>
<mask id="mask2_717_460" style="mask-type:alpha" maskUnits="userSpaceOnUse" x="-13" y="359" width="58" height="42">
<rect x="-5.83203" y="358.662" width="53.1326" height="29.8238" rx="5" transform="rotate(15.8931 -5.83203 358.662)" fill="#E24536"/>
</mask>
<g mask="url(#mask2_717_460)">
<path d="M-11.3648 376.106L-0.394411 372.199L6.58782 381.218L17.4157 377.27L23.4006 386.005L34.371 382.098L40.7833 390.954" stroke="white"/>
</g>
<circle cx="92.9996" cy="413.94" r="45.6228" transform="rotate(15.8931 92.9996 413.94)" fill="#F16B38"/>
<circle cx="92.9988" cy="413.939" r="36.6883" transform="rotate(15.8931 92.9988 413.939)" fill="white"/>
<path d="M99.7463 388.871L99.9785 407.502L116.553 412.221L100.122 419.017L100.354 437.649L89.9669 423.217L73.5357 430.013L83.5472 414.298L73.16 399.866L89.7347 404.585L99.7463 388.871Z" fill="#F9ED32"/>
<rect y="479.002" width="320" height="88.9976" fill="#84BC33"/>
</g>
<defs>
<clipPath id="clip0_717_460">
<rect width="320" height="568" fill="white"/>
</clipPath>
</defs>
</svg>
