<svg width="390" height="844" viewBox="0 0 390 844" fill="none" xmlns="http://www.w3.org/2000/svg">
<g clip-path="url(#clip0_717_460)">
<rect width="390" height="844" fill="#69235C"/>
<path d="M-61.693 895.592L134.908 -11.276L176.77 -11.6055L38.7751 894.801L-61.693 895.592Z" fill="#5A4482" fill-opacity="0.6"/>
<path d="M523.931 685.271L-19.4635 21.3701L-64.0083 40.5793L417.023 731.373L523.931 685.271Z" fill="#A576FB" fill-opacity="0.6"/>
<path d="M-25.1873 905.808L384.496 97.7128L440.657 83.2517L149.209 860.903L-25.1873 905.808Z" fill="#D159B6" fill-opacity="0.31"/>
<ellipse cx="362.182" cy="552.156" rx="4.22728" ry="2.04766" fill="#5EB9EC"/>
<ellipse cx="380.779" cy="430.032" rx="4.22728" ry="2.04766" fill="#F7382C"/>
<ellipse cx="127.712" cy="138.307" rx="4.22728" ry="2.04766" fill="#F7382C"/>
<ellipse cx="149.583" cy="258.083" rx="4.22728" ry="2.04766" fill="#F7382C"/>
<ellipse cx="37.8835" cy="165.947" rx="4.22728" ry="2.04766" fill="#F7382C"/>
<ellipse cx="28.6819" cy="413.106" rx="4.22728" ry="2.04766" fill="#F7382C"/>
<ellipse cx="154.412" cy="646.601" rx="4.22728" ry="2.04766" fill="#F7382C"/>
<ellipse cx="88.0964" cy="525.255" rx="4.22728" ry="2.04766" fill="#F9ED32"/>
<ellipse cx="127.712" cy="365.117" rx="4.22728" ry="2.04766" fill="#F9ED32"/>
<ellipse cx="259.469" cy="594.857" rx="4.22728" ry="2.04766" fill="#F9ED32"/>
<ellipse cx="172.835" cy="184.659" rx="4.22728" ry="2.04766" fill="#F9ED32"/>
<ellipse cx="217.596" cy="472.918" rx="4.22728" ry="2.04766" fill="#F9ED32"/>
<ellipse cx="237.163" cy="240.732" rx="4.22728" ry="2.04766" fill="#F9ED32"/>
<ellipse cx="341.374" cy="171.045" rx="4.22728" ry="2.04766" fill="#F9ED32"/>
<ellipse cx="158.639" cy="434.127" rx="4.22728" ry="2.04766" fill="#F7812C"/>
<ellipse cx="28.6819" cy="297.94" rx="4.22728" ry="2.04766" fill="#F7812C"/>
<ellipse cx="286.303" cy="521.159" rx="4.22728" ry="2.04766" fill="#F7812C"/>
<ellipse cx="192.178" cy="552.156" rx="4.22728" ry="2.04766" fill="#F7812C"/>
<ellipse cx="24.4548" cy="642.506" rx="4.22728" ry="2.04766" fill="#F7812C"/>
<ellipse cx="294.758" cy="295.893" rx="4.22728" ry="2.04766" fill="#F7812C"/>
<ellipse cx="267.924" cy="190.643" rx="4.22728" ry="2.04766" fill="#5EB9EC"/>
<ellipse cx="353.727" cy="236.638" rx="4.22728" ry="2.04766" fill="#5EB9EC"/>
<ellipse cx="337.146" cy="348.562" rx="4.22728" ry="2.04766" fill="#5EB9EC"/>
<ellipse cx="255.241" cy="369.213" rx="4.22728" ry="2.04766" fill="#5EB9EC"/>
<ellipse cx="11.6257" cy="507.352" rx="4.22728" ry="2.04766" fill="#5EB9EC"/>
<ellipse cx="92.324" cy="302.035" rx="4.22728" ry="2.04766" fill="#5EB9EC"/>
<ellipse cx="290.531" cy="650.696" rx="4.22728" ry="2.04766" fill="#5EB9EC"/>
<ellipse cx="79.6418" cy="684.847" rx="4.22728" ry="2.04766" fill="#F7382C"/>
<ellipse cx="381.059" cy="688.147" rx="4.22728" ry="2.04766" fill="#5EB9EC"/>
<path fill-rule="evenodd" clip-rule="evenodd" d="M123.433 19.6634C121.132 18.1373 118.029 18.7659 116.503 21.0674L114.338 24.3326L111.558 22.4897C111.989 21.6025 111.708 20.5115 110.863 19.9515L110.706 19.8476C109.786 19.2372 108.545 19.4886 107.934 20.4092L106.487 22.5924C105.876 23.513 106.128 24.7541 107.048 25.3645L107.205 25.4684C108.049 26.0279 109.162 25.8633 109.812 25.123L112.591 26.9661L109.223 32.0464L106.443 30.2034C106.873 29.3164 106.592 28.226 105.747 27.6662L105.591 27.5623C104.67 26.9519 103.429 27.2033 102.819 28.1239L101.371 30.3071C100.761 31.2277 101.012 32.4688 101.933 33.0793L102.089 33.1831C102.933 33.7429 104.047 33.5779 104.697 32.8369L107.476 34.6799L104.107 39.7613L101.328 37.9183C101.757 37.0315 101.475 35.9418 100.631 35.3822L100.475 35.2783C99.5541 34.6679 98.313 34.9193 97.7026 35.8399L96.2549 38.0231C95.6445 38.9437 95.8959 40.1848 96.8165 40.7953L96.9731 40.8991C97.8176 41.4591 98.9319 41.2938 99.5815 40.5519L102.361 42.3948L98.9616 47.5207C97.4356 49.8222 98.0641 52.925 100.366 54.451L100.384 54.4634L63.7767 109.671C42.2798 101.043 19.3318 105.367 8.62738 121.51C3.14629 129.776 1.76903 139.793 3.92015 149.808C-15.6736 148.726 -33.6008 155.916 -43.5043 170.851C-60.129 195.923 -47.8483 233.327 -16.0744 254.396C15.6994 275.465 54.9342 272.22 71.5589 247.148C81.4622 232.213 81.1082 212.902 72.4867 195.274C82.5498 193.358 91.2413 188.191 96.7226 179.925C107.427 163.782 102.479 140.961 86.1654 124.517L122.773 69.3092L122.791 69.3214C125.093 70.8475 128.196 70.2189 129.722 67.9175L133.119 62.7946L135.898 64.6373C135.468 65.5243 135.749 66.6146 136.593 67.1744L136.75 67.2783C137.671 67.8887 138.912 67.6373 139.522 66.7167L140.97 64.5334C141.58 63.6129 141.329 62.3717 140.408 61.7613L140.252 61.6575C139.407 61.0977 138.294 61.2627 137.644 62.0038L134.865 60.1611L138.235 55.0783L141.013 56.9204C140.583 57.8074 140.864 58.898 141.709 59.4579L141.865 59.5617C142.786 60.1721 144.027 59.9207 144.638 59.0001L146.085 56.8169C146.696 55.8963 146.444 54.6552 145.524 54.0448L145.367 53.9409C144.523 53.3812 143.409 53.5461 142.76 54.2869L139.982 52.4448L143.351 47.3629L146.13 49.2052C145.699 50.0923 145.981 51.1831 146.825 51.7431L146.982 51.8469C147.902 52.4574 149.143 52.2059 149.754 51.2854L151.202 49.1021C151.812 48.1815 151.561 46.9404 150.64 46.33L150.483 46.2261C149.639 45.6665 148.526 45.8312 147.876 46.5718L145.098 44.7294L147.263 41.4641C148.789 39.1627 148.16 36.0599 145.859 34.5338L123.433 19.6634Z" fill="#F16B38"/>
<ellipse cx="34.1115" cy="178.712" rx="24.7808" ry="19.5536" transform="rotate(33.548 34.1115 178.712)" fill="black"/>
<rect x="121.869" y="43.2705" width="3.42307" height="203.041" rx="1" transform="rotate(33.548 121.869 43.2705)" fill="white"/>
<rect x="127.019" y="46.6851" width="3.42307" height="203.041" rx="1" transform="rotate(33.548 127.019 46.6851)" fill="white"/>
<rect x="116.719" y="39.856" width="3.42307" height="203.041" rx="1" transform="rotate(33.548 116.719 39.856)" fill="white"/>
<rect x="-6.27295" y="197.747" width="46.2767" height="8.00161" rx="2" transform="rotate(33.548 -6.27295 197.747)" fill="black"/>
<path d="M260.422 584.024C272.462 590.088 297.105 602.39 299.351 603.083L287.169 621.182C278.095 614.436 258.56 599.761 253.019 595.024C247.477 590.286 252.206 590.826 255.263 591.689C249.783 586.645 254.658 587.094 257.78 587.95C252.863 581.42 257.493 582.612 260.422 584.024Z" fill="#EEB00F"/>
<path fill-rule="evenodd" clip-rule="evenodd" d="M374.105 714.22L363.369 715.886L363.369 715.886L349.666 718.013C347.447 714.751 346.48 707.806 360.359 706.119C360.615 706.088 360.867 706.057 361.114 706.027L354.774 678.308L371.07 675.778L374.105 714.22Z" fill="#ECBC40"/>
<path fill-rule="evenodd" clip-rule="evenodd" d="M345.749 715.735L346.879 715.559L343.845 677.118L327.549 679.648L333.889 707.368C333.642 707.398 333.391 707.428 333.134 707.46C319.255 709.146 320.223 716.092 322.441 719.354L345.749 715.735L345.749 715.735Z" fill="#ECBC40"/>
<path d="M326.771 517.865C352.588 489.178 327.714 493.892 312.05 499.834L344.434 679.005L435.946 670.032C435.005 646.328 422.145 658.748 415.832 667.921C420.553 636.503 398.951 650.137 387.56 660.882C407.738 625.678 380.328 636.427 364.1 646.202C404.332 612.674 374.063 616.433 353.899 622.504C385.903 600.281 362.877 598.538 347.364 600.444C384.431 585.461 359.196 582.054 341.944 582.224C380.256 567.248 354.64 561.61 337.042 560.663C374.866 534.527 349.019 534.308 331.368 537.467C365.54 522.531 342.541 518.176 326.771 517.865Z" fill="#EB5D3A"/>
<path d="M292.519 494.931C313.227 491.395 322.92 499.989 325.178 504.728C335.842 546.147 359.318 632.217 367.912 645.149C376.506 658.081 424.979 667.627 448.142 670.783C400.822 681.793 302.748 700.759 289.011 688.541C275.274 676.324 273.742 641.075 274.693 624.978L290.041 548.898C281.777 550.803 262.033 554.228 249.172 552.688C236.312 551.149 236.473 542.204 238.162 537.924C230.876 501.688 266.634 499.351 292.519 494.931Z" fill="#FCC537"/>
<mask id="mask0_717_460" style="mask-type:alpha" maskUnits="userSpaceOnUse" x="237" y="494" width="212" height="199">
<path d="M292.519 494.931C313.227 491.395 322.92 499.989 325.178 504.728C335.842 546.147 359.318 632.217 367.912 645.149C376.506 658.081 424.979 667.627 448.142 670.783C400.822 681.793 302.748 700.759 289.011 688.541C275.274 676.324 273.742 641.075 274.693 624.978L290.041 548.898C281.777 550.803 262.033 554.228 249.172 552.688C236.312 551.149 236.473 542.204 238.162 537.924C230.876 501.688 266.634 499.351 292.519 494.931Z" fill="#FCC537"/>
</mask>
<g mask="url(#mask0_717_460)">
<path d="M330.459 693.248C321.356 620.847 287.169 623.202 271.214 633.429L279.069 701.225L330.459 693.248Z" fill="#FDCF8C"/>
</g>
<ellipse cx="9.05726" cy="11.5269" rx="9.05726" ry="11.5269" transform="matrix(-0.988165 0.153396 0.153396 0.988165 292.411 479.804)" fill="#F5F5F5"/>
<ellipse cx="5.87663" cy="7.479" rx="5.87663" ry="7.479" transform="matrix(-0.988165 0.153396 0.153396 0.988165 290.51 488.292)" fill="black"/>
<ellipse cx="9.05726" cy="11.5269" rx="9.05726" ry="11.5269" transform="matrix(-0.988165 0.153396 0.153396 0.988165 271.533 479.573)" fill="#F5F5F5"/>
<ellipse cx="5.87663" cy="7.479" rx="5.87663" ry="7.479" transform="matrix(-0.988165 0.153396 0.153396 0.988165 269.631 488.06)" fill="black"/>
<path d="M252.129 538.29C243.01 510.917 238.459 536.718 237.881 538.082C263.779 540.074 277.193 536.098 280.663 533.861C288.713 539.363 302.724 545.901 294.37 528.039C302.248 531.869 315.175 535.382 303.86 518.795C301.773 522.304 294.21 530.229 280.663 533.861C269.107 518.432 265.767 529.761 265.542 537.355C258.896 521.673 253.831 531.445 252.129 538.29Z" fill="white"/>
<path d="M237.926 538.08C255.488 540.134 293.732 538.458 306.213 515.329" stroke="black" stroke-width="3"/>
<ellipse cx="6.11447" cy="4.75" rx="6.11447" ry="4.75" transform="matrix(-0.988165 0.153396 0.153396 0.988165 381.703 664.553)" fill="#EB5D3A"/>
<ellipse cx="4.25384" cy="3.30457" rx="4.25384" ry="3.30457" transform="matrix(-0.988165 0.153396 0.153396 0.988165 367.919 655.476)" fill="#EB5D3A"/>
<ellipse cx="4.25384" cy="3.30457" rx="4.25384" ry="3.30457" transform="matrix(-0.988165 0.153396 0.153396 0.988165 365.416 667.082)" fill="#EB5D3A"/>
<rect width="1.77561" height="8.64209" transform="matrix(-0.999647 -0.0265716 -0.0385053 0.999258 282.64 637.907)" fill="#FCC537"/>
<rect width="1.77674" height="8.63626" transform="matrix(-0.963672 0.26709 0.274601 0.961558 293.463 652.447)" fill="#FCC537"/>
<rect width="1.77688" height="8.63553" transform="matrix(-0.966436 0.256907 0.26377 0.964586 291.748 634.097)" fill="#FCC537"/>
<rect width="1.77674" height="8.63626" transform="matrix(-0.963672 0.26709 0.274601 0.961558 300.5 643.718)" fill="#FCC537"/>
<rect width="1.77751" height="8.63224" transform="matrix(-0.99159 0.129423 0.127797 0.9918 287.137 660.357)" fill="#FCC537"/>
<rect width="1.77649" height="8.63754" transform="matrix(-0.959068 0.283175 0.291698 0.956511 289.857 676.124)" fill="#FCC537"/>
<rect width="1.77742" height="8.63274" transform="matrix(-0.9799 0.199488 0.20259 0.979264 311.923 652.061)" fill="#FCC537"/>
<rect width="1.77742" height="8.63274" transform="matrix(-0.9799 0.199488 0.20259 0.979264 308.174 666.644)" fill="#FCC537"/>
<rect width="1.77685" height="8.63567" transform="matrix(-0.998936 0.046128 0.0388914 0.999243 297.875 667.423)" fill="#FCC537"/>
<rect width="1.77586" height="8.64081" transform="matrix(-0.948438 0.316964 0.327545 0.944836 318.89 677.583)" fill="#FCC537"/>
<rect width="1.77586" height="8.64081" transform="matrix(-0.948438 0.316964 0.327545 0.944836 319.478 665.095)" fill="#FCC537"/>
<rect width="1.77709" height="8.63443" transform="matrix(-0.997781 0.0665835 0.0607109 0.998155 306.958 681.458)" fill="#FCC537"/>
<path d="M311.555 633.168C316.362 620.765 326.087 595.397 326.535 593.143L346.476 602.395C340.628 612.038 327.879 632.817 323.675 638.79C319.47 644.763 319.473 640.142 320 637.085C315.475 643.041 315.368 638.293 315.88 635.174C309.769 640.79 310.451 636.176 311.555 633.168Z" fill="#EEB00F"/>
<path d="M421.734 225.783L142.836 153.903L178.353 37.2422L434.187 103.178L421.734 225.783Z" fill="white"/>
<path d="M429.442 149.945L164.798 81.7389L178.351 37.2426L434.185 103.178L429.442 149.945Z" fill="#2E2F35"/>
<path d="M432.07 124.002L172.319 57.0571L178.353 37.2422L434.187 103.178L432.07 124.002Z" fill="#646672"/>
<ellipse cx="401.968" cy="129.057" rx="10.8566" ry="8.14242" transform="rotate(-165.548 401.968 129.057)" fill="#F9ED32"/>
<ellipse cx="188.234" cy="73.9714" rx="8.70572" ry="6.52929" transform="rotate(-165.548 188.234 73.9714)" fill="#F16B38"/>
<ellipse cx="211.642" cy="80.0036" rx="8.70572" ry="6.52929" transform="rotate(-165.548 211.642 80.0036)" fill="#F16B38"/>
<ellipse cx="373.999" cy="121.849" rx="6.55489" ry="4.91617" transform="rotate(-165.548 373.999 121.849)" fill="#F16B38"/>
<path fill-rule="evenodd" clip-rule="evenodd" d="M172.161 161.498L174.548 162.113L183.843 130.6L189.107 132.169L201.212 91.1224L195.946 89.5701L196.209 88.6783L193.837 87.979L193.574 88.8709L188.523 87.3822L176.46 128.399L181.479 129.895L172.161 161.498ZM235.941 177.926L238.335 178.543L257.446 104.393L255.051 103.776L235.941 177.926ZM298.063 193.914L300.559 194.558L306.261 161.571L311.407 162.482L318.744 120.321L313.549 119.417L313.769 118.145L311.332 117.722L311.11 118.994L305.71 118.055L298.412 160.181L303.772 161.13L298.063 193.914ZM360.867 210.1L363.31 210.73L368.6 175.124L372.836 175.767L379.141 133.439L366.055 131.493L359.789 173.785L366.136 174.749L360.867 210.1ZM392.921 218.339L395.338 218.979L404.148 142.477L401.691 142.194L392.921 218.339ZM332.285 202.732L329.851 202.105L341.68 125.793L344.123 126.172L332.285 202.732ZM270.027 186.686L267.637 186.07L275.05 153.306L269.391 152.007L278.804 110.302L284.489 111.589L284.538 111.375L286.95 111.921L286.901 112.135L291.707 113.222L282.254 154.96L277.457 153.859L270.027 186.686ZM206.751 170.376L204.301 169.744L225.569 95.6618L227.946 96.3425L206.751 170.376Z" fill="#2E2F35"/>
<rect x="319.513" y="114.518" width="20.252" height="4.8822" transform="rotate(-165.548 319.513 114.518)" fill="#646672"/>
<rect x="321.409" y="107.164" width="20.252" height="4.8822" transform="rotate(-165.548 321.409 107.164)" fill="#646672"/>
<rect x="294.298" y="108.021" width="20.252" height="4.8822" transform="rotate(-165.548 294.298 108.021)" fill="#646672"/>
<rect x="296.194" y="100.664" width="20.252" height="4.8822" transform="rotate(-165.548 296.194 100.664)" fill="#646672"/>
<rect x="269.084" y="101.521" width="20.252" height="4.8822" transform="rotate(-165.548 269.084 101.521)" fill="#646672"/>
<rect x="270.98" y="94.1665" width="20.252" height="4.8822" transform="rotate(-165.548 270.98 94.1665)" fill="#646672"/>
<path fill-rule="evenodd" clip-rule="evenodd" d="M51.5511 569.101L55.519 569.751L43.5844 642.618L60.1028 661.823L57.0544 664.445L42.736 647.797L40.4214 661.929L36.4534 661.279L38.7497 647.26L19.8342 658.49L17.7816 655.033L39.5981 642.08L51.5511 569.101Z" fill="black"/>
<path d="M56.561 550.851L90.8723 580.517L14.5785 568.021L56.561 550.851Z" fill="#F9ED32"/>
<path fill-rule="evenodd" clip-rule="evenodd" d="M224.682 651.898L228.65 652.548L221.64 695.346L238.159 714.552L235.111 717.174L220.792 700.525L218.477 714.658L214.509 714.008L216.805 699.988L197.891 711.218L195.838 707.761L217.654 694.808L224.682 651.898Z" fill="black"/>
<rect x="194.872" y="619.224" width="70.9257" height="39.8112" rx="5" transform="rotate(9.30173 194.872 619.224)" fill="#F16B38"/>
<mask id="mask1_717_460" style="mask-type:alpha" maskUnits="userSpaceOnUse" x="189" y="620" width="76" height="50">
<rect x="194.763" y="619.886" width="70.9257" height="39.8112" rx="5" transform="rotate(9.30173 194.763 619.886)" fill="#E24536"/>
</mask>
<g mask="url(#mask1_717_460)">
<path d="M190.1 643.866L204.048 637.005L214.689 647.894L228.443 641L237.717 651.665L251.666 644.804L261.526 655.565" stroke="white"/>
</g>
<path fill-rule="evenodd" clip-rule="evenodd" d="M4.59151 614.647L8.55945 615.297L1.54951 658.096L18.068 677.301L15.0196 679.923L0.701133 663.275L-1.61338 677.407L-5.58132 676.757L-3.28514 662.738L-22.1999 673.968L-24.2526 670.51L-2.43676 657.558L4.59151 614.647Z" fill="black"/>
<rect x="-25.2197" y="581.974" width="70.9257" height="39.8112" rx="5" transform="rotate(9.30173 -25.2197 581.974)" fill="#F16B38"/>
<mask id="mask2_717_460" style="mask-type:alpha" maskUnits="userSpaceOnUse" x="-32" y="583" width="76" height="50">
<rect x="-25.3276" y="582.635" width="70.9257" height="39.8112" rx="5" transform="rotate(9.30173 -25.3276 582.635)" fill="#E24536"/>
</mask>
<g mask="url(#mask2_717_460)">
<path d="M-29.9916 606.615L-16.0429 599.753L-5.40217 610.642L8.35143 603.749L17.626 614.414L31.5748 607.552L41.4348 618.313" stroke="white"/>
</g>
<circle cx="114.199" cy="640.793" r="60.901" transform="rotate(9.30173 114.199 640.793)" fill="#F16B38"/>
<circle cx="114.198" cy="640.793" r="48.9745" transform="rotate(9.30173 114.198 640.793)" fill="white"/>
<path d="M119.304 606.516L122.467 631.187L145.169 634.906L124.421 646.435L127.584 671.106L111.599 653.56L90.8513 665.089L101.719 642.716L85.7339 625.171L108.436 628.889L119.304 606.516Z" fill="#F9ED32"/>
</g>
<defs>
<clipPath id="clip0_717_460">
<rect width="390" height="844" fill="white"/>
</clipPath>
</defs>
</svg>
