<svg width="1024" height="769" viewBox="0 0 1024 769" fill="none" xmlns="http://www.w3.org/2000/svg">
<g clip-path="url(#clip0_717_460)">
<rect width="1024" height="768" transform="translate(0 0.5)" fill="#69235C"/>
<path d="M20.6706 1307.67L318.8 -67.5182L382.28 -68.0179L173.022 1306.48L20.6706 1307.67Z" fill="#5A4482" fill-opacity="0.6"/>
<path d="M971.204 838.057L-34.4361 65.8426L-92.0612 108.494L832.903 940.421L971.204 838.057Z" fill="#A576FB" fill-opacity="0.6"/>
<path d="M218.751 1027.38L767.902 -55.8137L843.182 -75.1978L452.516 967.189L218.751 1027.38Z" fill="#D159B6" fill-opacity="0.31"/>
<path fill-rule="evenodd" clip-rule="evenodd" d="M296.155 34.8362C294.141 32.9461 290.977 33.046 289.087 35.0592L284.602 39.8369L281.469 36.8958L281.635 36.7188C282.391 35.9135 282.351 34.6478 281.546 33.8917L280.507 32.9161C279.701 32.1601 278.436 32.2 277.68 33.0053L274.548 36.3412C273.792 37.1464 273.832 38.4121 274.637 39.1682L275.676 40.1438C276.481 40.8999 277.747 40.8599 278.503 40.0546L278.667 39.8802L281.8 42.8213L276.395 48.5785L273.262 45.6373L273.427 45.4616C274.183 44.6563 274.143 43.3906 273.338 42.6346L272.298 41.6589C271.493 40.9029 270.227 40.9428 269.471 41.7481L266.34 45.084C265.584 45.8893 265.623 47.155 266.429 47.911L267.468 48.8867C268.273 49.6427 269.539 49.6028 270.295 48.7975L270.46 48.6217L273.593 51.563L268.186 57.3216L265.054 54.3808L265.218 54.2056C265.974 53.4003 265.934 52.1346 265.129 51.3786L264.09 50.403C263.285 49.6469 262.019 49.6869 261.263 50.4921L258.131 53.828C257.375 54.6333 257.415 55.899 258.22 56.655L259.26 57.6307C260.065 58.3867 261.331 58.3468 262.087 57.5415L262.252 57.3652L265.385 60.3061L258.92 67.1919C257.03 69.2051 257.13 72.3694 259.143 74.2595L260.241 75.2907L201.504 137.855C175.922 122.169 145.674 122.71 128.499 141.005C119.704 150.372 115.771 162.867 116.345 176.125C91.555 170.491 67.0983 175.782 51.208 192.708C24.5336 221.12 32.0998 271.558 68.1077 305.363C104.116 339.168 154.93 343.54 181.604 315.127C197.494 298.202 201.233 273.461 194.048 249.076C207.316 248.813 219.539 244.1 228.333 234.732C245.508 216.438 244.143 186.218 226.876 161.675L285.613 99.1108L286.711 100.142C288.725 102.032 291.889 101.932 293.779 99.9186L300.24 93.0363L303.372 95.9766L303.207 96.1529C302.451 96.9582 302.491 98.2239 303.296 98.9799L304.335 99.9556C305.14 100.712 306.406 100.672 307.162 99.8664L310.294 96.5305C311.05 95.7252 311.01 94.4595 310.205 93.7035L309.166 92.7278C308.36 91.9718 307.095 92.0117 306.339 92.817L306.174 92.9922L303.042 90.0518L308.45 84.2919L311.58 87.231L311.415 87.4072C310.659 88.2125 310.699 89.4782 311.504 90.2342L312.543 91.2099C313.349 91.9659 314.614 91.9259 315.37 91.1207L318.502 87.7848C319.258 86.9795 319.218 85.7138 318.413 84.9578L317.374 83.9821C316.569 83.2261 315.303 83.266 314.547 84.0713L314.382 84.2466L311.252 81.3074L316.659 75.5483L319.79 78.4877L319.624 78.6644C318.868 79.4697 318.908 80.7354 319.713 81.4914L320.752 82.4671C321.557 83.2231 322.823 83.1832 323.579 82.3779L326.711 79.042C327.467 78.2367 327.427 76.971 326.622 76.215L325.583 75.2393C324.777 74.4833 323.512 74.5232 322.756 75.3285L322.591 75.5033L319.46 72.5638L323.946 67.7859C325.836 65.7727 325.736 62.6084 323.723 60.7184L296.155 34.8362Z" fill="#F16B38"/>
<ellipse cx="148.631" cy="219.594" rx="32.1032" ry="25.3314" transform="rotate(43.1929 148.631 219.594)" fill="black"/>
<rect x="290.11" y="65.6587" width="4.43455" height="263.038" rx="1" transform="rotate(43.1929 290.11 65.6587)" fill="white"/>
<rect x="295.946" y="71.1372" width="4.43455" height="263.038" rx="1" transform="rotate(43.1929 295.946 71.1372)" fill="white"/>
<rect x="284.275" y="60.1797" width="4.43455" height="263.038" rx="1" transform="rotate(43.1929 284.275 60.1797)" fill="white"/>
<rect x="92.9214" y="235.14" width="59.951" height="10.366" rx="2" transform="rotate(43.1929 92.9214 235.14)" fill="black"/>
<ellipse cx="922.84" cy="304.823" rx="6.40526" ry="3.18973" fill="#5EB9EC"/>
<ellipse cx="839.837" cy="400.554" rx="6.40526" ry="3.18973" fill="#5EB9EC"/>
<ellipse cx="942.904" cy="625.207" rx="6.40526" ry="3.18973" fill="#5EB9EC"/>
<ellipse cx="967.386" cy="495.768" rx="6.40526" ry="3.18973" fill="#F7382C"/>
<ellipse cx="811.375" cy="600.167" rx="6.40526" ry="3.18973" fill="#F7382C"/>
<ellipse cx="742.261" cy="259.806" rx="6.40526" ry="3.18973" fill="#F7382C"/>
<ellipse cx="967.386" cy="141.698" rx="6.40526" ry="3.18973" fill="#F7382C"/>
<ellipse cx="287.721" cy="194.764" rx="6.40526" ry="3.18973" fill="#F7382C"/>
<ellipse cx="324.029" cy="400.554" rx="6.40526" ry="3.18973" fill="#F7382C"/>
<ellipse cx="149.734" cy="233.546" rx="6.40526" ry="3.18973" fill="#F7382C"/>
<ellipse cx="9.31493" cy="386.572" rx="6.40526" ry="3.18973" fill="#F7382C"/>
<ellipse cx="167.509" cy="625.207" rx="6.40526" ry="3.18973" fill="#F7382C"/>
<ellipse cx="15.7207" cy="655.539" rx="6.40526" ry="3.18973" fill="#F9ED32"/>
<ellipse cx="191.79" cy="522.853" rx="6.40526" ry="3.18973" fill="#F9ED32"/>
<ellipse cx="58.5058" cy="233.546" rx="6.40526" ry="3.18973" fill="#F9ED32"/>
<ellipse cx="414.275" cy="439.689" rx="6.40526" ry="3.18973" fill="#F9ED32"/>
<ellipse cx="359.26" cy="286.178" rx="6.40526" ry="3.18973" fill="#F9ED32"/>
<ellipse cx="497.779" cy="118.508" rx="6.40526" ry="3.18973" fill="#F9ED32"/>
<ellipse cx="614.634" cy="264.972" rx="6.40526" ry="3.18973" fill="#F9ED32"/>
<ellipse cx="1000.48" cy="405.216" rx="6.40526" ry="3.18973" fill="#F9ED32"/>
<ellipse cx="721.593" cy="532.175" rx="6.40526" ry="3.18973" fill="#F9ED32"/>
<ellipse cx="967.386" cy="228.186" rx="6.40526" ry="3.18973" fill="#F7812C"/>
<ellipse cx="278.361" cy="462.642" rx="6.40526" ry="3.18973" fill="#F7812C"/>
<ellipse cx="71.3164" cy="148.707" rx="6.40526" ry="3.18973" fill="#F7812C"/>
<ellipse cx="845.763" cy="673.607" rx="6.40526" ry="3.18973" fill="#F7812C"/>
<ellipse cx="401.353" cy="541.497" rx="6.40526" ry="3.18973" fill="#F7812C"/>
<ellipse cx="503.342" cy="295.501" rx="6.40526" ry="3.18973" fill="#5EB9EC"/>
<ellipse cx="633.354" cy="367.148" rx="6.40526" ry="3.18973" fill="#5EB9EC"/>
<ellipse cx="314.012" cy="527.514" rx="6.40526" ry="3.18973" fill="#5EB9EC"/>
<ellipse cx="175.164" cy="391.233" rx="6.40526" ry="3.18973" fill="#5EB9EC"/>
<ellipse cx="106.383" cy="330.523" rx="6.40526" ry="3.18973" fill="#5EB9EC"/>
<ellipse cx="49.146" cy="566.49" rx="6.40526" ry="3.18973" fill="#5EB9EC"/>
<ellipse cx="240.741" cy="634.529" rx="6.40526" ry="3.18973" fill="#5EB9EC"/>
<path d="M736.97 490.388C756.461 498.27 796.338 514.23 799.917 515.019L783.304 544.71C768.335 535.39 736.094 515.085 726.874 508.432C717.654 501.779 725.073 502.013 729.935 502.961C720.771 495.824 728.405 495.898 733.367 496.827C724.889 487.309 732.237 488.568 736.97 490.388Z" fill="#EEB00F"/>
<path fill-rule="evenodd" clip-rule="evenodd" d="M930.345 678.17L913.874 682.136L913.873 682.135L892.849 687.198C888.982 682.412 886.589 671.741 907.943 667.341C908.338 667.26 908.725 667.18 909.105 667.101L895.698 624.833L920.702 618.812L930.345 678.17Z" fill="#ECBC40"/>
<path fill-rule="evenodd" clip-rule="evenodd" d="M886.47 684.159L888.204 683.741L878.561 624.384L853.557 630.404L866.964 672.674C866.584 672.752 866.197 672.832 865.802 672.914C844.448 677.314 846.841 687.985 850.708 692.77L886.47 684.159L886.47 684.159Z" fill="#ECBC40"/>
<path d="M831.611 379.057C868.06 331.162 830.005 341.676 806.421 352.92L879.717 627.24L1020.8 601.565C1016.3 564.845 997.901 585.797 989.266 600.863C992.576 551.426 960.749 575.386 944.422 593.546C971.271 536.245 930.047 556.464 906.079 573.737C964.311 516.47 917.747 526.193 887.186 538.213C934.079 499.57 898.069 499.813 874.203 504.764C929.892 476.725 890.234 474.666 863.444 477.141C921.069 448.954 880.533 443.475 853.061 444.259C908.497 398.789 868.298 401.762 841.269 408.933C892.465 381.34 856.162 377.519 831.611 379.057Z" fill="#EB5D3A"/>
<path d="M775.437 347.804C807.169 339.654 823.336 351.768 827.452 358.844C849.335 421.851 896.853 552.614 911.868 571.612C926.882 590.61 1003.44 599.233 1039.85 601.169C967.714 624.347 817.716 666.395 794.8 649.166C771.883 631.938 764.984 577.35 764.399 552.209L778.503 431.997C765.902 436.017 735.654 443.871 715.469 443.127C695.284 442.382 694.388 428.459 696.464 421.591C680.496 366.206 735.772 357.991 775.437 347.804Z" fill="#FCC537"/>
<mask id="mask0_717_460" style="mask-type:alpha" maskUnits="userSpaceOnUse" x="693" y="345" width="347" height="309">
<path d="M775.437 347.804C807.169 339.654 823.336 351.768 827.452 358.844C849.335 421.851 896.853 552.614 911.868 571.612C926.882 590.61 1003.44 599.233 1039.85 601.169C967.714 624.347 817.716 666.395 794.8 649.166C771.883 631.938 764.984 577.35 764.399 552.209L778.503 431.997C765.902 436.017 735.654 443.871 715.469 443.127C695.284 442.382 694.388 428.459 696.464 421.591C680.496 366.206 735.772 357.991 775.437 347.804Z" fill="#FCC537"/>
</mask>
<g mask="url(#mask0_717_460)">
<path d="M859.822 651.169C836.394 539.809 783.563 547.85 760.076 565.79L780.974 670.155L859.822 651.169Z" fill="#FDCF8C"/>
</g>
<ellipse cx="14.1248" cy="17.9762" rx="14.1248" ry="17.9762" transform="matrix(-0.972215 0.234092 0.234092 0.972215 773.331 324.306)" fill="#F5F5F5"/>
<ellipse cx="9.16459" cy="11.6635" rx="9.16459" ry="11.6635" transform="matrix(-0.972215 0.234092 0.234092 0.972215 771.463 337.741)" fill="black"/>
<ellipse cx="14.1248" cy="17.9762" rx="14.1248" ry="17.9762" transform="matrix(-0.972215 0.234092 0.234092 0.972215 740.851 326.623)" fill="#F5F5F5"/>
<ellipse cx="9.16459" cy="11.6635" rx="9.16459" ry="11.6635" transform="matrix(-0.972215 0.234092 0.234092 0.972215 738.984 340.058)" fill="black"/>
<path d="M718.22 420.37C700.538 378.994 696.772 419.678 696.048 421.872C736.554 421.649 756.894 413.75 762 409.828C775.217 417.347 797.831 425.713 782.558 399.023C795.293 403.966 815.835 407.769 796.123 383.44C793.327 389.161 782.589 402.448 762 409.828C742.062 387.33 738.323 405.366 738.946 417.196C726.606 393.676 719.987 409.512 718.22 420.37Z" fill="white"/>
<path d="M696.118 421.864C723.676 422.804 782.901 415.298 799.335 377.751" stroke="black" stroke-width="3"/>
<ellipse cx="9.53551" cy="7.40761" rx="9.53551" ry="7.40761" transform="matrix(-0.972215 0.234092 0.234092 0.972215 935.79 600.002)" fill="#EB5D3A"/>
<ellipse cx="6.63386" cy="5.15348" rx="6.63386" ry="5.15348" transform="matrix(-0.972215 0.234092 0.234092 0.972215 913.203 587.662)" fill="#EB5D3A"/>
<ellipse cx="6.63386" cy="5.15348" rx="6.63386" ry="5.15348" transform="matrix(-0.972215 0.234092 0.234092 0.972215 910.8 606.02)" fill="#EB5D3A"/>
<rect width="2.76906" height="13.4773" transform="matrix(-0.998449 0.0556771 0.0437519 0.999042 778.408 571.285)" fill="#FCC537"/>
<rect width="2.77082" height="13.4682" transform="matrix(-0.93846 0.345388 0.352701 0.935736 797.094 592.498)" fill="#FCC537"/>
<rect width="2.77103" height="13.4671" transform="matrix(-0.942052 0.335468 0.342155 0.939643 792.075 564.196)" fill="#FCC537"/>
<rect width="2.77082" height="13.4682" transform="matrix(-0.93846 0.345388 0.352701 0.935736 806.912 578.028)" fill="#FCC537"/>
<rect width="2.77203" height="13.462" transform="matrix(-0.977598 0.210482 0.208879 0.977942 788.275 605.603)" fill="#FCC537"/>
<rect width="2.77043" height="13.4702" transform="matrix(-0.93255 0.361041 0.369325 0.9293 794.524 629.758)" fill="#FCC537"/>
<rect width="2.77188" height="13.4627" transform="matrix(-0.96019 0.279349 0.282388 0.9593 825.735 589.53)" fill="#FCC537"/>
<rect width="2.77188" height="13.4627" transform="matrix(-0.96019 0.279349 0.282388 0.9593 821.776 612.676)" fill="#FCC537"/>
<rect width="2.77099" height="13.4673" transform="matrix(-0.991765 0.128072 0.120886 0.992666 805.869 615.208)" fill="#FCC537"/>
<rect width="2.76944" height="13.4753" transform="matrix(-0.919178 0.393842 0.404091 0.914719 839.833 628.306)" fill="#FCC537"/>
<rect width="2.76944" height="13.4753" transform="matrix(-0.919178 0.393842 0.404091 0.914719 839.147 608.821)" fill="#FCC537"/>
<rect width="2.77137" height="13.4654" transform="matrix(-0.988933 0.148364 0.142542 0.989789 821.786 635.856)" fill="#FCC537"/>
<path d="M822.742 560.214C828.623 540.321 840.486 499.646 840.893 496.086L873.072 507.91C865.218 523.647 848.067 557.577 842.298 567.399C836.529 577.221 835.941 570.039 836.369 565.22C830.099 575.057 829.324 567.691 829.721 562.778C820.942 572.289 821.41 565.031 822.742 560.214Z" fill="#EEB00F"/>
<path d="M966.028 260.416L591.286 163.834L639.009 7.08227L982.761 95.6771L966.028 260.416Z" fill="white"/>
<path d="M976.385 158.516L620.795 66.8704L639.006 7.08283L982.758 95.6776L976.385 158.516Z" fill="#2E2F35"/>
<path d="M979.917 123.658L630.901 33.7064L639.009 7.08212L982.761 95.6769L979.917 123.658Z" fill="#646672"/>
<ellipse cx="939.469" cy="130.449" rx="14.5875" ry="10.9406" transform="rotate(-165.548 939.469 130.449)" fill="#F9ED32"/>
<ellipse cx="652.286" cy="56.4333" rx="11.6975" ry="8.77311" transform="rotate(-165.548 652.286 56.4333)" fill="#F16B38"/>
<ellipse cx="683.737" cy="64.5383" rx="11.6975" ry="8.77311" transform="rotate(-165.548 683.737 64.5383)" fill="#F16B38"/>
<ellipse cx="901.888" cy="120.764" rx="8.8075" ry="6.60562" transform="rotate(-165.548 901.888 120.764)" fill="#F16B38"/>
<path fill-rule="evenodd" clip-rule="evenodd" d="M630.69 174.039L633.896 174.866L646.386 132.523L653.458 134.631L669.724 79.4785L662.648 77.3927L663.001 76.1944L659.814 75.2548L659.46 76.4533L652.674 74.453L636.466 129.566L643.209 131.576L630.69 174.039ZM716.387 196.112L719.604 196.941L745.283 97.3093L742.065 96.4797L716.387 196.112ZM799.858 217.595L803.211 218.459L810.873 174.136L817.787 175.36L827.646 118.71L820.665 117.497L820.96 115.788L817.687 115.218L817.389 116.927L810.133 115.666L800.327 172.269L807.529 173.544L799.858 217.595ZM884.245 239.343L887.527 240.189L894.635 192.346L900.327 193.211L908.798 136.337L891.216 133.721L882.796 190.548L891.325 191.843L884.245 239.343ZM927.314 250.413L930.562 251.274L942.399 148.482L939.098 148.101L927.314 250.413ZM845.84 229.443L842.57 228.6L858.463 126.064L861.747 126.574L845.84 229.443ZM762.187 207.882L758.976 207.055L768.937 163.032L761.333 161.286L773.98 105.249L781.619 106.978L781.684 106.691L784.925 107.425L784.86 107.712L791.317 109.173L778.615 165.254L772.171 163.774L762.187 207.882ZM677.167 185.967L673.875 185.119L702.451 85.5772L705.646 86.4918L677.167 185.967Z" fill="#2E2F35"/>
<rect x="828.678" y="110.914" width="27.2117" height="6.55999" transform="rotate(-165.548 828.678 110.914)" fill="#646672"/>
<rect x="831.226" y="101.032" width="27.2117" height="6.55999" transform="rotate(-165.548 831.226 101.032)" fill="#646672"/>
<rect x="794.799" y="102.184" width="27.2117" height="6.55999" transform="rotate(-165.548 794.799 102.184)" fill="#646672"/>
<rect x="797.347" y="92.2988" width="27.2117" height="6.55999" transform="rotate(-165.548 797.347 92.2988)" fill="#646672"/>
<rect x="760.92" y="93.4502" width="27.2117" height="6.55999" transform="rotate(-165.548 760.92 93.4502)" fill="#646672"/>
<rect x="763.467" y="83.5684" width="27.2117" height="6.55999" transform="rotate(-165.548 763.467 83.5684)" fill="#646672"/>
<path fill-rule="evenodd" clip-rule="evenodd" d="M171.952 465.77L178.14 466.783L159.528 580.419L185.288 610.37L180.534 614.459L158.205 588.497L154.595 610.536L148.407 609.522L151.988 587.658L122.489 605.172L119.288 599.78L153.311 579.58L171.952 465.77Z" fill="black"/>
<path d="M179.764 437.309L233.273 483.573L114.293 464.085L179.764 437.309Z" fill="#F9ED32"/>
<path fill-rule="evenodd" clip-rule="evenodd" d="M441.949 594.891L448.137 595.905L437.205 662.648L462.966 692.6L458.212 696.689L435.882 670.726L432.273 692.765L426.085 691.752L429.666 669.887L400.168 687.401L396.966 682.009L430.989 661.809L441.949 594.891Z" fill="black"/>
<rect x="395.46" y="543.937" width="110.608" height="62.0855" rx="5" transform="rotate(9.30173 395.46 543.937)" fill="#F16B38"/>
<mask id="mask1_717_460" style="mask-type:alpha" maskUnits="userSpaceOnUse" x="385" y="545" width="119" height="79">
<rect x="395.291" y="544.969" width="110.608" height="62.0855" rx="5" transform="rotate(9.30173 395.291 544.969)" fill="#E24536"/>
</mask>
<g mask="url(#mask1_717_460)">
<path d="M388.018 582.366L409.771 571.665L426.365 588.647L447.814 577.896L462.277 594.529L484.03 583.828L499.407 600.61" stroke="white"/>
</g>
<path fill-rule="evenodd" clip-rule="evenodd" d="M98.7179 536.798L104.906 537.812L93.974 604.556L119.735 634.508L114.981 638.597L92.651 612.634L89.0413 634.672L82.8533 633.659L86.4342 611.796L56.937 629.309L53.7358 623.917L87.7573 603.718L98.7179 536.798Z" fill="black"/>
<rect x="52.2275" y="485.845" width="110.608" height="62.0855" rx="5" transform="rotate(9.30173 52.2275 485.845)" fill="#F16B38"/>
<mask id="mask2_717_460" style="mask-type:alpha" maskUnits="userSpaceOnUse" x="42" y="487" width="119" height="79">
<rect x="52.0591" y="486.875" width="110.608" height="62.0855" rx="5" transform="rotate(9.30173 52.0591 486.875)" fill="#E24536"/>
</mask>
<g mask="url(#mask2_717_460)">
<path d="M44.7859 524.273L66.5389 513.572L83.1331 530.553L104.582 519.803L119.046 536.435L140.799 525.735L156.175 542.517" stroke="white"/>
</g>
<circle cx="269.65" cy="577.574" r="94.975" transform="rotate(9.30173 269.65 577.574)" fill="#F16B38"/>
<circle cx="269.649" cy="577.574" r="76.3757" transform="rotate(9.30173 269.649 577.574)" fill="white"/>
<path d="M277.612 524.119L282.544 562.593L317.948 568.392L285.592 586.372L290.525 624.846L265.596 597.484L233.24 615.464L250.188 580.573L225.259 553.211L260.663 559.01L277.612 524.119Z" fill="#F9ED32"/>
</g>
<defs>
<clipPath id="clip0_717_460">
<rect width="1024" height="768" fill="white" transform="translate(0 0.5)"/>
</clipPath>
</defs>
</svg>
