<svg width="1440" height="241" viewBox="0 0 1440 241" fill="none" xmlns="http://www.w3.org/2000/svg">
<g clip-path="url(#clip0_503_18107)">
<path d="M326.238 58.7357C315.992 6.71457 262.854 27.8646 237.566 44.9422C201.454 -9.73968 162.747 22.1581 147.908 44.9422C106.922 59.1297 133.458 72.5292 151.849 77.4555C132.932 133.418 175.495 121.792 199.141 108.984C223.575 149.182 277.633 119.821 301.607 100.116C316.057 111.282 349.49 126.915 367.619 100.116C385.747 73.3175 347.585 61.3631 326.238 58.7357Z" fill="#B9F7FF"/>
<path d="M1137.72 44.8096C1143.82 6.78541 1175.46 22.2447 1190.52 34.7274C1212.02 -5.24162 1235.07 18.0737 1243.9 34.7274C1268.31 45.0976 1252.51 54.8918 1241.56 58.4926C1252.82 99.3975 1227.48 90.8996 1213.4 81.5376C1198.85 110.92 1166.66 89.4593 1152.39 75.0562C1143.79 83.218 1123.88 94.6445 1113.08 75.0562C1102.29 55.468 1125.01 46.7301 1137.72 44.8096Z" fill="white"/>
<path d="M282.882 102.38L282.817 102.489C279.41 105.214 266.603 110.937 264.423 125.652C262.243 140.366 288.494 134.508 301.891 129.739C321.511 151.539 336.862 131.102 342.085 118.158C356.164 123.154 384.458 127.968 385.003 107.258C385.548 86.5483 363.43 88.6374 352.303 92.2707C347.943 71.5608 327.779 83.6416 318.241 92.2707C297.084 78.708 287.671 94.397 282.882 102.38Z" fill="white"/>
<path d="M1168.61 52.8669C1170.25 31.612 1211.08 33.565 1231.29 37.1983C1231.29 18.1234 1249.45 7.45071 1258.53 4.49874C1283.06 -8.58109 1303.27 9.94867 1310.31 20.8485C1341.92 14.3086 1347.1 39.4691 1345.73 52.8669C1365.35 46.3269 1387.97 55.5919 1396.83 61.0419C1397.37 70.8518 1369.35 71.4876 1355.27 70.5793C1353.64 92.924 1331.88 102.598 1321.21 104.641C1301.59 106.821 1279.43 89.6541 1270.8 80.7979C1245.73 88.9728 1229.47 74.6667 1224.47 66.4918C1205.17 70.8063 1166.98 74.1217 1168.61 52.8669Z" fill="#B9F7FF"/>
<path d="M951.26 118.599C933.798 121.357 929.815 143.874 930.007 154.787C923.574 152.03 897.84 164.744 885.777 171.445C857.631 178.913 870.842 216.249 870.842 219.122C878.195 224.636 915.647 216.824 933.453 212.229C943.103 236.124 968.11 230.61 979.406 224.866C1018.93 238.652 1041.83 222.185 1048.34 212.229C1090.15 227.853 1106.73 202.655 1109.8 188.103C1147.94 181.21 1135.26 158.425 1124.16 147.894C1107.16 124.458 1071.89 123.961 1056.38 126.641C1052.7 112.855 1036.85 109.792 1029.38 109.983C1010.54 107.226 999.319 119.94 996.064 126.641C992.618 119.174 973.088 115.153 951.26 118.599Z" fill="#B9F7FF"/>
<path d="M976.761 207.011C977.896 220.717 1006.25 219.458 1020.28 217.115C1020.28 229.415 1032.9 236.297 1039.21 238.201C1056.24 246.635 1070.27 234.686 1075.16 227.658C1097.11 231.875 1100.71 215.651 1099.76 207.011C1113.38 211.229 1129.09 205.254 1135.24 201.74C1135.62 195.414 1116.16 195.004 1106.38 195.59C1105.25 181.181 1090.14 174.944 1082.73 173.626C1069.1 172.22 1053.71 183.29 1047.72 189.001C1030.31 183.729 1019.02 192.954 1015.55 198.226C1002.15 195.444 975.626 193.306 976.761 207.011Z" fill="white"/>
</g>
<defs>
<clipPath id="clip0_503_18107">
<rect width="1440" height="241" fill="white"/>
</clipPath>
</defs>
</svg>
