<svg width="787" height="287" viewBox="0 0 787 287" fill="none" xmlns="http://www.w3.org/2000/svg">
<path d="M492.285 39.4476C497.549 6.64315 524.845 19.9803 537.834 30.7494C556.384 -3.73286 576.267 16.3818 583.89 30.7494C604.944 39.696 591.313 48.1457 581.865 51.2522C591.582 86.5418 569.719 79.2105 557.572 71.1337C545.021 96.4826 517.253 77.968 504.938 65.542C497.515 72.5834 480.341 82.4413 471.029 65.542C461.717 48.6428 481.32 41.1044 492.285 39.4476Z" fill="white"/>
<path d="M508.29 46.3988C509.7 28.0618 544.925 29.7466 562.361 32.8811C562.361 16.4248 578.033 7.21721 585.87 4.67048C607.028 -6.61381 624.464 9.37226 630.537 18.7758C657.807 13.1337 662.274 34.8403 661.098 46.3988C678.025 40.7566 697.537 48.7498 705.178 53.4516C705.648 61.9148 681.473 62.4634 669.327 61.6798C667.916 80.9571 649.148 89.3028 639.94 91.066C623.014 92.9467 603.893 78.1361 596.449 70.4956C574.82 77.5483 560.793 65.2061 556.483 58.1534C539.831 61.8756 506.879 64.7359 508.29 46.3988Z" fill="#B9F7FF"/>
<path d="M624.926 179.2C609.641 181.613 606.155 201.323 606.322 210.877C600.691 208.463 578.165 219.592 567.606 225.458C542.968 231.995 554.533 264.678 554.533 267.192C560.969 272.019 593.752 265.18 609.339 261.158C617.786 282.075 639.676 277.248 649.564 272.22C684.158 284.287 704.203 269.873 709.902 261.158C746.506 274.834 761.021 252.778 763.702 240.04C797.089 234.006 785.994 214.061 776.273 204.843C761.389 184.328 730.517 183.892 716.941 186.239C713.723 174.171 699.845 171.49 693.309 171.657C676.817 169.244 666.995 180.373 664.146 186.239C661.129 179.702 644.033 176.183 624.926 179.2Z" fill="#B9F7FF"/>
<path d="M647.247 256.591C648.241 268.588 673.059 267.486 685.344 265.435C685.344 276.202 696.387 282.226 701.908 283.893C716.816 291.275 729.101 280.816 733.38 274.664C752.594 278.355 755.741 264.153 754.913 256.591C766.839 260.283 780.587 255.053 785.971 251.977C786.302 246.439 769.269 246.081 760.71 246.593C759.717 233.981 746.493 228.52 740.005 227.367C728.079 226.136 714.607 235.827 709.362 240.825C694.123 236.211 684.24 244.286 681.203 248.9C669.47 246.465 646.253 244.594 647.247 256.591Z" fill="white"/>
<path d="M217.725 183.884C206.609 127.452 148.965 150.395 121.533 168.921C82.3584 109.602 40.3695 144.205 24.2718 168.921C-20.1902 184.312 8.5961 198.847 28.547 204.192C8.02605 264.899 54.1982 252.288 79.8494 238.393C106.356 282 164.997 250.15 191.005 228.774C206.68 240.887 242.948 257.845 262.614 228.774C282.28 199.703 240.882 186.734 217.725 183.884Z" fill="#B9F7FF"/>
<path d="M170.692 231.23L170.621 231.349C166.926 234.305 153.032 240.513 150.667 256.475C148.303 272.438 176.779 266.082 191.313 260.909C212.597 284.558 229.249 262.387 234.915 248.346C250.188 253.766 280.882 258.988 281.473 236.522C282.064 214.056 258.071 216.322 246 220.264C241.271 197.798 219.396 210.903 209.05 220.264C186.098 205.551 175.887 222.57 170.692 231.23Z" fill="white"/>
</svg>
