<svg width="291" height="142" viewBox="0 0 291 142" fill="none" xmlns="http://www.w3.org/2000/svg">
<path d="M156.944 21.6194C159.283 6.9544 171.415 12.9167 177.188 17.7309C185.432 2.31588 194.269 11.308 197.657 17.7309C207.014 21.7304 200.956 25.5078 196.757 26.8966C201.076 42.6725 191.359 39.3951 185.96 35.7844C180.382 47.1164 168.041 38.8396 162.567 33.2847C159.268 36.4325 151.636 40.8394 147.497 33.2847C143.358 25.73 152.07 22.36 156.944 21.6194Z" fill="white"/>
<path d="M166.262 21.3738C166.889 13.1654 182.553 13.9196 190.307 15.3228C190.307 7.95628 197.277 3.83464 200.761 2.69463C210.17 -2.35663 217.924 4.79932 220.625 9.0087C232.752 6.48307 234.738 16.1997 234.215 21.3738C241.743 18.8481 250.42 22.4261 253.818 24.5308C254.027 28.3193 243.276 28.5648 237.875 28.2141C237.247 36.8433 228.901 40.5792 224.806 41.3684C217.279 42.2103 208.776 35.5805 205.466 32.1604C195.848 35.3174 189.61 29.7926 187.693 26.6355C180.288 28.3018 165.634 29.5821 166.262 21.3738Z" fill="#B9F7FF"/>
<path d="M219.374 83.7902C212.583 84.8674 211.035 93.6644 211.109 97.9283C208.608 96.8511 198.6 101.818 193.91 104.436C182.964 107.354 188.102 121.941 188.102 123.063C190.961 125.217 205.525 122.165 212.449 120.37C216.202 129.705 225.926 127.551 230.319 125.307C245.687 130.693 254.592 124.259 257.124 120.37C273.385 126.474 279.833 116.629 281.024 110.944C295.856 108.251 290.927 99.3496 286.609 95.2353C279.997 86.0792 266.282 85.8847 260.251 86.932C258.821 81.546 252.656 80.3492 249.752 80.424C242.426 79.3468 238.063 84.3138 236.797 86.932C235.457 84.0146 227.862 82.4437 219.374 83.7902Z" fill="#B9F7FF"/>
<path d="M96.6743 102.302C91.7205 77.1087 66.0304 87.3516 53.8046 95.6222C36.3459 69.14 17.6328 84.5879 10.4586 95.6222C-9.35677 102.493 3.47238 108.983 12.3639 111.368C3.21833 138.471 23.7958 132.84 35.2277 126.637C47.0407 146.105 73.1754 131.886 84.7661 122.343C91.7522 127.751 107.916 135.321 116.68 122.343C125.445 109.364 106.995 103.575 96.6743 102.302Z" fill="#B9F7FF"/>
<path d="M75.8277 123.048L75.7963 123.102C74.1644 124.45 68.0285 127.279 66.9841 134.554C65.9397 141.83 78.5161 138.933 84.9348 136.575C94.3345 147.354 101.689 137.249 104.191 130.849C110.936 133.319 124.492 135.7 124.753 125.46C125.014 115.22 114.418 116.253 109.087 118.05C106.998 107.81 97.3372 113.783 92.7679 118.05C82.6315 111.344 78.1222 119.101 75.8277 123.048Z" fill="white"/>
</svg>
