<svg width="303" height="400" viewBox="0 0 303 400" fill="none" xmlns="http://www.w3.org/2000/svg">
<path d="M269.931 170.319C253.244 182.644 219.065 207.698 215.851 209.315L238.39 234.496C250.459 221.828 276.403 194.318 283.629 185.622C290.855 176.925 283.871 178.905 279.476 180.982C286.538 171.824 279.314 173.698 274.819 175.78C280.687 164.45 274.006 167.418 269.931 170.319Z" fill="#EEB00F"/>
<path fill-rule="evenodd" clip-rule="evenodd" d="M131.138 400H129.397L124.988 339.547H150.079L147.016 384.14C147.395 384.127 147.78 384.114 148.174 384.101C169.433 383.374 169.6 394.398 167.026 400H131.138L131.138 400Z" fill="#ECBC40"/>
<path fill-rule="evenodd" clip-rule="evenodd" d="M172.383 395.517H170.643L166.233 335.064H191.325L188.262 379.657C188.64 379.644 189.026 379.631 189.418 379.617C210.678 378.891 210.845 389.914 208.271 395.517H172.383L172.383 395.517Z" fill="#ECBC40"/>
<path d="M154.737 83.5359C109.226 45.1948 147.723 46.5196 172.66 51.9746L165.789 338.136L26.1076 346.266C21.9907 309.213 44.2242 325.408 55.8555 338.136C41.4254 290.464 77.0854 306.436 96.7192 320.382C58.1665 270.556 101.886 280.645 128.565 291.918C60.252 249.533 106.639 248.073 138.371 252.642C85.0679 225.834 119.279 217.574 143.047 216.795C83.8212 202.456 120.967 191.078 146.944 187.182C85.8474 173.154 123.046 158.218 149.282 152.503C86.315 121.02 125.124 114.448 152.399 115.097C97.5367 100.135 131.098 87.822 154.737 83.5359Z" fill="#EB5D3A"/>
<path d="M200.88 39.6479C168.921 39.1485 156.353 54.8371 154.064 62.7437C147.698 129.662 132.491 269.039 122.588 291.202C112.685 313.366 42.0344 339.885 7.94678 350.374C81.6609 356.067 233.54 361.881 251.341 339.587C269.143 317.293 263.22 262.162 258.033 237.383L217.201 122.891C230.071 123.857 260.555 124.416 279.531 118.923C298.507 113.43 296.177 99.5724 292.64 93.3302C295.137 35.2783 240.83 40.2721 200.88 39.6479Z" fill="#FCC537"/>
<mask id="mask0_501_18073" style="mask-type:alpha" maskUnits="userSpaceOnUse" x="7" y="39" width="289" height="317">
<path d="M200.88 39.6479C168.921 39.1485 156.353 54.8371 154.064 62.7437C147.698 129.662 132.491 269.039 122.588 291.202C112.685 313.366 42.0344 339.885 7.94678 350.374C81.6609 356.067 233.54 361.881 251.341 339.587C269.143 317.293 263.22 262.162 258.033 237.383L217.201 122.891C230.071 123.857 260.555 124.416 279.531 118.923C298.507 113.43 296.177 99.5724 292.64 93.3302C295.137 35.2783 240.83 40.2721 200.88 39.6479Z" fill="#FCC537"/>
</mask>
<g mask="url(#mask0_501_18073)">
<path d="M190.124 356.895C186.913 242.221 238.86 237.634 265.235 249.674L269.249 356.895H190.124Z" fill="#FDCF8C"/>
</g>
<ellipse cx="211.292" cy="34.2413" rx="13.7805" ry="18.1222" fill="#F5F5F5"/>
<ellipse cx="211.292" cy="40.6054" rx="8.94121" ry="11.7583" fill="black"/>
<ellipse cx="242.629" cy="28.8473" rx="13.7805" ry="18.1222" fill="#F5F5F5"/>
<ellipse cx="242.629" cy="35.2114" rx="8.94121" ry="11.7583" fill="black"/>
<path d="M271.725 97.2672C279.047 52.5418 291.91 91.5281 293.098 93.5071C254.626 102.848 233.53 99.9059 227.791 97.2672C216.972 107.756 197.433 121.292 205.824 91.5281C194.873 99.3781 176.257 107.954 189.398 79.4562C193.356 84.4037 206.576 94.8924 227.791 97.2672C241.565 70.5111 249.23 87.3062 251.341 99.0483C257.674 73.0838 267.569 87.0424 271.725 97.2672Z" fill="white"/>
<path d="M293.031 93.5165C267.106 100.942 209.216 107.561 185.053 74.6392" stroke="black" stroke-width="3"/>
<ellipse cx="115.685" cy="332.141" rx="9.30308" ry="7.4678" fill="#EB5D3A"/>
<ellipse cx="131.46" cy="312.444" rx="6.47216" ry="5.19535" fill="#EB5D3A"/>
<ellipse cx="137.932" cy="329.869" rx="6.47216" ry="5.19535" fill="#EB5D3A"/>
<rect x="249.103" y="259.388" width="2.70451" height="13.571" transform="rotate(-10.6832 249.103 259.388)" fill="#FCC537"/>
<rect x="236.223" y="284.588" width="2.70451" height="13.571" transform="rotate(6.8874 236.223 284.588)" fill="#FCC537"/>
<rect x="234.521" y="255.666" width="2.70451" height="13.571" transform="rotate(6.26326 234.521 255.666)" fill="#FCC537"/>
<rect x="223.606" y="272.723" width="2.70451" height="13.571" transform="rotate(6.8874 223.606 272.723)" fill="#FCC537"/>
<rect x="247.581" y="295.35" width="2.70451" height="13.571" transform="rotate(-1.43372 247.581 295.35)" fill="#FCC537"/>
<rect x="247.171" y="320.501" width="2.70451" height="13.571" transform="rotate(7.87695 247.171 320.501)" fill="#FCC537"/>
<rect x="208.378" y="288.439" width="2.70451" height="13.571" transform="rotate(2.7725 208.378 288.439)" fill="#FCC537"/>
<rect x="217.419" y="310.19" width="2.70451" height="13.571" transform="rotate(2.7725 217.419 310.19)" fill="#FCC537"/>
<rect x="233.087" y="308.917" width="2.70451" height="13.571" transform="rotate(-6.38406 233.087 308.917)" fill="#FCC537"/>
<rect x="203.862" y="329.77" width="2.70451" height="13.571" transform="rotate(9.97095 203.862 329.77)" fill="#FCC537"/>
<rect x="200.062" y="310.51" width="2.70451" height="13.571" transform="rotate(9.97095 200.062 310.51)" fill="#FCC537"/>
<rect x="222.706" y="332.912" width="2.70451" height="13.571" transform="rotate(-5.17184 222.706 332.912)" fill="#FCC537"/>
<path d="M115.753 187.664C127.971 204.43 152.808 238.767 154.405 241.992L179.728 219.613C167.137 207.464 139.793 181.345 131.142 174.064C122.492 166.784 124.427 173.78 126.476 178.188C117.363 171.067 119.192 178.303 121.245 182.811C109.952 176.871 112.878 183.572 115.753 187.664Z" fill="#EEB00F"/>
</svg>
