<svg width="304" height="400" viewBox="0 0 304 400" fill="none" xmlns="http://www.w3.org/2000/svg">
<path d="M281.526 177.604C270.302 194.822 247.508 230.072 246.123 233.327L218.293 213.491C230.269 200.732 256.3 173.28 264.613 165.55C272.926 157.819 271.495 164.765 269.741 169.204C278.543 161.595 277.241 168.766 275.49 173.302C286.628 166.676 284.155 173.409 281.526 177.604Z" fill="#C03226"/>
<path fill-rule="evenodd" clip-rule="evenodd" d="M136.269 400H134.66L130.585 339.917H153.773L150.943 384.237C151.292 384.224 151.649 384.211 152.012 384.198C171.66 383.475 171.814 394.431 169.435 400H136.269L136.269 400Z" fill="#C03226"/>
<path fill-rule="evenodd" clip-rule="evenodd" d="M170.291 393.661H185.567L185.567 393.661H205.066C207.445 388.092 207.291 377.136 187.643 377.859C187.28 377.872 186.923 377.885 186.573 377.898L189.404 333.579H166.216L170.291 393.661Z" fill="#C03226"/>
<path d="M167.116 50.2579C159.483 31.1248 172.509 34.4444 179.976 38.4958L176.923 215.59L70.4112 323.612L19.3767 330.214C11.3043 297.642 28.0441 312.241 37.4231 323.612L54.1112 315.359C39.0531 283.521 58.7037 293.656 70.4112 302.704L81.2779 285.832C49.9198 269.692 71.3168 265.291 85.935 265.108L90.01 249.702C76.3491 218.304 95.7021 228.183 107.086 237.048L122.61 232.279C120.437 201.762 134.253 216.14 141.433 227.144L154.046 215.59C133.71 195.196 150.876 197.189 162.002 200.735L164.718 182.578C140.036 170.547 155.21 164.605 165.883 163.138V147.549C141.355 141.387 155.663 134.956 165.883 132.511L164.718 119.856C142.209 114.134 154.305 108.18 163.166 105.918L161.614 94.3639C139.725 89.5222 152.493 83.2988 161.614 80.7924V70.5221C143.14 60.9854 154.951 57.2563 163.166 56.5839L167.116 50.2579Z" fill="#253464"/>
<path d="M215.58 109.793C206.895 109.233 202.75 105.206 201.763 103.263C206.369 132.465 256.435 203.341 270.95 293.177C285.633 384.056 124.764 352.835 13.5821 331.026C137.316 287.324 34.5299 247.783 131.184 228.173C186.689 216.911 152.416 95.3347 159.325 61.2884C166.233 27.2422 219.281 26.0762 249.876 30.2737C280.471 34.4712 286.64 62.6875 284.172 87.6392C281.705 112.591 226.436 110.492 215.58 109.793Z" fill="#E53D30"/>
<mask id="mask0_501_18075" style="mask-type:alpha" maskUnits="userSpaceOnUse" x="13" y="28" width="272" height="327">
<path d="M215.578 109.793C206.893 109.233 202.748 105.206 201.761 103.263C206.367 132.465 256.433 203.341 270.948 293.177C285.631 384.056 124.762 352.835 13.5802 331.026C137.314 287.324 34.528 247.783 131.182 228.173C186.687 216.911 152.414 95.3347 159.323 61.2884C166.231 27.2422 219.279 26.0762 249.874 30.2737C280.469 34.4712 286.638 62.6875 284.17 87.6392C281.703 112.591 226.434 110.492 215.578 109.793Z" fill="#E53D30"/>
</mask>
<g mask="url(#mask0_501_18075)">
<path d="M200.72 359.063C174.774 233.869 232.584 225.695 264.733 237.257L290.338 344.14L200.72 359.063Z" fill="#F39077"/>
</g>
<ellipse cx="12.3277" cy="15.322" rx="12.3277" ry="15.322" transform="matrix(-1 0 0 1 226.696 22.7134)" fill="#F5F5F5"/>
<ellipse cx="7.99861" cy="9.94139" rx="7.99861" ry="9.94139" transform="matrix(-1 0 0 1 222.367 33.4746)" fill="black"/>
<ellipse cx="12.3277" cy="15.322" rx="12.3277" ry="15.322" transform="matrix(-1 0 0 1 253.938 19.9951)" fill="#F5F5F5"/>
<ellipse cx="7.99861" cy="9.94139" rx="7.99861" ry="9.94139" transform="matrix(-1 0 0 1 249.609 30.7563)" fill="black"/>
<rect width="2.41495" height="11.4976" transform="matrix(0.984475 0.175527 0.195742 -0.980655 260.865 325.345)" fill="#E53D30"/>
<rect width="2.41495" height="11.4976" transform="matrix(0.984475 0.175527 0.195742 -0.980655 227.309 337.044)" fill="#E53D30"/>
<rect width="2.41495" height="11.4976" transform="matrix(0.984475 0.175527 0.195742 -0.980655 213.665 322.241)" fill="#E53D30"/>
<rect width="2.41754" height="11.4839" transform="matrix(0.993547 -0.113424 -0.126773 -0.991932 249.344 304.039)" fill="#E53D30"/>
<rect width="2.41786" height="11.4822" transform="matrix(0.994663 -0.103175 -0.11535 -0.993325 247.821 328.492)" fill="#E53D30"/>
<rect width="2.41754" height="11.4839" transform="matrix(0.993547 -0.113424 -0.126773 -0.991932 236.305 317.111)" fill="#E53D30"/>
<rect width="2.41932" height="11.4745" transform="matrix(0.99972 0.0236481 0.0264724 -0.99965 259.505 292.316)" fill="#E53D30"/>
<rect width="2.41697" height="11.4869" transform="matrix(0.991559 -0.129655 -0.144842 -0.989455 253.41 263.121)" fill="#E53D30"/>
<rect width="2.41909" height="11.4757" transform="matrix(0.998954 -0.0457215 -0.051172 -0.99869 224.435 300.782)" fill="#E53D30"/>
<rect width="2.41909" height="11.4757" transform="matrix(0.998954 -0.0457215 -0.051172 -0.99869 213.064 304.15)" fill="#E53D30"/>
<rect width="2.41909" height="11.4757" transform="matrix(0.998954 -0.0457215 -0.051172 -0.99869 232.522 282.393)" fill="#E53D30"/>
<rect width="2.4178" height="11.4825" transform="matrix(0.994455 0.10516 0.117562 -0.993066 246.538 283.469)" fill="#E53D30"/>
<rect width="2.41552" height="11.4946" transform="matrix(0.986476 -0.163909 -0.182876 -0.983136 220.396 265.838)" fill="#E53D30"/>
<rect width="2.41552" height="11.4946" transform="matrix(0.986476 -0.163909 -0.182876 -0.983136 216.996 282.123)" fill="#E53D30"/>
<rect width="2.41552" height="11.4946" transform="matrix(0.986476 -0.163909 -0.182876 -0.983136 213.099 343.984)" fill="#E53D30"/>
<rect width="2.41835" height="11.4796" transform="matrix(0.996361 0.0852329 0.0953313 -0.995446 237.251 263.182)" fill="#E53D30"/>
<path d="M281.658 81.1952C276.322 73.8244 265.332 64.2849 263.984 84.9728C263.964 84.9761 263.943 84.9794 263.922 84.9828C259.677 77.4093 250.122 67.4826 245.175 87.153C245.089 87.1592 245.003 87.1654 244.917 87.1715C242.067 78.8574 234.817 67.9012 227.382 87.6073C231.106 87.7577 237.332 87.7107 244.917 87.1715C244.967 87.3177 245.016 87.463 245.063 87.6073C245.1 87.4542 245.138 87.3027 245.175 87.153C250.837 86.7438 257.243 86.0608 263.922 84.9828C263.941 85.0157 263.959 85.0485 263.978 85.0813C263.98 85.0451 263.982 85.0089 263.984 84.9728C269.773 84.0366 275.766 82.8037 281.658 81.1952Z" fill="white"/>
<path d="M283.388 80.647C267.616 85.5582 230.384 92.8475 207.629 82.7148" stroke="black" stroke-width="3"/>
<ellipse cx="9.22997" cy="7.57855" rx="9.22997" ry="7.57855" transform="matrix(0.568966 -0.822361 -0.850659 -0.525718 104.218 282.393)" fill="#253464"/>
<ellipse cx="6.4213" cy="5.2724" rx="6.4213" ry="5.2724" transform="matrix(0.568966 -0.822361 -0.850659 -0.525718 129.763 276.508)" fill="#253464"/>
<ellipse cx="6.4213" cy="5.2724" rx="6.4213" ry="5.2724" transform="matrix(0.568966 -0.822361 -0.850659 -0.525718 118.374 261.932)" fill="#253464"/>
<path d="M136.783 181.46C153.295 194.462 187.124 220.907 190.346 222.675L165.767 245.827C154.03 232.769 128.813 204.43 121.847 195.53C114.88 186.63 121.963 188.978 126.375 191.264C119.602 181.925 126.938 184.184 131.453 186.481C126.028 175.099 132.746 178.391 136.783 181.46Z" fill="#C03226"/>
</svg>
