<svg width="304" height="400" viewBox="0 0 304 400" fill="none" xmlns="http://www.w3.org/2000/svg">
<g clip-path="url(#clip0_501_18074)">
<path d="M264.885 137.292C250.093 152.202 219.769 182.549 216.802 184.664L243.243 206.374C253.361 191.835 275.068 160.303 280.953 150.487C286.839 140.67 280.158 143.729 276.082 146.486C281.733 136.233 274.795 139.224 270.619 142.001C274.739 129.759 268.513 133.761 264.885 137.292Z" fill="#5EA1C9"/>
<path fill-rule="evenodd" clip-rule="evenodd" d="M147.237 399.999H145.474L141.011 338.8H166.412L163.311 383.944C163.694 383.931 164.085 383.917 164.483 383.904C186.005 383.168 186.174 394.328 183.568 400H147.237L147.237 399.999Z" fill="#253464"/>
<path fill-rule="evenodd" clip-rule="evenodd" d="M188.993 395.46H187.23L182.767 334.26H208.168L205.067 379.404C205.45 379.391 205.841 379.378 206.238 379.364C227.761 378.629 227.93 389.788 225.324 395.46H188.993L188.993 395.46Z" fill="#253464"/>
<path d="M144.229 45.396C148.578 41.0476 158.983 47.2079 163.642 50.8315L181.098 100.769L169.078 294.904L46.2875 316.308L12.644 294.904C13.0324 290.584 16.1103 281.942 25.315 281.942C34.5196 281.942 33.5195 293.302 31.8689 298.982H46.2875C43.4232 293.982 40.9278 283.34 53.8609 280.777C66.794 278.214 66.3376 290.972 64.4927 297.672H75.1247C71.9691 293.545 68.5707 284.622 80.2222 281.942C91.8736 279.262 94.2038 289.37 93.9125 294.759L103.671 293.448C101.049 289.418 98.1943 280.602 107.749 277.573C117.303 274.543 121.342 283.69 122.167 288.642C127.022 288.108 136.382 286.69 134.984 285.292C133.236 283.544 130.906 280.34 133.382 273.495C135.362 268.019 145.082 271.213 149.694 273.495V264.902C144.305 266.358 133.498 266.533 133.382 255.581C133.265 244.628 145.373 245.677 151.441 247.57L152.752 236.938C147.218 237.133 136.265 235.453 136.731 227.18C137.198 218.908 148.189 220.432 153.626 222.229L155.228 205.334C150.47 205.431 141.101 203.965 141.683 197.324C142.266 190.682 151.538 192.129 156.102 193.683L157.704 184.653C152.509 185.963 142.324 186.138 143.14 176.351C143.955 166.564 154.451 167.612 159.597 169.36L161.491 163.971C156.102 163.583 145.674 161.379 147.072 155.67C148.47 149.96 158.044 151.252 162.656 152.611L163.642 147.895C158.206 148.154 147.724 146.497 149.277 137.8C150.83 129.104 161.054 130.553 165.972 132.365L169.078 113.729C164.548 115.541 154.79 116.99 151.994 108.293C149.199 99.5962 162.218 95.3513 169.078 94.316L163.642 84.2214C158.854 88.6216 148.267 95.4808 144.229 87.7157C140.192 79.9506 150.053 74.3856 155.489 72.5738L151.994 64.0322C140.347 62.4792 138.794 50.8315 144.229 45.396Z" fill="#253464"/>
<path d="M241.432 48.5332C266.664 41.3008 275.839 57.2723 277.273 66.1622C290.508 117.283 242.989 112.517 217.576 103.744C228.964 189.353 314.47 241.44 251.431 328.173C188.392 414.906 -46.5708 278.301 9.59113 293.48C54.5207 305.622 120.005 288.42 147.131 278.301C149.728 237.815 157.124 149.097 165.928 118.118C176.933 79.3956 124.831 71.1344 165.928 45.821C207.026 20.5075 209.893 57.5737 241.432 48.5332Z" fill="#6DBBE9"/>
<ellipse cx="195.048" cy="42.4911" rx="13.9507" ry="18.3461" fill="#F5F5F5"/>
<ellipse cx="195.05" cy="48.9338" rx="9.05166" ry="11.9035" fill="black"/>
<ellipse cx="226.771" cy="37.0301" rx="13.9507" ry="18.3461" fill="#F5F5F5"/>
<ellipse cx="226.772" cy="43.4723" rx="9.05166" ry="11.9035" fill="black"/>
<path d="M257.239 90.5533C249.056 60.0343 241.758 77.837 239.132 90.5533C254.612 93.4282 269.725 88.4339 275.345 85.5774C261.523 62.1353 257.515 79.1271 257.239 90.5533Z" fill="white"/>
<path d="M278.645 84.2793C270.409 88.658 248.619 95.6639 227.352 88.658" stroke="black" stroke-width="3"/>
<mask id="mask0_501_18074" style="mask-type:alpha" maskUnits="userSpaceOnUse" x="0" y="36" width="280" height="322">
<path d="M241.432 48.5332C266.664 41.3008 275.839 57.2723 277.273 66.1622C290.508 117.283 242.989 112.517 217.576 103.744C228.964 189.353 314.47 241.44 251.431 328.173C188.392 414.906 -46.5708 278.301 9.59113 293.48C54.5207 305.622 120.005 288.42 147.131 278.301C149.728 237.815 157.124 149.097 165.928 118.118C176.933 79.3956 124.831 71.1344 165.928 45.821C207.026 20.5075 209.893 57.5737 241.432 48.5332Z" fill="#6DBBE9"/>
</mask>
<g mask="url(#mask0_501_18074)">
<path d="M212.387 282.043C212.387 237.346 248.445 226.172 266.475 226.172C289.061 235.087 299.76 364.661 243.888 352.179C188.017 339.698 212.387 337.914 212.387 282.043Z" fill="#A8E2FB"/>
</g>
<rect x="263.629" y="249.355" width="2.73792" height="13.7387" transform="rotate(-10.6832 263.629 249.355)" fill="#253464"/>
<rect x="249.857" y="275.84" width="2.73792" height="13.7387" transform="rotate(6.8874 249.857 275.84)" fill="#253464"/>
<rect x="254.074" y="242.377" width="2.73792" height="13.7387" transform="rotate(6.26326 254.074 242.377)" fill="#253464"/>
<rect x="243.025" y="259.646" width="2.73792" height="13.7387" transform="rotate(6.8874 243.025 259.646)" fill="#253464"/>
<rect x="263.166" y="275.746" width="2.73792" height="13.7387" transform="rotate(-1.43372 263.166 275.746)" fill="#253464"/>
<rect x="229.515" y="252.267" width="2.73792" height="13.7387" transform="rotate(7.87695 229.515 252.267)" fill="#253464"/>
<rect x="227.609" y="275.556" width="2.73792" height="13.7387" transform="rotate(2.7725 227.609 275.556)" fill="#253464"/>
<rect x="236.763" y="297.576" width="2.73792" height="13.7387" transform="rotate(2.7725 236.763 297.576)" fill="#253464"/>
<rect x="252.623" y="296.287" width="2.73792" height="13.7387" transform="rotate(-6.38406 252.623 296.287)" fill="#253464"/>
<rect x="223.038" y="317.397" width="2.73792" height="13.7387" transform="rotate(9.97095 223.038 317.397)" fill="#253464"/>
<rect x="219.191" y="297.899" width="2.73792" height="13.7387" transform="rotate(9.97095 219.191 297.899)" fill="#253464"/>
<rect x="242.113" y="320.578" width="2.73792" height="13.7387" transform="rotate(-5.17184 242.113 320.578)" fill="#253464"/>
<ellipse cx="152.023" cy="296.943" rx="9.418" ry="7.56004" fill="#253464"/>
<ellipse cx="167.994" cy="277.003" rx="6.55211" ry="5.25952" fill="#253464"/>
<ellipse cx="174.545" cy="294.643" rx="6.55211" ry="5.25952" fill="#253464"/>
<path d="M125.767 186.192C141.109 200.534 172.344 229.944 174.546 232.846L195.461 205.772C180.628 196.091 148.465 175.33 138.478 169.739C128.49 164.147 131.747 170.735 134.624 174.727C124.207 169.383 127.403 176.229 130.303 180.32C117.944 176.566 122.129 182.67 125.767 186.192Z" fill="#5EA1C9"/>
</g>
<defs>
<clipPath id="clip0_501_18074">
<rect width="303" height="400" fill="white" transform="translate(0.993164)"/>
</clipPath>
</defs>
</svg>
