<svg width="113" height="113" viewBox="0 0 113 113" fill="none" xmlns="http://www.w3.org/2000/svg">
<circle cx="56.4658" cy="56.5307" r="56.3305" fill="white"/>
<circle cx="56.7743" cy="56.5048" r="47.6127" fill="#9064B1"/>
<mask id="mask0_482_16372" style="mask-type:alpha" maskUnits="userSpaceOnUse" x="9" y="8" width="96" height="97">
<circle cx="56.7743" cy="56.5048" r="47.6127" fill="#9064B1"/>
</mask>
<g mask="url(#mask0_482_16372)">
<path d="M95.1183 54.6184L72.1681 77.0677L79.6271 89.4534L103.613 59.4198L95.1183 54.6184Z" fill="#83B443"/>
<path d="M32.4629 49.3367C19.9396 38.509 28.6363 32.7944 34.5501 31.2905L43.5947 73.6295L27.2449 104.169C12.2169 98.8941 22.3747 90.4032 29.3321 86.8171C10.9646 79.0434 21.679 73.1668 29.3321 71.2003C13.1909 61.2055 24.6938 52.46 32.4629 49.3367Z" fill="#FFF200"/>
<path d="M34.1144 30.6055L27.257 109.184H82.8757L78.6094 63.2886C112.537 27.4067 63.0825 26.5491 34.1144 30.6055Z" fill="#8DC73F"/>
<path d="M38.5096 99.1794L39.1922 69.145L50.7085 63.374L46.0762 99.9496L38.5096 99.1794Z" fill="#83B443"/>
<ellipse cx="52.9553" cy="31.4576" rx="5.34889" ry="7.18757" fill="white"/>
<ellipse cx="52.7884" cy="33.4635" rx="3.84452" ry="5.18174" fill="#FFF200"/>
<ellipse cx="67.3306" cy="29.1175" rx="5.34889" ry="7.18757" fill="white"/>
<ellipse cx="67.1634" cy="31.1234" rx="3.84452" ry="5.18174" fill="#FFF200"/>
</g>
</svg>
