<svg width="304" height="400" viewBox="0 0 304 400" fill="none" xmlns="http://www.w3.org/2000/svg">
<path d="M276.648 181.604C263.394 196.578 236.418 227.274 234.552 230.262L214.504 204.323C227.496 194.006 255.677 171.865 264.465 165.84C273.252 159.815 270.589 166.516 268.159 170.62C277.345 164.821 274.747 171.776 272.301 175.978C283.309 171.669 279.786 177.933 276.648 181.604Z" fill="#76A92C"/>
<path d="M117.279 98.7154C121.144 83.367 140.543 85.1051 149.759 87.8926L157.557 229.556L126.523 323.742L24.4172 295.193C25.0474 289.029 29.7115 276.516 43.3256 275.777C56.9397 275.037 61.3236 290.57 61.8139 298.429C62.7943 291.726 68.1167 278.319 81.5627 278.319C95.0087 278.319 98.9305 291.726 99.2106 298.429L114.547 291.957C108.035 288.028 96.0592 277.857 100.261 268.611C104.463 259.365 116.298 257.67 121.691 257.978C114.547 257.362 100.261 252.245 100.261 236.712C100.261 221.179 115.528 214.984 123.161 213.828C115.038 213.674 99.0845 209.39 100.261 193.487C101.438 177.584 118.259 175.303 126.523 176.151C117.909 172.607 101.858 161.635 106.564 146.101C111.27 130.568 127.293 130.999 134.716 133.157C127.293 128.072 113.413 114.064 117.279 98.7154Z" fill="#F9ED32"/>
<path fill-rule="evenodd" clip-rule="evenodd" d="M128.745 400H126.924L122.314 337.903H148.548L145.345 383.709C145.741 383.696 146.145 383.682 146.556 383.668C168.783 382.922 168.958 394.245 166.266 400H128.745L128.745 400Z" fill="#76A92C"/>
<path fill-rule="evenodd" clip-rule="evenodd" d="M169.054 393.449H167.233L162.623 331.352H188.856L185.654 377.157C186.05 377.144 186.453 377.131 186.864 377.117C209.092 376.37 209.266 387.694 206.575 393.449H169.054L169.054 393.449Z" fill="#76A92C"/>
<path d="M281.346 53.1576C268.459 27.3782 254.498 39.1938 249.128 48.324C227.978 57.1232 181.729 74.8532 165.932 75.3799C146.186 76.0382 133.621 103.03 128.834 115.538C125.004 125.545 115.271 236.452 110.883 290.654C78.8107 303.294 27.3117 291.532 5.57117 284.071C46.2598 355.171 166.387 352.842 227.161 348.814C275.78 345.592 239.121 227.705 214.713 169.165C221.303 165.405 242.538 155.308 274.756 144.997C315.028 132.107 297.454 85.3819 281.346 53.1576Z" fill="#84BC33"/>
<mask id="mask0_501_18076" style="mask-type:alpha" maskUnits="userSpaceOnUse" x="5" y="37" width="295" height="314">
<path d="M281.346 53.1576C268.459 27.3782 254.498 39.1938 249.128 48.324C227.978 57.1232 181.729 74.8532 165.932 75.3799C146.186 76.0382 133.621 103.03 128.834 115.538C125.004 125.545 115.271 236.452 110.883 290.654C78.8107 303.294 27.3117 291.532 5.57117 284.071C46.2598 355.171 166.387 352.842 227.161 348.814C275.78 345.592 239.121 227.705 214.713 169.165C221.303 165.405 242.538 155.308 274.756 144.997C315.028 132.107 297.454 85.3819 281.346 53.1576Z" fill="#84BC33"/>
</mask>
<g mask="url(#mask0_501_18076)">
<ellipse cx="46.2767" cy="80.5638" rx="46.2767" ry="80.5638" transform="matrix(-1 0 0 1 265.636 222.564)" fill="#BDDB91"/>
</g>
<path d="M272.518 104.591C296.429 124.174 296.67 103.414 293.783 90.5244C286.433 95.7903 279.332 100.459 272.518 104.591C272.412 104.505 272.307 104.418 272.2 104.33C272.227 104.464 272.253 104.6 272.278 104.736C230.667 129.919 199.803 135.086 188.38 134.15C196.41 158.006 205.78 142.863 209.46 132.309C220.703 153.515 227.864 136.85 230.039 125.867C246.502 147.367 250.283 128.935 250.116 117.031C273.281 135.964 274.572 116.968 272.278 104.736C272.358 104.688 272.438 104.639 272.518 104.591Z" fill="white"/>
<path d="M295.317 88.9009C269.954 108.554 210.229 144.531 174.23 131.208" stroke="black" stroke-width="3"/>
<ellipse cx="10.945" cy="15.8359" rx="10.945" ry="15.8359" transform="matrix(-1 0 0 1 196.119 52.0449)" fill="#F5F5F5"/>
<ellipse cx="7.10145" cy="10.2748" rx="7.10145" ry="10.2748" transform="matrix(-1 0 0 1 192.276 63.167)" fill="black"/>
<ellipse cx="10.945" cy="15.8359" rx="10.945" ry="15.8359" transform="matrix(-1 0 0 1 224.247 43.2485)" fill="#F5F5F5"/>
<ellipse cx="7.10145" cy="10.2748" rx="7.10145" ry="10.2748" transform="matrix(-1 0 0 1 220.404 54.3706)" fill="black"/>
<ellipse cx="8.85935" cy="7.26677" rx="8.85935" ry="7.26677" transform="matrix(-0.753096 -0.65791 -0.58521 0.810881 161.474 144.963)" fill="#F9ED32"/>
<ellipse cx="6.16346" cy="5.05549" rx="6.16346" ry="5.05549" transform="matrix(-0.753096 -0.65791 -0.58521 0.810881 158.053 119.557)" fill="#F9ED32"/>
<ellipse cx="6.16346" cy="5.05549" rx="6.16346" ry="5.05549" transform="matrix(-0.753096 -0.65791 -0.58521 0.810881 143.487 129.251)" fill="#F9ED32"/>
<rect width="2.15578" height="11.8234" transform="matrix(0.979132 0.203224 0.168998 -0.985617 237.602 321.022)" fill="#76A92C"/>
<rect width="2.15578" height="11.8234" transform="matrix(0.979132 0.203224 0.168998 -0.985617 207.808 333.114)" fill="#76A92C"/>
<rect width="2.15578" height="11.8234" transform="matrix(0.979132 0.203224 0.168998 -0.985617 195.694 317.813)" fill="#76A92C"/>
<rect width="2.15128" height="11.8441" transform="matrix(0.991285 -0.131738 -0.109131 -0.994027 227.373 299.001)" fill="#76A92C"/>
<rect width="2.15072" height="11.8466" transform="matrix(0.992788 -0.119881 -0.0992616 -0.995061 226.02 324.275)" fill="#76A92C"/>
<rect width="2.15128" height="11.8441" transform="matrix(0.991285 -0.131738 -0.109131 -0.994027 215.796 312.512)" fill="#76A92C"/>
<rect width="2.14817" height="11.8583" transform="matrix(0.999621 0.0275263 0.0227425 -0.999741 236.393 286.886)" fill="#76A92C"/>
<rect width="2.15227" height="11.8395" transform="matrix(0.988612 -0.150484 -0.124766 -0.992186 230.981 256.71)" fill="#76A92C"/>
<rect width="2.14856" height="11.8565" transform="matrix(0.998584 -0.0532052 -0.0439731 -0.999033 205.257 295.636)" fill="#76A92C"/>
<rect width="2.14856" height="11.8565" transform="matrix(0.998584 -0.0532052 -0.0439731 -0.999033 195.161 299.116)" fill="#76A92C"/>
<rect width="2.14856" height="11.8565" transform="matrix(0.998584 -0.0532052 -0.0439731 -0.999033 212.438 276.629)" fill="#76A92C"/>
<rect width="2.15082" height="11.8462" transform="matrix(0.992508 0.122178 0.101172 -0.994869 224.881 277.742)" fill="#76A92C"/>
<rect width="2.15479" height="11.828" transform="matrix(0.981803 -0.189904 -0.157788 -0.987473 201.67 259.52)" fill="#76A92C"/>
<rect width="2.15479" height="11.828" transform="matrix(0.981803 -0.189904 -0.157788 -0.987473 198.651 276.35)" fill="#76A92C"/>
<rect width="2.15479" height="11.828" transform="matrix(0.981803 -0.189904 -0.157788 -0.987473 195.191 340.286)" fill="#76A92C"/>
<rect width="2.14986" height="11.8505" transform="matrix(0.995078 0.0990929 0.0819896 -0.996633 216.636 256.774)" fill="#76A92C"/>
<path d="M118.297 193.01C135.403 202.102 170.407 220.539 173.574 221.541L157.557 250.675C144.549 240.381 116.539 217.979 108.563 210.715C100.587 203.451 107.207 204.11 111.514 205.347C103.607 197.596 110.426 198.105 114.823 199.328C107.623 189.204 114.139 190.897 118.297 193.01Z" fill="#76A92C"/>
</svg>
