<svg width="192" height="117" viewBox="0 0 192 117" fill="none" xmlns="http://www.w3.org/2000/svg">
<path d="M29.2474 18.269C16.1436 22.8938 18.3277 37.5392 21.0577 44.2838C13.189 45.2473 -1.77766 51.7029 1.30557 69.8168C4.38881 87.9308 28.2839 92.4593 39.846 92.4593C51.7935 128.687 83.6857 116.547 98.1383 105.948C137.835 129.073 155.467 96.3134 159.321 77.0432C171.526 77.2038 194.971 71.4548 191.117 47.1744C187.263 22.8939 162.533 23.5684 150.65 26.9406C128.296 -5.43329 112.109 3.49523 106.81 12.0062C103.919 8.95513 94.9588 2.46751 82.2404 0.925891C69.5221 -0.615725 62.8096 11.8456 61.0432 18.269C55.9045 16.342 42.3512 13.6442 29.2474 18.269Z" fill="white"/>
</svg>
