<svg width="227" height="142" viewBox="0 0 227 142" fill="none" xmlns="http://www.w3.org/2000/svg">
<path d="M76.4769 29.6906C23.91 34.4081 23.9662 60.5792 30.5652 73.0751C21.439 74.3387 2.6811 83.1842 0.659299 108.457C-1.36251 133.729 29.8631 129.377 45.7287 124.041C80.0994 153.358 131.655 139.065 153.137 128.254C163.92 136.678 173.636 128.956 177.146 124.041C186.413 130.079 208.4 136.172 222.215 112.248C236.031 88.3229 214.493 72.5135 201.997 67.5994C202.671 48.7292 185.711 47.943 177.146 49.9086C174.113 40.4735 163.246 37.834 158.192 37.6936C157.63 26.3209 149.262 2.986 120.283 0.627224C84.0587 -2.32124 79.8466 26.7422 76.4769 29.6906Z" fill="#B9F7FF"/>
</svg>
