<svg width="496" height="495" viewBox="0 0 496 495" fill="none" xmlns="http://www.w3.org/2000/svg">
<path fill-rule="evenodd" clip-rule="evenodd" d="M383.112 189.055C381.178 187.084 378.012 187.053 376.041 188.987L372.976 191.993L370.548 189.519C371.202 188.739 371.169 187.576 370.442 186.835L370.186 186.575C369.413 185.786 368.147 185.774 367.358 186.547L365.289 188.577C364.5 189.351 364.488 190.617 365.261 191.406L365.517 191.666C366.243 192.407 367.405 192.462 368.197 191.824L370.625 194.299L366.088 198.749L363.661 196.274C364.314 195.495 364.281 194.332 363.554 193.591L363.298 193.331C362.525 192.542 361.259 192.53 360.47 193.303L358.401 195.333C357.612 196.106 357.6 197.373 358.373 198.161L358.629 198.422C359.355 199.163 360.518 199.218 361.31 198.58L363.737 201.055L359.2 205.505L356.773 203.03C357.426 202.251 357.393 201.087 356.666 200.346L356.411 200.086C355.637 199.297 354.371 199.285 353.583 200.059L351.513 202.089C350.724 202.862 350.712 204.128 351.486 204.917L351.741 205.177C352.468 205.918 353.63 205.974 354.421 205.336L356.849 207.811L352.124 212.446C350.153 214.379 350.122 217.545 352.056 219.516L352.219 219.683L302.933 268.025C282.89 254.569 258.56 254.002 244.148 268.137C236.769 275.375 233.193 285.288 233.215 295.964C213.476 290.614 193.643 294.056 180.31 307.134C157.928 329.087 162.337 369.879 190.159 398.244C217.981 426.61 258.68 431.808 281.062 409.855C294.395 396.778 298.221 377.015 293.254 357.176C303.927 357.404 313.907 354.021 321.287 346.783C335.698 332.648 335.602 308.312 322.537 288.012L371.823 239.67L371.988 239.838C373.921 241.809 377.087 241.84 379.058 239.906L383.783 235.272L386.21 237.746C385.557 238.526 385.59 239.689 386.317 240.43L386.572 240.69C387.346 241.479 388.612 241.491 389.401 240.717L391.47 238.688C392.259 237.914 392.271 236.648 391.497 235.859L391.242 235.599C390.515 234.858 389.353 234.802 388.561 235.44L386.134 232.966L390.671 228.516L393.099 230.99C392.445 231.77 392.478 232.933 393.205 233.674L393.46 233.934C394.234 234.723 395.5 234.735 396.289 233.962L398.358 231.932C399.147 231.158 399.159 229.892 398.386 229.103L398.13 228.843C397.403 228.102 396.241 228.047 395.45 228.684L393.022 226.21L397.559 221.76L399.986 224.235C399.333 225.014 399.366 226.177 400.093 226.918L400.348 227.178C401.121 227.967 402.388 227.979 403.176 227.206L405.246 225.176C406.034 224.402 406.047 223.136 405.273 222.348L405.018 222.087C404.291 221.346 403.129 221.291 402.337 221.929L399.91 219.454L402.975 216.448C404.947 214.514 404.977 211.349 403.044 209.377L383.112 189.055Z" fill="#F16B38"/>
<ellipse cx="257.726" cy="331.973" rx="25.826" ry="20.3783" transform="rotate(45.5545 257.726 331.973)" fill="black"/>
<rect x="376.547" y="212.932" width="3.56745" height="211.605" rx="1" transform="rotate(45.5545 376.547 212.932)" fill="white"/>
<rect x="381.056" y="217.529" width="3.56745" height="211.605" rx="1" transform="rotate(45.5545 381.056 217.529)" fill="white"/>
<rect x="372.038" y="208.334" width="3.56745" height="211.605" rx="1" transform="rotate(45.5545 372.038 208.334)" fill="white"/>
<rect x="212.433" y="342.62" width="48.2286" height="8.33912" rx="2" transform="rotate(45.5545 212.433 342.62)" fill="black"/>
</svg>
