<svg width="1440" height="838" viewBox="0 0 1440 838" fill="none" xmlns="http://www.w3.org/2000/svg">
<g clip-path="url(#clip0_654_2)">
<rect width="1440" height="838" fill="#69235C"/>
<ellipse cx="1300.78" cy="303.241" rx="8.65753" ry="4.19364" fill="#5EB9EC"/>
<ellipse cx="1188.59" cy="429.103" rx="8.65753" ry="4.19364" fill="#5EB9EC"/>
<ellipse cx="1327.9" cy="724.461" rx="8.65753" ry="4.19364" fill="#5EB9EC"/>
<ellipse cx="1360.99" cy="554.284" rx="8.65753" ry="4.19364" fill="#F7382C"/>
<ellipse cx="307.658" cy="66.1936" rx="8.65753" ry="4.19364" fill="#F7382C"/>
<ellipse cx="1150.12" cy="691.54" rx="8.65753" ry="4.19364" fill="#F7382C"/>
<ellipse cx="1056.71" cy="244.056" rx="8.65753" ry="4.19364" fill="#F7382C"/>
<ellipse cx="1213.66" cy="167.194" rx="8.65753" ry="4.19364" fill="#F7382C"/>
<ellipse cx="1360.99" cy="88.7747" rx="8.65753" ry="4.19364" fill="#F7382C"/>
<ellipse cx="442.336" cy="158.543" rx="8.65753" ry="4.19364" fill="#F7382C"/>
<ellipse cx="459.658" cy="360.194" rx="8.65753" ry="4.19364" fill="#F7382C"/>
<ellipse cx="255.83" cy="209.53" rx="8.65753" ry="4.19364" fill="#F7382C"/>
<ellipse cx="66.0357" cy="410.719" rx="8.65753" ry="4.19364" fill="#F7382C"/>
<ellipse cx="279.856" cy="724.461" rx="8.65753" ry="4.19364" fill="#F7382C"/>
<ellipse cx="74.6934" cy="764.34" rx="8.65753" ry="4.19364" fill="#F9ED32"/>
<ellipse cx="205.658" cy="528.194" rx="8.65753" ry="4.19364" fill="#F9ED32"/>
<ellipse cx="132.523" cy="209.53" rx="8.65753" ry="4.19364" fill="#F9ED32"/>
<ellipse cx="613.391" cy="480.554" rx="8.65753" ry="4.19364" fill="#F9ED32"/>
<ellipse cx="539.032" cy="278.729" rx="8.65753" ry="4.19364" fill="#F9ED32"/>
<ellipse cx="726.257" cy="58.2859" rx="8.65753" ry="4.19364" fill="#F9ED32"/>
<ellipse cx="884.202" cy="250.848" rx="8.65753" ry="4.19364" fill="#F9ED32"/>
<ellipse cx="961.658" cy="106.194" rx="8.65753" ry="4.19364" fill="#F9ED32"/>
<ellipse cx="1405.72" cy="435.231" rx="8.65753" ry="4.19364" fill="#F9ED32"/>
<ellipse cx="621.658" cy="745.194" rx="8.65753" ry="4.19364" fill="#F9ED32"/>
<ellipse cx="1028.77" cy="602.149" rx="8.65753" ry="4.19364" fill="#F9ED32"/>
<ellipse cx="801.658" cy="655.194" rx="8.65753" ry="4.19364" fill="#F9ED32"/>
<ellipse cx="1360.99" cy="202.484" rx="8.65753" ry="4.19364" fill="#F7812C"/>
<ellipse cx="429.686" cy="510.731" rx="8.65753" ry="4.19364" fill="#F7812C"/>
<ellipse cx="149.838" cy="97.9905" rx="8.65753" ry="4.19364" fill="#F7812C"/>
<ellipse cx="1196.6" cy="788.095" rx="8.65753" ry="4.19364" fill="#F7812C"/>
<ellipse cx="595.925" cy="614.405" rx="8.65753" ry="4.19364" fill="#F7812C"/>
<ellipse cx="851.658" cy="503.194" rx="8.65753" ry="4.19364" fill="#F7812C"/>
<ellipse cx="733.776" cy="290.985" rx="8.65753" ry="4.19364" fill="#5EB9EC"/>
<ellipse cx="909.504" cy="385.182" rx="8.65753" ry="4.19364" fill="#5EB9EC"/>
<ellipse cx="1045.66" cy="329.194" rx="8.65753" ry="4.19364" fill="#5EB9EC"/>
<ellipse cx="477.872" cy="596.021" rx="8.65753" ry="4.19364" fill="#5EB9EC"/>
<ellipse cx="1011.66" cy="756.194" rx="8.65753" ry="4.19364" fill="#5EB9EC"/>
<ellipse cx="784.658" cy="741.194" rx="8.65753" ry="4.19364" fill="#5EB9EC"/>
<ellipse cx="290.202" cy="416.847" rx="8.65753" ry="4.19364" fill="#5EB9EC"/>
<ellipse cx="197.235" cy="337.03" rx="8.65753" ry="4.19364" fill="#5EB9EC"/>
<ellipse cx="119.873" cy="647.264" rx="8.65753" ry="4.19364" fill="#5EB9EC"/>
<ellipse cx="378.838" cy="736.717" rx="8.65753" ry="4.19364" fill="#5EB9EC"/>
<path d="M427 892.507L721.766 -14H782.334L572.364 892.507H427Z" fill="#5A4482" fill-opacity="0.6"/>
<path d="M726 900.123L1517.43 0H1594.15L964.236 900.123H726Z" fill="#D159B6" fill-opacity="0.31"/>
<path d="M410.191 832.885L80.3513 -105H17.9997L232.524 832.885H410.191Z" fill="#893477" fill-opacity="0.51"/>
<path d="M1277.19 837.584L272.553 -80.7576L207 -40.4339L1119.87 934.361L1277.19 837.584Z" fill="#A576FB" fill-opacity="0.6"/>
<path d="M155.925 295.824C126.829 295.277 67.3989 293.947 62.4404 292.999L65.9999 340.27C90.2505 336.49 142.619 328.053 158.088 324.552C173.557 321.052 164.096 317.287 157.432 315.842C173.114 311.688 163.476 307.601 156.697 306.076C172.906 298.485 162.936 296.079 155.925 295.824Z" fill="#5EA1C9"/>
<path d="M132.494 86.9801C141.013 87.1741 144.801 103.495 145.631 111.631L112.311 176.922L-93.6865 350.713L-232.669 248.186L-243.431 193.993C-238.731 190.246 -227.127 185.057 -218.316 194.279C-209.505 203.501 -221.843 213.373 -229.114 217.157L-215.312 231.602C-213.044 223.945 -204.771 211.259 -189.823 221.762C-174.875 232.265 -188.094 244.021 -196.572 248.585L-186.394 259.237C-185.281 252.125 -179.594 240.179 -165.756 249.287C-151.918 258.394 -159.814 270.404 -165.492 275.271L-154.838 283.792C-153.31 277.309 -147.21 266.009 -135.03 272.681C-122.849 279.353 -128.146 292.155 -132.317 297.722C-127.135 302.074 -116.755 310.095 -116.692 307.355C-116.614 303.932 -115.635 298.53 -106.407 294.458C-99.025 291.2 -92.9216 303.995 -90.7927 310.8L-82.184 302.574C-88.8015 298.57 -99.3212 287.911 -88.4603 277.31C-77.5994 266.709 -67.0599 279.843 -63.1477 287.735L-51.2416 278.871C-56.7339 273.512 -65.5351 260.932 -56.8013 253.48C-48.0674 246.028 -39.0734 258.498 -35.6681 265.665L-17.209 251.098C-21.8605 246.425 -29.3607 235.634 -22.1496 229.861C-14.9384 224.087 -7.51167 234.761 -4.69971 240.82L5.8803 233.782C-0.405367 229.832 -10.3303 219.795 0.255628 211.244C10.8415 202.692 19.8382 214.211 23.0133 221.04L30.2243 217.778C25.455 212.008 17.681 199.451 24.7391 195.386C31.7971 191.322 39.6676 202.149 42.7206 208.071L48.3894 204.544C42.927 199.347 34.5519 187.259 44.7514 180.49C54.9508 173.721 63.2856 185.351 66.178 192.012L87.8216 177.285C81.6704 174.481 70.8774 166.093 76.9144 154.967C82.9514 143.841 99.6668 152.821 107.27 158.702L112.18 143.593C103.188 143.008 86.1824 138.968 90.0966 127.49C94.0109 116.012 109.026 120.565 116.044 124.276L121.257 112.599C111.663 99.4431 121.845 86.7376 132.494 86.9801Z" fill="#253464"/>
<path d="M222.398 187.366C253.796 205.721 246.578 230.202 239.045 240.148C200.499 302.341 159.786 250.174 144.248 216.316C69.3837 309.673 99.0518 445.196 -48.1836 465.065C-195.419 484.935 -283.48 118.778 -244.926 189.572C-214.082 246.207 -134.165 295.345 -98.0616 312.834C-55.0141 276.681 40.9465 199.167 80.4092 178.333C129.737 152.292 88.1394 92.1856 152.839 109.127C217.539 126.069 183.15 164.422 222.398 187.366Z" fill="#6DBBE9"/>
<ellipse cx="184.051" cy="135.112" rx="19.3306" ry="25.4209" transform="rotate(46.304 184.051 135.112)" fill="#F5F5F5"/>
<ellipse cx="177.597" cy="141.279" rx="12.5423" ry="16.4939" transform="rotate(46.304 177.597 141.279)" fill="black"/>
<ellipse cx="219.889" cy="161.667" rx="19.3306" ry="25.4209" transform="rotate(46.304 219.889 161.667)" fill="#F5F5F5"/>
<ellipse cx="213.434" cy="167.834" rx="12.5423" ry="16.4939" transform="rotate(46.304 213.434 167.834)" fill="black"/>
<path d="M195.432 243.424C218.174 206.013 193.353 215.743 178.099 225.284C190.038 243.545 209.507 253.904 217.749 256.801C228.003 220.514 207.143 232.764 195.432 243.424Z" fill="white"/>
<path d="M222.208 258.865C209.937 254.805 182.061 239.682 168.721 211.669" stroke="black" stroke-width="3"/>
<mask id="mask0_654_2" style="mask-type:alpha" maskUnits="userSpaceOnUse" x="-254" y="106" width="500" height="360">
<path d="M222.398 187.365C253.796 205.72 246.578 230.201 239.045 240.147C200.499 302.341 159.786 250.173 144.248 216.315C69.3837 309.672 99.0518 445.195 -48.1836 465.065C-195.419 484.935 -283.48 118.777 -244.926 189.571C-214.082 246.207 -134.165 295.344 -98.0616 312.834C-55.0141 276.681 40.9465 199.166 80.4092 178.333C129.737 152.291 88.1394 92.1851 152.839 109.127C217.539 126.068 183.15 164.422 222.398 187.365Z" fill="#6DBBE9"/>
</mask>
<g mask="url(#mask0_654_2)">
<path d="M-39.3444 381.791C5.43457 339.005 51.1464 364.433 68.4049 382.496C81.0935 413.658 -38.477 548.409 -79.4544 480.488C-120.432 412.566 -95.3181 435.273 -39.3444 381.791Z" fill="#A8E2FB"/>
</g>
<rect x="42.4548" y="401.839" width="3.79376" height="19.0368" transform="rotate(35.6208 42.4548 401.839)" fill="#253464"/>
<rect x="2.7395" y="413.396" width="3.79376" height="19.0368" transform="rotate(53.1914 2.7395 413.396)" fill="#253464"/>
<rect x="40.3005" y="385.588" width="3.79376" height="19.0368" transform="rotate(52.5672 40.3005 385.588)" fill="#253464"/>
<rect x="12.4238" y="391.049" width="3.79376" height="19.0368" transform="rotate(53.1914 12.4238 391.049)" fill="#253464"/>
<rect x="15.5742" y="426.638" width="3.79376" height="19.0368" transform="rotate(44.8703 15.5742 426.638)" fill="#253464"/>
<rect x="6.88354" y="370.45" width="3.79376" height="19.0368" transform="rotate(54.1809 6.88354 370.45)" fill="#253464"/>
<path d="M-5.92359 360.532C1.59913 332.421 17.1723 275.051 19.2835 270.466L-27.4579 262.562C-29.6155 287.01 -34.0104 339.872 -34.3296 355.729C-34.6488 371.586 -28.721 363.307 -25.7171 357.185C-25.4535 373.405 -19.1697 365.032 -16.0607 358.818C-12.5872 376.376 -7.85533 367.277 -5.92359 360.532Z" fill="#5EA1C9"/>
<path fill-rule="evenodd" clip-rule="evenodd" d="M551.803 654.15H560.887V820.952L604.724 857.736L598.886 864.694L560.887 832.809V865.158H551.803V833.065L513.736 865.007L507.897 858.049L551.803 821.208V654.15Z" fill="black"/>
<path d="M556.311 611.636L643.634 665.243H468.987L556.311 611.636Z" fill="#F9ED32"/>
<path fill-rule="evenodd" clip-rule="evenodd" d="M968.006 775.517H977.089V873.487L1020.93 910.272L1015.09 917.23L977.089 885.345V917.694H968.006V885.601L929.938 917.543L924.1 910.585L968.006 873.743V775.517Z" fill="black"/>
<rect x="889.617" y="713.561" width="160.223" height="89.9346" rx="5" fill="#F16B38"/>
<mask id="mask1_654_2" style="mask-type:alpha" maskUnits="userSpaceOnUse" x="889" y="715" width="161" height="91">
<rect x="889.617" y="715.075" width="160.223" height="89.9346" rx="5" fill="#E24536"/>
</mask>
<g mask="url(#mask1_654_2)">
<path d="M887.976 770.237L916.566 749.848L944.264 770.237L972.408 749.848L996.979 770.237L1025.57 749.848L1051.48 770.237" stroke="white"/>
</g>
<path fill-rule="evenodd" clip-rule="evenodd" d="M463.749 772.834H472.832V870.805L516.67 907.589L510.831 914.547L472.832 882.662V915.012H463.749V882.919L425.682 914.861L419.843 907.903L463.749 871.062V772.834Z" fill="black"/>
<rect x="385.359" y="710.878" width="160.223" height="89.9346" rx="5" fill="#F16B38"/>
<mask id="mask2_654_2" style="mask-type:alpha" maskUnits="userSpaceOnUse" x="385" y="712" width="161" height="91">
<rect x="385.359" y="712.393" width="160.223" height="89.9346" rx="5" fill="#E24536"/>
</mask>
<g mask="url(#mask2_654_2)">
<path d="M383.718 767.555L412.309 747.165L440.007 767.555L468.151 747.165L492.721 767.555L521.312 747.165L547.223 767.555" stroke="white"/>
</g>
<circle cx="717.647" cy="791.101" r="137.577" fill="#F16B38"/>
<circle cx="717.646" cy="791.101" r="110.635" fill="white"/>
<path d="M716.511 712.823L732.57 766.668H784.539L742.495 799.946L758.554 853.791L716.511 820.513L674.468 853.791L690.527 799.946L648.484 766.668H700.452L716.511 712.823Z" fill="#F9ED32"/>
<path d="M361.998 715.456C339.64 729.138 294.049 757.26 290.55 760.295L276.083 719.778C296.262 711.86 339.937 694.987 353.206 690.832C366.475 686.678 360.512 694.078 355.872 698.298C369.543 694.584 363.561 702.331 358.86 706.668C374.193 705.543 367.341 712.058 361.998 715.456Z" fill="#76A92C"/>
<path d="M197.884 548.719C208.778 530.895 232.08 540.669 242.369 547.784L195.598 729.301L119.703 835.823L4.77641 759.933C8.01077 752.414 18.763 738.474 35.897 742.865C53.031 747.257 52.2675 768.54 49.7441 778.632C53.6263 770.571 65.5488 755.762 82.1803 761.019C98.8118 766.277 98.3236 784.7 96.0005 793.255L117.548 791.098C111.057 783.601 100.295 766.105 109.175 756.1C118.054 746.095 133.369 748.587 139.916 751.084C131.326 747.514 115.692 735.483 121.878 715.914C128.064 696.345 149.415 694.51 159.317 696.039C149.33 692.668 131.304 681.034 139.092 661.459C146.881 641.884 168.596 645.588 178.48 649.887C169.237 642.054 153.752 621.955 165.759 604.226C177.766 586.498 197.414 593.306 205.736 598.927C198.58 589.618 186.99 566.544 197.884 548.719Z" fill="#F9ED32"/>
<path d="M418.962 555.476C413.288 517.961 391.314 527.387 381.036 536.79C351.371 539.605 287.105 543.858 267.356 538.345C242.67 531.453 216.378 560.544 205.476 574.431C196.754 585.54 140.547 721.455 113.533 788.024C68.8291 791.407 9.81355 756.453 -14.1062 738.553C7.9071 844.034 157.421 888.071 234.197 906.759C295.618 921.71 297.221 758.862 290.345 675.569C299.993 673.409 330.28 668.992 374.236 668.599C429.183 668.107 426.054 602.371 418.962 555.476Z" fill="#84BC33"/>
<mask id="mask3_654_2" style="mask-type:alpha" maskUnits="userSpaceOnUse" x="-15" y="528" width="438" height="380">
<path d="M418.962 555.476C413.288 517.961 391.314 527.387 381.036 536.79C351.371 539.605 287.105 543.858 267.356 538.345C242.67 531.453 216.378 560.544 205.476 574.431C196.754 585.54 140.547 721.455 113.533 788.024C68.8291 791.407 9.81355 756.453 -14.1062 738.553C7.9071 844.034 157.421 888.071 234.197 906.759C295.618 921.71 297.221 758.862 290.345 675.569C299.993 673.409 330.28 668.992 374.236 668.599C429.183 668.107 426.054 602.371 418.962 555.476Z" fill="#84BC33"/>
</mask>
<g mask="url(#mask3_654_2)">
<ellipse cx="60.0321" cy="106.445" rx="60.0321" ry="106.445" transform="matrix(-0.953494 -0.301413 -0.301413 0.953494 332.064 762.753)" fill="#BDDB91"/>
</g>
<path d="M387.559 616.821C409.336 650.841 417.903 624.782 419.465 607.414C408.276 611.174 397.633 614.279 387.559 616.821C387.463 616.671 387.367 616.52 387.271 616.368C387.25 616.548 387.228 616.728 387.205 616.91C325.707 632.365 285.474 626.806 271.716 621.161C272.149 654.355 289.769 638.941 298.524 627.085C303.986 658.196 319.48 640.001 326.544 627.015C338.345 660.538 350.363 638.795 354.896 623.734C376.009 656.643 385.172 633.217 387.205 616.91C387.323 616.88 387.441 616.851 387.559 616.821Z" fill="#D9D9D9"/>
<path d="M422.009 605.969C382.81 620.811 294.608 642.781 255.386 611.922" stroke="black" stroke-width="3"/>
<ellipse cx="14.1983" cy="20.9232" rx="14.1983" ry="20.9232" transform="matrix(-0.953494 -0.301413 -0.301413 0.953494 313.989 520.75)" fill="#F5F5F5"/>
<ellipse cx="9.2123" cy="13.5756" rx="9.2123" ry="13.5756" transform="matrix(-0.953494 -0.301413 -0.301413 0.953494 304.464 534.014)" fill="black"/>
<ellipse cx="14.1983" cy="20.9232" rx="14.1983" ry="20.9232" transform="matrix(-0.953494 -0.301413 -0.301413 0.953494 352.283 520.667)" fill="#F5F5F5"/>
<ellipse cx="9.2123" cy="13.5756" rx="9.2123" ry="13.5756" transform="matrix(-0.953494 -0.301413 -0.301413 0.953494 343.839 533.747)" fill="black"/>
<ellipse cx="11.5853" cy="9.54183" rx="11.5853" ry="9.54183" transform="matrix(-0.511977 -0.858999 -0.797196 0.60372 234.13 624.262)" fill="#F9ED32"/>
<ellipse cx="8.05987" cy="6.63825" rx="8.05987" ry="6.63825" transform="matrix(-0.511977 -0.858999 -0.797196 0.60372 240.016 590.917)" fill="#F9ED32"/>
<ellipse cx="8.05987" cy="6.63825" rx="8.05987" ry="6.63825" transform="matrix(-0.511977 -0.858999 -0.797196 0.60372 218.142 597.435)" fill="#F9ED32"/>
<rect width="2.79163" height="15.6456" transform="matrix(0.985307 0.170795 0.19749 -0.980305 254.296 844.086)" fill="#76A92C"/>
<rect width="2.78673" height="15.6676" transform="matrix(0.944669 0.328026 0.322629 -0.946526 270.279 832.35)" fill="#76A92C"/>
<rect width="2.79319" height="15.6386" transform="matrix(0.988415 0.151775 0.182307 -0.983242 275.603 792.219)" fill="#76A92C"/>
<rect width="2.78734" height="15.6649" transform="matrix(0.968426 0.249303 0.259964 -0.965618 228.282 831.198)" fill="#76A92C"/>
<rect width="2.78734" height="15.6649" transform="matrix(0.968426 0.249303 0.259964 -0.965618 214.409 831.635)" fill="#76A92C"/>
<rect width="2.78734" height="15.6649" transform="matrix(0.968426 0.249303 0.259964 -0.965618 244.733 810.062)" fill="#76A92C"/>
<rect width="2.79091" height="15.6488" transform="matrix(0.90859 0.41769 0.394653 -0.91883 259.681 816.329)" fill="#76A92C"/>
<rect width="2.79717" height="15.6207" transform="matrix(0.993772 0.111429 0.149988 -0.988688 238.229 784.297)" fill="#76A92C"/>
<rect width="2.79717" height="15.6207" transform="matrix(0.993772 0.111429 0.149988 -0.988688 227.793 804.32)" fill="#76A92C"/>
<rect width="2.7894" height="15.6556" transform="matrix(0.918212 0.39609 0.3772 -0.926132 257.833 786.689)" fill="#76A92C"/>
<path d="M161.591 667.909C179.128 686.053 215.083 722.966 218.602 725.467L187.187 755.906C175.196 737.853 149.472 698.678 142.499 686.408C135.526 674.139 143.453 677.557 148.288 680.8C141.593 667.943 149.825 671.25 154.778 674.511C149.903 658.94 157.289 663.622 161.591 667.909Z" fill="#76A92C"/>
<path fill-rule="evenodd" clip-rule="evenodd" d="M328.741 261.774C327.083 259.566 323.948 259.121 321.741 260.78L311.872 268.193L307.997 263.035L309.088 262.216C309.971 261.552 310.149 260.298 309.486 259.415L306.996 256.101C306.333 255.218 305.079 255.04 304.196 255.704L297.101 261.034C296.218 261.697 296.04 262.951 296.703 263.834L299.193 267.148C299.856 268.031 301.11 268.209 301.993 267.546L303.084 266.726L306.959 271.885L297.477 279.008L293.602 273.849L294.693 273.029C295.576 272.366 295.754 271.112 295.091 270.229L292.601 266.915C291.938 266.032 290.684 265.854 289.801 266.517L282.706 271.847C281.823 272.511 281.645 273.764 282.309 274.647L284.798 277.961C285.461 278.844 286.715 279.022 287.598 278.359L288.689 277.54L292.564 282.699L283.083 289.821L279.208 284.663L280.299 283.843C281.182 283.18 281.36 281.926 280.697 281.043L278.207 277.729C277.544 276.846 276.29 276.668 275.407 277.332L268.312 282.662C267.429 283.325 267.251 284.579 267.914 285.462L270.404 288.776C271.067 289.659 272.321 289.837 273.204 289.173L274.295 288.354L278.17 293.512L264.832 303.532C262.625 305.191 262.179 308.325 263.838 310.533L266.701 314.344L163.699 391.724C129.91 361.93 85.0376 354.931 54.9193 377.557C39.4971 389.143 30.4582 406.607 27.8878 426.363C-7.32086 411.638 -44.8539 413.157 -72.7185 434.091C-119.495 469.231 -121.312 545.775 -76.777 605.055C-32.2424 664.336 41.7796 683.905 88.5556 648.765C116.42 627.831 128.331 592.205 123.992 554.289C143.682 557.321 162.973 553.503 178.395 541.917C208.513 519.29 214.286 474.244 195.079 433.494L298.081 356.114L300.945 359.927C302.604 362.135 305.738 362.58 307.946 360.922L321.283 350.902L325.156 356.058L324.065 356.878C323.182 357.541 323.004 358.795 323.667 359.678L326.157 362.992C326.82 363.875 328.074 364.053 328.957 363.39L336.052 358.06C336.935 357.396 337.113 356.143 336.45 355.259L333.96 351.946C333.297 351.063 332.043 350.884 331.16 351.548L330.07 352.367L326.196 347.211L335.678 340.088L339.552 345.244L338.46 346.064C337.577 346.727 337.399 347.981 338.062 348.864L340.552 352.178C341.215 353.061 342.469 353.239 343.352 352.576L350.447 347.246C351.33 346.582 351.508 345.329 350.845 344.446L348.355 341.132C347.692 340.249 346.438 340.07 345.555 340.734L344.465 341.553L340.591 336.397L350.073 329.274L353.946 334.43L352.855 335.25C351.972 335.913 351.794 337.167 352.457 338.05L354.947 341.364C355.61 342.247 356.864 342.425 357.747 341.761L364.842 336.431C365.725 335.768 365.903 334.514 365.24 333.631L362.75 330.317C362.087 329.434 360.833 329.256 359.95 329.919L358.859 330.739L354.986 325.583L364.854 318.169C367.062 316.511 367.507 313.376 365.849 311.168L328.741 261.774Z" fill="#F16B38"/>
<ellipse cx="64.4278" cy="498.974" rx="48.1941" ry="38.0282" transform="rotate(53.0842 64.4278 498.974)" fill="black"/>
<rect x="313.358" y="307.802" width="6.65725" height="394.878" rx="1" transform="rotate(53.0842 313.358 307.802)" fill="white"/>
<rect x="320.576" y="317.409" width="6.65725" height="394.878" rx="1" transform="rotate(53.0842 320.576 317.409)" fill="white"/>
<rect x="306.141" y="298.195" width="6.65725" height="394.878" rx="1" transform="rotate(53.0842 306.141 298.195)" fill="white"/>
<rect x="-21.9697" y="507.596" width="89.9999" height="15.5617" rx="2" transform="rotate(53.0842 -21.9697 507.596)" fill="black"/>
<path d="M1033.62 706.94C1057.14 715.428 1105.24 732.596 1109.53 733.372L1091.13 769.404C1072.92 759.002 1033.69 736.327 1022.44 728.837C1011.18 721.347 1020.01 721.291 1025.83 722.198C1014.62 714.13 1023.69 713.874 1029.63 714.754C1019.13 703.826 1027.91 704.991 1033.62 706.94Z" fill="#EEB00F"/>
<path d="M1141.06 570.378C1182.22 511.821 1137.47 526.031 1109.95 540.455L1209.42 863.128L1375.91 826.258C1368.9 782.826 1347.99 808.553 1338.4 826.845C1340.11 767.95 1303.37 797.856 1284.79 820.171C1314.11 750.87 1266.03 776.756 1238.33 798.361C1304.95 727.686 1250.05 741.338 1214.28 756.999C1268.26 708.966 1225.48 710.877 1197.34 717.837C1262.26 682.008 1215.04 681.348 1183.31 685.497C1250.52 649.405 1202.1 644.721 1169.49 646.891C1233.32 590.359 1185.68 595.705 1153.89 605.445C1213.48 570.348 1170.17 567.443 1141.06 570.378Z" fill="#EB5D3A"/>
<path d="M1072.9 535.771C1110.24 524.656 1130 538.323 1135.21 546.546C1164.05 620.431 1226.42 773.677 1245.11 795.575C1263.81 817.474 1355.18 824.269 1398.53 824.929C1313.85 855.723 1137.51 912.45 1109.5 893.01C1081.49 873.57 1070.83 809.014 1069 779.166L1080.34 635.681C1065.55 641.026 1029.96 651.722 1005.94 651.748C981.92 651.773 980.229 635.268 982.385 627.013C960.914 561.918 1026.23 549.665 1072.9 535.771Z" fill="#FCC537"/>
<mask id="mask4_654_2" style="mask-type:alpha" maskUnits="userSpaceOnUse" x="978" y="531" width="421" height="366">
<path d="M1072.9 535.771C1110.24 524.656 1130 538.323 1135.21 546.546C1164.05 620.431 1226.42 773.677 1245.11 795.575C1263.81 817.474 1355.18 824.269 1398.53 824.929C1313.85 855.723 1137.51 912.45 1109.5 893.01C1081.49 873.57 1070.83 809.014 1069 779.166L1080.34 635.681C1065.55 641.026 1029.96 651.722 1005.94 651.748C981.92 651.773 980.229 635.268 982.385 627.013C960.914 561.918 1026.23 549.665 1072.9 535.771Z" fill="#FCC537"/>
</mask>
<g mask="url(#mask4_654_2)">
<path d="M1186.85 892.46C1154 761.186 1091.58 773.122 1064.48 795.499L1094.01 918.574L1186.85 892.46Z" fill="#FDCF8C"/>
</g>
<ellipse cx="16.7967" cy="21.3766" rx="16.7967" ry="21.3766" transform="matrix(-0.962642 0.270777 0.270777 0.962642 1069.34 507.943)" fill="#F5F5F5"/>
<ellipse cx="10.8982" cy="13.8698" rx="10.8982" ry="13.8698" transform="matrix(-0.962642 0.270777 0.270777 0.962642 1067.73 523.993)" fill="black"/>
<ellipse cx="16.7967" cy="21.3766" rx="16.7967" ry="21.3766" transform="matrix(-0.962642 0.270777 0.270777 0.962642 1030.85 512.16)" fill="#F5F5F5"/>
<ellipse cx="10.8982" cy="13.8698" rx="10.8982" ry="13.8698" transform="matrix(-0.962642 0.270777 0.270777 0.962642 1029.24 528.21)" fill="black"/>
<path d="M1008.18 624.581C985.307 576.211 982.666 624.726 981.905 627.365C1030.03 625.275 1053.84 614.971 1059.73 610.081C1075.78 618.42 1103.03 627.342 1083.67 596.314C1099.03 601.614 1123.61 605.208 1099.09 577.185C1096.03 584.109 1083.87 600.383 1059.73 610.081C1035.03 584.245 1031.4 605.846 1032.67 619.876C1016.95 592.483 1009.79 611.599 1008.18 624.581Z" fill="white"/>
<path d="M981.986 627.354C1014.78 627.229 1084.82 615.639 1102.65 570.281" stroke="black" stroke-width="3"/>
<ellipse cx="11.3393" cy="8.80886" rx="11.3393" ry="8.80886" transform="matrix(-0.962642 0.270777 0.270777 0.962642 1274.82 828.233)" fill="#EB5D3A"/>
<ellipse cx="7.88874" cy="6.12833" rx="7.88874" ry="6.12833" transform="matrix(-0.962642 0.270777 0.270777 0.962642 1247.42 814.587)" fill="#EB5D3A"/>
<ellipse cx="7.88874" cy="6.12833" rx="7.88874" ry="6.12833" transform="matrix(-0.962642 0.270777 0.270777 0.962642 1245.4 836.51)" fill="#EB5D3A"/>
<rect width="3.29286" height="16.0267" transform="matrix(-0.995621 0.0934847 0.0815906 0.996666 1086.51 801.205)" fill="#FCC537"/>
<rect width="3.29495" height="16.0159" transform="matrix(-0.924693 0.380714 0.387918 0.921694 1109.67 825.569)" fill="#FCC537"/>
<rect width="3.29521" height="16.0146" transform="matrix(-0.928658 0.370936 0.377528 0.925998 1102.43 792.165)" fill="#FCC537"/>
<rect width="3.29495" height="16.0159" transform="matrix(-0.924693 0.380714 0.387918 0.921694 1120.68 807.932)" fill="#FCC537"/>
<rect width="3.29621" height="16.0094" transform="matrix(-0.94891 0.315545 0.318549 0.947906 1143.57 820.752)" fill="#FCC537"/>
<path d="M1138.69 786.048C1144.78 762.145 1157.05 713.276 1157.37 709.027L1196.14 721.626C1187.52 740.681 1168.67 781.773 1162.25 793.705C1155.84 805.636 1154.82 797.129 1155.11 791.383C1148.1 803.355 1146.85 794.636 1147.1 788.781C1137.1 800.479 1137.33 791.833 1138.69 786.048Z" fill="#EEB00F"/>
<path d="M1086.59 43.1246H374.452C262.728 49.7561 329.868 92.5049 374.452 105.184C287.694 122.8 314.681 147.579 374.452 159.235C273.235 172.047 324.033 212.027 374.452 215.289H1086.59C1161.78 215.289 1136.58 163.116 1086.59 159.235C1170.45 141.618 1134.51 105.184 1086.59 105.184C1144.43 81.1607 1131.39 43.1246 1086.59 43.1246Z" fill="#84BC33"/>
<path d="M446.035 156.4C446.035 160.24 449.203 163.408 453.043 163.408C456.883 163.408 459.955 160.24 459.955 156.4V107.152H482.035C485.395 107.152 488.275 104.368 488.275 100.912C488.275 97.3603 485.395 94.5763 482.035 94.5763H453.139C448.627 94.5763 446.035 97.0723 446.035 101.68V156.4ZM503.887 163.6C506.863 163.6 509.359 162.064 510.895 159.76C525.967 137.104 536.623 121.552 541.231 113.104C540.367 120.016 540.175 130.48 540.175 156.496C540.175 160.336 543.343 163.6 547.183 163.6C551.023 163.6 554.095 160.432 554.095 156.592V102.256C554.095 97.6483 550.351 93.7123 545.743 93.7123C542.767 93.7123 540.271 95.3443 538.831 97.4563C522.223 122.416 513.775 134.992 508.399 144.784C509.167 138.064 509.455 129.424 509.455 100.816C509.455 96.9763 506.287 93.7123 502.543 93.7123C498.703 93.7123 495.535 96.8803 495.535 100.72V155.056C495.535 159.664 499.375 163.6 503.887 163.6ZM587.802 163.408C591.642 163.408 594.81 160.24 594.81 156.4V107.152H607.002C610.362 107.152 613.242 104.368 613.242 100.912C613.242 97.3603 610.362 94.5763 607.002 94.5763H568.698C565.242 94.5763 562.362 97.3603 562.362 100.912C562.362 104.368 565.242 107.152 568.698 107.152H580.89V156.4C580.89 160.24 583.962 163.408 587.802 163.408ZM648.926 101.104C647.39 96.9763 644.318 94.0003 640.286 94.0003H636.542C632.99 94.0003 629.822 97.1683 628.382 101.104L609.278 154.288C608.894 155.248 608.798 156.112 608.798 156.976C608.798 161.008 612.446 163.408 615.806 163.408C618.59 163.408 620.99 161.968 622.142 158.608C623.39 154.672 624.638 151.12 625.694 147.76H651.038C652.19 151.024 653.342 154.576 654.59 158.416C655.646 161.68 658.046 163.408 661.022 163.408C664.67 163.408 668.606 160.624 668.606 156.496C668.606 155.632 668.414 154.768 668.126 153.904L648.926 101.104ZM629.438 136.336C636.254 115.12 637.79 108.496 638.174 104.08C638.654 108.88 640.382 115.024 647.294 136.336H629.438ZM718.194 126.544C722.994 123.28 726.066 118.576 726.066 112.816C726.066 101.776 715.986 93.6163 701.394 93.6163C688.146 93.6163 679.218 100.336 676.818 106.96C676.434 108.016 676.242 108.976 676.242 109.84C676.242 114.064 679.794 116.944 683.25 116.944C685.458 116.944 687.666 115.696 688.818 112.912C690.45 108.88 694.866 106.288 700.818 106.288C707.634 106.288 712.146 109.456 712.146 113.872C712.146 116.944 709.074 121.744 701.298 121.744H699.474C695.442 121.744 693.426 124.912 693.426 127.984C693.426 130.864 695.442 133.744 699.09 133.744H700.914C708.882 133.744 714.834 136.144 714.834 142C714.834 147.376 709.938 151.024 701.394 151.024C695.634 151.024 689.778 149.2 687.954 143.824C686.994 140.944 684.69 139.696 682.29 139.696C678.93 139.696 675.282 142.384 675.282 146.704C675.282 147.568 675.378 148.432 675.666 149.392C678.162 157.36 689.106 163.696 702.258 163.696C718.77 163.696 728.85 153.808 728.85 142.288C728.85 134.32 723.762 128.848 718.194 126.544ZM774.551 101.104C773.015 96.9763 769.943 94.0003 765.911 94.0003H762.167C758.615 94.0003 755.447 97.1683 754.007 101.104L734.903 154.288C734.519 155.248 734.423 156.112 734.423 156.976C734.423 161.008 738.071 163.408 741.431 163.408C744.215 163.408 746.615 161.968 747.767 158.608C749.015 154.672 750.263 151.12 751.319 147.76H776.663C777.815 151.024 778.967 154.576 780.215 158.416C781.271 161.68 783.671 163.408 786.647 163.408C790.295 163.408 794.231 160.624 794.231 156.496C794.231 155.632 794.039 154.768 793.751 153.904L774.551 101.104ZM755.063 136.336C761.879 115.12 763.415 108.496 763.799 104.08C764.279 108.88 766.007 115.024 772.919 136.336H755.063ZM831.723 162.736C848.139 162.736 856.587 154 856.587 142.288C856.587 133.84 851.403 127.12 843.915 125.776C848.619 124.24 852.747 119.92 852.747 111.568C852.747 100.624 844.491 94.5763 829.899 94.5763H810.987C806.283 94.5763 803.691 97.1683 803.691 101.872V155.44C803.691 160.144 806.283 162.736 810.987 162.736H831.723ZM817.611 106.48H829.899C835.179 106.48 838.731 109.168 838.731 114.352C838.731 119.632 835.275 122.224 829.899 122.224H817.611V106.48ZM817.611 132.784H831.819C838.443 132.784 842.571 136.336 842.571 142C842.571 147.376 838.347 150.832 831.723 150.832H817.611V132.784ZM866.41 156.4C866.41 160.24 869.578 163.408 873.418 163.408C877.258 163.408 880.33 160.24 880.33 156.4V141.232H893.098C908.362 141.232 919.21 132.016 919.21 117.52C919.21 102.736 908.362 94.5763 893.962 94.5763H873.322C868.906 94.5763 866.41 97.0723 866.41 101.488V156.4ZM880.33 107.248H893.962C900.394 107.248 905.29 111.088 905.29 117.904C905.29 124.72 900.394 128.464 893.962 128.464H880.33V107.248ZM956.306 162.736C970.706 162.736 981.554 154.576 981.554 139.792C981.554 125.296 970.706 116.08 955.442 116.08H942.674V100.72C942.674 96.8803 939.506 93.7123 935.762 93.7123C931.922 93.7123 928.754 96.8803 928.754 100.72V154.48C928.754 159.856 931.73 162.736 937.01 162.736H956.306ZM990.194 156.4C990.194 161.008 993.746 163.312 997.202 163.312C1000.66 163.312 1004.11 161.008 1004.11 156.4V100.912C1004.11 96.3043 1000.66 94.0003 997.202 94.0003C993.746 94.0003 990.194 96.3043 990.194 100.912V156.4ZM942.674 128.848H956.306C962.738 128.848 967.634 132.592 967.634 139.408C967.634 146.224 962.738 150.064 956.306 150.064H942.674V128.848Z" fill="white"/>
<path d="M1221.62 263.665C1239.2 280.691 1274.98 315.597 1277.48 319.024L1302.41 287.914C1285.33 276.33 1248.29 251.48 1236.77 244.759C1225.25 238.039 1228.91 245.781 1232.17 250.492C1220.15 244.051 1223.73 252.093 1227.03 256.919C1212.7 252.289 1217.45 259.488 1221.62 263.665Z" fill="#C03226"/>
<path fill-rule="evenodd" clip-rule="evenodd" d="M1448.97 483.489L1450.75 483.035L1437.34 411.431L1411.64 417.971L1428 469.143C1427.61 469.227 1427.21 469.312 1426.81 469.399C1404.82 474.093 1407.92 486.984 1412.21 492.843L1448.97 483.489Z" fill="#C03226"/>
<path fill-rule="evenodd" clip-rule="evenodd" d="M1407.59 486.105L1409.37 485.651L1395.96 414.047L1370.26 420.587L1386.62 471.759C1386.23 471.843 1385.83 471.928 1385.43 472.015C1363.44 476.709 1366.54 489.6 1370.83 495.459L1407.59 486.105Z" fill="#C03226"/>
<path d="M1310.42 82.0661C1313.17 57.477 1299.72 65.0434 1292.66 71.9002L1348.88 278.707L1499.16 375.339L1557.7 368.687C1556.92 328.216 1542.73 350.056 1535.72 366.035L1514.77 361.064C1521.96 319.482 1503.2 336.91 1492.93 350.822L1475.85 334.101C1505.79 306.332 1480.76 307.205 1464.5 311.112L1455.39 294.197C1461.16 253.526 1442.66 270.568 1432.69 284.173L1414.06 282.96C1407.36 246.561 1396.34 267.318 1391.67 282.247L1374.24 272.255C1390.69 242.605 1372.26 249.784 1360.99 257.079L1352.56 236.554C1376.33 215.485 1357.73 212.797 1345.47 214.086L1340.82 195.806C1366.16 181.663 1348.39 178.157 1336.33 178.171L1333.84 163.004C1357.08 149.946 1341.9 146.375 1331.4 146.221L1329.68 132.235C1352.49 120.384 1336.48 116.687 1325.63 116.32L1322.56 104.277C1340.19 87.8839 1325.99 86.842 1316.68 88.3702L1310.42 82.0661Z" fill="#253464"/>
<path d="M1274.47 165.547C1283.93 162.442 1287.32 156.551 1287.84 153.994C1291.45 189.536 1257.11 286.769 1267.83 396.207C1278.67 506.916 1447.65 424.937 1564.36 368.005C1414.19 351.655 1516.3 276.3 1403.33 280.563C1338.46 283.011 1340.16 130.779 1322.35 92.8035C1304.53 54.8279 1245.39 68.4216 1212.73 81.9725C1180.08 95.5233 1181.66 130.351 1191.84 158.914C1202.02 187.478 1262.65 169.429 1274.47 165.547Z" fill="#E53D30"/>
<mask id="mask5_654_2" style="mask-type:alpha" maskUnits="userSpaceOnUse" x="1185" y="68" width="380" height="384">
<path d="M1274.47 165.547C1283.93 162.442 1287.32 156.551 1287.84 153.994C1291.45 189.536 1257.11 286.769 1267.83 396.207C1278.67 506.916 1447.65 424.937 1564.36 368.005C1414.19 351.655 1516.3 276.3 1403.33 280.563C1338.46 283.011 1340.16 130.779 1322.35 92.8035C1304.53 54.8279 1245.39 68.4216 1212.73 81.9725C1180.08 95.5233 1181.66 130.351 1191.84 158.914C1202.02 187.478 1262.65 169.429 1274.47 165.547Z" fill="#E53D30"/>
</mask>
<g mask="url(#mask5_654_2)">
<path d="M1365.32 453.661C1356.72 299.536 1290.21 306.255 1258.03 328.88L1261.55 461.437L1365.32 453.661Z" fill="#F39077"/>
</g>
<ellipse cx="1254.4" cy="81.0612" rx="14.0981" ry="18.5398" transform="rotate(-14.2772 1254.4 81.0612)" fill="#F5F5F5"/>
<ellipse cx="1254.79" cy="88.5918" rx="9.14727" ry="12.0292" transform="rotate(-14.2772 1254.79 88.5918)" fill="black"/>
<ellipse cx="1223.4" cy="85.5559" rx="14.0981" ry="18.5398" transform="rotate(-14.2772 1223.4 85.5559)" fill="#F5F5F5"/>
<ellipse cx="1225.49" cy="93.1035" rx="9.14727" ry="12.0292" transform="rotate(-14.2772 1225.49 93.1035)" fill="black"/>
<rect x="1288.6" y="431.085" width="2.76684" height="13.8838" transform="rotate(155.04 1288.6 431.085)" fill="#E53D30"/>
<rect x="1329.29" y="435.34" width="2.76684" height="13.8838" transform="rotate(155.04 1329.29 435.34)" fill="#E53D30"/>
<rect x="1339.99" y="414.133" width="2.76684" height="13.8838" transform="rotate(155.04 1339.99 414.133)" fill="#E53D30"/>
<rect x="1295.02" y="402.852" width="2.76684" height="13.8838" transform="rotate(172.61 1295.02 402.852)" fill="#E53D30"/>
<rect x="1304" y="431.097" width="2.76684" height="13.8838" transform="rotate(171.986 1304 431.097)" fill="#E53D30"/>
<rect x="1313.37" y="414.503" width="2.76684" height="13.8838" transform="rotate(172.61 1313.37 414.503)" fill="#E53D30"/>
<rect x="1280.26" y="391.971" width="2.76684" height="13.8838" transform="rotate(164.289 1280.26 391.971)" fill="#E53D30"/>
<rect x="1278.3" y="356.015" width="2.76684" height="13.8838" transform="rotate(173.6 1278.3 356.015)" fill="#E53D30"/>
<rect x="1321.65" y="392.008" width="2.76684" height="13.8838" transform="rotate(168.495 1321.65 392.008)" fill="#E53D30"/>
<rect x="1335.26" y="392.75" width="2.76684" height="13.8838" transform="rotate(168.495 1335.26 392.75)" fill="#E53D30"/>
<rect x="1307.2" y="372.724" width="2.76684" height="13.8838" transform="rotate(168.495 1307.2 372.724)" fill="#E53D30"/>
<rect x="1291.99" y="377.939" width="2.76684" height="13.8838" transform="rotate(159.339 1291.99 377.939)" fill="#E53D30"/>
<rect x="1315.7" y="349.891" width="2.76684" height="13.8838" transform="rotate(175.694 1315.7 349.891)" fill="#E53D30"/>
<rect x="1324.33" y="368.028" width="2.76684" height="13.8838" transform="rotate(175.694 1324.33 368.028)" fill="#E53D30"/>
<rect x="1347.11" y="439.47" width="2.76684" height="13.8838" transform="rotate(175.694 1347.11 439.47)" fill="#E53D30"/>
<rect x="1296.23" y="351.53" width="2.76684" height="13.8838" transform="rotate(160.551 1296.23 351.53)" fill="#E53D30"/>
<path d="M1192.7 150.649C1196.42 140.501 1205.75 126.215 1213.42 150.094C1213.44 150.092 1213.47 150.09 1213.49 150.088C1215.94 140.01 1223.56 125.675 1234.92 147.346C1235.01 147.329 1235.11 147.312 1235.21 147.295C1235.89 136.742 1240.65 121.849 1254.77 142.861C1250.69 144.087 1243.78 145.788 1235.21 147.295C1235.2 147.48 1235.19 147.665 1235.18 147.847C1235.09 147.678 1235 147.511 1234.92 147.346C1228.52 148.463 1221.22 149.469 1213.49 150.088C1213.48 150.132 1213.47 150.176 1213.46 150.22C1213.45 150.178 1213.43 150.136 1213.42 150.094C1206.72 150.629 1199.71 150.873 1192.7 150.649Z" fill="white"/>
<path d="M1190.62 150.494C1209.57 151.805 1253.01 149.852 1275.2 131.553" stroke="black" stroke-width="3"/>
<ellipse cx="1447.27" cy="322.628" rx="10.9737" ry="8.80886" transform="rotate(-137.458 1447.27 322.628)" fill="#253464"/>
<ellipse cx="1417.85" cy="327.166" rx="7.63443" ry="6.12833" transform="rotate(-137.458 1417.85 327.166)" fill="#253464"/>
<ellipse cx="1426.12" cy="306.86" rx="7.63443" ry="6.12833" transform="rotate(-137.458 1426.12 306.86)" fill="#253464"/>
<path d="M1339.23 358.141C1355.15 339.555 1387.8 301.706 1391.07 298.995L1358.49 276.019C1347.97 293.777 1325.44 332.269 1319.43 344.178C1313.43 356.088 1320.93 351.963 1325.43 348.412C1319.74 360.809 1327.55 356.742 1332.16 353.158C1328.42 367.736 1335.31 362.554 1339.23 358.141Z" fill="#C03226"/>
<path d="M1494.75 651.434L1047.13 473.816L1130.47 287.721L1541.07 450.651L1494.75 651.434Z" fill="white"/>
<path d="M1523.41 527.238L1098.67 358.697L1130.46 287.719L1541.07 450.649L1523.41 527.238Z" fill="#2E2F35"/>
<path d="M1533.2 484.753L1116.31 319.329L1130.47 287.721L1541.07 450.651L1533.2 484.753Z" fill="#646672"/>
<ellipse cx="1139.17" cy="350.719" rx="14.5564" ry="10.9173" transform="rotate(-158.356 1139.17 350.719)" fill="#F16B38"/>
<ellipse cx="1176.74" cy="365.626" rx="14.5564" ry="10.9173" transform="rotate(-158.356 1176.74 365.626)" fill="#F16B38"/>
<ellipse cx="1437.32" cy="469.024" rx="10.9601" ry="8.2201" transform="rotate(-158.356 1437.32 469.024)" fill="#F16B38"/>
<path fill-rule="evenodd" clip-rule="evenodd" d="M1094.19 492.552L1098.02 494.072L1120.03 443.742L1128.44 447.446L1157.11 381.887L1148.7 378.21L1149.32 376.785L1145.53 375.128L1144.91 376.554L1136.84 373.027L1108.25 438.545L1116.26 442.078L1094.19 492.552ZM1196.55 533.154L1200.39 534.679L1247.62 415.671L1243.77 414.146L1196.55 533.154ZM1296.26 572.681L1300.26 574.27L1316.63 520.741L1324.98 523.33L1345.97 454.925L1337.54 452.339L1338.17 450.274L1334.22 449.061L1333.59 451.125L1324.82 448.438L1303.9 516.794L1312.59 519.49L1296.26 572.681ZM1397.06 612.676L1400.98 614.232L1417.21 556.272L1424.1 558.226L1443.42 489.328L1422.12 483.359L1402.87 552.207L1413.2 555.135L1397.06 612.676ZM1448.51 633.053L1452.38 634.622L1483.01 509.556L1478.99 508.573L1448.51 633.053ZM1351.19 594.472L1347.28 592.922L1382.87 468.805L1386.85 469.945L1351.19 594.472ZM1251.26 554.82L1247.43 553.298L1266.58 500.499L1257.47 497.16L1281.81 429.946L1290.97 433.27L1291.1 432.924L1294.99 434.335L1294.86 434.68L1302.61 437.491L1278.19 504.75L1270.46 501.919L1251.26 554.82ZM1149.71 514.519L1145.78 512.959L1196.57 394.515L1200.37 396.142L1149.71 514.519Z" fill="#2E2F35"/>
<rect x="1348.46" y="445.459" width="33.8625" height="8.16331" transform="rotate(-158.356 1348.46 445.459)" fill="#646672"/>
<rect x="1353.15" y="433.654" width="33.8625" height="8.16331" transform="rotate(-158.356 1353.15 433.654)" fill="#646672"/>
<rect x="1308" y="429.402" width="33.8625" height="8.16331" transform="rotate(-158.356 1308 429.402)" fill="#646672"/>
<rect x="1312.68" y="417.597" width="33.8625" height="8.16331" transform="rotate(-158.356 1312.68 417.597)" fill="#646672"/>
<rect x="1267.53" y="413.344" width="33.8625" height="8.16331" transform="rotate(-158.356 1267.53 413.344)" fill="#646672"/>
<rect x="1272.21" y="401.539" width="33.8625" height="8.16331" transform="rotate(-158.356 1272.21 401.539)" fill="#646672"/>
</g>
<defs>
<clipPath id="clip0_654_2">
<rect width="1440" height="838" fill="white"/>
</clipPath>
</defs>
</svg>
