<svg width="1024" height="769" viewBox="0 0 1024 769" fill="none" xmlns="http://www.w3.org/2000/svg">
<g clip-path="url(#clip0_715_2)">
<rect width="1024" height="768" transform="translate(0 0.5)" fill="#69235C"/>
<path d="M37.3889 1234.6L323.027 -82.9745L383.847 -83.4532L183.357 1233.45L37.3889 1234.6Z" fill="#5A4482" fill-opacity="0.6"/>
<path d="M838.059 805.56L174.307 -97.4232L114.893 -75.3913L695.464 858.437L838.059 805.56Z" fill="#A576FB" fill-opacity="0.6"/>
<path d="M76.8515 879.946L900.242 -44.1968L978.633 -42.9643L320.275 883.773L76.8515 879.946Z" fill="#D159B6" fill-opacity="0.31"/>
<ellipse cx="932.099" cy="327.577" rx="6.40526" ry="3.18973" fill="#5EB9EC"/>
<ellipse cx="849.095" cy="423.309" rx="6.40526" ry="3.18973" fill="#5EB9EC"/>
<ellipse cx="952.162" cy="647.962" rx="6.40526" ry="3.18973" fill="#5EB9EC"/>
<ellipse cx="976.644" cy="518.523" rx="6.40526" ry="3.18973" fill="#F7382C"/>
<ellipse cx="820.634" cy="622.922" rx="6.40526" ry="3.18973" fill="#F7382C"/>
<ellipse cx="751.519" cy="282.562" rx="6.40526" ry="3.18973" fill="#F7382C"/>
<ellipse cx="976.644" cy="164.452" rx="6.40526" ry="3.18973" fill="#F7382C"/>
<ellipse cx="296.979" cy="217.519" rx="6.40526" ry="3.18973" fill="#F7382C"/>
<ellipse cx="333.288" cy="423.309" rx="6.40526" ry="3.18973" fill="#F7382C"/>
<ellipse cx="158.993" cy="256.301" rx="6.40526" ry="3.18973" fill="#F7382C"/>
<ellipse cx="18.5732" cy="409.326" rx="6.40526" ry="3.18973" fill="#F7382C"/>
<ellipse cx="176.768" cy="647.962" rx="6.40526" ry="3.18973" fill="#F7382C"/>
<ellipse cx="24.979" cy="678.294" rx="6.40526" ry="3.18973" fill="#F9ED32"/>
<ellipse cx="201.048" cy="545.608" rx="6.40526" ry="3.18973" fill="#F9ED32"/>
<ellipse cx="67.7641" cy="256.301" rx="6.40526" ry="3.18973" fill="#F9ED32"/>
<ellipse cx="423.533" cy="462.444" rx="6.40526" ry="3.18973" fill="#F9ED32"/>
<ellipse cx="368.519" cy="308.934" rx="6.40526" ry="3.18973" fill="#F9ED32"/>
<ellipse cx="507.038" cy="141.262" rx="6.40526" ry="3.18973" fill="#F9ED32"/>
<ellipse cx="623.893" cy="287.727" rx="6.40526" ry="3.18973" fill="#F9ED32"/>
<ellipse cx="1009.74" cy="427.97" rx="6.40526" ry="3.18973" fill="#F9ED32"/>
<ellipse cx="730.852" cy="554.93" rx="6.40526" ry="3.18973" fill="#F9ED32"/>
<ellipse cx="976.644" cy="250.941" rx="6.40526" ry="3.18973" fill="#F7812C"/>
<ellipse cx="287.62" cy="485.397" rx="6.40526" ry="3.18973" fill="#F7812C"/>
<ellipse cx="80.5747" cy="171.462" rx="6.40526" ry="3.18973" fill="#F7812C"/>
<ellipse cx="855.021" cy="696.362" rx="6.40526" ry="3.18973" fill="#F7812C"/>
<ellipse cx="410.611" cy="564.252" rx="6.40526" ry="3.18973" fill="#F7812C"/>
<ellipse cx="512.6" cy="318.256" rx="6.40526" ry="3.18973" fill="#5EB9EC"/>
<ellipse cx="642.612" cy="389.903" rx="6.40526" ry="3.18973" fill="#5EB9EC"/>
<ellipse cx="323.271" cy="550.269" rx="6.40526" ry="3.18973" fill="#5EB9EC"/>
<ellipse cx="184.422" cy="413.988" rx="6.40526" ry="3.18973" fill="#5EB9EC"/>
<ellipse cx="115.641" cy="353.278" rx="6.40526" ry="3.18973" fill="#5EB9EC"/>
<ellipse cx="58.4043" cy="589.245" rx="6.40526" ry="3.18973" fill="#5EB9EC"/>
<ellipse cx="249.999" cy="657.283" rx="6.40526" ry="3.18973" fill="#5EB9EC"/>
<path d="M766.808 39.2793H271.276C193.534 43.8938 240.253 73.6401 271.276 82.4624C210.907 94.7208 229.685 111.963 271.276 120.073C200.845 128.989 236.192 156.808 271.276 159.078H766.808C819.128 159.078 801.597 122.774 766.808 120.073C825.165 107.815 800.151 82.4624 766.808 82.4624C807.054 65.7463 797.982 39.2793 766.808 39.2793Z" fill="#84BC33"/>
<path d="M375.741 111.622C375.741 113.542 377.325 115.126 379.245 115.126C381.165 115.126 382.701 113.542 382.701 111.622V86.9975H393.741C395.421 86.9975 396.861 85.6055 396.861 83.8775C396.861 82.1015 395.421 80.7095 393.741 80.7095H379.293C377.037 80.7095 375.741 81.9576 375.741 84.2615V111.622ZM404.667 115.222C406.155 115.222 407.403 114.454 408.171 113.302C415.707 101.974 421.035 94.1975 423.339 89.9735C422.907 93.4295 422.811 98.6615 422.811 111.67C422.811 113.59 424.395 115.222 426.315 115.222C428.235 115.222 429.771 113.638 429.771 111.718V84.5495C429.771 82.2455 427.899 80.2775 425.595 80.2775C424.107 80.2775 422.859 81.0935 422.139 82.1496C413.835 94.6295 409.611 100.918 406.923 105.814C407.307 102.454 407.451 98.1336 407.451 83.8295C407.451 81.9095 405.867 80.2775 403.995 80.2775C402.075 80.2775 400.491 81.8615 400.491 83.7815V110.95C400.491 113.254 402.411 115.222 404.667 115.222ZM446.625 115.126C448.545 115.126 450.129 113.542 450.129 111.622V86.9975H456.225C457.905 86.9975 459.345 85.6055 459.345 83.8775C459.345 82.1015 457.905 80.7095 456.225 80.7095H437.073C435.345 80.7095 433.905 82.1015 433.905 83.8775C433.905 85.6055 435.345 86.9975 437.073 86.9975H443.169V111.622C443.169 113.542 444.705 115.126 446.625 115.126ZM477.187 83.9735C476.419 81.9095 474.883 80.4215 472.867 80.4215H470.995C469.219 80.4215 467.635 82.0055 466.915 83.9735L457.363 110.566C457.171 111.046 457.123 111.478 457.123 111.91C457.123 113.926 458.947 115.126 460.627 115.126C462.019 115.126 463.219 114.406 463.795 112.726C464.419 110.758 465.043 108.982 465.571 107.302H478.243C478.819 108.934 479.395 110.71 480.019 112.63C480.547 114.262 481.747 115.126 483.235 115.126C485.059 115.126 487.027 113.734 487.027 111.67C487.027 111.238 486.931 110.806 486.787 110.374L477.187 83.9735ZM467.443 101.59C470.851 90.9815 471.619 87.6696 471.811 85.4616C472.051 87.8615 472.915 90.9336 476.371 101.59H467.443ZM511.821 96.6936C514.221 95.0616 515.757 92.7096 515.757 89.8295C515.757 84.3095 510.717 80.2295 503.421 80.2295C496.797 80.2295 492.333 83.5895 491.133 86.9015C490.941 87.4295 490.845 87.9096 490.845 88.3416C490.845 90.4535 492.621 91.8935 494.349 91.8935C495.453 91.8935 496.557 91.2696 497.133 89.8775C497.949 87.8615 500.157 86.5656 503.133 86.5656C506.541 86.5656 508.797 88.1496 508.797 90.3576C508.797 91.8935 507.261 94.2936 503.373 94.2936H502.461C500.445 94.2936 499.437 95.8775 499.437 97.4135C499.437 98.8535 500.445 100.294 502.269 100.294H503.181C507.165 100.294 510.141 101.494 510.141 104.422C510.141 107.11 507.693 108.934 503.421 108.934C500.541 108.934 497.613 108.022 496.701 105.334C496.221 103.894 495.069 103.27 493.869 103.27C492.189 103.27 490.365 104.614 490.365 106.774C490.365 107.206 490.413 107.638 490.557 108.118C491.805 112.102 497.277 115.27 503.853 115.27C512.109 115.27 517.149 110.326 517.149 104.566C517.149 100.582 514.605 97.8456 511.821 96.6936ZM539.999 83.9735C539.231 81.9095 537.695 80.4215 535.679 80.4215H533.807C532.031 80.4215 530.447 82.0055 529.727 83.9735L520.175 110.566C519.983 111.046 519.935 111.478 519.935 111.91C519.935 113.926 521.759 115.126 523.439 115.126C524.831 115.126 526.031 114.406 526.607 112.726C527.231 110.758 527.855 108.982 528.383 107.302H541.055C541.631 108.934 542.207 110.71 542.831 112.63C543.359 114.262 544.559 115.126 546.047 115.126C547.871 115.126 549.839 113.734 549.839 111.67C549.839 111.238 549.743 110.806 549.599 110.374L539.999 83.9735ZM530.255 101.59C533.663 90.9815 534.431 87.6696 534.623 85.4616C534.863 87.8615 535.727 90.9336 539.183 101.59H530.255ZM568.585 114.79C576.793 114.79 581.017 110.422 581.017 104.566C581.017 100.342 578.425 96.9815 574.681 96.3095C577.033 95.5415 579.097 93.3816 579.097 89.2055C579.097 83.7336 574.969 80.7095 567.673 80.7095H558.217C555.865 80.7095 554.569 82.0055 554.569 84.3576V111.142C554.569 113.494 555.865 114.79 558.217 114.79H568.585ZM561.529 86.6615H567.673C570.313 86.6615 572.089 88.0055 572.089 90.5976C572.089 93.2375 570.361 94.5335 567.673 94.5335H561.529V86.6615ZM561.529 99.8136H568.633C571.945 99.8136 574.009 101.59 574.009 104.422C574.009 107.11 571.897 108.838 568.585 108.838H561.529V99.8136ZM585.929 111.622C585.929 113.542 587.513 115.126 589.433 115.126C591.353 115.126 592.889 113.542 592.889 111.622V104.038H599.273C606.905 104.038 612.329 99.4295 612.329 92.1816C612.329 84.7896 606.905 80.7095 599.705 80.7095H589.385C587.177 80.7095 585.929 81.9576 585.929 84.1656V111.622ZM592.889 87.0456H599.705C602.921 87.0456 605.369 88.9655 605.369 92.3736C605.369 95.7815 602.921 97.6535 599.705 97.6535H592.889V87.0456ZM630.877 114.79C638.077 114.79 643.501 110.71 643.501 103.318C643.501 96.0696 638.077 91.4615 630.445 91.4615H624.061V83.7815C624.061 81.8615 622.477 80.2775 620.605 80.2775C618.685 80.2775 617.101 81.8615 617.101 83.7815V110.662C617.101 113.35 618.589 114.79 621.229 114.79H630.877ZM647.821 111.622C647.821 113.926 649.597 115.078 651.325 115.078C653.053 115.078 654.781 113.926 654.781 111.622V83.8775C654.781 81.5735 653.053 80.4215 651.325 80.4215C649.597 80.4215 647.821 81.5735 647.821 83.8775V111.622ZM624.061 97.8456H630.877C634.093 97.8456 636.541 99.7176 636.541 103.126C636.541 106.534 634.093 108.454 630.877 108.454H624.061V97.8456Z" fill="white"/>
<path d="M749.407 640.065C765.443 652.654 798.294 678.259 801.416 679.957L777.946 703.144C766.511 690.431 741.942 662.836 735.144 654.156C728.346 645.476 735.195 647.691 739.469 649.884C732.853 640.768 739.944 642.892 744.317 645.093C738.982 633.944 745.488 637.095 749.407 640.065Z" fill="#EEB00F"/>
<path d="M867.544 561.83C914.393 527.024 876.111 526.574 851.114 530.7L845.544 805.983L983.883 820.046C989.576 784.626 966.798 799.192 954.698 810.903C971.091 765.74 934.992 779.492 914.893 792.014C955.33 745.861 911.484 753.599 884.506 763.238C954.17 725.566 908.175 722.088 876.469 725.058C930.556 701.684 896.946 692.215 873.379 690.403C932.807 679.275 896.416 666.679 870.793 661.773C932.064 651.028 895.776 635.011 869.973 628.345C933.858 600.91 895.609 592.859 868.498 592.262C923.62 580.34 890.83 567.006 867.544 561.83Z" fill="#EB5D3A"/>
<path d="M823.629 517.591C855.383 518.542 867.183 534.179 869.113 541.88C872.535 606.467 881.599 741.076 890.472 762.816C899.344 784.556 968.346 813.201 1001.74 824.805C928.3 826.977 777.245 825.766 760.535 803.547C743.824 781.328 752.093 728.617 758.317 705.04L803.818 596.85C790.997 597.202 760.705 596.375 742.101 590.248C723.497 584.12 726.411 570.909 730.194 565.069C730.229 509.174 783.935 516.403 823.629 517.591Z" fill="#FCC537"/>
<mask id="mask0_715_2" style="mask-type:alpha" maskUnits="userSpaceOnUse" x="727" y="516" width="275" height="310">
<path d="M823.629 517.591C855.383 518.542 867.183 534.179 869.113 541.88C872.535 606.467 881.599 741.076 890.472 762.816C899.344 784.556 968.346 813.201 1001.74 824.805C928.3 826.977 777.245 825.766 760.535 803.547C743.824 781.328 752.093 728.617 758.317 705.04L803.818 596.85C790.997 597.202 760.705 596.375 742.101 590.248C723.497 584.12 726.411 570.909 730.194 565.069C730.229 509.174 783.935 516.403 823.629 517.591Z" fill="#FCC537"/>
</mask>
<g mask="url(#mask0_715_2)">
<path d="M820.57 822.918C828.725 712.87 777.344 706.138 750.634 716.528L742.005 819.377L820.57 822.918Z" fill="#FDCF8C"/>
</g>
<ellipse cx="13.6968" cy="17.4315" rx="13.6968" ry="17.4315" transform="matrix(-0.998986 -0.0450257 -0.0450257 0.998986 827.992 495.134)" fill="#F5F5F5"/>
<ellipse cx="8.8869" cy="11.3101" rx="8.8869" ry="11.3101" transform="matrix(-0.998986 -0.0450257 -0.0450257 0.998986 822.636 507.147)" fill="black"/>
<ellipse cx="13.6968" cy="17.4315" rx="13.6968" ry="17.4315" transform="matrix(-0.998986 -0.0450257 -0.0450257 0.998986 797.112 488.548)" fill="#F5F5F5"/>
<ellipse cx="8.8869" cy="11.3101" rx="8.8869" ry="11.3101" transform="matrix(-0.998986 -0.0450257 -0.0450257 0.998986 791.755 500.561)" fill="black"/>
<path d="M750.791 569.788C745.457 526.483 730.996 563.37 729.731 565.218C767.526 575.916 788.6 574.033 794.413 571.754C804.701 582.317 823.516 596.198 816.473 567.222C827.006 575.255 845.119 584.329 833.305 556.357C829.161 560.934 815.581 570.421 794.413 571.754C781.896 545.427 773.557 561.223 770.953 572.411C765.789 547.178 755.36 560.149 750.791 569.788Z" fill="white"/>
<path d="M729.797 565.23C755.217 573.525 812.411 582.477 837.828 551.923" stroke="black" stroke-width="3"/>
<rect width="2.68515" height="13.069" transform="matrix(-0.974656 -0.22371 -0.235331 0.971915 766.231 726.583)" fill="#FCC537"/>
<rect width="2.68686" height="13.0601" transform="matrix(-0.997457 0.0712668 0.0790482 0.996871 777.928 751.375)" fill="#FCC537"/>
<rect width="2.68707" height="13.059" transform="matrix(-0.998154 0.0607389 0.0678324 0.997697 780.871 723.659)" fill="#FCC537"/>
<rect width="2.68686" height="13.0601" transform="matrix(-0.997457 0.0712668 0.0790482 0.996871 790.969 740.538)" fill="#FCC537"/>
<rect width="2.68803" height="13.0541" transform="matrix(-0.997603 -0.0692023 -0.0708378 0.997488 766.184 761.207)" fill="#FCC537"/>
<rect width="2.68789" height="13.0548" transform="matrix(-0.999999 0.0017908 0.00495761 0.999988 805.408 756.321)" fill="#FCC537"/>
<path d="M810.512 728.203C821.346 711.255 843.348 676.557 844.685 673.35L871.48 693.028C859.927 705.574 834.815 732.565 826.796 740.162C818.778 747.759 820.164 740.91 821.859 736.536C813.37 744.012 814.631 736.941 816.323 732.471C805.584 738.968 807.975 732.333 810.512 728.203Z" fill="#EEB00F"/>
<path d="M1053.5 566.289L748.335 445.197L805.15 318.326L1085.08 429.404L1053.5 566.289Z" fill="white"/>
<path d="M1073.04 481.618L783.47 366.714L805.148 318.325L1085.08 429.403L1073.04 481.618Z" fill="#2E2F35"/>
<path d="M1079.72 452.654L795.498 339.875L805.15 318.326L1085.08 429.404L1079.72 452.654Z" fill="#646672"/>
<ellipse cx="811.085" cy="361.275" rx="9.92394" ry="7.44295" transform="rotate(-158.356 811.085 361.275)" fill="#F16B38"/>
<ellipse cx="836.696" cy="371.438" rx="9.92394" ry="7.44295" transform="rotate(-158.356 836.696 371.438)" fill="#F16B38"/>
<ellipse cx="1014.35" cy="441.93" rx="7.47213" ry="5.6041" transform="rotate(-158.356 1014.35 441.93)" fill="#F16B38"/>
<path fill-rule="evenodd" clip-rule="evenodd" d="M780.416 457.971L783.027 459.007L798.036 424.694L803.764 427.219L823.313 382.524L817.579 380.018L818.004 379.046L815.421 377.916L814.996 378.888L809.495 376.484L789.999 421.151L795.462 423.56L780.416 457.971ZM850.202 485.652L852.822 486.691L885.018 405.557L882.397 404.517L850.202 485.652ZM918.179 512.599L920.91 513.683L932.066 477.19L937.757 478.954L952.071 432.319L946.323 430.556L946.754 429.148L944.059 428.321L943.626 429.728L937.653 427.896L923.388 474.498L929.314 476.336L918.179 512.599ZM986.9 539.866L989.573 540.927L1000.64 501.413L1005.34 502.745L1018.51 455.773L1003.98 451.704L990.862 498.641L997.904 500.638L986.9 539.866ZM1021.98 553.759L1024.62 554.828L1045.5 469.564L1042.76 468.893L1021.98 553.759ZM955.626 527.455L952.963 526.398L977.23 441.781L979.94 442.558L955.626 527.455ZM887.503 500.423L884.888 499.385L897.948 463.389L891.734 461.113L908.33 415.289L914.576 417.555L914.661 417.32L917.311 418.282L917.226 418.517L922.506 420.433L905.859 466.288L900.591 464.358L887.503 500.423ZM818.268 472.947L815.587 471.883L850.212 391.133L852.804 392.242L818.268 472.947Z" fill="#2E2F35"/>
<rect x="953.77" y="425.865" width="23.086" height="5.56538" transform="rotate(-158.356 953.77 425.865)" fill="#646672"/>
<rect x="956.963" y="417.816" width="23.086" height="5.56538" transform="rotate(-158.356 956.963 417.816)" fill="#646672"/>
<rect x="926.181" y="414.918" width="23.086" height="5.56538" transform="rotate(-158.356 926.181 414.918)" fill="#646672"/>
<rect x="929.374" y="406.87" width="23.086" height="5.56538" transform="rotate(-158.356 929.374 406.87)" fill="#646672"/>
<rect x="898.591" y="403.97" width="23.086" height="5.56538" transform="rotate(-158.356 898.591 403.97)" fill="#646672"/>
<rect x="901.785" y="395.922" width="23.086" height="5.56538" transform="rotate(-158.356 901.785 395.922)" fill="#646672"/>
<path d="M899.085 238.63C916.131 248.833 950.876 269.799 953.491 272.044L967.433 242.839C951.787 236.845 917.908 224.061 907.558 220.882C897.208 217.703 901.533 223.145 904.989 226.263C894.291 223.398 898.611 229.092 902.109 232.296C889.932 231.289 895.019 236.099 899.085 238.63Z" fill="#C03226"/>
<path d="M935.651 78.6487C933.273 58.7037 924.046 67.1737 919.729 73.9019L1002.46 226.957L1139.14 275.513L1184.17 259.419C1176.07 227.572 1168.89 247.464 1166.31 261.39L1148.83 261.341C1146.81 227.143 1135.22 244.391 1129.67 257.289L1113.07 247.235C1131.6 219.742 1111.98 225.066 1099.85 231.165L1089.51 219.481C1086.55 186.265 1075.08 203.162 1069.71 215.762L1054.77 218.252C1042.73 190.721 1037.86 209.169 1036.93 221.834L1021.31 217.163C1028.82 190.68 1015.59 199.767 1008.03 207.62L997.564 192.958C1012.45 171.904 997.256 173.221 987.799 176.511L980.738 162.924C998.152 147.052 983.452 147.571 973.926 149.815L969.153 138.287C985.104 123.663 972.442 123.651 964.118 125.473L960.163 114.738C976.001 101.146 962.664 101.188 954.015 102.908L949.363 93.9562C960.262 77.7349 948.842 79.541 941.771 82.4717L935.651 78.6487Z" fill="#253464"/>
<path d="M922.694 151.289C929.595 147.083 931.186 141.799 931.119 139.682C940.553 167.107 931.413 250.32 960.149 334.838C989.219 420.338 1107.6 324.254 1189.31 257.645C1067.59 272.525 1134.35 194.056 1045.84 218.342C995.017 232.289 968.18 111.645 947.066 84.927C925.953 58.2087 881.724 79.9031 858.421 96.6601C835.118 113.417 842.818 140.652 856.153 161.345C869.488 182.037 914.068 156.546 922.694 151.289Z" fill="#E53D30"/>
<mask id="mask1_715_2" style="mask-type:alpha" maskUnits="userSpaceOnUse" x="843" y="72" width="347" height="297">
<path d="M922.695 151.289C929.596 147.083 931.187 141.799 931.12 139.683C940.553 167.108 931.414 250.321 960.15 334.839C989.22 420.338 1107.6 324.254 1189.31 257.645C1067.59 272.526 1134.35 194.057 1045.84 218.343C995.018 232.289 968.18 111.646 947.067 84.9275C925.954 58.2092 881.724 79.9036 858.422 96.6606C835.119 113.418 842.819 140.653 856.154 161.345C869.489 182.038 914.068 156.547 922.695 151.289Z" fill="#E53D30"/>
</mask>
<g mask="url(#mask1_715_2)">
<path d="M1047.85 362.201C1012.51 241.97 961.185 259.594 939.938 283.436L967.26 387.561L1047.85 362.201Z" fill="#F39077"/>
</g>
<ellipse cx="891.188" cy="88.225" rx="11.4451" ry="15.051" transform="rotate(-27.4602 891.188 88.225)" fill="#F5F5F5"/>
<ellipse cx="892.892" cy="94.1042" rx="7.42593" ry="9.76556" transform="rotate(-27.4602 892.892 94.1042)" fill="black"/>
<ellipse cx="867.515" cy="97.5184" rx="11.4451" ry="15.051" transform="rotate(-27.4602 867.515 97.5184)" fill="#F5F5F5"/>
<ellipse cx="870.564" cy="103.096" rx="7.42593" ry="9.76556" transform="rotate(-27.4602 870.564 103.096)" fill="black"/>
<rect x="983.028" y="358.56" width="2.24617" height="11.2711" transform="rotate(141.857 983.028 358.56)" fill="#E53D30"/>
<rect x="1015.97" y="354.391" width="2.24617" height="11.2711" transform="rotate(141.857 1015.97 354.391)" fill="#E53D30"/>
<rect x="1020.51" y="335.646" width="2.24617" height="11.2711" transform="rotate(141.857 1020.51 335.646)" fill="#E53D30"/>
<rect x="982.869" y="335.056" width="2.24617" height="11.2711" transform="rotate(159.427 982.869 335.056)" fill="#E53D30"/>
<rect x="995.2" y="355.719" width="2.24617" height="11.2711" transform="rotate(158.803 995.2 355.719)" fill="#E53D30"/>
<rect x="999.531" y="340.869" width="2.24617" height="11.2711" transform="rotate(159.427 999.531 340.869)" fill="#E53D30"/>
<rect x="969.188" y="329.188" width="2.24617" height="11.2711" transform="rotate(151.106 969.188 329.188)" fill="#E53D30"/>
<rect x="960.985" y="301.131" width="2.24617" height="11.2711" transform="rotate(160.417 960.985 301.131)" fill="#E53D30"/>
<rect x="1001.91" y="321.554" width="2.24617" height="11.2711" transform="rotate(155.312 1001.91 321.554)" fill="#E53D30"/>
<rect x="1012.81" y="319.621" width="2.24617" height="11.2711" transform="rotate(155.312 1012.81 319.621)" fill="#E53D30"/>
<rect x="986.921" y="308.988" width="2.24617" height="11.2711" transform="rotate(155.312 986.921 308.988)" fill="#E53D30"/>
<rect x="975.862" y="315.925" width="2.24617" height="11.2711" transform="rotate(146.156 975.862 315.925)" fill="#E53D30"/>
<rect x="989.412" y="289.366" width="2.24617" height="11.2711" transform="rotate(162.511 989.412 289.366)" fill="#E53D30"/>
<rect x="999.589" y="302.104" width="2.24617" height="11.2711" transform="rotate(162.511 999.589 302.104)" fill="#E53D30"/>
<rect x="974.323" y="294.267" width="2.24617" height="11.2711" transform="rotate(147.368 974.323 294.267)" fill="#E53D30"/>
<path d="M855.305 154.652C856.362 145.943 861.095 132.923 871.576 150.378C871.595 150.372 871.613 150.366 871.632 150.36C871.698 141.942 875.074 129.198 888.059 144.226C888.133 144.194 888.207 144.163 888.28 144.132C886.862 135.665 887.871 123.011 902.923 137.005C899.923 138.73 894.773 141.354 888.28 144.132C888.305 144.28 888.331 144.428 888.357 144.574C888.257 144.456 888.158 144.34 888.059 144.226C883.209 146.293 877.623 148.44 871.632 150.36C871.632 150.397 871.631 150.433 871.631 150.47C871.613 150.439 871.595 150.409 871.576 150.378C866.383 152.04 860.888 153.532 855.305 154.652Z" fill="white"/>
<path d="M853.632 154.915C868.849 152.443 902.823 142.857 916.979 124.283" stroke="black" stroke-width="3"/>
<path d="M1009.54 291.531C1018.68 273.893 1037.48 237.93 1039.56 235.183L1009.56 223.053C1004.53 239.037 993.845 273.634 991.305 284.159C988.765 294.684 993.932 290.035 996.833 286.394C994.629 297.247 1000.05 292.587 1003.03 288.9C1002.77 301.116 1007.26 295.744 1009.54 291.531Z" fill="#C03226"/>
<path d="M162.984 202.766C143.282 207.066 103.005 215.706 99.5106 215.863L109.495 247.158C125.237 240.718 159.185 226.628 169.052 221.785C178.918 216.943 171.936 215.924 167.212 216.019C177.117 210.703 169.964 209.494 165.149 209.554C174.858 201.835 167.751 201.813 162.984 202.766Z" fill="#5EA1C9"/>
<path fill-rule="evenodd" clip-rule="evenodd" d="M-32.8905 371.266L-34.311 370.347L-5.97778 318.688L14.4969 331.941L-11.5563 366.711C-11.2408 366.9 -10.9192 367.093 -10.5915 367.29C7.14081 377.926 1.45408 387.01 -3.60582 390.222L-32.8906 371.266L-32.8905 371.266Z" fill="#253464"/>
<path d="M113.676 65.7396C119.45 64.5034 124.623 74.8978 126.488 80.2496L114.503 129.61L3.52339 279.821L-106.619 233.007L-122.57 198.202C-120.003 194.922 -113.013 189.562 -105.594 194.364C-98.1745 199.167 -104.908 207.802 -109.202 211.519L-97.5797 219.042C-97.2795 213.517 -93.7386 203.638 -81.9764 208.319C-70.2143 213.001 -77.2388 223.047 -82.2214 227.484L-73.6515 233.032C-74.042 228.059 -72.1257 219.093 -61.3358 223.013C-50.5459 226.932 -53.9413 236.295 -56.9877 240.486L-48.4383 244.521C-48.449 239.905 -46.1501 231.31 -36.8683 233.853C-27.5866 236.396 -29.103 245.876 -31.0214 250.298C-26.8296 252.4 -18.5452 256.141 -18.9428 254.285C-19.4397 251.964 -19.6462 248.165 -14.0789 243.94C-9.62514 240.559 -3.45763 248.205 -0.930588 252.451L3.55281 245.524C-1.55074 243.887 -10.3527 238.389 -4.7322 229.5C0.888305 220.611 10.1007 227.774 14.0044 232.466L20.6081 224.58C16.0458 221.849 8.09404 214.78 12.7859 208.356C17.4778 201.931 25.5419 208.894 28.9875 213.179L39.0937 200.397C35.2081 197.993 28.4206 191.922 32.3553 186.873C36.29 181.824 43.0094 187.828 45.8773 191.461L51.88 185.018C47.0089 183.365 38.7079 178.191 44.4718 170.728C50.2357 163.264 58.1489 169.586 61.3851 173.68L65.7228 170.324C61.5818 167.199 54.3262 159.982 58.432 156.109C62.5378 152.237 69.5809 158.273 72.5892 161.775L75.8447 158.488C71.3283 155.861 63.7429 149.056 69.5324 142.856C75.3218 136.656 82.8066 143.159 85.8254 147.185L98.0525 133.784C93.456 132.881 84.8342 128.958 87.1186 120.49C89.403 112.021 102.112 115.392 108.181 118.136L109.067 107.164C102.911 108.212 90.7991 108.217 91.5959 99.8516C92.3928 91.4858 103.245 92.1454 108.572 93.521L110.212 84.8128C101.634 77.4838 106.459 67.2849 113.676 65.7396Z" fill="#253464"/>
<path d="M190.391 118.986C214.502 126.321 213.565 143.982 210.082 151.896C194.077 200.007 158.261 171.373 142.354 151.041C106.867 225.988 148.613 312.586 52.5471 349.607C-43.519 386.628 -161.638 153.924 -124.288 195.461C-94.4076 228.691 -32.6487 248.992 -5.50432 254.989C17.7136 223.71 69.9642 156.057 93.2238 135.68C122.298 110.21 84.6113 76.3662 130.945 77.4048C177.279 78.4435 160.251 109.817 190.391 118.986Z" fill="#6DBBE9"/>
<ellipse cx="156.156" cy="89.9134" rx="13.3952" ry="17.6156" transform="rotate(32.9147 156.156 89.9134)" fill="#F5F5F5"/>
<ellipse cx="152.794" cy="95.1067" rx="8.69124" ry="11.4295" transform="rotate(32.9147 152.794 95.1067)" fill="black"/>
<ellipse cx="184.575" cy="102.064" rx="13.3952" ry="17.6156" transform="rotate(32.9147 184.575 102.064)" fill="#F5F5F5"/>
<ellipse cx="181.214" cy="107.257" rx="8.69124" ry="11.4295" transform="rotate(32.9147 181.214 107.257)" fill="black"/>
<path d="M181.208 161.103C190.536 132.234 175.364 142.776 166.613 151.656C177.591 162.05 192.378 165.909 198.399 166.539C199.489 140.432 187.392 152.037 181.208 161.103Z" fill="white"/>
<path d="M201.736 167.215C192.813 166.447 171.594 160.726 158.106 143.982" stroke="black" stroke-width="3"/>
<mask id="mask2_715_2" style="mask-type:alpha" maskUnits="userSpaceOnUse" x="-132" y="77" width="344" height="277">
<path d="M190.39 118.985C214.502 126.32 213.565 143.981 210.082 151.895C194.077 200.006 158.261 171.372 142.354 151.041C106.866 225.988 148.613 312.586 52.5468 349.607C-43.5192 386.627 -161.638 153.924 -124.288 195.461C-94.4079 228.691 -32.649 248.991 -5.50457 254.988C17.7133 223.709 69.964 156.057 93.2235 135.68C122.298 110.209 84.611 76.3657 130.945 77.4044C177.279 78.443 160.251 109.816 190.39 118.985Z" fill="#6DBBE9"/>
</mask>
<g mask="url(#mask2_715_2)">
<path d="M45.1429 292.052C68.4637 256.023 103.359 265.83 117.892 275.237C131.446 294.208 72.464 404.234 33.9413 365.021C-4.5815 325.809 15.9919 337.087 45.1429 292.052Z" fill="#A8E2FB"/>
</g>
<rect x="103.503" y="292.441" width="2.6289" height="13.1916" transform="rotate(22.2315 103.503 292.441)" fill="#253464"/>
<rect x="78.5842" y="306.604" width="2.6289" height="13.1916" transform="rotate(39.8021 78.5842 306.604)" fill="#253464"/>
<rect x="99.4429" y="281.832" width="2.6289" height="13.1916" transform="rotate(39.178 99.4429 281.832)" fill="#253464"/>
<rect x="81.5266" y="289.986" width="2.6289" height="13.1916" transform="rotate(39.8021 81.5266 289.986)" fill="#253464"/>
<rect x="89.3613" y="313.471" width="2.6289" height="13.1916" transform="rotate(31.481 89.3613 313.471)" fill="#253464"/>
<rect x="74.4866" y="276.989" width="2.6289" height="13.1916" transform="rotate(40.7917 74.4866 276.989)" fill="#253464"/>
<rect x="60.7998" y="294.767" width="2.6289" height="13.1916" transform="rotate(35.6872 60.7998 294.767)" fill="#253464"/>
<rect x="56.689" y="317.292" width="2.6289" height="13.1916" transform="rotate(35.6872 56.689 317.292)" fill="#253464"/>
<rect x="70.1453" y="324.528" width="2.6289" height="13.1916" transform="rotate(26.5307 70.1453 324.528)" fill="#253464"/>
<rect x="35.2832" y="326.108" width="2.6289" height="13.1916" transform="rotate(42.8857 35.2832 326.108)" fill="#253464"/>
<rect x="42.3564" y="308.385" width="2.6289" height="13.1916" transform="rotate(42.8857 42.3564 308.385)" fill="#253464"/>
<rect x="49.0002" y="338.625" width="2.6289" height="13.1916" transform="rotate(27.7429 49.0002 338.625)" fill="#253464"/>
<ellipse cx="-11.2864" cy="272.567" rx="9.043" ry="7.25902" transform="rotate(32.9147 -11.2864 272.567)" fill="#253464"/>
<ellipse cx="11.9903" cy="264.827" rx="6.29122" ry="5.0501" transform="rotate(32.9147 11.9903 264.827)" fill="#253464"/>
<ellipse cx="8.06769" cy="282.464" rx="6.29122" ry="5.0501" transform="rotate(32.9147 8.06769 282.464)" fill="#253464"/>
<path d="M64.262 272.358C64.8223 252.2 66.1147 211.027 66.8021 207.597L34.0244 209.769C36.4931 226.597 42.0128 262.937 44.3421 273.678C46.6714 284.418 49.339 277.886 50.3816 273.277C53.1621 284.17 56.0546 277.517 57.1532 272.829C62.3123 284.108 64.042 277.214 64.262 272.358Z" fill="#5EA1C9"/>
<path fill-rule="evenodd" clip-rule="evenodd" d="M220.291 301.068C218.447 299.013 215.286 298.841 213.23 300.685L208.244 305.159L205.338 301.919L205.539 301.739C206.361 301.001 206.43 299.737 205.692 298.914L204.694 297.802C203.957 296.98 202.692 296.911 201.87 297.649L198.383 300.777C197.561 301.515 197.492 302.779 198.23 303.601L199.228 304.713C199.965 305.536 201.23 305.604 202.052 304.867L202.252 304.687L205.158 307.927L199.203 313.268L196.297 310.028L196.498 309.848C197.32 309.11 197.389 307.846 196.651 307.024L195.653 305.911C194.916 305.089 193.651 305.021 192.829 305.758L189.342 308.886C188.52 309.624 188.451 310.888 189.189 311.71L190.187 312.823C190.924 313.645 192.189 313.713 193.011 312.976L193.211 312.796L196.118 316.037L190.164 321.377L187.258 318.138L187.458 317.958C188.28 317.221 188.349 315.956 187.611 315.134L186.614 314.022C185.876 313.199 184.612 313.131 183.789 313.868L180.303 316.996C179.48 317.734 179.412 318.998 180.149 319.821L181.147 320.933C181.885 321.755 183.149 321.824 183.971 321.086L184.172 320.906L187.078 324.146L179.912 330.574C177.856 332.418 177.685 335.579 179.529 337.635L180.59 338.817L115.901 396.848C91.4493 378.804 60.8849 376.727 41.9694 393.696C32.2837 402.384 27.2317 414.65 26.6607 428.076C2.13755 420.242 -22.9969 423.46 -40.4972 439.159C-69.8747 465.512 -66.6149 517.057 -33.2164 554.288C0.182091 591.519 51.072 600.337 80.4495 573.983C97.9497 558.285 103.868 533.646 98.7333 508.419C112.143 509.305 124.883 505.61 134.569 496.921C153.485 479.952 154.727 449.342 139.434 423.081L204.123 365.051L205.184 366.234C207.028 368.289 210.189 368.461 212.245 366.617L219.409 360.19L222.314 363.428L222.113 363.608C221.29 364.346 221.222 365.611 221.959 366.433L222.957 367.545C223.695 368.367 224.959 368.436 225.781 367.698L229.268 364.57C230.091 363.833 230.159 362.568 229.422 361.746L228.424 360.634C227.686 359.811 226.422 359.743 225.6 360.48L225.399 360.66L222.495 357.422L228.45 352.08L231.354 355.318L231.154 355.497C230.332 356.235 230.263 357.499 231.001 358.322L231.999 359.434C232.736 360.256 234.001 360.325 234.823 359.587L238.31 356.459C239.132 355.722 239.201 354.457 238.463 353.635L237.465 352.523C236.728 351.7 235.463 351.632 234.641 352.369L234.44 352.55L231.536 349.312L237.491 343.97L240.395 347.208L240.194 347.388C239.372 348.126 239.303 349.39 240.041 350.212L241.038 351.325C241.776 352.147 243.04 352.216 243.863 351.478L247.349 348.35C248.172 347.612 248.24 346.348 247.503 345.526L246.505 344.413C245.767 343.591 244.503 343.523 243.681 344.26L243.481 344.439L240.577 341.202L245.563 336.728C247.619 334.884 247.79 331.723 245.947 329.668L220.291 301.068Z" fill="#F16B38"/>
<ellipse cx="55.4657" cy="474.733" rx="32.5102" ry="25.6526" transform="rotate(48.1058 55.4657 474.733)" fill="black"/>
<rect x="211.562" y="331.69" width="4.49077" height="266.372" rx="1" transform="rotate(48.1058 211.562 331.69)" fill="white"/>
<rect x="216.975" y="337.724" width="4.49077" height="266.372" rx="1" transform="rotate(48.1058 216.975 337.724)" fill="white"/>
<rect x="206.149" y="325.655" width="4.49077" height="266.372" rx="1" transform="rotate(48.1058 206.149 325.655)" fill="white"/>
<rect x="-2.09131" y="485.585" width="60.711" height="10.4974" rx="2" transform="rotate(48.1058 -2.09131 485.585)" fill="black"/>
<path d="M297.68 605.032C287.107 621.085 265.617 653.968 264.241 657.073L242.004 634.693C252.928 623.145 276.654 598.326 284.165 591.431C291.677 584.536 290.027 591.307 288.263 595.555C296.179 588.827 294.624 595.834 292.857 600.178C302.683 594.65 300.166 601.111 297.68 605.032Z" fill="#76A92C"/>
<path d="M136.758 545.544C138.43 530.317 156.944 529.538 165.992 531.052L191.554 666.113L174.399 760.481L74.4548 745.95C74.2568 739.951 77.0461 727.345 89.7876 724.917C102.529 722.488 108.659 736.852 110.132 744.338C110.195 737.777 113.49 724.23 126.168 722.533C138.846 720.836 144.267 733.216 145.393 739.618L159.022 731.467C152.376 728.515 139.777 720.259 142.55 710.85C145.324 701.44 156.265 698.319 161.389 697.934C154.575 698.244 140.447 695.133 138.45 680.216C136.454 665.299 150.052 657.423 157.101 655.35C149.422 656.227 133.829 654.126 132.894 638.705C131.959 623.284 147.527 618.971 155.428 618.742C146.85 616.426 130.305 607.915 132.746 592.403C135.187 576.892 150.35 575.284 157.627 576.419C149.974 572.473 135.086 560.772 136.758 545.544Z" fill="#F9ED32"/>
<path fill-rule="evenodd" clip-rule="evenodd" d="M223.46 822.054L221.744 822.284L209.415 763.231L234.15 759.92L237.019 804.314C237.39 804.252 237.768 804.188 238.154 804.123C259.016 800.601 260.636 811.453 258.838 817.32L223.46 822.055L223.46 822.054Z" fill="#76A92C"/>
<path d="M285.599 481.087C270.134 457.956 258.489 471.065 254.6 480.511C235.789 491.631 194.46 514.494 179.633 516.994C161.099 520.118 152.721 547.625 149.815 560.241C147.491 570.334 152.569 678.071 155.399 730.678C126.783 746.865 76.7132 742.068 55.2552 737.647C102.759 800.792 215.727 783.395 272.512 771.857C317.941 762.626 268.222 654.041 237.683 600.903C243.414 596.461 262.138 584.084 291.19 570.115C327.505 552.654 304.93 510 285.599 481.087Z" fill="#84BC33"/>
<mask id="mask3_715_2" style="mask-type:alpha" maskUnits="userSpaceOnUse" x="55" y="468" width="256" height="316">
<path d="M285.599 481.087C270.134 457.956 258.489 471.065 254.6 480.511C235.789 491.631 194.46 514.494 179.633 516.994C161.099 520.118 152.721 547.625 149.815 560.241C147.491 570.334 152.569 678.071 155.399 730.678C126.783 746.865 76.7134 742.068 55.2554 737.647C102.76 800.792 215.727 783.395 272.513 771.857C317.941 762.626 268.222 654.041 237.684 600.903C243.414 596.461 262.138 584.084 291.19 570.115C327.506 552.654 304.93 510 285.599 481.087Z" fill="#84BC33"/>
</mask>
<g mask="url(#mask3_715_2)">
<ellipse cx="44.0231" cy="78.0587" rx="44.0231" ry="78.0587" transform="matrix(-0.991161 0.132666 0.132666 0.991161 292.562 645.758)" fill="#BDDB91"/>
</g>
<path d="M283.886 531.595C308.948 547.384 306.508 527.416 302.129 515.402C295.875 521.387 289.779 526.766 283.886 531.595C283.775 531.525 283.664 531.455 283.553 531.384C283.595 531.51 283.637 531.636 283.679 531.764C247.681 561.2 219.244 570.057 208.352 570.6C218.991 592.497 225.879 576.771 227.992 566.172C241.319 585.117 245.929 568.21 246.568 557.388C264.854 575.957 266.05 557.779 264.362 546.369C288.638 561.627 287.414 543.221 283.679 531.764C283.748 531.708 283.817 531.651 283.886 531.595Z" fill="#D9D9D9"/>
<path d="M303.366 513.649C281.978 535.724 230.288 577.811 194.632 569.561" stroke="black" stroke-width="3"/>
<ellipse cx="10.412" cy="15.3435" rx="10.412" ry="15.3435" transform="matrix(-0.991161 0.132666 0.132666 0.991161 205.097 490.774)" fill="#F5F5F5"/>
<ellipse cx="6.75561" cy="9.95534" rx="6.75561" ry="9.95534" transform="matrix(-0.991161 0.132666 0.132666 0.991161 202.912 502.548)" fill="black"/>
<ellipse cx="10.412" cy="15.3435" rx="10.412" ry="15.3435" transform="matrix(-0.991161 0.132666 0.132666 0.991161 230.488 478.776)" fill="#F5F5F5"/>
<ellipse cx="6.75561" cy="9.95534" rx="6.75561" ry="9.95534" transform="matrix(-0.991161 0.132666 0.132666 0.991161 228.962 490.092)" fill="black"/>
<ellipse cx="8.49577" cy="6.99726" rx="8.49577" ry="6.99726" transform="matrix(-0.828664 -0.559746 -0.464797 0.885417 184.374 584.38)" fill="#F9ED32"/>
<ellipse cx="5.91014" cy="4.8677" rx="5.91014" ry="4.8677" transform="matrix(-0.828664 -0.559746 -0.464797 0.885417 177.881 560.413)" fill="#F9ED32"/>
<ellipse cx="5.91014" cy="4.8677" rx="5.91014" ry="4.8677" transform="matrix(-0.828664 -0.559746 -0.464797 0.885417 165.395 571.56)" fill="#F9ED32"/>
<rect width="2.05225" height="11.4492" transform="matrix(0.997168 0.0752004 0.0337198 -0.999431 278.785 743.849)" fill="#76A92C"/>
<rect width="2.05225" height="11.4492" transform="matrix(0.997168 0.0752004 0.0337198 -0.999431 252.246 759.221)" fill="#76A92C"/>
<rect width="2.05225" height="11.4492" transform="matrix(0.997168 0.0752004 0.0337198 -0.999431 238.859 746.056)" fill="#76A92C"/>
<rect width="2.04705" height="11.4726" transform="matrix(0.964409 -0.264414 -0.238126 -0.971234 266.308 723.992)" fill="#76A92C"/>
<rect width="2.0464" height="11.4755" transform="matrix(0.967555 -0.252662 -0.228648 -0.973509 268.282 748.435)" fill="#76A92C"/>
<rect width="2.04705" height="11.4726" transform="matrix(0.964409 -0.264414 -0.238126 -0.971234 257.13 738.428)" fill="#76A92C"/>
<rect width="2.04346" height="11.4887" transform="matrix(0.994491 -0.104826 -0.110501 -0.993876 273.258 711.219)" fill="#76A92C"/>
<rect width="2.04819" height="11.4675" transform="matrix(0.959135 -0.28295 -0.253116 -0.967436 264.275 682.923)" fill="#76A92C"/>
<rect width="2.0439" height="11.4867" transform="matrix(0.982516 -0.186179 -0.175336 -0.984509 245.024 723.551)" fill="#76A92C"/>
<rect width="2.0439" height="11.4867" transform="matrix(0.982516 -0.186179 -0.175336 -0.984509 235.952 728.167)" fill="#76A92C"/>
<rect width="2.0439" height="11.4867" transform="matrix(0.982516 -0.186179 -0.175336 -0.984509 249.351 704.393)" fill="#76A92C"/>
<rect width="2.04652" height="11.475" transform="matrix(0.999965 -0.00833068 -0.0335353 -0.999438 261.227 703.891)" fill="#76A92C"/>
<rect width="2.05111" height="11.4543" transform="matrix(0.946827 -0.321744 -0.284683 -0.958622 236.999 689.319)" fill="#76A92C"/>
<rect width="2.05111" height="11.4543" transform="matrix(0.946827 -0.321744 -0.284683 -0.958622 236.317 705.864)" fill="#76A92C"/>
<rect width="2.05111" height="11.4543" transform="matrix(0.946827 -0.321744 -0.284683 -0.958622 241.272 767.7)" fill="#76A92C"/>
<rect width="2.04541" height="11.4799" transform="matrix(0.999489 -0.0319724 -0.0524373 -0.998624 250.757 684.794)" fill="#76A92C"/>
<path d="M149.839 635.97C167.137 642.543 202.511 655.83 205.626 656.393L194.268 686.393C180.68 678.15 151.39 660.171 142.936 654.202C134.482 648.233 140.809 648.029 145.029 648.674C136.577 642.228 143.071 641.856 147.375 642.476C139.285 633.662 145.646 634.466 149.839 635.97Z" fill="#76A92C"/>
<path fill-rule="evenodd" clip-rule="evenodd" d="M442.46 584.373L447.583 584.753L440.608 678.845L463.799 701.428L460.214 705.109L440.113 685.534L438.76 703.782L433.636 703.402L434.978 685.299L412.169 701.725L409.167 697.556L435.474 678.61L442.46 584.373Z" fill="black"/>
<path d="M446.78 560.58L493.797 594.471L395.28 587.168L446.78 560.58Z" fill="#F9ED32"/>
<path fill-rule="evenodd" clip-rule="evenodd" d="M672.162 670.239L677.286 670.619L673.189 725.884L696.379 748.467L692.795 752.148L672.693 732.573L671.34 750.821L666.217 750.441L667.559 732.337L644.749 748.764L641.747 744.595L668.054 725.649L672.162 670.239Z" fill="black"/>
<rect x="630.534" y="632.013" width="90.629" height="50.8708" rx="5" transform="rotate(4.23954 630.534 632.013)" fill="#F16B38"/>
<mask id="mask4_715_2" style="mask-type:alpha" maskUnits="userSpaceOnUse" x="627" y="633" width="94" height="57">
<rect x="630.471" y="632.867" width="90.629" height="50.8708" rx="5" transform="rotate(4.23954 630.471 632.867)" fill="#E24536"/>
</mask>
<g mask="url(#mask4_715_2)">
<path d="M627.238 663.915L644.219 653.609L658.99 666.269L675.719 655.944L688.726 668.473L705.707 658.167L719.47 670.752" stroke="white"/>
</g>
<path fill-rule="evenodd" clip-rule="evenodd" d="M387.826 647.641L392.949 648.021L388.853 703.286L412.044 725.869L408.459 729.55L388.357 709.974L387.004 728.223L381.88 727.843L383.222 709.739L360.414 726.165L357.411 721.996L383.718 703.051L387.826 647.641Z" fill="black"/>
<rect x="346.197" y="609.414" width="90.629" height="50.8708" rx="5" transform="rotate(4.23954 346.197 609.414)" fill="#F16B38"/>
<mask id="mask5_715_2" style="mask-type:alpha" maskUnits="userSpaceOnUse" x="342" y="610" width="95" height="58">
<rect x="346.134" y="610.268" width="90.629" height="50.8708" rx="5" transform="rotate(4.23954 346.134 610.268)" fill="#E24536"/>
</mask>
<g mask="url(#mask5_715_2)">
<path d="M342.902 641.317L359.882 631.01L374.654 643.67L391.382 633.346L404.39 645.875L421.37 635.569L435.134 648.154" stroke="white"/>
</g>
<circle cx="530.284" cy="668.561" r="77.8194" transform="rotate(4.23954 530.284 668.561)" fill="#F16B38"/>
<circle cx="530.284" cy="668.561" r="62.5798" transform="rotate(4.23954 530.284 668.561)" fill="white"/>
<path d="M532.917 624.358L539.724 655.403L569.039 657.576L543.931 674.59L550.739 705.635L528.414 685.105L503.306 702.119L514.616 672.417L492.292 651.887L521.607 654.06L532.917 624.358Z" fill="#F9ED32"/>
</g>
<defs>
<clipPath id="clip0_715_2">
<rect width="1024" height="768" fill="white" transform="translate(0 0.5)"/>
</clipPath>
</defs>
</svg>
