<svg width="320" height="568" viewBox="0 0 320 568" fill="none" xmlns="http://www.w3.org/2000/svg">
<g clip-path="url(#clip0_715_2)">
<rect width="320" height="568" fill="#69235C"/>
<path d="M-6.06781 709.242L153.72 -27.8166L187.743 -28.0844L75.5878 708.6L-6.06781 709.242Z" fill="#5A4482" fill-opacity="0.6"/>
<path d="M450.434 462.106L0.726433 51.0277L-28.6171 69.0778L380.01 505.426L450.434 462.106Z" fill="#A576FB" fill-opacity="0.6"/>
<path d="M62.2325 611.208L323.736 95.3948L359.585 86.1641L173.551 582.545L62.2325 611.208Z" fill="#D159B6" fill-opacity="0.31"/>
<path d="M292.598 30.4043H31.3654C-9.61831 32.837 15.0108 48.5185 31.3654 53.1694C-0.459883 59.6317 9.4397 68.7212 31.3654 72.997C-5.76409 77.6969 12.8701 92.3626 31.3654 93.5591H292.598C320.18 93.5591 310.938 74.4205 292.598 72.997C323.362 66.5347 310.175 53.1694 292.598 53.1694C313.815 44.3571 309.032 30.4043 292.598 30.4043Z" fill="#84BC33"/>
<path d="M66.9721 71.2298C66.9721 72.5098 68.0281 73.5658 69.3081 73.5658C70.5881 73.5658 71.6121 72.5098 71.6121 71.2298V54.8138H78.9721C80.0921 54.8138 81.0521 53.8858 81.0521 52.7338C81.0521 51.5498 80.0921 50.6218 78.9721 50.6218H69.3401C67.8361 50.6218 66.9721 51.4538 66.9721 52.9898V71.2298ZM86.2561 73.6298C87.2481 73.6298 88.0801 73.1178 88.5921 72.3498C93.6161 64.7978 97.1681 59.6138 98.7041 56.7978C98.4161 59.1018 98.3521 62.5898 98.3521 71.2618C98.3521 72.5418 99.4081 73.6298 100.688 73.6298C101.968 73.6298 102.992 72.5738 102.992 71.2938V53.1818C102.992 51.6458 101.744 50.3338 100.208 50.3338C99.2161 50.3338 98.3841 50.8778 97.9041 51.5818C92.3681 59.9018 89.5521 64.0938 87.7601 67.3578C88.0161 65.1178 88.1121 62.2378 88.1121 52.7018C88.1121 51.4218 87.0561 50.3338 85.8081 50.3338C84.5281 50.3338 83.4721 51.3898 83.4721 52.6698V70.7818C83.4721 72.3178 84.7521 73.6298 86.2561 73.6298ZM114.228 73.5658C115.508 73.5658 116.564 72.5098 116.564 71.2298V54.8138H120.628C121.748 54.8138 122.708 53.8858 122.708 52.7338C122.708 51.5498 121.748 50.6218 120.628 50.6218H107.86C106.708 50.6218 105.748 51.5498 105.748 52.7338C105.748 53.8858 106.708 54.8138 107.86 54.8138H111.924V71.2298C111.924 72.5098 112.948 73.5658 114.228 73.5658ZM134.602 52.7978C134.09 51.4218 133.066 50.4298 131.722 50.4298H130.474C129.29 50.4298 128.234 51.4858 127.754 52.7978L121.386 70.5258C121.258 70.8458 121.226 71.1338 121.226 71.4218C121.226 72.7658 122.442 73.5658 123.562 73.5658C124.49 73.5658 125.29 73.0858 125.674 71.9658C126.09 70.6538 126.506 69.4698 126.858 68.3498H135.306C135.69 69.4378 136.074 70.6218 136.49 71.9018C136.842 72.9898 137.642 73.5658 138.634 73.5658C139.85 73.5658 141.162 72.6378 141.162 71.2618C141.162 70.9738 141.098 70.6858 141.002 70.3978L134.602 52.7978ZM128.106 64.5418C130.378 57.4698 130.89 55.2618 131.018 53.7898C131.178 55.3898 131.754 57.4378 134.058 64.5418H128.106ZM157.692 61.2778C159.292 60.1898 160.316 58.6218 160.316 56.7018C160.316 53.0218 156.956 50.3018 152.092 50.3018C147.676 50.3018 144.7 52.5418 143.9 54.7498C143.772 55.1018 143.708 55.4218 143.708 55.7098C143.708 57.1178 144.892 58.0778 146.044 58.0778C146.78 58.0778 147.516 57.6618 147.9 56.7338C148.444 55.3898 149.916 54.5258 151.9 54.5258C154.172 54.5258 155.676 55.5818 155.676 57.0538C155.676 58.0778 154.652 59.6778 152.06 59.6778H151.452C150.108 59.6778 149.436 60.7338 149.436 61.7578C149.436 62.7178 150.108 63.6778 151.324 63.6778H151.932C154.588 63.6778 156.572 64.4778 156.572 66.4298C156.572 68.2218 154.94 69.4378 152.092 69.4378C150.172 69.4378 148.22 68.8298 147.612 67.0378C147.292 66.0778 146.524 65.6618 145.724 65.6618C144.604 65.6618 143.388 66.5578 143.388 67.9978C143.388 68.2858 143.42 68.5738 143.516 68.8938C144.348 71.5498 147.996 73.6618 152.38 73.6618C157.884 73.6618 161.244 70.3658 161.244 66.5258C161.244 63.8698 159.548 62.0458 157.692 61.2778ZM176.477 52.7978C175.965 51.4218 174.941 50.4298 173.597 50.4298H172.349C171.165 50.4298 170.109 51.4858 169.629 52.7978L163.261 70.5258C163.133 70.8458 163.101 71.1338 163.101 71.4218C163.101 72.7658 164.317 73.5658 165.437 73.5658C166.365 73.5658 167.165 73.0858 167.549 71.9658C167.965 70.6538 168.381 69.4698 168.733 68.3498H177.181C177.565 69.4378 177.949 70.6218 178.365 71.9018C178.717 72.9898 179.517 73.5658 180.509 73.5658C181.725 73.5658 183.037 72.6378 183.037 71.2618C183.037 70.9738 182.973 70.6858 182.877 70.3978L176.477 52.7978ZM169.981 64.5418C172.253 57.4698 172.765 55.2618 172.893 53.7898C173.053 55.3898 173.629 57.4378 175.933 64.5418H169.981ZM195.535 73.3418C201.007 73.3418 203.823 70.4298 203.823 66.5258C203.823 63.7098 202.095 61.4698 199.599 61.0218C201.167 60.5098 202.543 59.0698 202.543 56.2858C202.543 52.6378 199.791 50.6218 194.927 50.6218H188.623C187.055 50.6218 186.191 51.4858 186.191 53.0538V70.9098C186.191 72.4778 187.055 73.3418 188.623 73.3418H195.535ZM190.831 54.5898H194.927C196.687 54.5898 197.871 55.4858 197.871 57.2138C197.871 58.9738 196.719 59.8378 194.927 59.8378H190.831V54.5898ZM190.831 63.3578H195.567C197.775 63.3578 199.151 64.5418 199.151 66.4298C199.151 68.2218 197.743 69.3738 195.535 69.3738H190.831V63.3578ZM207.097 71.2298C207.097 72.5098 208.153 73.5658 209.433 73.5658C210.713 73.5658 211.737 72.5098 211.737 71.2298V66.1738H215.993C221.081 66.1738 224.697 63.1018 224.697 58.2698C224.697 53.3418 221.081 50.6218 216.281 50.6218H209.401C207.929 50.6218 207.097 51.4538 207.097 52.9258V71.2298ZM211.737 54.8458H216.281C218.425 54.8458 220.057 56.1258 220.057 58.3978C220.057 60.6698 218.425 61.9178 216.281 61.9178H211.737V54.8458ZM237.062 73.3418C241.862 73.3418 245.478 70.6218 245.478 65.6938C245.478 60.8618 241.862 57.7898 236.774 57.7898H232.518V52.6698C232.518 51.3898 231.462 50.3338 230.214 50.3338C228.934 50.3338 227.878 51.3898 227.878 52.6698V70.5898C227.878 72.3818 228.87 73.3418 230.63 73.3418H237.062ZM248.358 71.2298C248.358 72.7658 249.542 73.5338 250.694 73.5338C251.846 73.5338 252.998 72.7658 252.998 71.2298V52.7338C252.998 51.1978 251.846 50.4298 250.694 50.4298C249.542 50.4298 248.358 51.1978 248.358 52.7338V71.2298ZM232.518 62.0458H237.062C239.206 62.0458 240.838 63.2938 240.838 65.5658C240.838 67.8378 239.206 69.1178 237.062 69.1178H232.518V62.0458Z" fill="white"/>
<ellipse cx="276.463" cy="409.577" rx="3.05885" ry="1.48168" fill="#5EB9EC"/>
<ellipse cx="289.92" cy="321.208" rx="3.05885" ry="1.48168" fill="#F7382C"/>
<ellipse cx="106.802" cy="110.117" rx="3.05885" ry="1.48168" fill="#F7382C"/>
<ellipse cx="122.627" cy="196.787" rx="3.05885" ry="1.48168" fill="#F7382C"/>
<ellipse cx="41.8015" cy="130.117" rx="3.05885" ry="1.48168" fill="#F7382C"/>
<ellipse cx="35.1433" cy="308.961" rx="3.05885" ry="1.48168" fill="#F7382C"/>
<ellipse cx="126.121" cy="477.917" rx="3.05885" ry="1.48168" fill="#F7382C"/>
<ellipse cx="78.1355" cy="390.112" rx="3.05885" ry="1.48168" fill="#F9ED32"/>
<ellipse cx="106.802" cy="274.237" rx="3.05885" ry="1.48168" fill="#F9ED32"/>
<ellipse cx="202.14" cy="440.476" rx="3.05885" ry="1.48168" fill="#F9ED32"/>
<ellipse cx="139.452" cy="143.657" rx="3.05885" ry="1.48168" fill="#F9ED32"/>
<ellipse cx="171.842" cy="352.24" rx="3.05885" ry="1.48168" fill="#F9ED32"/>
<ellipse cx="186" cy="184.232" rx="3.05885" ry="1.48168" fill="#F9ED32"/>
<ellipse cx="261.406" cy="133.806" rx="3.05885" ry="1.48168" fill="#F9ED32"/>
<ellipse cx="129.18" cy="324.172" rx="3.05885" ry="1.48168" fill="#F7812C"/>
<ellipse cx="35.1433" cy="225.627" rx="3.05885" ry="1.48168" fill="#F7812C"/>
<ellipse cx="221.557" cy="387.148" rx="3.05885" ry="1.48168" fill="#F7812C"/>
<ellipse cx="153.449" cy="409.577" rx="3.05885" ry="1.48168" fill="#F7812C"/>
<ellipse cx="32.0847" cy="474.954" rx="3.05885" ry="1.48168" fill="#F7812C"/>
<ellipse cx="227.675" cy="224.146" rx="3.05885" ry="1.48168" fill="#F7812C"/>
<ellipse cx="208.258" cy="147.987" rx="3.05885" ry="1.48168" fill="#5EB9EC"/>
<ellipse cx="270.345" cy="181.269" rx="3.05885" ry="1.48168" fill="#5EB9EC"/>
<ellipse cx="258.347" cy="262.257" rx="3.05885" ry="1.48168" fill="#5EB9EC"/>
<ellipse cx="199.081" cy="277.2" rx="3.05885" ry="1.48168" fill="#5EB9EC"/>
<ellipse cx="22.8015" cy="377.157" rx="3.05885" ry="1.48168" fill="#5EB9EC"/>
<ellipse cx="81.1946" cy="228.591" rx="3.05885" ry="1.48168" fill="#5EB9EC"/>
<ellipse cx="224.616" cy="480.881" rx="3.05885" ry="1.48168" fill="#5EB9EC"/>
<ellipse cx="72.0178" cy="505.593" rx="3.05885" ry="1.48168" fill="#F7382C"/>
<ellipse cx="290.123" cy="507.98" rx="3.05885" ry="1.48168" fill="#5EB9EC"/>
<path d="M239.61 479.833C251.665 481.413 276.305 484.552 278.423 484.474L273.438 503.507C263.705 500.465 242.708 493.784 236.58 491.4C230.453 489.016 234.639 488.069 237.499 487.893C231.332 485.23 235.616 484.162 238.529 483.961C232.4 479.865 236.696 479.502 239.61 479.833Z" fill="#EEB00F"/>
<path fill-rule="evenodd" clip-rule="evenodd" d="M351.446 566.572L352.356 566.086L338.333 534.262L325.213 541.265L338.859 562.977C338.658 563.077 338.453 563.178 338.244 563.28C326.93 568.846 329.821 574.471 332.68 576.588L351.447 566.572L351.446 566.572Z" fill="#ECBC40"/>
<path d="M276.407 403.765C289.849 371.66 270.076 383.075 258.509 392.795L339.396 535.694L414.634 500.822C406.779 480.922 399.527 495.323 396.882 505.011C391.552 476.858 377.219 494.894 370.718 507.431C377.42 471.456 357.284 488.764 346.377 501.915C370.651 461.399 346 473.607 330.641 484.776C351.273 456.332 331.153 461.7 318.513 467.94C345.611 444.153 323.113 448.763 308.477 454.041C336.637 429.89 313.151 432.714 297.888 437.144C322.31 403.638 300.241 411.143 286.154 419.084C310.801 396.2 289.925 399.336 276.407 403.765Z" fill="#EB5D3A"/>
<path d="M240.423 394.433C257.001 385.26 267.81 389.692 271.143 393.055C292.546 425.143 338.145 491.432 349.31 499.884C360.475 508.336 404.582 502.038 425.241 497.832C388.232 521.287 310.381 566.619 295.051 560.305C279.72 553.991 267.926 524.438 263.946 510.451L254.373 441.114C247.904 445.195 232.114 453.987 220.708 456.503C209.301 459.019 206.776 451.356 206.94 447.21C189.954 418.529 219.701 405.899 240.423 394.433Z" fill="#FCC537"/>
<mask id="mask0_715_2" style="mask-type:alpha" maskUnits="userSpaceOnUse" x="201" y="388" width="225" height="173">
<path d="M240.423 394.433C257.001 385.26 267.81 389.692 271.143 393.055C292.546 425.143 338.145 491.432 349.31 499.884C360.475 508.336 404.582 502.038 425.241 497.832C388.232 521.287 310.381 566.619 295.051 560.305C279.72 553.991 267.926 524.438 263.946 510.451L254.373 441.114C247.904 445.195 232.114 453.987 220.708 456.503C209.301 459.019 206.776 451.356 206.94 447.21C189.954 418.529 219.701 405.899 240.423 394.433Z" fill="#FCC537"/>
</mask>
<g mask="url(#mask0_715_2)">
<path d="M331.738 551.978C302.443 493.049 274.04 505.227 263.5 518.681L290.362 574.062L331.738 551.978Z" fill="#FDCF8C"/>
</g>
<ellipse cx="8.16829" cy="10.3955" rx="8.16829" ry="10.3955" transform="matrix(-0.882205 0.470865 0.470865 0.882205 235.829 381.586)" fill="#F5F5F5"/>
<ellipse cx="5.29984" cy="6.74494" rx="5.29984" ry="6.74494" transform="matrix(-0.882205 0.470865 0.470865 0.882205 236.736 389.378)" fill="black"/>
<ellipse cx="8.16829" cy="10.3955" rx="8.16829" ry="10.3955" transform="matrix(-0.882205 0.470865 0.470865 0.882205 217.986 387.603)" fill="#F5F5F5"/>
<ellipse cx="5.29984" cy="6.74494" rx="5.29984" ry="6.74494" transform="matrix(-0.882205 0.470865 0.470865 0.882205 218.893 395.394)" fill="black"/>
<path d="M218.94 443.365C203.031 422.775 206.834 446.095 206.748 447.428C229.389 441.417 239.626 434.04 241.914 431.103C250.404 433.392 264.278 434.788 251.851 422.068C259.698 422.984 271.748 422.128 257.18 411.374C256.446 414.983 252.366 423.98 241.914 431.103C227.485 421.407 228.013 432.046 230.08 438.577C219.756 427.205 218.352 437.031 218.94 443.365Z" fill="white"/>
<path d="M206.786 447.414C222.348 443.936 254.408 431.128 258.151 407.724" stroke="black" stroke-width="3"/>
<rect width="1.60133" height="7.79387" transform="matrix(-0.952427 0.304766 0.293372 0.955998 274.559 519.094)" fill="#FCC537"/>
<rect width="1.60235" height="7.78861" transform="matrix(-0.821569 0.570109 0.576503 0.817095 288.101 528.252)" fill="#FCC537"/>
<rect width="1.60248" height="7.78795" transform="matrix(-0.827538 0.561409 0.567277 0.823527 281.179 513.14)" fill="#FCC537"/>
<rect width="1.60235" height="7.78861" transform="matrix(-0.821569 0.570109 0.576503 0.817095 291.494 518.727)" fill="#FCC537"/>
<rect width="1.60305" height="7.78498" transform="matrix(-0.893349 0.449365 0.447899 0.894084 285.068 536.869)" fill="#FCC537"/>
<rect width="1.60213" height="7.78977" transform="matrix(-0.811916 0.583775 0.590976 0.806689 292.076 549.482)" fill="#FCC537"/>
<rect width="1.60296" height="7.78543" transform="matrix(-0.859195 0.511648 0.514367 0.85757 303.702 522.429)" fill="#FCC537"/>
<rect width="1.60296" height="7.78543" transform="matrix(-0.859195 0.511648 0.514367 0.85757 304.849 535.96)" fill="#FCC537"/>
<rect width="1.60245" height="7.78808" transform="matrix(-0.927768 0.373159 0.366429 0.930446 296.312 539.688)" fill="#FCC537"/>
<rect width="1.60156" height="7.79272" transform="matrix(-0.790731 0.612163 0.620964 0.783839 317.227 542.085)" fill="#FCC537"/>
<rect width="1.60156" height="7.79272" transform="matrix(-0.790731 0.612163 0.620964 0.783839 314.011 531.278)" fill="#FCC537"/>
<rect width="1.60267" height="7.78696" transform="matrix(-0.919928 0.392088 0.386667 0.922219 308.222 548.934)" fill="#FCC537"/>
<path d="M297.766 506.455C298.167 494.466 298.897 469.974 298.608 467.923L318.338 469.865C316.228 479.815 311.559 501.299 309.757 507.635C307.955 513.971 306.582 510.036 306.121 507.277C304.041 513.694 302.537 509.683 302.045 506.876C298.513 513.475 297.721 509.345 297.766 506.455Z" fill="#EEB00F"/>
<path d="M377.169 418.637L222.051 357.085L250.931 292.595L393.222 349.057L377.169 418.637Z" fill="white"/>
<path d="M387.101 375.598L239.91 317.191L250.929 292.594L393.22 349.056L387.101 375.598Z" fill="#2E2F35"/>
<path d="M390.494 360.875L246.024 303.548L250.931 292.595L393.221 349.057L390.494 360.875Z" fill="#646672"/>
<ellipse cx="253.947" cy="314.426" rx="5.04442" ry="3.78332" transform="rotate(-158.356 253.947 314.426)" fill="#F16B38"/>
<ellipse cx="266.965" cy="319.592" rx="5.04442" ry="3.78332" transform="rotate(-158.356 266.965 319.592)" fill="#F16B38"/>
<path fill-rule="evenodd" clip-rule="evenodd" d="M238.358 363.578L239.685 364.105L247.315 346.663L250.226 347.947L260.163 325.228L257.248 323.954L257.464 323.46L256.151 322.886L255.935 323.38L253.139 322.157L243.229 344.862L246.006 346.086L238.358 363.578ZM273.831 377.648L275.163 378.177L291.528 336.935L290.196 336.407L273.831 377.648ZM308.384 391.346L309.772 391.897L315.443 373.347L318.336 374.244L325.612 350.538L322.69 349.642L322.909 348.927L321.539 348.507L321.319 349.222L318.283 348.29L311.032 371.979L314.044 372.913L308.384 391.346ZM343.316 405.206L344.674 405.745L350.298 385.66L352.686 386.337L359.381 362.461L352 360.392L345.33 384.251L348.909 385.266L343.316 405.206ZM361.145 412.267L362.488 412.811L373.101 369.47L371.71 369.13L361.145 412.267ZM327.419 398.897L326.065 398.36L338.4 355.348L339.777 355.743L327.419 398.897ZM292.791 385.156L291.462 384.629L298.1 366.332L294.942 365.175L303.378 341.882L306.553 343.034L306.596 342.914L307.943 343.403L307.9 343.523L310.584 344.497L302.122 367.805L299.444 366.824L292.791 385.156ZM257.599 371.19L256.236 370.65L273.836 329.604L275.153 330.167L257.599 371.19Z" fill="#2E2F35"/>
<rect x="326.475" y="347.258" width="11.7348" height="2.82893" transform="rotate(-158.356 326.475 347.258)" fill="#646672"/>
<rect x="328.098" y="343.167" width="11.7348" height="2.82893" transform="rotate(-158.356 328.098 343.167)" fill="#646672"/>
<rect x="312.451" y="341.694" width="11.7348" height="2.82893" transform="rotate(-158.356 312.451 341.694)" fill="#646672"/>
<rect x="314.074" y="337.603" width="11.7348" height="2.82893" transform="rotate(-158.356 314.074 337.603)" fill="#646672"/>
<rect x="298.427" y="336.128" width="11.7348" height="2.82893" transform="rotate(-158.356 298.427 336.128)" fill="#646672"/>
<rect x="300.051" y="332.038" width="11.7348" height="2.82893" transform="rotate(-158.356 300.051 332.038)" fill="#646672"/>
<path d="M377.169 418.637L222.051 357.085L250.931 292.595L393.222 349.057L377.169 418.637Z" fill="white"/>
<path d="M387.101 375.598L239.91 317.191L250.929 292.594L393.22 349.056L387.101 375.598Z" fill="#2E2F35"/>
<path d="M390.494 360.875L246.024 303.548L250.931 292.595L393.221 349.057L390.494 360.875Z" fill="#646672"/>
<ellipse cx="253.947" cy="314.426" rx="5.04442" ry="3.78332" transform="rotate(-158.356 253.947 314.426)" fill="#F16B38"/>
<ellipse cx="266.965" cy="319.592" rx="5.04442" ry="3.78332" transform="rotate(-158.356 266.965 319.592)" fill="#F16B38"/>
<path fill-rule="evenodd" clip-rule="evenodd" d="M238.358 363.578L239.685 364.105L247.314 346.663L250.226 347.947L260.163 325.228L257.248 323.953L257.464 323.46L256.151 322.886L255.935 323.379L253.139 322.157L243.229 344.862L246.006 346.086L238.358 363.578ZM273.831 377.648L275.163 378.176L291.528 336.935L290.196 336.407L273.831 377.648ZM308.384 391.346L309.772 391.896L315.443 373.347L318.336 374.244L325.612 350.538L322.69 349.642L322.909 348.927L321.539 348.506L321.319 349.222L318.283 348.29L311.032 371.979L314.044 372.913L308.384 391.346ZM343.316 405.206L344.674 405.745L350.298 385.66L352.686 386.337L359.381 362.461L352 360.392L345.33 384.251L348.909 385.266L343.316 405.206ZM361.145 412.267L362.488 412.811L373.101 369.47L371.71 369.13L361.145 412.267ZM327.419 398.897L326.065 398.36L338.4 355.348L339.777 355.743L327.419 398.897ZM292.791 385.156L291.462 384.629L298.1 366.332L294.942 365.175L303.378 341.882L306.553 343.034L306.596 342.914L307.943 343.403L307.9 343.523L310.584 344.497L302.122 367.805L299.444 366.824L292.791 385.156ZM257.599 371.19L256.236 370.65L273.836 329.604L275.153 330.167L257.599 371.19Z" fill="#2E2F35"/>
<rect x="326.475" y="347.258" width="11.7348" height="2.82893" transform="rotate(-158.356 326.475 347.258)" fill="#646672"/>
<rect x="328.098" y="343.167" width="11.7348" height="2.82893" transform="rotate(-158.356 328.098 343.167)" fill="#646672"/>
<rect x="312.451" y="341.694" width="11.7348" height="2.82893" transform="rotate(-158.356 312.451 341.694)" fill="#646672"/>
<rect x="314.074" y="337.603" width="11.7348" height="2.82893" transform="rotate(-158.356 314.074 337.603)" fill="#646672"/>
<rect x="298.427" y="336.128" width="11.7348" height="2.82893" transform="rotate(-158.356 298.427 336.128)" fill="#646672"/>
<rect x="300.051" y="332.038" width="11.7348" height="2.82893" transform="rotate(-158.356 300.051 332.038)" fill="#646672"/>
<path d="M249.98 226.947C260.456 233.217 281.812 246.104 283.419 247.483L291.988 229.534C282.372 225.849 261.549 217.992 255.187 216.038C248.826 214.084 251.484 217.429 253.608 219.345C247.033 217.585 249.688 221.084 251.838 223.054C244.354 222.434 247.481 225.391 249.98 226.947Z" fill="#C03226"/>
<path d="M272.455 128.618C270.992 116.36 265.321 121.566 262.669 125.701L313.519 219.772L397.523 249.616L425.201 239.724C420.22 220.151 415.809 232.376 414.226 240.936L403.479 240.905C402.239 219.887 395.111 230.487 391.702 238.415L381.503 232.235C392.887 215.338 380.828 218.61 373.375 222.358L367.023 215.177C365.198 194.762 358.149 205.147 354.853 212.891L345.666 214.422C338.27 197.501 335.277 208.839 334.705 216.623L325.102 213.752C329.721 197.476 321.584 203.061 316.938 207.888L310.508 198.875C319.656 185.935 310.318 186.745 304.506 188.767L300.166 180.416C310.869 170.661 301.834 170.98 295.979 172.359L293.045 165.273C302.849 156.285 295.067 156.278 289.951 157.398L287.52 150.799C297.255 142.446 289.057 142.472 283.741 143.529L280.882 138.027C287.581 128.057 280.562 129.167 276.216 130.968L272.455 128.618Z" fill="#253464"/>
<path d="M264.491 173.265C268.732 170.679 269.71 167.432 269.669 166.131C275.467 182.987 269.85 234.132 287.511 286.078C305.378 338.628 378.139 279.573 428.361 238.633C353.544 247.779 394.579 199.55 340.181 214.477C308.942 223.049 292.447 148.899 279.47 132.477C266.493 116.055 239.309 129.389 224.987 139.688C210.664 149.988 215.397 166.727 223.593 179.445C231.789 192.163 259.188 176.496 264.491 173.265Z" fill="#E53D30"/>
<mask id="mask1_715_2" style="mask-type:alpha" maskUnits="userSpaceOnUse" x="215" y="124" width="214" height="183">
<path d="M264.491 173.265C268.733 170.68 269.71 167.432 269.669 166.131C275.467 182.988 269.85 234.132 287.512 286.079C305.379 338.629 378.139 279.573 428.362 238.634C353.545 247.78 394.58 199.551 340.182 214.478C308.942 223.049 292.447 148.899 279.471 132.477C266.494 116.056 239.31 129.39 224.987 139.689C210.665 149.988 215.397 166.728 223.593 179.446C231.789 192.164 259.189 176.497 264.491 173.265Z" fill="#E53D30"/>
</mask>
<g mask="url(#mask1_715_2)">
<path d="M341.413 302.896C319.695 228.999 288.148 239.832 275.089 254.485L291.882 318.483L341.413 302.896Z" fill="#F39077"/>
</g>
<ellipse cx="245.126" cy="134.504" rx="7.03442" ry="9.2507" transform="rotate(-27.4602 245.126 134.504)" fill="#F5F5F5"/>
<ellipse cx="246.174" cy="138.118" rx="4.56415" ry="6.00214" transform="rotate(-27.4602 246.174 138.118)" fill="black"/>
<ellipse cx="230.576" cy="140.216" rx="7.03442" ry="9.2507" transform="rotate(-27.4602 230.576 140.216)" fill="#F5F5F5"/>
<ellipse cx="232.45" cy="143.645" rx="4.56415" ry="6.00214" transform="rotate(-27.4602 232.45 143.645)" fill="black"/>
<rect x="301.573" y="300.658" width="1.38055" height="6.9275" transform="rotate(141.857 301.573 300.658)" fill="#E53D30"/>
<rect x="321.822" y="298.096" width="1.38055" height="6.9275" transform="rotate(141.857 321.822 298.096)" fill="#E53D30"/>
<rect x="324.608" y="286.575" width="1.38055" height="6.9275" transform="rotate(141.857 324.608 286.575)" fill="#E53D30"/>
<rect x="301.475" y="286.212" width="1.38055" height="6.9275" transform="rotate(159.427 301.475 286.212)" fill="#E53D30"/>
<rect x="309.054" y="298.912" width="1.38055" height="6.9275" transform="rotate(158.803 309.054 298.912)" fill="#E53D30"/>
<rect x="311.716" y="289.785" width="1.38055" height="6.9275" transform="rotate(159.427 311.716 289.785)" fill="#E53D30"/>
<rect x="293.067" y="282.606" width="1.38055" height="6.9275" transform="rotate(151.106 293.067 282.606)" fill="#E53D30"/>
<rect x="288.024" y="265.361" width="1.38055" height="6.9275" transform="rotate(160.417 288.024 265.361)" fill="#E53D30"/>
<rect x="313.181" y="277.914" width="1.38055" height="6.9275" transform="rotate(155.312 313.181 277.914)" fill="#E53D30"/>
<rect x="319.875" y="276.726" width="1.38055" height="6.9275" transform="rotate(155.312 319.875 276.726)" fill="#E53D30"/>
<rect x="303.966" y="270.19" width="1.38055" height="6.9275" transform="rotate(155.312 303.966 270.19)" fill="#E53D30"/>
<rect x="297.169" y="274.454" width="1.38055" height="6.9275" transform="rotate(146.156 297.169 274.454)" fill="#E53D30"/>
<rect x="305.497" y="258.13" width="1.38055" height="6.9275" transform="rotate(162.511 305.497 258.13)" fill="#E53D30"/>
<rect x="311.752" y="265.959" width="1.38055" height="6.9275" transform="rotate(162.511 311.752 265.959)" fill="#E53D30"/>
<rect x="296.223" y="261.142" width="1.38055" height="6.9275" transform="rotate(147.368 296.223 261.142)" fill="#E53D30"/>
<path d="M223.072 175.332C223.722 169.979 226.631 161.976 233.072 172.705C233.084 172.701 233.095 172.698 233.107 172.694C233.147 167.52 235.222 159.687 243.203 168.924C243.248 168.904 243.294 168.885 243.339 168.866C242.467 163.662 243.088 155.885 252.339 164.485C250.495 165.546 247.33 167.159 243.339 168.866C243.354 168.957 243.37 169.048 243.386 169.138C243.325 169.065 243.264 168.994 243.203 168.924C240.222 170.194 236.789 171.514 233.107 172.694C233.106 172.717 233.106 172.739 233.106 172.761C233.095 172.742 233.084 172.724 233.072 172.705C229.881 173.727 226.503 174.643 223.072 175.332Z" fill="white"/>
<path d="M222.043 175.493C231.396 173.974 252.277 168.082 260.977 156.666" stroke="black" stroke-width="3"/>
<path d="M317.867 259.461C323.486 248.62 335.042 226.516 336.32 224.828L317.88 217.373C314.791 227.196 308.222 248.461 306.661 254.93C305.1 261.399 308.275 258.541 310.058 256.304C308.703 262.974 312.034 260.11 313.868 257.844C313.708 265.352 316.467 262.05 317.867 259.461Z" fill="#C03226"/>
<path d="M57.7688 202.741C45.0869 205.509 19.1607 211.07 16.9112 211.171L23.3384 231.316C33.471 227.171 55.3239 218.101 61.6748 214.984C68.0257 211.867 63.5315 211.211 60.4905 211.272C66.8663 207.85 62.2619 207.072 59.1627 207.11C65.4121 202.142 60.8373 202.127 57.7688 202.741Z" fill="#5EA1C9"/>
<path d="M26.0294 114.537C29.7461 113.741 33.0759 120.432 34.2762 123.877L26.5618 155.65L-44.876 252.342L-115.775 222.207L-126.043 199.803C-124.39 197.691 -119.891 194.242 -115.115 197.333C-110.339 200.424 -114.673 205.983 -117.437 208.376L-109.956 213.218C-109.763 209.662 -107.484 203.302 -99.9122 206.316C-92.3409 209.329 -96.8626 215.796 -100.07 218.652L-94.5535 222.223C-94.8048 219.022 -93.5713 213.251 -86.6258 215.774C-79.6804 218.296 -81.866 224.323 -83.827 227.022L-78.3237 229.619C-78.3306 226.648 -76.8508 221.114 -70.8761 222.751C-64.9015 224.388 -65.8776 230.491 -67.1125 233.337C-64.4142 234.691 -59.0816 237.099 -59.3375 235.904C-59.6573 234.41 -59.7903 231.965 -56.2066 229.244C-53.3397 227.068 -49.3697 231.99 -47.743 234.723L-44.8571 230.264C-48.1422 229.21 -53.8081 225.671 -50.1901 219.95C-46.5722 214.228 -40.6422 218.838 -38.1294 221.859L-33.8786 216.783C-36.8154 215.025 -41.9339 210.475 -38.9137 206.339C-35.8936 202.203 -30.7027 206.686 -28.4848 209.444L-21.9794 201.216C-24.4806 199.668 -28.8497 195.761 -26.3169 192.511C-23.7842 189.26 -19.4589 193.125 -17.6129 195.464L-13.7489 191.317C-16.8844 190.252 -22.2278 186.922 -18.5176 182.118C-14.8073 177.314 -9.71357 181.383 -7.63049 184.018L-4.83828 181.858C-7.50385 179.847 -12.1743 175.201 -9.53135 172.708C-6.88845 170.215 -2.35485 174.101 -0.418405 176.355L1.6772 174.239C-1.23001 172.548 -6.11275 168.168 -2.38608 164.177C1.34059 160.186 6.15858 164.372 8.10174 166.964L15.9723 158.337C13.0136 157.756 7.46371 155.231 8.93417 149.78C10.4046 144.328 18.5855 146.498 22.4921 148.265L23.0622 141.202C19.0998 141.877 11.3033 141.88 11.8162 136.495C12.3292 131.11 19.3149 131.535 22.7436 132.42L23.7993 126.815C18.2775 122.097 21.3836 115.532 26.0294 114.537Z" fill="#253464"/>
<path d="M75.4104 148.812C90.931 153.533 90.3276 164.902 88.0859 169.996C77.7836 200.965 54.7289 182.533 44.4893 169.446C21.6461 217.689 48.5183 273.433 -13.3194 297.263C-75.157 321.093 -151.19 171.302 -127.148 198.039C-107.914 219.429 -68.1599 232.497 -50.687 236.357C-35.7417 216.222 -2.10797 172.675 12.8642 159.558C31.5794 143.163 7.32034 121.378 37.1455 122.046C66.9707 122.715 56.0096 142.91 75.4104 148.812Z" fill="#6DBBE9"/>
<ellipse cx="53.3732" cy="130.098" rx="8.6225" ry="11.3391" transform="rotate(32.9147 53.3732 130.098)" fill="#F5F5F5"/>
<ellipse cx="51.2094" cy="133.441" rx="5.59455" ry="7.35718" transform="rotate(32.9147 51.2094 133.441)" fill="black"/>
<ellipse cx="71.6672" cy="137.919" rx="8.6225" ry="11.3391" transform="rotate(32.9147 71.6672 137.919)" fill="#F5F5F5"/>
<ellipse cx="69.5034" cy="141.262" rx="5.59455" ry="7.35718" transform="rotate(32.9147 69.5034 141.262)" fill="black"/>
<path d="M69.4995 175.923C75.5037 157.34 65.738 164.126 60.1047 169.841C67.1713 176.532 76.6897 179.016 80.5655 179.422C81.267 162.617 73.4804 170.087 69.4995 175.923Z" fill="white"/>
<path d="M82.7131 179.857C76.9691 179.363 63.3105 175.68 54.6285 164.902" stroke="black" stroke-width="3"/>
<mask id="mask2_715_2" style="mask-type:alpha" maskUnits="userSpaceOnUse" x="-132" y="122" width="222" height="178">
<path d="M75.4104 148.811C90.931 153.533 90.3276 164.901 88.0859 169.995C77.7836 200.965 54.7289 182.533 44.4893 169.446C21.6461 217.689 48.5183 273.432 -13.3194 297.262C-75.157 321.092 -151.19 171.301 -127.148 198.039C-107.914 219.429 -68.1599 232.496 -50.687 236.356C-35.7417 216.222 -2.10797 172.674 12.8642 159.558C31.5794 143.162 7.32034 121.377 37.1455 122.046C66.9707 122.714 56.0096 142.909 75.4104 148.811Z" fill="#6DBBE9"/>
</mask>
<g mask="url(#mask2_715_2)">
<path d="M-18.0857 260.214C-3.07415 237.023 19.3881 243.335 28.7428 249.391C37.4676 261.602 -0.49915 332.425 -25.2962 307.185C-50.0933 281.944 -36.8503 289.203 -18.0857 260.214Z" fill="#A8E2FB"/>
</g>
<rect x="19.481" y="260.465" width="1.69222" height="8.49145" transform="rotate(22.2315 19.481 260.465)" fill="#253464"/>
<rect x="3.44092" y="269.582" width="1.69222" height="8.49145" transform="rotate(39.8021 3.44092 269.582)" fill="#253464"/>
<rect x="16.8672" y="253.636" width="1.69222" height="8.49145" transform="rotate(39.178 16.8672 253.636)" fill="#253464"/>
<rect x="5.33496" y="258.884" width="1.69222" height="8.49145" transform="rotate(39.8021 5.33496 258.884)" fill="#253464"/>
<rect x="10.3779" y="274.002" width="1.69222" height="8.49145" transform="rotate(31.481 10.3779 274.002)" fill="#253464"/>
<rect x="0.803223" y="250.518" width="1.69222" height="8.49145" transform="rotate(40.7917 0.803223 250.518)" fill="#253464"/>
<path fill-rule="evenodd" clip-rule="evenodd" d="M76.6101 247.463C74.5999 245.57 71.4355 245.665 69.5422 247.675L68.8587 248.4L67.2194 246.856C67.5885 246.296 67.5131 245.534 67.0076 245.058C66.4415 244.525 65.5504 244.552 65.0172 245.118L63.896 246.308C63.3628 246.874 63.3895 247.766 63.9556 248.299C64.4608 248.775 65.2249 248.805 65.7624 248.403L67.4018 249.947L64.5905 252.932L62.951 251.388C63.3201 250.827 63.2446 250.066 62.7392 249.59C62.1731 249.056 61.2819 249.083 60.7487 249.649L59.6276 250.84C59.0944 251.406 59.1211 252.297 59.6872 252.83C60.1924 253.306 60.9564 253.336 61.494 252.934L63.1336 254.479L60.3226 257.463L58.6833 255.919C59.052 255.359 58.9765 254.598 58.4712 254.122C57.9051 253.588 57.014 253.615 56.4808 254.181L55.3596 255.372C54.8264 255.938 54.8531 256.829 55.4192 257.362C55.9245 257.838 56.6889 257.868 57.2264 257.466L58.8657 259.01L57.1536 260.828C55.6498 262.424 55.4001 264.749 56.3683 266.587L25.6421 299.209C12.3762 291.046 -3.32439 291.302 -12.2549 300.783C-16.8278 305.638 -18.8799 312.12 -18.5933 319.003C-31.4562 316.058 -44.1554 318.784 -52.4178 327.556C-66.2877 342.281 -62.4027 368.468 -43.7405 386.046C-25.0783 403.624 1.29422 405.936 15.1641 391.21C23.4265 382.438 25.3883 369.599 21.679 356.935C28.5664 356.81 34.9145 354.374 39.4875 349.519C48.4182 340.037 47.7344 324.349 38.7922 311.594L69.5181 278.973C71.4105 279.83 73.7165 279.441 75.2204 277.845L76.9319 276.028L78.5703 277.571C78.2011 278.131 78.2766 278.893 78.782 279.369C79.3481 279.902 80.2393 279.875 80.7725 279.309L81.8936 278.119C82.4268 277.553 82.4001 276.662 81.834 276.128C81.3289 275.653 80.5648 275.623 80.0273 276.024L78.3888 274.481L81.2003 271.496L82.8388 273.039C82.47 273.6 82.5455 274.361 83.0508 274.837C83.6169 275.37 84.5081 275.343 85.0413 274.777L86.1624 273.587C86.6956 273.021 86.6689 272.13 86.1028 271.596C85.5975 271.12 84.8332 271.091 84.2956 271.492L82.6571 269.949L85.4686 266.964L87.1069 268.507C86.738 269.068 86.8134 269.829 87.3188 270.305C87.8849 270.838 88.7761 270.812 89.3093 270.246L90.4304 269.055C90.9636 268.489 90.937 267.598 90.3709 267.065C89.8656 266.589 89.1014 266.559 88.5639 266.961L86.9255 265.417L87.609 264.692C89.5024 262.682 89.4077 259.517 87.3975 257.624L76.6101 247.463Z" fill="#F16B38"/>
<ellipse cx="-1.87134" cy="341.593" rx="16.6639" ry="13.1489" transform="rotate(43.2859 -1.87134 341.593)" fill="black"/>
<rect x="71.6958" y="261.809" width="2.30186" height="136.536" rx="1" transform="rotate(43.2859 71.6958 261.809)" fill="white"/>
<rect x="74.7202" y="264.657" width="2.30186" height="136.536" rx="1" transform="rotate(43.2859 74.7202 264.657)" fill="white"/>
<rect x="68.6714" y="258.959" width="2.30186" height="136.536" rx="1" transform="rotate(43.2859 68.6714 258.959)" fill="white"/>
<path d="M95.0705 475.185C83.4465 479.263 59.7217 487.68 57.8144 488.728L55.1703 468.684C65.2236 467.039 86.957 463.602 93.4636 463.004C99.9703 462.406 96.4995 465.217 93.9508 466.697C100.599 466.342 97.0851 469.31 94.497 470.838C101.653 471.836 97.8609 474.152 95.0705 475.185Z" fill="#76A92C"/>
<path d="M36.1409 382.365C42.9071 375.252 52.6474 382.045 56.6717 386.331L17.2502 465.107L-28.1431 506.55L-73.4478 460.329C-71.2189 457.194 -64.9017 451.851 -57.4634 455.561C-50.0251 459.272 -52.4785 468.975 -54.635 473.362C-52.0549 470.042 -45.1142 464.416 -37.9923 468.475C-30.8705 472.533 -32.9149 480.95 -34.8273 484.65L-24.7142 485.788C-26.9558 481.702 -30.1719 472.601 -25.1038 468.881C-20.0358 465.162 -13.2459 467.82 -10.4845 469.614C-14.0785 467.125 -20.0726 460.053 -15.2972 451.673C-10.5218 443.293 -0.531014 444.56 3.86743 446.24C-0.387976 443.705 -7.52073 436.579 -2.00845 428.355C3.50383 420.131 13.1147 423.978 17.2311 426.929C13.7583 422.417 8.62972 411.653 15.8978 404.694C23.1659 397.735 31.5201 402.804 34.7887 406.209C32.4202 401.225 29.3748 389.478 36.1409 382.365Z" fill="#F9ED32"/>
<path fill-rule="evenodd" clip-rule="evenodd" d="M-27.0464 556.991L-28.0103 556.442L-11.3613 521.551L2.53349 529.47L-13.2448 553.214C-13.0313 553.326 -12.8136 553.441 -12.5918 553.557C-0.589066 559.864 -3.97802 566.025 -7.17284 568.317L-27.0465 556.992L-27.0464 556.991Z" fill="#76A92C"/>
<path d="M137.047 407.311C138.146 389.515 127.119 391.674 121.468 394.979C107.561 393.342 77.6134 388.947 69.0845 384.463C58.4234 378.858 43.4698 389.626 37.0889 394.929C31.9842 399.171 -7.26743 456.063 -26.2552 483.979C-47.1285 481.117 -70.7896 459.227 -80.011 448.64C-80.318 499.278 -15.9753 534.281 17.4528 550.453C44.1954 563.39 61.0201 488.728 66.0896 449.781C70.736 449.742 85.0873 450.704 105.322 454.866C130.615 460.069 135.672 429.558 137.047 407.311Z" fill="#84BC33"/>
<mask id="mask3_715_2" style="mask-type:alpha" maskUnits="userSpaceOnUse" x="-81" y="382" width="219" height="170">
<path d="M137.047 407.311C138.147 389.515 127.12 391.674 121.468 394.979C107.561 393.342 77.6139 388.947 69.085 384.463C58.4239 378.858 43.4703 389.626 37.0894 394.929C31.9847 399.171 -7.26694 456.063 -26.2547 483.979C-47.1281 481.117 -70.7891 459.227 -80.0105 448.64C-80.3175 499.278 -15.9749 534.281 17.4533 550.453C44.1958 563.39 61.0206 488.728 66.0901 449.781C70.7365 449.742 85.0878 450.704 105.322 454.866C130.616 460.069 135.673 429.558 137.047 407.311Z" fill="#84BC33"/>
</mask>
<g mask="url(#mask3_715_2)">
<ellipse cx="28.2119" cy="50.0234" rx="28.2119" ry="50.0234" transform="matrix(-0.868822 -0.495125 -0.495125 0.868822 76.645 493.958)" fill="#BDDB91"/>
</g>
<path d="M116.559 432.393C123.203 450.175 129.713 439.048 132.147 431.223C126.635 431.845 121.438 432.221 116.559 432.393C116.529 432.315 116.5 432.236 116.471 432.156C116.444 432.237 116.416 432.318 116.387 432.399C86.6052 433.424 68.6697 426.895 62.9065 422.942C59.8259 438.236 69.444 432.895 74.638 428.313C74.0738 443.146 82.9899 436.317 87.5185 431.049C89.6286 447.616 97.2979 438.814 100.869 432.342C107.318 449.548 113.842 439.69 116.387 432.399C116.444 432.397 116.502 432.395 116.559 432.393Z" fill="#D9D9D9"/>
<path d="M133.458 430.811C113.982 433.758 71.2876 435.138 56.316 417.085" stroke="black" stroke-width="3"/>
<ellipse cx="6.67244" cy="9.83277" rx="6.67244" ry="9.83277" transform="matrix(-0.868822 -0.495125 -0.495125 0.868822 92.2485 380.986)" fill="#F5F5F5"/>
<ellipse cx="4.32929" cy="6.37981" rx="4.32929" ry="6.37981" transform="matrix(-0.868822 -0.495125 -0.495125 0.868822 86.562 386.139)" fill="black"/>
<ellipse cx="6.67244" cy="9.83277" rx="6.67244" ry="9.83277" transform="matrix(-0.868822 -0.495125 -0.495125 0.868822 109.851 384.73)" fill="#F5F5F5"/>
<ellipse cx="4.32929" cy="6.37981" rx="4.32929" ry="6.37981" transform="matrix(-0.868822 -0.495125 -0.495125 0.868822 104.678 389.906)" fill="black"/>
<ellipse cx="5.44445" cy="4.48414" rx="5.44445" ry="4.48414" transform="matrix(-0.319953 -0.947433 -0.906298 0.422639 45.3315 420.654)" fill="#F9ED32"/>
<ellipse cx="3.78771" cy="3.11962" rx="3.78771" ry="3.11962" transform="matrix(-0.319953 -0.947433 -0.906298 0.422639 51.3301 405.915)" fill="#F9ED32"/>
<ellipse cx="3.78771" cy="3.11962" rx="3.78771" ry="3.11962" transform="matrix(-0.319953 -0.947433 -0.906298 0.422639 40.6357 406.749)" fill="#F9ED32"/>
<rect width="1.31525" height="7.33758" transform="matrix(0.747631 0.664114 0.632489 -0.774569 31.5278 538.611)" fill="#76A92C"/>
<rect width="1.31525" height="7.33758" transform="matrix(0.747631 0.664114 0.632489 -0.774569 12.0298 536.141)" fill="#76A92C"/>
<rect width="1.31525" height="7.33758" transform="matrix(0.747631 0.664114 0.632489 -0.774569 10.3179 524.23)" fill="#76A92C"/>
<rect width="1.31192" height="7.3526" transform="matrix(0.927383 0.374113 0.399161 -0.916881 32.8794 523.644)" fill="#76A92C"/>
<rect width="1.3115" height="7.35446" transform="matrix(0.922763 0.385368 0.408078 -0.912947 24.3931 536.87)" fill="#76A92C"/>
<rect width="1.31192" height="7.3526" transform="matrix(0.927383 0.374113 0.399161 -0.916881 22.5942 527.438)" fill="#76A92C"/>
<rect width="1.30961" height="7.36292" transform="matrix(0.854599 0.519288 0.514402 -0.857549 41.3823 519.831)" fill="#76A92C"/>
<rect width="1.31265" height="7.3493" transform="matrix(0.93442 0.356172 0.384934 -0.922944 47.7925 501.918)" fill="#76A92C"/>
<rect width="1.3099" height="7.36164" transform="matrix(0.894375 0.447319 0.457151 -0.889389 22.2007 515.152)" fill="#76A92C"/>
<rect width="1.3099" height="7.36164" transform="matrix(0.894375 0.447319 0.457151 -0.889389 15.7837 513.982)" fill="#76A92C"/>
<rect width="1.3099" height="7.36164" transform="matrix(0.894375 0.447319 0.457151 -0.889389 31.8467 507.066)" fill="#76A92C"/>
<rect width="1.31158" height="7.35412" transform="matrix(0.800477 0.599364 0.578995 -0.815331 38.0957 511.423)" fill="#76A92C"/>
<rect width="1.31452" height="7.34088" transform="matrix(0.948139 0.317855 0.354483 -0.935063 31.4038 494.586)" fill="#76A92C"/>
<rect width="1.31452" height="7.34088" transform="matrix(0.948139 0.317855 0.354483 -0.935063 24.6313 502.755)" fill="#76A92C"/>
<rect width="1.31452" height="7.34088" transform="matrix(0.948139 0.317855 0.354483 -0.935063 3.14209 536.202)" fill="#76A92C"/>
<rect width="1.31087" height="7.3573" transform="matrix(0.814425 0.580269 0.563466 -0.826139 40.1743 497.623)" fill="#76A92C"/>
<path d="M7.69152 433.541C13.9566 443.61 26.8291 464.121 28.1985 465.618L10.7578 476.5C7.03255 467.021 -0.91597 446.481 -2.90762 440.154C-4.89928 433.828 -1.5951 436.182 0.305948 438.149C-1.49942 431.581 1.95578 433.914 3.90904 435.901C3.20787 428.266 6.13854 431.147 7.69152 433.541Z" fill="#76A92C"/>
<path fill-rule="evenodd" clip-rule="evenodd" d="M86.1102 482.517H90.1618V556.92L109.716 573.327L107.112 576.431L90.1618 562.208V576.638H86.1102V562.323L69.1302 576.571L66.5259 573.467L86.1102 557.034V482.517Z" fill="black"/>
<path d="M88.1208 463.553L127.072 487.465H49.1698L88.1208 463.553Z" fill="#F9ED32"/>
<path fill-rule="evenodd" clip-rule="evenodd" d="M271.759 536.653H275.811V580.353L295.365 596.761L292.761 599.865L275.811 585.642V600.072H271.759V585.757L254.779 600.004L252.175 596.901L271.759 580.468V536.653Z" fill="black"/>
<rect x="236.793" y="509.017" width="71.4684" height="40.1158" rx="5" fill="#F16B38"/>
<mask id="mask4_715_2" style="mask-type:alpha" maskUnits="userSpaceOnUse" x="236" y="509" width="73" height="41">
<rect x="236.793" y="509.692" width="71.4684" height="40.1158" rx="5" fill="#E24536"/>
</mask>
<g mask="url(#mask4_715_2)">
<path d="M236.062 534.298L248.815 525.203L261.169 534.298L273.723 525.203L284.683 534.298L297.436 525.203L308.993 534.298" stroke="white"/>
</g>
<path fill-rule="evenodd" clip-rule="evenodd" d="M46.8327 535.457H50.8843V579.157L70.4386 595.565L67.8343 598.668L50.8843 584.446V598.876H46.8327V584.56L29.8529 598.808L27.2486 595.704L46.8327 579.271V535.457Z" fill="black"/>
<rect x="11.8667" y="507.821" width="71.4684" height="40.1158" rx="5" fill="#F16B38"/>
<mask id="mask5_715_2" style="mask-type:alpha" maskUnits="userSpaceOnUse" x="11" y="508" width="73" height="41">
<rect x="11.8667" y="508.496" width="71.4684" height="40.1158" rx="5" fill="#E24536"/>
</mask>
<g mask="url(#mask5_715_2)">
<path d="M11.1348 533.102L23.8879 524.007L36.2425 533.102L48.7963 524.007L59.7561 533.102L72.5092 524.007L84.0667 533.102" stroke="white"/>
</g>
<circle cx="160.085" cy="543.604" r="61.367" fill="#F16B38"/>
<circle cx="160.085" cy="543.604" r="49.3493" fill="white"/>
<path d="M159.579 508.688L166.742 532.706H189.923L171.169 547.55L178.332 571.567L159.579 556.724L140.825 571.567L147.989 547.55L129.235 532.706H152.416L159.579 508.688Z" fill="#F9ED32"/>
</g>
<defs>
<clipPath id="clip0_715_2">
<rect width="320" height="568" fill="white"/>
</clipPath>
</defs>
</svg>
