<svg width="390" height="844" viewBox="0 0 390 844" fill="none" xmlns="http://www.w3.org/2000/svg">
<g clip-path="url(#clip0_715_2)">
<rect width="390" height="844" fill="#69235C"/>
<path d="M-57.6148 871.306L138.584 -33.7039L180.359 -34.0327L42.6474 870.517L-57.6148 871.306Z" fill="#5A4482" fill-opacity="0.6"/>
<path d="M497.862 843.341L16.2208 -4.26182L-37.3492 8.73208L369.293 874.526L497.862 843.341Z" fill="#A576FB" fill-opacity="0.6"/>
<path d="M-97.1002 935.789L379.537 -4.37205L444.877 -21.1965L105.797 883.545L-97.1002 935.789Z" fill="#D159B6" fill-opacity="0.31"/>
<path d="M329.535 38.5806H68.3029C27.3192 41.0132 51.9483 56.6947 68.3029 61.3456C36.4776 67.808 46.3772 76.8975 68.3029 81.1733C31.1734 85.8732 49.8076 100.539 68.3029 101.735H329.535C357.117 101.735 347.875 82.5967 329.535 81.1733C360.3 74.711 347.113 61.3456 329.535 61.3456C350.752 52.5333 345.969 38.5806 329.535 38.5806Z" fill="#84BC33"/>
<path d="M103.91 79.4061C103.91 80.6861 104.966 81.7421 106.246 81.7421C107.526 81.7421 108.55 80.6861 108.55 79.4061V62.9901H115.91C117.03 62.9901 117.99 62.0621 117.99 60.9101C117.99 59.7261 117.03 58.7981 115.91 58.7981H106.278C104.774 58.7981 103.91 59.6301 103.91 61.1661V79.4061ZM123.194 81.8061C124.186 81.8061 125.018 81.2941 125.53 80.5261C130.554 72.9741 134.106 67.7901 135.642 64.9741C135.354 67.2781 135.29 70.7661 135.29 79.4381C135.29 80.7181 136.346 81.8061 137.626 81.8061C138.906 81.8061 139.93 80.7501 139.93 79.4701V61.3581C139.93 59.8221 138.682 58.5101 137.146 58.5101C136.154 58.5101 135.322 59.0541 134.842 59.7581C129.306 68.0781 126.49 72.2701 124.698 75.5341C124.954 73.2941 125.05 70.4141 125.05 60.8781C125.05 59.5981 123.994 58.5101 122.746 58.5101C121.466 58.5101 120.41 59.5661 120.41 60.8461V78.9581C120.41 80.4941 121.69 81.8061 123.194 81.8061ZM151.165 81.7421C152.445 81.7421 153.501 80.6861 153.501 79.4061V62.9901H157.565C158.685 62.9901 159.645 62.0621 159.645 60.9101C159.645 59.7261 158.685 58.7981 157.565 58.7981H144.797C143.645 58.7981 142.685 59.7261 142.685 60.9101C142.685 62.0621 143.645 62.9901 144.797 62.9901H148.861V79.4061C148.861 80.6861 149.885 81.7421 151.165 81.7421ZM171.54 60.9741C171.028 59.5981 170.004 58.6061 168.66 58.6061H167.412C166.228 58.6061 165.172 59.6621 164.692 60.9741L158.324 78.7021C158.196 79.0221 158.164 79.3101 158.164 79.5981C158.164 80.9421 159.38 81.7421 160.5 81.7421C161.428 81.7421 162.228 81.2621 162.612 80.1421C163.028 78.8301 163.444 77.6461 163.796 76.5261H172.244C172.628 77.6141 173.012 78.7981 173.428 80.0781C173.78 81.1661 174.58 81.7421 175.572 81.7421C176.788 81.7421 178.1 80.8141 178.1 79.4381C178.1 79.1501 178.036 78.8621 177.94 78.5741L171.54 60.9741ZM165.044 72.7181C167.316 65.6461 167.828 63.4381 167.956 61.9661C168.116 63.5661 168.692 65.6141 170.996 72.7181H165.044ZM194.629 69.4541C196.229 68.3661 197.253 66.7981 197.253 64.8781C197.253 61.1981 193.893 58.4781 189.029 58.4781C184.613 58.4781 181.637 60.7181 180.837 62.9261C180.709 63.2781 180.645 63.5981 180.645 63.8861C180.645 65.2941 181.829 66.2541 182.981 66.2541C183.717 66.2541 184.453 65.8381 184.837 64.9101C185.381 63.5661 186.853 62.7021 188.837 62.7021C191.109 62.7021 192.613 63.7581 192.613 65.2301C192.613 66.2541 191.589 67.8541 188.997 67.8541H188.389C187.045 67.8541 186.373 68.9101 186.373 69.9341C186.373 70.8941 187.045 71.8541 188.261 71.8541H188.869C191.525 71.8541 193.509 72.6541 193.509 74.6061C193.509 76.3981 191.877 77.6141 189.029 77.6141C187.109 77.6141 185.157 77.0061 184.549 75.2141C184.229 74.2541 183.461 73.8381 182.661 73.8381C181.541 73.8381 180.325 74.7341 180.325 76.1741C180.325 76.4621 180.357 76.7501 180.453 77.0701C181.285 79.7261 184.933 81.8381 189.317 81.8381C194.821 81.8381 198.181 78.5421 198.181 74.7021C198.181 72.0461 196.485 70.2221 194.629 69.4541ZM213.415 60.9741C212.903 59.5981 211.879 58.6061 210.535 58.6061H209.287C208.103 58.6061 207.047 59.6621 206.567 60.9741L200.199 78.7021C200.071 79.0221 200.039 79.3101 200.039 79.5981C200.039 80.9421 201.255 81.7421 202.375 81.7421C203.303 81.7421 204.103 81.2621 204.487 80.1421C204.903 78.8301 205.319 77.6461 205.671 76.5261H214.119C214.503 77.6141 214.887 78.7981 215.303 80.0781C215.655 81.1661 216.455 81.7421 217.447 81.7421C218.663 81.7421 219.975 80.8141 219.975 79.4381C219.975 79.1501 219.911 78.8621 219.815 78.5741L213.415 60.9741ZM206.919 72.7181C209.191 65.6461 209.703 63.4381 209.831 61.9661C209.991 63.5661 210.567 65.6141 212.871 72.7181H206.919ZM232.472 81.5181C237.944 81.5181 240.76 78.6061 240.76 74.7021C240.76 71.8861 239.032 69.6461 236.536 69.1981C238.104 68.6861 239.48 67.2461 239.48 64.4621C239.48 60.8141 236.728 58.7981 231.864 58.7981H225.56C223.992 58.7981 223.128 59.6621 223.128 61.2301V79.0861C223.128 80.6541 223.992 81.5181 225.56 81.5181H232.472ZM227.768 62.7661H231.864C233.624 62.7661 234.808 63.6621 234.808 65.3901C234.808 67.1501 233.656 68.0141 231.864 68.0141H227.768V62.7661ZM227.768 71.5341H232.504C234.712 71.5341 236.088 72.7181 236.088 74.6061C236.088 76.3981 234.68 77.5501 232.472 77.5501H227.768V71.5341ZM244.035 79.4061C244.035 80.6861 245.091 81.7421 246.371 81.7421C247.651 81.7421 248.675 80.6861 248.675 79.4061V74.3501H252.931C258.019 74.3501 261.635 71.2781 261.635 66.4461C261.635 61.5181 258.019 58.7981 253.219 58.7981H246.339C244.867 58.7981 244.035 59.6301 244.035 61.1021V79.4061ZM248.675 63.0221H253.219C255.363 63.0221 256.995 64.3021 256.995 66.5741C256.995 68.8461 255.363 70.0941 253.219 70.0941H248.675V63.0221ZM274 81.5181C278.8 81.5181 282.416 78.7981 282.416 73.8701C282.416 69.0381 278.8 65.9661 273.712 65.9661H269.456V60.8461C269.456 59.5661 268.4 58.5101 267.152 58.5101C265.872 58.5101 264.816 59.5661 264.816 60.8461V78.7661C264.816 80.5581 265.808 81.5181 267.568 81.5181H274ZM285.296 79.4061C285.296 80.9421 286.48 81.7101 287.632 81.7101C288.784 81.7101 289.936 80.9421 289.936 79.4061V60.9101C289.936 59.3741 288.784 58.6061 287.632 58.6061C286.48 58.6061 285.296 59.3741 285.296 60.9101V79.4061ZM269.456 70.2221H274C276.144 70.2221 277.776 71.4701 277.776 73.7421C277.776 76.0141 276.144 77.2941 274 77.2941H269.456V70.2221Z" fill="white"/>
<ellipse cx="276.463" cy="409.577" rx="3.05885" ry="1.48168" fill="#5EB9EC"/>
<ellipse cx="289.92" cy="321.208" rx="3.05885" ry="1.48168" fill="#F7382C"/>
<ellipse cx="106.802" cy="110.117" rx="3.05885" ry="1.48168" fill="#F7382C"/>
<ellipse cx="122.627" cy="196.787" rx="3.05885" ry="1.48168" fill="#F7382C"/>
<ellipse cx="41.8015" cy="130.117" rx="3.05885" ry="1.48168" fill="#F7382C"/>
<ellipse cx="35.1433" cy="308.961" rx="3.05885" ry="1.48168" fill="#F7382C"/>
<ellipse cx="126.121" cy="477.917" rx="3.05885" ry="1.48168" fill="#F7382C"/>
<ellipse cx="78.1355" cy="390.112" rx="3.05885" ry="1.48168" fill="#F9ED32"/>
<ellipse cx="106.802" cy="274.237" rx="3.05885" ry="1.48168" fill="#F9ED32"/>
<ellipse cx="202.14" cy="440.476" rx="3.05885" ry="1.48168" fill="#F9ED32"/>
<ellipse cx="139.452" cy="143.657" rx="3.05885" ry="1.48168" fill="#F9ED32"/>
<ellipse cx="171.842" cy="352.24" rx="3.05885" ry="1.48168" fill="#F9ED32"/>
<ellipse cx="186" cy="184.232" rx="3.05885" ry="1.48168" fill="#F9ED32"/>
<ellipse cx="261.406" cy="133.806" rx="3.05885" ry="1.48168" fill="#F9ED32"/>
<ellipse cx="129.18" cy="324.172" rx="3.05885" ry="1.48168" fill="#F7812C"/>
<ellipse cx="35.1433" cy="225.627" rx="3.05885" ry="1.48168" fill="#F7812C"/>
<ellipse cx="221.557" cy="387.148" rx="3.05885" ry="1.48168" fill="#F7812C"/>
<ellipse cx="153.449" cy="409.577" rx="3.05885" ry="1.48168" fill="#F7812C"/>
<ellipse cx="32.0847" cy="474.954" rx="3.05885" ry="1.48168" fill="#F7812C"/>
<ellipse cx="227.675" cy="224.146" rx="3.05885" ry="1.48168" fill="#F7812C"/>
<ellipse cx="208.258" cy="147.987" rx="3.05885" ry="1.48168" fill="#5EB9EC"/>
<ellipse cx="270.345" cy="181.269" rx="3.05885" ry="1.48168" fill="#5EB9EC"/>
<ellipse cx="258.347" cy="262.257" rx="3.05885" ry="1.48168" fill="#5EB9EC"/>
<ellipse cx="199.081" cy="277.2" rx="3.05885" ry="1.48168" fill="#5EB9EC"/>
<ellipse cx="22.8015" cy="377.157" rx="3.05885" ry="1.48168" fill="#5EB9EC"/>
<ellipse cx="81.1946" cy="228.591" rx="3.05885" ry="1.48168" fill="#5EB9EC"/>
<ellipse cx="224.616" cy="480.881" rx="3.05885" ry="1.48168" fill="#5EB9EC"/>
<ellipse cx="72.0178" cy="505.593" rx="3.05885" ry="1.48168" fill="#F7382C"/>
<ellipse cx="290.123" cy="507.98" rx="3.05885" ry="1.48168" fill="#5EB9EC"/>
<path d="M244.066 615.886C255.475 620.087 278.815 628.585 280.898 628.976L271.837 646.441C263.015 641.326 244.009 630.177 238.559 626.5C233.108 622.823 237.401 622.822 240.228 623.282C234.801 619.324 239.215 619.227 242.1 619.674C237.026 614.327 241.296 614.921 244.066 615.886Z" fill="#EEB00F"/>
<path fill-rule="evenodd" clip-rule="evenodd" d="M358.265 721.173L359.261 720.9L352.604 686.767L338.262 690.702L346.782 714.89C346.564 714.942 346.341 714.996 346.114 715.05C333.852 717.982 335.43 724.107 337.751 726.802L358.265 721.173L358.265 721.173Z" fill="#ECBC40"/>
<path fill-rule="evenodd" clip-rule="evenodd" d="M334.009 725.162L335.004 724.889L328.348 690.755L314.005 694.691L322.525 718.879C322.307 718.931 322.085 718.984 321.858 719.039C309.595 721.971 311.173 728.096 313.495 730.791L334.009 725.162L334.009 725.162Z" fill="#ECBC40"/>
<path d="M296.739 549.811C316.933 521.463 295.129 528.234 281.703 535.163L329.068 692.386L410.146 674.974C406.875 653.831 396.624 666.277 391.908 675.143C392.92 646.508 374.96 660.937 365.854 671.731C380.328 638.121 356.869 650.56 343.33 660.98C375.945 626.818 349.208 633.287 331.763 640.791C358.163 617.601 337.353 618.397 323.649 621.694C355.326 604.473 332.366 604.005 316.926 605.924C349.72 588.581 326.19 586.153 310.326 587.107C341.539 559.815 318.358 562.266 302.866 566.904C331.955 550.021 310.902 548.474 296.739 549.811Z" fill="#EB5D3A"/>
<path d="M263.701 532.77C281.894 527.481 291.459 534.188 293.967 538.203C307.764 574.223 337.613 648.939 346.638 659.646C355.663 670.353 400.074 673.942 421.151 674.397C379.879 689.109 293.946 716.147 280.386 706.607C266.826 697.066 261.843 665.64 261.047 651.119L267.007 581.379C259.797 583.932 242.457 589.022 230.776 588.96C219.096 588.898 218.324 580.867 219.399 576.859C209.159 545.137 240.96 539.381 263.701 532.77Z" fill="#FCC537"/>
<mask id="mask0_715_2" style="mask-type:alpha" maskUnits="userSpaceOnUse" x="217" y="530" width="205" height="179">
<path d="M263.701 532.77C281.894 527.481 291.459 534.188 293.967 538.203C307.764 574.223 337.613 648.939 346.638 659.646C355.663 670.353 400.074 673.942 421.151 674.397C379.879 689.109 293.946 716.147 280.386 706.607C266.826 697.066 261.843 665.64 261.047 651.119L267.007 581.379C259.797 583.932 242.457 589.022 230.776 588.96C219.096 588.898 218.324 580.867 219.399 576.859C209.159 545.137 240.96 539.381 263.701 532.77Z" fill="#FCC537"/>
</mask>
<g mask="url(#mask0_715_2)">
<path d="M318.006 706.579C302.435 642.639 272.044 648.25 258.796 659.048L272.777 718.99L318.006 706.579Z" fill="#FDCF8C"/>
</g>
<ellipse cx="8.16829" cy="10.3955" rx="8.16829" ry="10.3955" transform="matrix(-0.964353 0.264619 0.264619 0.964353 262.055 519.226)" fill="#F5F5F5"/>
<ellipse cx="5.29984" cy="6.74494" rx="5.29984" ry="6.74494" transform="matrix(-0.964353 0.264619 0.264619 0.964353 261.22 527.026)" fill="black"/>
<ellipse cx="8.16829" cy="10.3955" rx="8.16829" ry="10.3955" transform="matrix(-0.964353 0.264619 0.264619 0.964353 243.324 521.157)" fill="#F5F5F5"/>
<ellipse cx="5.29984" cy="6.74494" rx="5.29984" ry="6.74494" transform="matrix(-0.964353 0.264619 0.264619 0.964353 242.489 528.957)" fill="black"/>
<path d="M231.951 575.756C220.977 552.163 219.542 575.748 219.163 577.029C242.572 576.161 254.185 571.225 257.065 568.865C264.841 572.97 278.065 577.394 268.75 562.245C276.201 564.87 288.144 566.694 276.307 552.99C274.795 556.348 268.831 564.224 257.065 568.865C245.13 556.224 243.298 566.718 243.873 573.544C236.312 560.174 232.775 569.448 231.951 575.756Z" fill="white"/>
<path d="M219.203 577.023C235.149 577.064 269.245 571.646 278.06 549.644" stroke="black" stroke-width="3"/>
<ellipse cx="5.51434" cy="4.28378" rx="5.51434" ry="4.28378" transform="matrix(-0.964353 0.264619 0.264619 0.964353 360.983 675.62)" fill="#EB5D3A"/>
<ellipse cx="3.83633" cy="2.98023" rx="3.83633" ry="2.98023" transform="matrix(-0.964353 0.264619 0.264619 0.964353 347.703 668.898)" fill="#EB5D3A"/>
<ellipse cx="3.83633" cy="2.98023" rx="3.83633" ry="2.98023" transform="matrix(-0.964353 0.264619 0.264619 0.964353 346.648 679.554)" fill="#EB5D3A"/>
<rect width="1.60133" height="7.79387" transform="matrix(-0.996198 0.0871202 0.0752197 0.997167 269.491 661.89)" fill="#FCC537"/>
<rect width="1.60235" height="7.78861" transform="matrix(-0.927107 0.374797 0.38202 0.924154 280.679 673.811)" fill="#FCC537"/>
<rect width="1.60248" height="7.78795" transform="matrix(-0.93101 0.364994 0.371603 0.928392 277.262 657.544)" fill="#FCC537"/>
<rect width="1.60235" height="7.78861" transform="matrix(-0.927107 0.374797 0.38202 0.924154 286.09 665.268)" fill="#FCC537"/>
<rect width="1.60305" height="7.78498" transform="matrix(-0.970478 0.241191 0.239599 0.970872 275.82 681.545)" fill="#FCC537"/>
<rect width="1.60213" height="7.78977" transform="matrix(-0.920707 0.390255 0.398433 0.917198 279.873 695.394)" fill="#FCC537"/>
<rect width="1.60296" height="7.78543" transform="matrix(-0.950908 0.309475 0.312485 0.949923 297.18 671.573)" fill="#FCC537"/>
<rect width="1.60296" height="7.78543" transform="matrix(-0.950908 0.309475 0.312485 0.949923 295.313 685.024)" fill="#FCC537"/>
<rect width="1.60245" height="7.78808" transform="matrix(-0.987235 0.159269 0.152114 0.988363 286.165 686.777)" fill="#FCC537"/>
<rect width="1.60156" height="7.79272" transform="matrix(-0.906308 0.422618 0.432722 0.901527 306.035 693.729)" fill="#FCC537"/>
<rect width="1.60156" height="7.79272" transform="matrix(-0.906308 0.422618 0.432722 0.901527 305.283 682.479)" fill="#FCC537"/>
<rect width="1.60267" height="7.78696" transform="matrix(-0.983765 0.179461 0.173669 0.984804 295.741 698.422)" fill="#FCC537"/>
<path d="M294.915 654.682C297.951 643.077 304.067 619.351 304.237 617.286L323.053 623.533C318.8 632.772 309.505 652.697 306.35 658.479C303.194 664.261 302.724 660.121 302.883 657.328C299.438 663.128 298.856 658.884 298.996 656.037C294.095 661.695 294.233 657.491 294.915 654.682Z" fill="#EEB00F"/>
<path d="M428.292 529.394L273.173 467.842L302.053 403.352L444.344 459.814L428.292 529.394Z" fill="white"/>
<path d="M438.223 486.355L291.032 427.949L302.051 403.352L444.342 459.814L438.223 486.355Z" fill="#2E2F35"/>
<path d="M441.616 471.632L297.147 414.306L302.053 403.352L444.344 459.814L441.616 471.632Z" fill="#646672"/>
<ellipse cx="305.069" cy="425.183" rx="5.04442" ry="3.78332" transform="rotate(-158.356 305.069 425.183)" fill="#F16B38"/>
<ellipse cx="318.087" cy="430.349" rx="5.04442" ry="3.78332" transform="rotate(-158.356 318.087 430.349)" fill="#F16B38"/>
<path fill-rule="evenodd" clip-rule="evenodd" d="M289.48 474.335L290.807 474.862L298.437 457.42L301.348 458.704L311.285 435.985L308.37 434.711L308.586 434.217L307.273 433.643L307.057 434.137L304.261 432.914L294.351 455.619L297.128 456.844L289.48 474.335ZM324.953 488.405L326.285 488.934L342.65 447.693L341.318 447.164L324.953 488.405ZM359.506 502.103L360.894 502.654L366.565 484.104L369.458 485.001L376.734 461.296L373.812 460.4L374.031 459.684L372.661 459.264L372.441 459.979L369.405 459.048L362.154 482.736L365.166 483.67L359.506 502.103ZM394.438 515.963L395.796 516.502L401.42 496.417L403.808 497.094L410.503 473.218L403.122 471.15L396.452 495.008L400.031 496.023L394.438 515.963ZM412.267 523.025L413.61 523.568L424.224 480.228L422.832 479.887L412.267 523.025ZM378.541 509.654L377.187 509.117L389.522 466.105L390.899 466.501L378.541 509.654ZM343.913 495.914L342.584 495.386L349.222 477.089L346.064 475.932L354.5 452.639L357.675 453.791L357.718 453.672L359.065 454.161L359.022 454.28L361.706 455.254L353.244 478.562L350.566 477.581L343.913 495.914ZM308.721 481.948L307.358 481.407L324.958 440.361L326.275 440.925L308.721 481.948Z" fill="#2E2F35"/>
<rect x="377.597" y="458.015" width="11.7348" height="2.82893" transform="rotate(-158.356 377.597 458.015)" fill="#646672"/>
<rect x="379.22" y="453.924" width="11.7348" height="2.82893" transform="rotate(-158.356 379.22 453.924)" fill="#646672"/>
<rect x="363.573" y="452.451" width="11.7348" height="2.82893" transform="rotate(-158.356 363.573 452.451)" fill="#646672"/>
<rect x="365.196" y="448.36" width="11.7348" height="2.82893" transform="rotate(-158.356 365.196 448.36)" fill="#646672"/>
<rect x="349.549" y="446.886" width="11.7348" height="2.82893" transform="rotate(-158.356 349.549 446.886)" fill="#646672"/>
<rect x="351.173" y="442.795" width="11.7348" height="2.82893" transform="rotate(-158.356 351.173 442.795)" fill="#646672"/>
<path d="M293.67 296.387C304.147 302.658 325.503 315.544 327.11 316.924L335.679 298.974C326.062 295.29 305.239 287.432 298.878 285.478C292.517 283.525 295.175 286.869 297.299 288.786C290.724 287.025 293.379 290.524 295.529 292.494C288.045 291.875 291.172 294.831 293.67 296.387Z" fill="#C03226"/>
<path fill-rule="evenodd" clip-rule="evenodd" d="M409.33 383.289L410.145 382.865L395.48 349.605L383.74 355.707L397.512 378.705C397.331 378.791 397.147 378.877 396.96 378.966C386.81 383.749 389.783 389.659 392.538 392.016L409.33 383.289L409.33 383.289Z" fill="#C03226"/>
<path d="M316.145 198.059C314.683 185.8 309.012 191.006 306.359 195.141L357.21 289.213L441.214 319.056L468.892 309.165C463.911 289.591 459.5 301.817 457.917 310.376L447.169 310.346C445.93 289.327 438.802 299.928 435.393 307.856L425.194 301.676C436.578 284.778 424.518 288.05 417.066 291.799L410.713 284.618C408.889 264.203 401.84 274.587 398.544 282.332L389.356 283.862C381.961 266.941 378.968 278.28 378.396 286.064L368.793 283.193C373.412 266.916 365.275 272.501 360.629 277.328L354.199 268.316C363.347 255.376 354.009 256.185 348.197 258.208L343.857 249.856C354.56 240.101 345.525 240.42 339.67 241.8L336.736 234.714C346.54 225.725 338.758 225.718 333.642 226.838L331.211 220.24C340.946 211.886 332.748 211.912 327.432 212.969L324.573 207.467C331.271 197.497 324.253 198.607 319.906 200.409L316.145 198.059Z" fill="#253464"/>
<path d="M308.181 242.705C312.423 240.12 313.401 236.872 313.36 235.571C319.158 252.427 313.54 303.572 331.202 355.519C349.069 408.069 421.83 349.013 472.052 308.074C397.235 317.22 438.27 268.991 383.872 283.917C352.633 292.489 336.138 218.339 323.161 201.917C310.184 185.496 283 198.83 268.677 209.129C254.355 219.428 259.088 236.167 267.284 248.886C275.48 261.604 302.879 245.936 308.181 242.705Z" fill="#E53D30"/>
<mask id="mask1_715_2" style="mask-type:alpha" maskUnits="userSpaceOnUse" x="259" y="194" width="214" height="183">
<path d="M308.182 242.706C312.424 240.12 313.401 236.873 313.36 235.572C319.158 252.428 313.541 303.572 331.203 355.519C349.07 408.069 421.83 349.014 472.052 308.074C397.236 317.22 438.271 268.991 383.872 283.918C352.633 292.49 336.138 218.34 323.162 201.918C310.185 185.496 283 198.83 268.678 209.129C254.355 219.429 259.088 236.168 267.284 248.886C275.48 261.604 302.88 245.937 308.182 242.706Z" fill="#E53D30"/>
</mask>
<g mask="url(#mask1_715_2)">
<path d="M385.104 372.337C363.386 298.44 331.839 309.272 318.78 323.926L335.573 387.923L385.104 372.337Z" fill="#F39077"/>
</g>
<ellipse cx="288.817" cy="203.945" rx="7.03442" ry="9.2507" transform="rotate(-27.4602 288.817 203.945)" fill="#F5F5F5"/>
<ellipse cx="289.865" cy="207.558" rx="4.56415" ry="6.00214" transform="rotate(-27.4602 289.865 207.558)" fill="black"/>
<ellipse cx="274.266" cy="209.657" rx="7.03442" ry="9.2507" transform="rotate(-27.4602 274.266 209.657)" fill="#F5F5F5"/>
<ellipse cx="276.141" cy="213.085" rx="4.56415" ry="6.00214" transform="rotate(-27.4602 276.141 213.085)" fill="black"/>
<rect x="345.264" y="370.099" width="1.38055" height="6.9275" transform="rotate(141.857 345.264 370.099)" fill="#E53D30"/>
<rect x="365.513" y="367.536" width="1.38055" height="6.9275" transform="rotate(141.857 365.513 367.536)" fill="#E53D30"/>
<rect x="368.299" y="356.016" width="1.38055" height="6.9275" transform="rotate(141.857 368.299 356.016)" fill="#E53D30"/>
<rect x="345.166" y="355.653" width="1.38055" height="6.9275" transform="rotate(159.427 345.166 355.653)" fill="#E53D30"/>
<rect x="352.745" y="368.353" width="1.38055" height="6.9275" transform="rotate(158.803 352.745 368.353)" fill="#E53D30"/>
<rect x="355.407" y="359.225" width="1.38055" height="6.9275" transform="rotate(159.427 355.407 359.225)" fill="#E53D30"/>
<rect x="336.758" y="352.046" width="1.38055" height="6.9275" transform="rotate(151.106 336.758 352.046)" fill="#E53D30"/>
<rect x="331.715" y="334.802" width="1.38055" height="6.9275" transform="rotate(160.417 331.715 334.802)" fill="#E53D30"/>
<rect x="356.872" y="347.354" width="1.38055" height="6.9275" transform="rotate(155.312 356.872 347.354)" fill="#E53D30"/>
<rect x="363.566" y="346.166" width="1.38055" height="6.9275" transform="rotate(155.312 363.566 346.166)" fill="#E53D30"/>
<rect x="347.657" y="339.63" width="1.38055" height="6.9275" transform="rotate(155.312 347.657 339.63)" fill="#E53D30"/>
<rect x="340.86" y="343.895" width="1.38055" height="6.9275" transform="rotate(146.156 340.86 343.895)" fill="#E53D30"/>
<rect x="349.188" y="327.57" width="1.38055" height="6.9275" transform="rotate(162.511 349.188 327.57)" fill="#E53D30"/>
<rect x="355.443" y="335.4" width="1.38055" height="6.9275" transform="rotate(162.511 355.443 335.4)" fill="#E53D30"/>
<rect x="374.64" y="367.515" width="1.38055" height="6.9275" transform="rotate(162.511 374.64 367.515)" fill="#E53D30"/>
<rect x="339.914" y="330.583" width="1.38055" height="6.9275" transform="rotate(147.368 339.914 330.583)" fill="#E53D30"/>
<path d="M266.763 244.772C267.413 239.419 270.321 231.417 276.763 242.145C276.775 242.142 276.786 242.138 276.798 242.134C276.838 236.96 278.913 229.128 286.894 238.364C286.939 238.345 286.985 238.325 287.03 238.306C286.158 233.102 286.779 225.325 296.029 233.926C294.186 234.986 291.021 236.599 287.03 238.306C287.045 238.398 287.061 238.488 287.077 238.578C287.016 238.506 286.955 238.434 286.894 238.364C283.913 239.635 280.48 240.954 276.798 242.134C276.797 242.157 276.797 242.179 276.797 242.202C276.786 242.183 276.775 242.164 276.763 242.145C273.572 243.167 270.194 244.084 266.763 244.772Z" fill="white"/>
<path d="M265.734 244.934C275.087 243.415 295.968 237.523 304.668 226.107" stroke="black" stroke-width="3"/>
<path d="M361.558 328.901C367.176 318.06 378.733 295.957 380.011 294.268L361.571 286.813C358.482 296.637 351.913 317.902 350.352 324.371C348.791 330.839 351.966 327.982 353.749 325.744C352.394 332.415 355.725 329.55 357.559 327.284C357.399 334.792 360.158 331.491 361.558 328.901Z" fill="#C03226"/>
<path d="M85.6374 273.53C72.9555 276.298 47.0293 281.859 44.7798 281.96L51.2071 302.105C61.3396 297.959 83.1925 288.889 89.5434 285.772C95.8944 282.656 91.4001 281.999 88.3592 282.061C94.735 278.638 90.1305 277.86 87.0314 277.899C93.2808 272.931 88.706 272.916 85.6374 273.53Z" fill="#5EA1C9"/>
<path fill-rule="evenodd" clip-rule="evenodd" d="M-40.4472 381.993L-41.3616 381.401L-23.1235 348.148L-9.944 356.679L-26.7144 379.061C-26.5113 379.183 -26.3043 379.307 -26.0932 379.434C-14.679 386.28 -18.3395 392.127 -21.5966 394.195L-40.4472 381.993Z" fill="#253464"/>
<path d="M53.8981 185.326C57.6148 184.53 60.9446 191.221 62.1449 194.666L54.4304 226.439L-17.0074 323.13L-87.9061 292.996L-98.1739 270.591C-96.5213 268.48 -92.022 265.03 -87.2461 268.122C-82.4702 271.213 -86.8045 276.771 -89.5686 279.164L-82.0874 284.007C-81.8942 280.45 -79.6149 274.091 -72.0436 277.104C-64.4722 280.118 -68.994 286.584 -72.2013 289.441L-66.6848 293.012C-66.9362 289.811 -65.7026 284.04 -58.7572 286.562C-51.8117 289.085 -53.9973 295.112 -55.9583 297.81L-50.4551 300.407C-50.462 297.436 -48.9822 291.903 -43.0075 293.54C-37.0328 295.177 -38.0089 301.279 -39.2438 304.126C-36.5455 305.479 -31.2129 307.887 -31.4688 306.692C-31.7887 305.198 -31.9216 302.753 -28.338 300.033C-25.4711 297.857 -21.501 302.779 -19.8744 305.511L-16.9884 301.053C-20.2736 299.999 -25.9394 296.46 -22.3215 290.738C-18.7036 285.016 -12.7735 289.627 -10.2608 292.647L-6.00993 287.571C-8.94671 285.813 -14.0652 281.263 -11.0451 277.128C-8.02491 272.992 -2.83403 277.474 -0.616115 280.232L5.88923 272.005C3.38807 270.457 -0.981059 266.549 1.55172 263.299C4.0845 260.049 8.40976 263.914 10.2558 266.253L14.1198 262.105C10.9843 261.041 5.64085 257.711 9.3511 252.907C13.0613 248.102 18.1551 252.172 20.2382 254.807L23.0304 252.647C20.3648 250.635 15.6944 245.989 18.3373 243.497C20.9802 241.004 25.5138 244.889 27.4502 247.144L29.5459 245.028C26.6386 243.337 21.7559 238.956 25.4826 234.966C29.2092 230.975 34.0272 235.16 35.9704 237.752L43.841 229.126C40.8822 228.545 35.3324 226.02 36.8028 220.568C38.2733 215.117 46.4542 217.287 50.3608 219.054L50.9308 211.99C46.9685 212.665 39.172 212.669 39.6849 207.284C40.1978 201.899 47.1835 202.323 50.6123 203.209L51.668 197.603C46.1461 192.885 49.2522 186.32 53.8981 185.326Z" fill="#253464"/>
<path d="M103.279 219.6C118.8 224.322 118.196 235.69 115.955 240.784C105.652 271.754 82.5975 253.322 72.3579 240.235C49.5147 288.478 76.3869 344.221 14.5493 368.051C-47.2884 391.881 -123.322 242.09 -99.2792 268.828C-80.0454 290.218 -40.2912 303.285 -22.8184 307.145C-7.87305 287.011 25.7607 243.463 40.7329 230.347C59.4481 213.951 35.189 192.166 65.0142 192.835C94.8393 193.503 83.8782 213.698 103.279 219.6Z" fill="#6DBBE9"/>
<ellipse cx="81.2419" cy="200.886" rx="8.6225" ry="11.3391" transform="rotate(32.9147 81.2419 200.886)" fill="#F5F5F5"/>
<ellipse cx="79.0781" cy="204.229" rx="5.59455" ry="7.35718" transform="rotate(32.9147 79.0781 204.229)" fill="black"/>
<ellipse cx="99.5358" cy="208.708" rx="8.6225" ry="11.3391" transform="rotate(32.9147 99.5358 208.708)" fill="#F5F5F5"/>
<ellipse cx="97.372" cy="212.051" rx="5.59455" ry="7.35718" transform="rotate(32.9147 97.372 212.051)" fill="black"/>
<path d="M97.3681 246.711C103.372 228.128 93.6067 234.914 87.9733 240.63C95.04 247.321 104.558 249.805 108.434 250.211C109.136 233.405 101.349 240.876 97.3681 246.711Z" fill="white"/>
<path d="M110.582 250.646C104.838 250.151 91.1792 246.468 82.4972 235.69" stroke="black" stroke-width="3"/>
<mask id="mask2_715_2" style="mask-type:alpha" maskUnits="userSpaceOnUse" x="-104" y="192" width="222" height="179">
<path d="M103.279 219.6C118.8 224.321 118.196 235.69 115.955 240.784C105.652 271.753 82.5975 253.321 72.3579 240.234C49.5147 288.478 76.3869 344.221 14.5493 368.051C-47.2884 391.881 -123.322 242.09 -99.2792 268.827C-80.0454 290.217 -40.2912 303.285 -22.8184 307.145C-7.87305 287.011 25.7607 243.463 40.7329 230.346C59.4481 213.951 35.189 192.166 65.0142 192.834C94.8393 193.503 83.8782 213.698 103.279 219.6Z" fill="#6DBBE9"/>
</mask>
<g mask="url(#mask2_715_2)">
<path d="M9.7829 331.003C24.7945 307.811 47.2568 314.124 56.6115 320.179C65.3363 332.391 27.3695 403.214 2.57241 377.973C-22.2247 352.732 -8.9816 359.992 9.7829 331.003Z" fill="#A8E2FB"/>
</g>
<rect x="47.3496" y="331.253" width="1.69222" height="8.49145" transform="rotate(22.2315 47.3496 331.253)" fill="#253464"/>
<rect x="31.3096" y="340.37" width="1.69222" height="8.49145" transform="rotate(39.8021 31.3096 340.37)" fill="#253464"/>
<rect x="44.7358" y="324.424" width="1.69222" height="8.49145" transform="rotate(39.178 44.7358 324.424)" fill="#253464"/>
<rect x="33.2036" y="329.673" width="1.69222" height="8.49145" transform="rotate(39.8021 33.2036 329.673)" fill="#253464"/>
<rect x="38.2466" y="344.791" width="1.69222" height="8.49145" transform="rotate(31.481 38.2466 344.791)" fill="#253464"/>
<rect x="28.6719" y="321.307" width="1.69222" height="8.49145" transform="rotate(40.7917 28.6719 321.307)" fill="#253464"/>
<rect x="19.8613" y="332.75" width="1.69222" height="8.49145" transform="rotate(35.6872 19.8613 332.75)" fill="#253464"/>
<rect x="17.2153" y="347.25" width="1.69222" height="8.49145" transform="rotate(35.6872 17.2153 347.25)" fill="#253464"/>
<rect x="25.8774" y="351.908" width="1.69222" height="8.49145" transform="rotate(26.5307 25.8774 351.908)" fill="#253464"/>
<rect x="3.43652" y="352.925" width="1.69222" height="8.49145" transform="rotate(42.8857 3.43652 352.925)" fill="#253464"/>
<rect x="7.98926" y="341.517" width="1.69222" height="8.49145" transform="rotate(42.8857 7.98926 341.517)" fill="#253464"/>
<rect x="12.2661" y="360.982" width="1.69222" height="8.49145" transform="rotate(27.7429 12.2661 360.982)" fill="#253464"/>
<path d="M22.0898 318.326C22.4504 305.35 23.2824 278.848 23.7249 276.64L2.62588 278.038C4.21496 288.87 7.76797 312.262 9.26734 319.175C10.7667 326.089 12.4838 321.885 13.155 318.918C14.9448 325.929 16.8067 321.647 17.5139 318.629C20.8347 325.889 21.9482 321.452 22.0898 318.326Z" fill="#5EA1C9"/>
<path fill-rule="evenodd" clip-rule="evenodd" d="M99.6516 369.31C97.6414 367.417 94.477 367.512 92.5837 369.522L91.9002 370.248L90.2609 368.704C90.63 368.143 90.5546 367.382 90.0492 366.906C89.4831 366.372 88.5919 366.399 88.0587 366.965L86.9375 368.155C86.4043 368.722 86.431 369.613 86.9971 370.146C87.5023 370.622 88.2664 370.652 88.8039 370.25L90.4433 371.794L87.632 374.779L85.9925 373.235C86.3616 372.674 86.2861 371.913 85.7807 371.437C85.2146 370.904 84.3234 370.93 83.7902 371.496L82.6691 372.687C82.1359 373.253 82.1626 374.144 82.7287 374.677C83.2339 375.153 83.9979 375.183 84.5355 374.782L86.1751 376.326L83.3641 379.31L81.7248 377.766C82.0935 377.206 82.018 376.445 81.5127 375.969C80.9466 375.436 80.0555 375.462 79.5223 376.028L78.4011 377.219C77.8679 377.785 77.8946 378.676 78.4607 379.209C78.966 379.685 79.7304 379.715 80.2679 379.313L81.9072 380.857L80.1951 382.675C78.6913 384.272 78.4416 386.596 79.4098 388.434L48.6836 421.056C35.4177 412.893 19.7171 413.149 10.7866 422.63C6.21368 427.485 4.16157 433.968 4.44824 440.85C-8.41474 437.905 -21.1139 440.631 -29.3763 449.403C-43.2462 464.129 -39.3612 490.316 -20.699 507.893C-2.03679 525.471 24.3357 527.783 38.2056 513.057C46.468 504.285 48.4298 491.446 44.7205 478.782C51.6079 478.657 57.956 476.221 62.529 471.366C71.4597 461.884 70.7759 446.196 61.8337 433.442L92.5596 400.82C94.452 401.677 96.758 401.289 98.2619 399.692L99.9734 397.875L101.612 399.418C101.243 399.979 101.318 400.74 101.824 401.216C102.39 401.749 103.281 401.723 103.814 401.156L104.935 399.966C105.468 399.4 105.442 398.509 104.876 397.976C104.37 397.5 103.606 397.47 103.069 397.871L101.43 396.328L104.242 393.343L105.88 394.886C105.511 395.447 105.587 396.208 106.092 396.684C106.658 397.217 107.55 397.19 108.083 396.624L109.204 395.434C109.737 394.868 109.71 393.977 109.144 393.444C108.639 392.968 107.875 392.938 107.337 393.34L105.699 391.796L108.51 388.811L110.148 390.354C109.779 390.915 109.855 391.676 110.36 392.152C110.926 392.686 111.818 392.659 112.351 392.093L113.472 390.902C114.005 390.336 113.978 389.445 113.412 388.912C112.907 388.436 112.143 388.406 111.605 388.808L109.967 387.265L110.651 386.539C112.544 384.529 112.449 381.364 110.439 379.471L99.6516 369.31Z" fill="#F16B38"/>
<ellipse cx="21.1702" cy="463.44" rx="16.6639" ry="13.1489" transform="rotate(43.2859 21.1702 463.44)" fill="black"/>
<rect x="94.7373" y="383.656" width="2.30186" height="136.536" rx="1" transform="rotate(43.2859 94.7373 383.656)" fill="white"/>
<rect x="97.7617" y="386.504" width="2.30186" height="136.536" rx="1" transform="rotate(43.2859 97.7617 386.504)" fill="white"/>
<rect x="91.7129" y="380.807" width="2.30186" height="136.536" rx="1" transform="rotate(43.2859 91.7129 380.807)" fill="white"/>
<rect x="-7.76025" y="471.462" width="31.119" height="5.38072" rx="2" transform="rotate(43.2859 -7.76025 471.462)" fill="black"/>
<path d="M140.506 613.146C130.1 619.738 108.881 633.283 107.259 634.735L100.167 615.801C109.592 611.934 129.992 603.688 136.196 601.64C142.401 599.592 139.653 603.112 137.503 605.129C143.9 603.284 141.145 606.968 138.968 609.04C146.165 608.4 142.992 611.511 140.506 613.146Z" fill="#76A92C"/>
<path d="M62.1797 535.99C67.1693 527.535 78.1896 531.959 83.0761 535.228L62.4167 620.86L27.5278 671.465L-27.0259 636.639C-25.5607 633.083 -20.6095 626.454 -12.5265 628.393C-4.44356 630.333 -4.64777 640.339 -5.76025 645.1C-3.99454 641.283 1.50017 634.238 9.35333 636.588C17.2065 638.938 17.1108 647.598 16.0814 651.635L26.1908 650.465C23.0863 646.989 17.9023 638.846 22.002 634.08C26.1018 629.315 33.3159 630.374 36.4105 631.5C32.3482 629.885 24.9148 624.345 27.6795 615.105C30.4441 605.865 40.4633 604.848 45.1273 605.494C40.4101 603.983 31.8552 598.647 35.3728 589.392C38.8904 580.138 49.121 581.72 53.7966 583.669C49.3965 580.055 41.9746 570.723 47.4878 562.306C53.0011 553.888 62.2826 556.945 66.2343 559.525C62.8038 555.203 57.1902 544.445 62.1797 535.99Z" fill="#F9ED32"/>
<path fill-rule="evenodd" clip-rule="evenodd" d="M14.1889 716.898L24.2826 719.918L24.2826 719.918L37.1667 723.773C39.7629 720.819 41.6765 714.053 28.5615 710.613C28.319 710.549 28.081 710.487 27.8475 710.425L37.8704 683.737L22.5488 679.153L14.1889 716.898Z" fill="#76A92C"/>
<path fill-rule="evenodd" clip-rule="evenodd" d="M39.9603 720.362L38.8974 720.044L47.2573 682.299L62.5789 686.884L52.5559 713.572C52.7893 713.633 53.0271 713.696 53.2695 713.759C66.3845 717.2 64.4709 723.966 61.8747 726.919L39.9603 720.362L39.9603 720.362Z" fill="#76A92C"/>
<path d="M166.111 537.56C163.173 519.973 152.916 524.562 148.155 529.055C134.236 530.593 104.068 533.058 94.7485 530.611C83.0987 527.552 70.9557 541.412 65.9336 548.016C61.916 553.3 36.4916 617.573 24.2817 649.049C3.30018 650.964 -24.6844 634.967 -36.0541 626.73C-24.9444 676.135 45.6304 695.742 81.8426 703.966C110.812 710.545 110.383 634.013 106.547 594.924C111.065 593.839 125.264 591.544 145.916 591.04C171.731 590.41 169.784 559.544 166.111 537.56Z" fill="#84BC33"/>
<mask id="mask3_715_2" style="mask-type:alpha" maskUnits="userSpaceOnUse" x="-37" y="524" width="206" height="181">
<path d="M166.112 537.56C163.173 519.973 152.916 524.562 148.155 529.055C134.236 530.593 104.069 533.058 94.749 530.611C83.0992 527.552 70.9562 541.412 65.9341 548.016C61.9165 553.3 36.4921 617.573 24.2822 649.049C3.30067 650.964 -24.684 634.967 -36.0536 626.73C-24.9439 676.135 45.6309 695.742 81.8431 703.966C110.813 710.545 110.383 634.013 106.548 594.924C111.066 593.839 125.265 591.544 145.917 591.04C171.732 590.41 169.785 559.544 166.112 537.56Z" fill="#84BC33"/>
</mask>
<g mask="url(#mask3_715_2)">
<ellipse cx="28.2119" cy="50.0234" rx="28.2119" ry="50.0234" transform="matrix(-0.958037 -0.286646 -0.286646 0.958037 126.784 635.588)" fill="#BDDB91"/>
</g>
<path d="M151.801 566.612C162.281 582.44 166.117 570.133 166.725 561.961C161.495 563.809 156.516 565.345 151.801 566.612C151.755 566.543 151.709 566.472 151.662 566.402C151.654 566.486 151.645 566.571 151.635 566.657C122.85 574.366 103.905 572.046 97.3991 569.493C97.8435 585.087 106.011 577.717 110.039 572.082C112.831 586.661 119.98 577.999 123.205 571.845C128.993 587.512 134.482 577.208 136.503 570.098C146.663 585.408 150.798 574.334 151.635 566.657C151.691 566.642 151.746 566.627 151.801 566.612Z" fill="#D9D9D9"/>
<path d="M167.91 561.264C149.598 568.523 108.313 579.486 89.6585 565.271" stroke="black" stroke-width="3"/>
<ellipse cx="6.67244" cy="9.83277" rx="6.67244" ry="9.83277" transform="matrix(-0.958037 -0.286646 -0.286646 0.958037 116.534 522.004)" fill="#F5F5F5"/>
<ellipse cx="4.32929" cy="6.37981" rx="4.32929" ry="6.37981" transform="matrix(-0.958037 -0.286646 -0.286646 0.958037 112.154 528.306)" fill="black"/>
<ellipse cx="6.67244" cy="9.83277" rx="6.67244" ry="9.83277" transform="matrix(-0.958037 -0.286646 -0.286646 0.958037 134.527 521.687)" fill="#F5F5F5"/>
<ellipse cx="4.32929" cy="6.37981" rx="4.32929" ry="6.37981" transform="matrix(-0.958037 -0.286646 -0.286646 0.958037 130.654 527.895)" fill="black"/>
<ellipse cx="5.44445" cy="4.48414" rx="5.44445" ry="4.48414" transform="matrix(-0.525187 -0.850987 -0.787774 0.615965 79.7603 571.224)" fill="#F9ED32"/>
<ellipse cx="3.78771" cy="3.11962" rx="3.78771" ry="3.11962" transform="matrix(-0.525187 -0.850987 -0.787774 0.615965 82.2837 555.512)" fill="#F9ED32"/>
<ellipse cx="3.78771" cy="3.11962" rx="3.78771" ry="3.11962" transform="matrix(-0.525187 -0.850987 -0.787774 0.615965 72.0527 558.734)" fill="#F9ED32"/>
<rect width="1.31525" height="7.33758" transform="matrix(0.878036 0.478594 0.441714 -0.897156 92.8877 689.257)" fill="#76A92C"/>
<rect width="1.31525" height="7.33758" transform="matrix(0.878036 0.478594 0.441714 -0.897156 73.3345 691.244)" fill="#76A92C"/>
<rect width="1.31525" height="7.33758" transform="matrix(0.878036 0.478594 0.441714 -0.897156 68.9829 680.025)" fill="#76A92C"/>
<rect width="1.31192" height="7.3526" transform="matrix(0.987828 0.155551 0.182321 -0.983239 90.832 674.37)" fill="#76A92C"/>
<rect width="1.3115" height="7.35446" transform="matrix(0.985862 0.167558 0.191896 -0.981415 85.5439 689.168)" fill="#76A92C"/>
<rect width="1.31192" height="7.3526" transform="matrix(0.987828 0.155551 0.182321 -0.983239 81.6665 680.384)" fill="#76A92C"/>
<rect width="1.30961" height="7.36292" transform="matrix(0.949624 0.313392 0.307966 -0.951397 98.2573 668.74)" fill="#76A92C"/>
<rect width="1.31265" height="7.3493" transform="matrix(0.990642 0.136486 0.167094 -0.985941 100.467 649.844)" fill="#76A92C"/>
<rect width="1.3099" height="7.36164" transform="matrix(0.972162 0.234311 0.245014 -0.969519 78.5151 668.503)" fill="#76A92C"/>
<rect width="1.3099" height="7.36164" transform="matrix(0.972162 0.234311 0.245014 -0.969519 71.9995 668.81)" fill="#76A92C"/>
<rect width="1.3099" height="7.36164" transform="matrix(0.972162 0.234311 0.245014 -0.969519 86.0913 658.452)" fill="#76A92C"/>
<rect width="1.31158" height="7.35412" transform="matrix(0.914934 0.403603 0.38041 -0.924818 93.1611 661.289)" fill="#76A92C"/>
<rect width="1.31452" height="7.34088" transform="matrix(0.995375 0.0960625 0.134695 -0.990887 82.8481 646.393)" fill="#76A92C"/>
<rect width="1.31452" height="7.34088" transform="matrix(0.995375 0.0960625 0.134695 -0.990887 78.0898 655.877)" fill="#76A92C"/>
<rect width="1.31452" height="7.34088" transform="matrix(0.995375 0.0960625 0.134695 -0.990887 64.689 693.305)" fill="#76A92C"/>
<rect width="1.31087" height="7.3573" transform="matrix(0.924222 0.381856 0.362846 -0.931849 92.0771 647.375)" fill="#76A92C"/>
<path d="M45.9918 592.26C54.3642 600.658 71.527 617.742 73.1985 618.891L58.658 633.423C52.8927 625.027 40.5209 606.806 37.1551 601.091C33.7894 595.376 37.5388 596.925 39.8343 598.413C36.5955 592.421 40.4874 593.915 42.8383 595.411C40.4348 588.13 43.9392 590.276 45.9918 592.26Z" fill="#76A92C"/>
<path fill-rule="evenodd" clip-rule="evenodd" d="M123.431 709.716H127.483V784.119L147.037 800.527L144.432 803.631L127.483 789.408V803.838H123.431V789.522L106.451 803.77L103.847 800.667L123.431 784.233V709.716Z" fill="black"/>
<path d="M125.442 690.753L164.393 714.665H86.4906L125.442 690.753Z" fill="#F9ED32"/>
<path fill-rule="evenodd" clip-rule="evenodd" d="M309.08 763.853H313.132V807.553L332.686 823.961L330.081 827.064L313.132 812.842V827.272H309.08V812.956L292.1 827.204L289.496 824.1L309.08 807.667V763.853Z" fill="black"/>
<rect x="274.114" y="736.217" width="71.4684" height="40.1158" rx="5" fill="#F16B38"/>
<mask id="mask4_715_2" style="mask-type:alpha" maskUnits="userSpaceOnUse" x="274" y="736" width="72" height="42">
<rect x="274.114" y="736.892" width="71.4684" height="40.1158" rx="5" fill="#E24536"/>
</mask>
<g mask="url(#mask4_715_2)">
<path d="M273.382 761.498L286.135 752.403L298.49 761.498L311.044 752.403L322.004 761.498L334.757 752.403L346.314 761.498" stroke="white"/>
</g>
<path fill-rule="evenodd" clip-rule="evenodd" d="M84.1535 762.656H88.2051V806.356L107.759 822.764L105.155 825.868L88.2051 811.645V826.075H84.1535V811.76L67.1736 826.008L64.5693 822.904L84.1535 806.471V762.656Z" fill="black"/>
<rect x="49.1875" y="735.021" width="71.4684" height="40.1158" rx="5" fill="#F16B38"/>
<mask id="mask5_715_2" style="mask-type:alpha" maskUnits="userSpaceOnUse" x="49" y="735" width="72" height="41">
<rect x="49.1875" y="735.696" width="71.4684" height="40.1158" rx="5" fill="#E24536"/>
</mask>
<g mask="url(#mask5_715_2)">
<path d="M48.4556 760.301L61.2087 751.207L73.5633 760.301L86.1171 751.207L97.0769 760.301L109.83 751.207L121.388 760.301" stroke="white"/>
</g>
<circle cx="197.406" cy="770.804" r="61.367" fill="#F16B38"/>
<circle cx="197.405" cy="770.804" r="49.3493" fill="white"/>
<path d="M196.9 735.888L204.063 759.905H227.244L208.49 774.749L215.653 798.767L196.9 783.923L178.146 798.767L185.309 774.749L166.556 759.905H189.736L196.9 735.888Z" fill="#F9ED32"/>
</g>
<defs>
<clipPath id="clip0_715_2">
<rect width="390" height="844" fill="white"/>
</clipPath>
</defs>
</svg>
