<svg width="834" height="1194" viewBox="0 0 834 1194" fill="none" xmlns="http://www.w3.org/2000/svg">
<g clip-path="url(#clip0_715_2)">
<rect width="834" height="1194" fill="#69235C"/>
<path d="M-73.6933 1274.59L211.945 -42.9857L272.765 -43.4644L72.2749 1273.44L-73.6933 1274.59Z" fill="#5A4482" fill-opacity="0.6"/>
<path d="M819.14 1217.03L100.701 -47.2992L20.7931 -27.9169L627.361 1263.54L819.14 1217.03Z" fill="#A576FB" fill-opacity="0.6"/>
<path d="M19.3558 1383.93L671.24 -58.5459L768.133 -88.1767L320.235 1291.92L19.3558 1383.93Z" fill="#D159B6" fill-opacity="0.31"/>
<path d="M668.525 70.8174H172.993C95.2508 75.4319 141.97 105.178 172.993 114C112.623 126.259 131.402 143.501 172.993 151.612C102.562 160.527 137.909 188.346 172.993 190.616H668.525C720.845 190.616 703.314 154.312 668.525 151.612C726.882 139.353 701.868 114 668.525 114C708.771 97.2844 699.699 70.8174 668.525 70.8174Z" fill="#84BC33"/>
<path d="M277.458 143.16C277.458 145.08 279.042 146.664 280.962 146.664C282.882 146.664 284.418 145.08 284.418 143.16V118.536H295.458C297.138 118.536 298.578 117.144 298.578 115.416C298.578 113.64 297.138 112.248 295.458 112.248H281.01C278.754 112.248 277.458 113.496 277.458 115.8V143.16ZM306.384 146.76C307.872 146.76 309.12 145.992 309.888 144.84C317.424 133.512 322.752 125.736 325.056 121.512C324.624 124.968 324.528 130.2 324.528 143.208C324.528 145.128 326.112 146.76 328.032 146.76C329.952 146.76 331.488 145.176 331.488 143.256V116.088C331.488 113.784 329.616 111.816 327.312 111.816C325.824 111.816 324.576 112.632 323.856 113.688C315.552 126.168 311.328 132.456 308.64 137.352C309.024 133.992 309.168 129.672 309.168 115.368C309.168 113.448 307.584 111.816 305.712 111.816C303.792 111.816 302.208 113.4 302.208 115.32V142.488C302.208 144.792 304.128 146.76 306.384 146.76ZM348.342 146.664C350.262 146.664 351.846 145.08 351.846 143.16V118.536H357.942C359.622 118.536 361.062 117.144 361.062 115.416C361.062 113.64 359.622 112.248 357.942 112.248H338.79C337.062 112.248 335.622 113.64 335.622 115.416C335.622 117.144 337.062 118.536 338.79 118.536H344.886V143.16C344.886 145.08 346.422 146.664 348.342 146.664ZM378.904 115.512C378.136 113.448 376.6 111.96 374.584 111.96H372.712C370.936 111.96 369.352 113.544 368.632 115.512L359.08 142.104C358.888 142.584 358.84 143.016 358.84 143.448C358.84 145.464 360.664 146.664 362.344 146.664C363.736 146.664 364.936 145.944 365.512 144.264C366.136 142.296 366.76 140.52 367.288 138.84H379.96C380.536 140.472 381.112 142.248 381.736 144.168C382.264 145.8 383.464 146.664 384.952 146.664C386.776 146.664 388.744 145.272 388.744 143.208C388.744 142.776 388.648 142.344 388.504 141.912L378.904 115.512ZM369.16 133.128C372.568 122.52 373.336 119.208 373.528 117C373.768 119.4 374.632 122.472 378.088 133.128H369.16ZM413.538 128.232C415.938 126.6 417.474 124.248 417.474 121.368C417.474 115.848 412.434 111.768 405.138 111.768C398.514 111.768 394.05 115.128 392.85 118.44C392.658 118.968 392.562 119.448 392.562 119.88C392.562 121.992 394.338 123.432 396.066 123.432C397.17 123.432 398.274 122.808 398.85 121.416C399.666 119.4 401.874 118.104 404.85 118.104C408.258 118.104 410.514 119.688 410.514 121.896C410.514 123.432 408.978 125.832 405.09 125.832H404.178C402.162 125.832 401.154 127.416 401.154 128.952C401.154 130.392 402.162 131.832 403.986 131.832H404.898C408.882 131.832 411.858 133.032 411.858 135.96C411.858 138.648 409.41 140.472 405.138 140.472C402.258 140.472 399.33 139.56 398.418 136.872C397.938 135.432 396.786 134.808 395.586 134.808C393.906 134.808 392.082 136.152 392.082 138.312C392.082 138.744 392.13 139.176 392.274 139.656C393.522 143.64 398.994 146.808 405.57 146.808C413.826 146.808 418.866 141.864 418.866 136.104C418.866 132.12 416.322 129.384 413.538 128.232ZM441.716 115.512C440.948 113.448 439.412 111.96 437.396 111.96H435.524C433.748 111.96 432.164 113.544 431.444 115.512L421.892 142.104C421.7 142.584 421.652 143.016 421.652 143.448C421.652 145.464 423.476 146.664 425.156 146.664C426.548 146.664 427.748 145.944 428.324 144.264C428.948 142.296 429.572 140.52 430.1 138.84H442.772C443.348 140.472 443.924 142.248 444.548 144.168C445.076 145.8 446.276 146.664 447.764 146.664C449.588 146.664 451.556 145.272 451.556 143.208C451.556 142.776 451.46 142.344 451.316 141.912L441.716 115.512ZM431.972 133.128C435.38 122.52 436.148 119.208 436.34 117C436.58 119.4 437.444 122.472 440.9 133.128H431.972ZM470.302 146.328C478.51 146.328 482.734 141.96 482.734 136.104C482.734 131.88 480.142 128.52 476.398 127.848C478.75 127.08 480.814 124.92 480.814 120.744C480.814 115.272 476.686 112.248 469.39 112.248H459.934C457.582 112.248 456.286 113.544 456.286 115.896V142.68C456.286 145.032 457.582 146.328 459.934 146.328H470.302ZM463.246 118.2H469.39C472.03 118.2 473.806 119.544 473.806 122.136C473.806 124.776 472.078 126.072 469.39 126.072H463.246V118.2ZM463.246 131.352H470.35C473.662 131.352 475.726 133.128 475.726 135.96C475.726 138.648 473.614 140.376 470.302 140.376H463.246V131.352ZM487.646 143.16C487.646 145.08 489.23 146.664 491.15 146.664C493.07 146.664 494.606 145.08 494.606 143.16V135.576H500.99C508.622 135.576 514.046 130.968 514.046 123.72C514.046 116.328 508.622 112.248 501.422 112.248H491.102C488.894 112.248 487.646 113.496 487.646 115.704V143.16ZM494.606 118.584H501.422C504.638 118.584 507.086 120.504 507.086 123.912C507.086 127.32 504.638 129.192 501.422 129.192H494.606V118.584ZM532.594 146.328C539.794 146.328 545.218 142.248 545.218 134.856C545.218 127.608 539.794 123 532.162 123H525.778V115.32C525.778 113.4 524.194 111.816 522.322 111.816C520.402 111.816 518.818 113.4 518.818 115.32V142.2C518.818 144.888 520.306 146.328 522.946 146.328H532.594ZM549.538 143.16C549.538 145.464 551.314 146.616 553.042 146.616C554.77 146.616 556.498 145.464 556.498 143.16V115.416C556.498 113.112 554.77 111.96 553.042 111.96C551.314 111.96 549.538 113.112 549.538 115.416V143.16ZM525.778 129.384H532.594C535.81 129.384 538.258 131.256 538.258 134.664C538.258 138.072 535.81 139.992 532.594 139.992H525.778V129.384Z" fill="white"/>
<ellipse cx="696.803" cy="879.168" rx="7.47071" ry="3.58311" fill="#5EB9EC"/>
<ellipse cx="729.669" cy="665.469" rx="7.47071" ry="3.58311" fill="#F7382C"/>
<ellipse cx="282.435" cy="154.995" rx="7.47071" ry="3.58311" fill="#F7382C"/>
<ellipse cx="321.086" cy="364.585" rx="7.47071" ry="3.58311" fill="#F7382C"/>
<ellipse cx="123.683" cy="203.36" rx="7.47071" ry="3.58311" fill="#F7382C"/>
<ellipse cx="107.422" cy="635.852" rx="7.47071" ry="3.58311" fill="#F7382C"/>
<ellipse cx="329.619" cy="1044.43" rx="7.47071" ry="3.58311" fill="#F7382C"/>
<ellipse cx="212.423" cy="832.095" rx="7.47071" ry="3.58311" fill="#F9ED32"/>
<ellipse cx="282.435" cy="551.879" rx="7.47071" ry="3.58311" fill="#F9ED32"/>
<ellipse cx="515.283" cy="953.89" rx="7.47071" ry="3.58311" fill="#F9ED32"/>
<ellipse cx="362.178" cy="236.103" rx="7.47071" ry="3.58311" fill="#F9ED32"/>
<ellipse cx="441.283" cy="740.513" rx="7.47071" ry="3.58311" fill="#F9ED32"/>
<ellipse cx="475.862" cy="334.223" rx="7.47071" ry="3.58311" fill="#F9ED32"/>
<ellipse cx="660.03" cy="212.281" rx="7.47071" ry="3.58311" fill="#F9ED32"/>
<ellipse cx="337.089" cy="672.635" rx="7.47071" ry="3.58311" fill="#F7812C"/>
<ellipse cx="107.422" cy="434.328" rx="7.47071" ry="3.58311" fill="#F7812C"/>
<ellipse cx="562.706" cy="824.929" rx="7.47071" ry="3.58311" fill="#F7812C"/>
<ellipse cx="396.363" cy="879.168" rx="7.47071" ry="3.58311" fill="#F7812C"/>
<ellipse cx="99.9514" cy="1037.27" rx="7.47071" ry="3.58311" fill="#F7812C"/>
<ellipse cx="577.647" cy="430.746" rx="7.47071" ry="3.58311" fill="#F7812C"/>
<ellipse cx="530.224" cy="246.573" rx="7.47071" ry="3.58311" fill="#5EB9EC"/>
<ellipse cx="681.862" cy="327.058" rx="7.47071" ry="3.58311" fill="#5EB9EC"/>
<ellipse cx="652.559" cy="522.909" rx="7.47071" ry="3.58311" fill="#5EB9EC"/>
<ellipse cx="507.812" cy="559.045" rx="7.47071" ry="3.58311" fill="#5EB9EC"/>
<ellipse cx="77.2793" cy="800.768" rx="7.47071" ry="3.58311" fill="#5EB9EC"/>
<ellipse cx="219.894" cy="441.495" rx="7.47071" ry="3.58311" fill="#5EB9EC"/>
<ellipse cx="570.176" cy="1051.6" rx="7.47071" ry="3.58311" fill="#5EB9EC"/>
<ellipse cx="197.481" cy="1111.36" rx="7.47071" ry="3.58311" fill="#F7382C"/>
<ellipse cx="730.165" cy="1117.13" rx="7.47071" ry="3.58311" fill="#5EB9EC"/>
<path d="M600.744 873.745C620.518 881.025 660.968 895.754 664.578 896.431L648.874 926.698C633.585 917.834 600.646 898.513 591.2 892.14C581.755 885.767 589.194 885.766 594.094 886.563C584.688 879.703 592.338 879.536 597.338 880.31C588.545 871.042 595.945 872.072 600.744 873.745Z" fill="#EEB00F"/>
<path fill-rule="evenodd" clip-rule="evenodd" d="M798.662 1056.22L800.387 1055.74L788.851 996.587L763.994 1003.41L778.76 1045.33C778.382 1045.42 777.996 1045.51 777.603 1045.6C756.351 1050.69 759.086 1061.3 763.11 1065.97L798.662 1056.22L798.662 1056.22Z" fill="#ECBC40"/>
<path fill-rule="evenodd" clip-rule="evenodd" d="M756.623 1063.13L758.347 1062.66L746.812 1003.5L721.955 1010.32L736.721 1052.24C736.343 1052.33 735.957 1052.42 735.565 1052.52C714.312 1057.6 717.047 1068.21 721.071 1072.88L756.623 1063.13L756.623 1063.13Z" fill="#ECBC40"/>
<path d="M692.031 759.232C727.03 710.102 689.241 721.837 665.972 733.846L748.061 1006.33L888.575 976.149C882.906 939.507 865.14 961.077 856.966 976.442C858.72 926.815 827.595 951.821 811.814 970.528C836.898 912.28 796.242 933.837 772.778 951.896C829.302 892.691 782.965 903.902 752.731 916.908C798.483 876.717 762.419 878.097 738.668 883.811C793.568 853.965 753.776 853.154 727.017 856.48C783.852 826.424 743.073 822.216 715.579 823.869C769.674 776.569 729.499 780.818 702.65 788.854C753.063 759.596 716.576 756.915 692.031 759.232Z" fill="#EB5D3A"/>
<path d="M634.773 729.698C666.303 720.532 682.88 732.156 687.227 739.114C711.138 801.539 762.87 931.028 778.51 949.584C794.151 968.141 871.118 974.36 907.646 975.15C836.119 1000.65 687.19 1047.51 663.689 1030.97C640.189 1014.44 631.554 959.972 630.173 934.806L640.504 813.941C628.008 818.366 597.956 827.188 577.713 827.08C557.469 826.973 556.132 813.054 557.994 806.108C540.249 751.131 595.361 741.156 634.773 729.698Z" fill="#FCC537"/>
<mask id="mask0_715_2" style="mask-type:alpha" maskUnits="userSpaceOnUse" x="554" y="726" width="354" height="309">
<path d="M634.773 729.698C666.303 720.532 682.88 732.156 687.227 739.114C711.138 801.539 762.87 931.028 778.51 949.584C794.151 968.141 871.118 974.36 907.646 975.15C836.119 1000.65 687.19 1047.51 663.689 1030.97C640.189 1014.44 631.554 959.972 630.173 934.806L640.504 813.941C628.008 818.366 597.956 827.188 577.713 827.08C557.469 826.973 556.132 813.054 557.994 806.108C540.249 751.131 595.361 741.156 634.773 729.698Z" fill="#FCC537"/>
</mask>
<g mask="url(#mask0_715_2)">
<path d="M728.889 1030.92C701.902 920.11 649.233 929.834 626.272 948.547L650.503 1052.43L728.889 1030.92Z" fill="#FDCF8C"/>
</g>
<ellipse cx="14.1563" cy="18.0163" rx="14.1563" ry="18.0163" transform="matrix(-0.964353 0.264619 0.264619 0.964353 631.921 706.226)" fill="#F5F5F5"/>
<ellipse cx="9.18504" cy="11.6895" rx="9.18504" ry="11.6895" transform="matrix(-0.964353 0.264619 0.264619 0.964353 630.475 719.743)" fill="black"/>
<ellipse cx="14.1563" cy="18.0163" rx="14.1563" ry="18.0163" transform="matrix(-0.964353 0.264619 0.264619 0.964353 599.458 709.573)" fill="#F5F5F5"/>
<ellipse cx="9.18504" cy="11.6895" rx="9.18504" ry="11.6895" transform="matrix(-0.964353 0.264619 0.264619 0.964353 598.012 723.09)" fill="black"/>
<path d="M579.75 804.197C560.73 763.308 558.243 804.182 557.587 806.402C598.156 804.899 618.281 796.344 623.273 792.254C636.749 799.369 659.667 807.035 643.525 780.78C656.438 785.329 677.135 788.491 656.621 764.742C654.001 770.561 643.664 784.21 623.273 792.254C602.589 770.347 599.413 788.532 600.411 800.363C587.307 777.192 581.177 793.264 579.75 804.197Z" fill="white"/>
<path d="M557.655 806.393C585.291 806.464 644.382 797.074 659.658 758.942" stroke="black" stroke-width="3"/>
<ellipse cx="9.55678" cy="7.42414" rx="9.55678" ry="7.42414" transform="matrix(-0.964353 0.264619 0.264619 0.964353 803.371 977.269)" fill="#EB5D3A"/>
<ellipse cx="6.64865" cy="5.16497" rx="6.64865" ry="5.16497" transform="matrix(-0.964353 0.264619 0.264619 0.964353 780.355 965.62)" fill="#EB5D3A"/>
<ellipse cx="6.64865" cy="5.16497" rx="6.64865" ry="5.16497" transform="matrix(-0.964353 0.264619 0.264619 0.964353 778.527 984.086)" fill="#EB5D3A"/>
<rect width="2.77523" height="13.5074" transform="matrix(-0.996198 0.0871202 0.0752197 0.997167 644.809 953.474)" fill="#FCC537"/>
<rect width="2.777" height="13.4983" transform="matrix(-0.927107 0.374797 0.38202 0.924154 664.198 974.133)" fill="#FCC537"/>
<rect width="2.77722" height="13.4971" transform="matrix(-0.93101 0.364994 0.371603 0.928392 658.276 945.941)" fill="#FCC537"/>
<rect width="2.777" height="13.4983" transform="matrix(-0.927107 0.374797 0.38202 0.924154 673.575 959.328)" fill="#FCC537"/>
<rect width="2.77821" height="13.492" transform="matrix(-0.970478 0.241191 0.239599 0.970872 655.777 987.538)" fill="#FCC537"/>
<rect width="2.77661" height="13.5003" transform="matrix(-0.920707 0.390255 0.398433 0.917198 662.8 1011.54)" fill="#FCC537"/>
<rect width="2.77806" height="13.4928" transform="matrix(-0.950908 0.309475 0.312485 0.949923 692.795 970.255)" fill="#FCC537"/>
<rect width="2.77806" height="13.4928" transform="matrix(-0.950908 0.309475 0.312485 0.949923 689.56 993.566)" fill="#FCC537"/>
<rect width="2.77717" height="13.4973" transform="matrix(-0.987235 0.159269 0.152114 0.988363 673.705 996.604)" fill="#FCC537"/>
<rect width="2.77562" height="13.5054" transform="matrix(-0.906308 0.422618 0.432722 0.901527 708.142 1008.65)" fill="#FCC537"/>
<rect width="2.77562" height="13.5054" transform="matrix(-0.906308 0.422618 0.432722 0.901527 706.839 989.155)" fill="#FCC537"/>
<rect width="2.77755" height="13.4954" transform="matrix(-0.983765 0.179461 0.173669 0.984804 690.302 1016.79)" fill="#FCC537"/>
<path d="M688.87 940.982C694.133 920.87 704.732 879.75 705.027 876.171L737.636 886.998C730.265 903.01 714.156 937.541 708.687 947.562C703.219 957.583 702.403 950.408 702.679 945.567C696.709 955.619 695.7 948.264 695.942 943.33C687.448 953.136 687.688 945.85 688.87 940.982Z" fill="#EEB00F"/>
<path d="M873.493 725.136L568.326 604.044L625.142 477.173L905.072 588.251L873.493 725.136Z" fill="white"/>
<path d="M893.032 640.465L603.461 525.561L625.139 477.172L905.07 588.25L893.032 640.465Z" fill="#2E2F35"/>
<path d="M899.707 611.501L615.49 498.722L625.142 477.173L905.072 588.251L899.707 611.501Z" fill="#646672"/>
<ellipse cx="631.077" cy="520.122" rx="9.92394" ry="7.44295" transform="rotate(-158.356 631.077 520.122)" fill="#F16B38"/>
<ellipse cx="656.688" cy="530.285" rx="9.92394" ry="7.44295" transform="rotate(-158.356 656.688 530.285)" fill="#F16B38"/>
<ellipse cx="834.337" cy="600.777" rx="7.47213" ry="5.6041" transform="rotate(-158.356 834.337 600.777)" fill="#F16B38"/>
<path fill-rule="evenodd" clip-rule="evenodd" d="M600.407 616.818L603.018 617.854L618.027 583.541L623.755 586.067L643.304 541.372L637.57 538.865L637.995 537.893L635.412 536.764L634.987 537.736L629.486 535.331L609.99 579.998L615.454 582.407L600.407 616.818ZM670.194 644.499L672.813 645.539L705.009 564.404L702.388 563.364L670.194 644.499ZM738.17 671.446L740.901 672.53L752.058 636.037L757.748 637.802L772.062 591.166L766.315 589.403L766.745 587.995L764.05 587.168L763.618 588.576L757.645 586.743L743.38 633.346L749.306 635.183L738.17 671.446ZM806.891 698.714L809.564 699.774L820.628 660.26L825.326 661.592L838.497 614.62L823.976 610.551L810.854 657.488L817.895 659.485L806.891 698.714ZM841.966 712.606L844.609 713.675L865.489 628.411L862.751 627.74L841.966 712.606ZM775.617 686.302L772.954 685.245L797.221 600.628L799.931 601.405L775.617 686.302ZM707.495 659.27L704.88 658.233L717.939 622.236L711.725 619.96L728.321 574.136L734.567 576.402L734.653 576.167L737.303 577.129L737.217 577.364L742.498 579.28L725.85 625.135L720.582 623.205L707.495 659.27ZM638.259 631.794L635.579 630.73L670.203 549.98L672.795 551.089L638.259 631.794Z" fill="#2E2F35"/>
<rect x="773.761" y="584.712" width="23.086" height="5.56538" transform="rotate(-158.356 773.761 584.712)" fill="#646672"/>
<rect x="776.955" y="576.664" width="23.086" height="5.56538" transform="rotate(-158.356 776.955 576.664)" fill="#646672"/>
<rect x="746.172" y="573.766" width="23.086" height="5.56538" transform="rotate(-158.356 746.172 573.766)" fill="#646672"/>
<rect x="749.365" y="565.717" width="23.086" height="5.56538" transform="rotate(-158.356 749.365 565.717)" fill="#646672"/>
<rect x="718.583" y="562.817" width="23.086" height="5.56538" transform="rotate(-158.356 718.583 562.817)" fill="#646672"/>
<rect x="721.776" y="554.769" width="23.086" height="5.56538" transform="rotate(-158.356 721.776 554.769)" fill="#646672"/>
<path d="M677.818 386.395C694.864 396.598 729.609 417.564 732.224 419.809L746.166 390.604C730.52 384.61 696.641 371.826 686.291 368.647C675.941 365.468 680.266 370.91 683.722 374.028C673.024 371.164 677.344 376.857 680.842 380.061C668.665 379.054 673.752 383.864 677.818 386.395Z" fill="#C03226"/>
<path fill-rule="evenodd" clip-rule="evenodd" d="M867.323 527.097L854.739 533.637L854.739 533.637L838.676 541.984C834.194 538.149 829.358 528.533 845.871 520.752C846.176 520.608 846.476 520.467 846.769 520.328L824.362 482.91L843.464 472.982L867.323 527.097Z" fill="#C03226"/>
<path d="M714.384 226.414C712.005 206.469 702.778 214.939 698.462 221.667L781.196 374.722L917.872 423.278L962.905 407.184C954.801 375.338 947.624 395.229 945.048 409.155L927.562 409.106C925.545 374.908 913.948 392.156 908.402 405.054L891.807 395C910.329 367.507 890.708 372.831 878.583 378.93L868.247 367.246C865.279 334.03 853.811 350.927 848.448 363.527L833.499 366.017C821.466 338.486 816.597 356.934 815.667 369.599L800.043 364.928C807.558 338.446 794.319 347.532 786.76 355.386L776.297 340.723C791.181 319.669 775.989 320.986 766.532 324.276L759.471 310.689C776.885 294.817 762.185 295.337 752.659 297.58L747.886 286.052C763.837 271.428 751.175 271.416 742.851 273.238L738.896 262.503C754.734 248.912 741.397 248.953 732.748 250.673L728.096 241.721C738.994 225.5 727.575 227.306 720.503 230.237L714.384 226.414Z" fill="#253464"/>
<path d="M701.427 299.054C708.328 294.848 709.919 289.564 709.852 287.447C719.286 314.873 710.146 398.085 738.882 482.603C767.952 568.103 886.334 472.019 968.046 405.41C846.319 420.29 913.083 341.821 824.577 366.107C773.75 380.054 746.913 259.41 725.799 232.692C704.686 205.974 660.457 227.668 637.154 244.425C613.851 261.182 621.551 288.417 634.886 309.11C648.221 329.802 692.801 304.312 701.427 299.054Z" fill="#E53D30"/>
<mask id="mask1_715_2" style="mask-type:alpha" maskUnits="userSpaceOnUse" x="622" y="220" width="347" height="297">
<path d="M701.428 299.055C708.329 294.849 709.92 289.564 709.853 287.448C719.286 314.873 710.147 398.086 738.883 482.604C767.953 568.103 886.335 472.02 968.047 405.41C846.32 420.291 913.084 341.822 824.577 366.108C773.751 380.054 746.913 259.411 725.8 232.693C704.686 205.974 660.457 227.669 637.155 244.426C613.852 261.183 621.552 288.418 634.887 309.11C648.222 329.803 692.801 304.312 701.428 299.055Z" fill="#E53D30"/>
</mask>
<g mask="url(#mask1_715_2)">
<path d="M826.58 509.966C791.245 389.735 739.918 407.36 718.671 431.201L745.993 535.326L826.58 509.966Z" fill="#F39077"/>
</g>
<ellipse cx="669.921" cy="235.99" rx="11.4451" ry="15.051" transform="rotate(-27.4602 669.921 235.99)" fill="#F5F5F5"/>
<ellipse cx="671.625" cy="241.869" rx="7.42593" ry="9.76556" transform="rotate(-27.4602 671.625 241.869)" fill="black"/>
<ellipse cx="646.247" cy="245.284" rx="11.4451" ry="15.051" transform="rotate(-27.4602 646.247 245.284)" fill="#F5F5F5"/>
<ellipse cx="649.297" cy="250.862" rx="7.42593" ry="9.76556" transform="rotate(-27.4602 649.297 250.862)" fill="black"/>
<rect x="761.761" y="506.325" width="2.24617" height="11.2711" transform="rotate(141.857 761.761 506.325)" fill="#E53D30"/>
<rect x="794.706" y="502.156" width="2.24617" height="11.2711" transform="rotate(141.857 794.706 502.156)" fill="#E53D30"/>
<rect x="799.239" y="483.412" width="2.24617" height="11.2711" transform="rotate(141.857 799.239 483.412)" fill="#E53D30"/>
<rect x="761.602" y="482.821" width="2.24617" height="11.2711" transform="rotate(159.427 761.602 482.821)" fill="#E53D30"/>
<rect x="773.933" y="503.484" width="2.24617" height="11.2711" transform="rotate(158.803 773.933 503.484)" fill="#E53D30"/>
<rect x="778.265" y="488.634" width="2.24617" height="11.2711" transform="rotate(159.427 778.265 488.634)" fill="#E53D30"/>
<rect x="747.921" y="476.954" width="2.24617" height="11.2711" transform="rotate(151.106 747.921 476.954)" fill="#E53D30"/>
<rect x="739.718" y="448.896" width="2.24617" height="11.2711" transform="rotate(160.417 739.718 448.896)" fill="#E53D30"/>
<rect x="780.646" y="469.319" width="2.24617" height="11.2711" transform="rotate(155.312 780.646 469.319)" fill="#E53D30"/>
<rect x="791.539" y="467.386" width="2.24617" height="11.2711" transform="rotate(155.312 791.539 467.386)" fill="#E53D30"/>
<rect x="765.654" y="456.753" width="2.24617" height="11.2711" transform="rotate(155.312 765.654 456.753)" fill="#E53D30"/>
<rect x="754.595" y="463.69" width="2.24617" height="11.2711" transform="rotate(146.156 754.595 463.69)" fill="#E53D30"/>
<rect x="768.145" y="437.131" width="2.24617" height="11.2711" transform="rotate(162.511 768.145 437.131)" fill="#E53D30"/>
<rect x="778.322" y="449.87" width="2.24617" height="11.2711" transform="rotate(162.511 778.322 449.87)" fill="#E53D30"/>
<rect x="809.555" y="502.122" width="2.24617" height="11.2711" transform="rotate(162.511 809.555 502.122)" fill="#E53D30"/>
<rect x="753.056" y="442.032" width="2.24617" height="11.2711" transform="rotate(147.368 753.056 442.032)" fill="#E53D30"/>
<path d="M634.038 302.417C635.095 293.708 639.828 280.688 650.309 298.143C650.328 298.137 650.346 298.131 650.365 298.125C650.431 289.707 653.807 276.963 666.792 291.991C666.866 291.96 666.939 291.928 667.013 291.897C665.595 283.43 666.604 270.776 681.655 284.77C678.656 286.495 673.506 289.119 667.013 291.897C667.038 292.045 667.064 292.193 667.09 292.339C666.99 292.222 666.891 292.106 666.792 291.991C661.942 294.058 656.356 296.205 650.365 298.125C650.364 298.162 650.364 298.199 650.364 298.235C650.346 298.204 650.327 298.174 650.309 298.143C645.116 299.806 639.621 301.297 634.038 302.417Z" fill="white"/>
<path d="M632.365 302.68C647.582 300.208 681.556 290.622 695.712 272.048" stroke="black" stroke-width="3"/>
<path d="M788.271 439.296C797.412 421.658 816.214 385.695 818.294 382.948L788.292 370.818C783.266 386.802 772.578 421.399 770.038 431.925C767.498 442.45 772.665 437.8 775.566 434.159C773.361 445.012 778.78 440.352 781.764 436.665C781.504 448.881 785.994 443.509 788.271 439.296Z" fill="#C03226"/>
<path d="M129.2 354.956C109.498 359.256 69.2215 367.896 65.7269 368.053L75.7117 399.348C91.4529 392.908 125.402 378.817 135.268 373.975C145.134 369.133 138.152 368.114 133.428 368.209C143.333 362.892 136.18 361.684 131.365 361.744C141.074 354.025 133.967 354.003 129.2 354.956Z" fill="#5EA1C9"/>
<path d="M79.8927 217.93C85.6667 216.693 90.8396 227.088 92.7043 232.44L80.7197 281.8L-30.2603 432.011L-140.403 385.197L-156.354 350.392C-153.787 347.111 -146.797 341.752 -139.378 346.554C-131.958 351.357 -138.692 359.992 -142.986 363.709L-131.363 371.232C-131.063 365.707 -127.522 355.827 -115.76 360.509C-103.998 365.191 -111.023 375.237 -116.005 379.674L-107.435 385.222C-107.826 380.249 -105.909 371.283 -95.1194 375.202C-84.3295 379.122 -87.725 388.485 -90.7714 392.676L-82.222 396.711C-82.2327 392.095 -79.9338 383.499 -70.652 386.043C-61.3703 388.586 -62.8867 398.066 -64.8051 402.488C-60.6133 404.59 -52.3289 408.331 -52.7264 406.475C-53.2233 404.154 -53.4299 400.355 -47.8626 396.13C-43.4088 392.749 -37.2413 400.395 -34.7143 404.641L-30.2309 397.714C-35.3344 396.076 -44.1364 390.579 -38.5159 381.69C-32.8954 372.801 -23.683 379.964 -19.7793 384.656L-13.1756 376.77C-17.7379 374.039 -25.6896 366.97 -20.9978 360.545C-16.3059 354.121 -8.24175 361.084 -4.79617 365.369L5.31002 352.587C1.42441 350.183 -5.36312 344.112 -1.4284 339.063C2.50632 334.014 9.22571 340.018 12.0936 343.651L18.0963 337.208C13.2253 335.555 4.92416 330.381 10.6881 322.918C16.452 315.454 24.3653 321.776 27.6014 325.87L31.9391 322.514C27.7981 319.389 20.5425 312.172 24.6483 308.299C28.7541 304.427 35.7972 310.463 38.8055 313.965L42.061 310.678C37.5446 308.05 29.9592 301.246 35.7487 295.046C41.5381 288.846 49.0229 295.349 52.0417 299.375L64.2688 285.974C59.6723 285.071 51.0505 281.148 53.3349 272.679C55.6193 264.211 68.3284 267.582 74.3975 270.326L75.283 259.354C69.1274 260.402 57.0154 260.407 57.8123 252.042C58.6091 243.676 69.4616 244.335 74.7882 245.711L76.4282 237.003C67.8499 229.674 72.6753 219.475 79.8927 217.93Z" fill="#253464"/>
<path d="M156.607 271.176C180.718 278.511 179.781 296.172 176.298 304.086C160.294 352.197 124.478 323.562 108.57 303.231C73.0829 378.178 114.829 464.776 18.7634 501.797C-77.3027 538.818 -195.422 306.114 -158.071 347.651C-128.191 380.881 -66.4324 401.182 -39.288 407.179C-16.0701 375.899 36.1805 308.247 59.4401 287.87C88.5146 262.4 50.8276 228.556 97.1616 229.595C143.496 230.633 126.467 262.007 156.607 271.176Z" fill="#6DBBE9"/>
<ellipse cx="122.372" cy="242.103" rx="13.3952" ry="17.6156" transform="rotate(32.9147 122.372 242.103)" fill="#F5F5F5"/>
<ellipse cx="119.011" cy="247.297" rx="8.69124" ry="11.4295" transform="rotate(32.9147 119.011 247.297)" fill="black"/>
<ellipse cx="150.792" cy="254.254" rx="13.3952" ry="17.6156" transform="rotate(32.9147 150.792 254.254)" fill="#F5F5F5"/>
<ellipse cx="147.43" cy="259.447" rx="8.69124" ry="11.4295" transform="rotate(32.9147 147.43 259.447)" fill="black"/>
<path d="M147.424 313.293C156.752 284.424 141.581 294.966 132.829 303.846C143.807 314.24 158.594 318.099 164.616 318.729C165.705 292.622 153.609 304.227 147.424 313.293Z" fill="white"/>
<path d="M167.952 319.405C159.029 318.637 137.81 312.916 124.322 296.172" stroke="black" stroke-width="3"/>
<mask id="mask2_715_2" style="mask-type:alpha" maskUnits="userSpaceOnUse" x="-166" y="229" width="345" height="277">
<path d="M156.607 271.175C180.718 278.51 179.781 296.171 176.298 304.085C160.293 352.196 124.477 323.562 108.57 303.231C73.0827 378.178 114.829 464.776 18.7631 501.797C-77.3029 538.817 -195.422 306.114 -158.072 347.651C-128.192 380.881 -66.4327 401.181 -39.2883 407.178C-16.0704 375.899 36.1803 308.246 59.4399 287.87C88.5143 262.399 50.8274 228.556 97.1613 229.594C143.495 230.633 126.467 262.006 156.607 271.175Z" fill="#6DBBE9"/>
</mask>
<g mask="url(#mask2_715_2)">
<path d="M11.3592 444.242C34.68 408.213 69.5757 418.02 84.1084 427.427C97.6625 446.398 38.6804 556.423 0.15758 517.211C-38.3652 477.999 -17.7918 489.277 11.3592 444.242Z" fill="#A8E2FB"/>
</g>
<rect x="69.719" y="444.631" width="2.6289" height="13.1916" transform="rotate(22.2315 69.719 444.631)" fill="#253464"/>
<rect x="44.8005" y="458.794" width="2.6289" height="13.1916" transform="rotate(39.8021 44.8005 458.794)" fill="#253464"/>
<rect x="65.6592" y="434.022" width="2.6289" height="13.1916" transform="rotate(39.178 65.6592 434.022)" fill="#253464"/>
<rect x="47.7429" y="442.176" width="2.6289" height="13.1916" transform="rotate(39.8021 47.7429 442.176)" fill="#253464"/>
<rect x="55.5776" y="465.661" width="2.6289" height="13.1916" transform="rotate(31.481 55.5776 465.661)" fill="#253464"/>
<rect x="40.7029" y="429.179" width="2.6289" height="13.1916" transform="rotate(40.7917 40.7029 429.179)" fill="#253464"/>
<rect x="27.0161" y="446.957" width="2.6289" height="13.1916" transform="rotate(35.6872 27.0161 446.957)" fill="#253464"/>
<rect x="22.9053" y="469.481" width="2.6289" height="13.1916" transform="rotate(35.6872 22.9053 469.481)" fill="#253464"/>
<rect x="36.3616" y="476.718" width="2.6289" height="13.1916" transform="rotate(26.5307 36.3616 476.718)" fill="#253464"/>
<rect x="1.49951" y="478.298" width="2.6289" height="13.1916" transform="rotate(42.8857 1.49951 478.298)" fill="#253464"/>
<rect x="8.57275" y="460.575" width="2.6289" height="13.1916" transform="rotate(42.8857 8.57275 460.575)" fill="#253464"/>
<rect x="15.2166" y="490.815" width="2.6289" height="13.1916" transform="rotate(27.7429 15.2166 490.815)" fill="#253464"/>
<path d="M30.4783 424.548C31.0386 404.39 32.331 363.217 33.0184 359.787L0.240749 361.959C2.70942 378.787 8.2291 415.127 10.5584 425.868C12.8877 436.608 15.5553 430.076 16.5979 425.467C19.3784 436.36 22.2709 429.707 23.3695 425.019C28.5286 436.298 30.2583 429.404 30.4783 424.548Z" fill="#5EA1C9"/>
<path fill-rule="evenodd" clip-rule="evenodd" d="M196.46 462.352C194.616 460.296 191.455 460.125 189.399 461.969L184.413 466.442L181.507 463.203L181.708 463.022C182.53 462.285 182.599 461.02 181.861 460.198L180.863 459.086C180.126 458.264 178.861 458.195 178.039 458.933L174.552 462.061C173.73 462.798 173.661 464.063 174.399 464.885L175.397 465.997C176.134 466.819 177.399 466.888 178.221 466.15L178.421 465.971L181.327 469.21L175.372 474.552L172.466 471.312L172.667 471.132C173.489 470.394 173.558 469.13 172.82 468.307L171.822 467.195C171.085 466.373 169.82 466.304 168.998 467.042L165.511 470.17C164.689 470.907 164.62 472.172 165.358 472.994L166.356 474.106C167.093 474.929 168.358 474.997 169.18 474.26L169.38 474.08L172.286 477.32L166.333 482.661L163.427 479.422L163.627 479.242C164.449 478.504 164.518 477.24 163.78 476.418L162.783 475.305C162.045 474.483 160.781 474.414 159.958 475.152L156.471 478.28C155.649 479.018 155.581 480.282 156.318 481.104L157.316 482.217C158.054 483.039 159.318 483.107 160.14 482.37L160.341 482.19L163.247 485.429L156.081 491.858C154.025 493.702 153.854 496.863 155.698 498.918L156.759 500.101L92.0696 558.131C67.6182 540.087 37.0539 538.011 18.1384 554.979C8.45261 563.668 3.40063 575.933 2.82968 589.36C-21.6935 581.526 -46.8279 584.743 -64.3283 600.442C-93.7057 626.796 -90.446 678.341 -57.0475 715.572C-23.649 752.803 27.241 761.621 56.6184 735.267C74.1187 719.568 80.0372 694.93 74.9022 669.703C88.3121 670.588 101.052 666.893 110.738 658.204C129.654 641.236 130.896 610.625 115.603 584.365L180.292 526.335L181.353 527.518C183.197 529.573 186.358 529.745 188.414 527.901L195.578 521.474L198.483 524.712L198.282 524.892C197.459 525.63 197.391 526.894 198.128 527.716L199.126 528.829C199.864 529.651 201.128 529.72 201.95 528.982L205.437 525.854C206.259 525.116 206.328 523.852 205.59 523.03L204.593 521.917C203.855 521.095 202.591 521.027 201.768 521.764L201.568 521.944L198.664 518.706L204.619 513.364L207.523 516.602L207.323 516.781C206.501 517.519 206.432 518.783 207.17 519.605L208.168 520.718C208.905 521.54 210.17 521.608 210.992 520.871L214.479 517.743C215.301 517.005 215.37 515.741 214.632 514.919L213.634 513.806C212.897 512.984 211.632 512.916 210.81 513.653L210.609 513.833L207.705 510.596L213.66 505.254L216.564 508.491L216.363 508.672C215.541 509.409 215.472 510.674 216.209 511.496L217.207 512.608C217.945 513.431 219.209 513.499 220.032 512.762L223.518 509.634C224.341 508.896 224.409 507.632 223.672 506.809L222.674 505.697C221.936 504.875 220.672 504.806 219.85 505.544L219.65 505.723L216.745 502.485L221.732 498.012C223.788 496.168 223.959 493.007 222.115 490.951L196.46 462.352Z" fill="#F16B38"/>
<ellipse cx="31.6347" cy="636.017" rx="32.5102" ry="25.6526" transform="rotate(48.1058 31.6347 636.017)" fill="black"/>
<rect x="187.73" y="492.974" width="4.49077" height="266.372" rx="1" transform="rotate(48.1058 187.73 492.974)" fill="white"/>
<rect x="193.144" y="499.007" width="4.49077" height="266.372" rx="1" transform="rotate(48.1058 193.144 499.007)" fill="white"/>
<rect x="182.318" y="486.939" width="4.49077" height="266.372" rx="1" transform="rotate(48.1058 182.318 486.939)" fill="white"/>
<rect x="-25.9224" y="646.869" width="60.711" height="10.4974" rx="2" transform="rotate(48.1058 -25.9224 646.869)" fill="black"/>
<path d="M252.038 888.376C234.003 899.8 197.23 923.275 194.419 925.791L182.127 892.977C198.46 886.276 233.815 871.985 244.568 868.435C255.322 864.884 250.559 870.986 246.833 874.481C257.92 871.284 253.146 877.668 249.372 881.26C261.845 880.151 256.346 885.542 252.038 888.376Z" fill="#76A92C"/>
<path d="M116.291 754.658C124.939 740.005 144.038 747.672 152.506 753.337L116.702 901.745L56.2369 989.447L-38.3089 929.091C-35.7696 922.927 -27.1888 911.44 -13.1804 914.8C0.82803 918.161 0.474116 935.502 -1.45389 943.753C1.60622 937.139 11.129 924.93 24.7391 929.002C38.3493 933.074 38.1835 948.083 36.3993 955.079L53.9198 953.051C48.5395 947.028 39.5552 932.916 46.6603 924.656C53.7655 916.397 66.2682 918.233 71.6313 920.184C64.5911 917.385 51.7084 907.784 56.4998 891.77C61.2911 875.757 78.6552 873.994 86.7383 875.114C78.563 872.495 63.7366 863.247 69.8329 847.208C75.9292 831.169 93.6596 833.912 101.763 837.289C94.137 831.026 81.2743 814.853 90.8292 800.265C100.384 785.676 116.47 790.974 123.318 795.446C117.373 787.955 107.644 769.31 116.291 754.658Z" fill="#F9ED32"/>
<path fill-rule="evenodd" clip-rule="evenodd" d="M33.1205 1068.18L50.6136 1073.42L50.6139 1073.42L72.9428 1080.1C77.4422 1074.98 80.7588 1063.25 58.0294 1057.29C57.6091 1057.18 57.1967 1057.07 56.7921 1056.97L74.1624 1010.71L47.6089 1002.77L33.1205 1068.18Z" fill="#76A92C"/>
<path fill-rule="evenodd" clip-rule="evenodd" d="M77.7845 1074.19L75.9423 1073.64L90.4307 1008.22L116.984 1016.17L99.6135 1062.42C100.018 1062.53 100.43 1062.64 100.85 1062.75C123.58 1068.71 120.263 1080.43 115.764 1085.55L77.7845 1074.19L77.7845 1074.19Z" fill="#76A92C"/>
<path d="M296.414 757.378C291.321 726.899 273.545 734.852 265.294 742.638C241.171 745.304 188.889 749.576 172.737 745.335C152.547 740.033 131.502 764.055 122.798 775.5C115.836 784.657 71.7731 896.047 50.6123 950.598C14.2497 953.916 -34.2498 926.193 -53.9543 911.917C-34.7003 997.539 87.6114 1031.52 150.37 1045.77C200.577 1057.18 199.833 924.539 193.185 856.795C201.015 854.915 225.623 850.937 261.415 850.063C306.154 848.971 302.779 795.478 296.414 757.378Z" fill="#84BC33"/>
<mask id="mask3_715_2" style="mask-type:alpha" maskUnits="userSpaceOnUse" x="-54" y="735" width="355" height="312">
<path d="M296.414 757.378C291.322 726.899 273.545 734.852 265.294 742.638C241.172 745.304 188.889 749.576 172.737 745.335C152.547 740.033 131.502 764.055 122.799 775.5C115.836 784.657 71.7734 896.047 50.6126 950.598C14.25 953.916 -34.2496 926.193 -53.954 911.917C-34.7 997.539 87.6116 1031.52 150.37 1045.77C200.577 1057.18 199.833 924.539 193.185 856.795C201.015 854.915 225.623 850.937 261.415 850.063C306.155 848.971 302.78 795.478 296.414 757.378Z" fill="#84BC33"/>
</mask>
<g mask="url(#mask3_715_2)">
<ellipse cx="48.8934" cy="86.6944" rx="48.8934" ry="86.6944" transform="matrix(-0.958037 -0.286646 -0.286646 0.958037 228.257 927.269)" fill="#BDDB91"/>
</g>
<path d="M271.613 807.729C289.775 835.16 296.423 813.83 297.477 799.667C288.412 802.87 279.784 805.533 271.613 807.729C271.533 807.608 271.453 807.486 271.372 807.364C271.357 807.51 271.342 807.658 271.326 807.806C221.438 821.166 188.605 817.145 177.33 812.721C178.1 839.748 192.255 826.973 199.236 817.208C204.075 842.474 216.464 827.462 222.053 816.798C232.085 843.949 241.598 826.092 245.1 813.77C262.708 840.304 269.875 821.111 271.326 807.806C271.421 807.78 271.517 807.755 271.613 807.729Z" fill="#D9D9D9"/>
<path d="M299.53 798.459C267.795 811.039 196.243 830.04 163.914 805.404" stroke="black" stroke-width="3"/>
<ellipse cx="11.5639" cy="17.041" rx="11.5639" ry="17.041" transform="matrix(-0.958037 -0.286646 -0.286646 0.958037 210.491 730.419)" fill="#F5F5F5"/>
<ellipse cx="7.50299" cy="11.0567" rx="7.50299" ry="11.0567" transform="matrix(-0.958037 -0.286646 -0.286646 0.958037 202.901 741.341)" fill="black"/>
<ellipse cx="11.5639" cy="17.041" rx="11.5639" ry="17.041" transform="matrix(-0.958037 -0.286646 -0.286646 0.958037 241.675 729.87)" fill="#F5F5F5"/>
<ellipse cx="7.50299" cy="11.0567" rx="7.50299" ry="11.0567" transform="matrix(-0.958037 -0.286646 -0.286646 0.958037 234.963 740.628)" fill="black"/>
<ellipse cx="9.43566" cy="7.77137" rx="9.43566" ry="7.77137" transform="matrix(-0.525187 -0.850987 -0.787774 0.615965 146.761 815.72)" fill="#F9ED32"/>
<ellipse cx="6.56439" cy="5.40655" rx="6.56439" ry="5.40655" transform="matrix(-0.525187 -0.850987 -0.787774 0.615965 151.134 788.491)" fill="#F9ED32"/>
<ellipse cx="6.56439" cy="5.40655" rx="6.56439" ry="5.40655" transform="matrix(-0.525187 -0.850987 -0.787774 0.615965 133.402 794.075)" fill="#F9ED32"/>
<rect width="2.27943" height="12.7166" transform="matrix(0.878036 0.478594 0.441714 -0.897156 169.511 1020.28)" fill="#76A92C"/>
<rect width="2.27943" height="12.7166" transform="matrix(0.878036 0.478594 0.441714 -0.897156 135.624 1023.72)" fill="#76A92C"/>
<rect width="2.27943" height="12.7166" transform="matrix(0.878036 0.478594 0.441714 -0.897156 128.082 1004.28)" fill="#76A92C"/>
<rect width="2.27365" height="12.7426" transform="matrix(0.987828 0.155551 0.182321 -0.983239 165.949 994.481)" fill="#76A92C"/>
<rect width="2.27293" height="12.7459" transform="matrix(0.985862 0.167558 0.191896 -0.981415 156.784 1020.13)" fill="#76A92C"/>
<rect width="2.27365" height="12.7426" transform="matrix(0.987828 0.155551 0.182321 -0.983239 150.064 1004.9)" fill="#76A92C"/>
<rect width="2.26967" height="12.7605" transform="matrix(0.949624 0.313392 0.307966 -0.951397 178.818 984.724)" fill="#76A92C"/>
<rect width="2.27493" height="12.7369" transform="matrix(0.990642 0.136486 0.167094 -0.985941 182.647 951.975)" fill="#76A92C"/>
<rect width="2.27016" height="12.7583" transform="matrix(0.972162 0.234311 0.245014 -0.969519 144.602 984.314)" fill="#76A92C"/>
<rect width="2.27016" height="12.7583" transform="matrix(0.972162 0.234311 0.245014 -0.969519 133.31 984.845)" fill="#76A92C"/>
<rect width="2.27016" height="12.7583" transform="matrix(0.972162 0.234311 0.245014 -0.969519 157.733 966.895)" fill="#76A92C"/>
<rect width="2.27307" height="12.7453" transform="matrix(0.914934 0.403603 0.38041 -0.924818 169.985 971.81)" fill="#76A92C"/>
<rect width="2.27817" height="12.7223" transform="matrix(0.995375 0.0960625 0.134695 -0.990887 152.112 945.994)" fill="#76A92C"/>
<rect width="2.27817" height="12.7223" transform="matrix(0.995375 0.0960625 0.134695 -0.990887 143.865 962.431)" fill="#76A92C"/>
<rect width="2.27817" height="12.7223" transform="matrix(0.995375 0.0960625 0.134695 -0.990887 120.641 1027.3)" fill="#76A92C"/>
<rect width="2.27184" height="12.7508" transform="matrix(0.924222 0.381856 0.362846 -0.931849 168.106 947.696)" fill="#76A92C"/>
<path d="M88.2368 852.177C102.747 866.732 132.491 896.34 135.388 898.332L110.188 923.516C100.197 908.965 78.7553 877.387 72.9222 867.482C67.0891 857.578 73.5873 860.262 77.5655 862.842C71.9523 852.456 78.6974 855.046 82.7715 857.639C78.6062 845.021 84.6795 848.74 88.2368 852.177Z" fill="#76A92C"/>
<path fill-rule="evenodd" clip-rule="evenodd" d="M288.607 931.07H295.815V1063.45L330.608 1092.65L325.974 1098.17L295.815 1072.86V1098.54H288.607V1073.07L258.395 1098.42L253.761 1092.9L288.607 1063.66V931.07Z" fill="black"/>
<path d="M292.184 897.329L361.488 939.875H222.88L292.184 897.329Z" fill="#F9ED32"/>
<path fill-rule="evenodd" clip-rule="evenodd" d="M618.927 1027.39H626.136V1105.15L660.928 1134.34L656.294 1139.86L626.136 1114.56V1140.23H618.927V1114.76L588.715 1140.11L584.081 1134.59L618.927 1105.35V1027.39Z" fill="black"/>
<rect x="556.714" y="978.222" width="127.162" height="71.377" rx="5" fill="#F16B38"/>
<mask id="mask4_715_2" style="mask-type:alpha" maskUnits="userSpaceOnUse" x="556" y="979" width="128" height="72">
<rect x="556.714" y="979.423" width="127.162" height="71.377" rx="5" fill="#E24536"/>
</mask>
<g mask="url(#mask4_715_2)">
<path d="M555.411 1023.2L578.102 1007.02L600.085 1023.2L622.421 1007.02L641.922 1023.2L664.613 1007.02L685.177 1023.2" stroke="white"/>
</g>
<path fill-rule="evenodd" clip-rule="evenodd" d="M218.722 1025.26H225.931V1103.02L260.723 1132.21L256.089 1137.74L225.931 1112.43V1138.1H218.722V1112.63L188.51 1137.98L183.876 1132.46L218.722 1103.22V1025.26Z" fill="black"/>
<rect x="156.508" y="976.093" width="127.162" height="71.377" rx="5" fill="#F16B38"/>
<mask id="mask5_715_2" style="mask-type:alpha" maskUnits="userSpaceOnUse" x="156" y="977" width="128" height="72">
<rect x="156.508" y="977.295" width="127.162" height="71.377" rx="5" fill="#E24536"/>
</mask>
<g mask="url(#mask5_715_2)">
<path d="M155.206 1021.07L177.897 1004.89L199.879 1021.07L222.216 1004.89L241.716 1021.07L264.407 1004.89L284.971 1021.07" stroke="white"/>
</g>
<circle cx="420.23" cy="1039.76" r="109.189" fill="#F16B38"/>
<circle cx="420.229" cy="1039.76" r="87.8058" fill="white"/>
<path d="M419.328 977.636L432.074 1020.37L473.318 1020.37L439.951 1046.78L452.696 1089.52L419.328 1063.1L385.96 1089.52L398.706 1046.78L365.338 1020.37L406.583 1020.37L419.328 977.636Z" fill="#F9ED32"/>
</g>
<defs>
<clipPath id="clip0_715_2">
<rect width="834" height="1194" fill="white"/>
</clipPath>
</defs>
</svg>
