<svg width="1440" height="249" viewBox="0 0 1440 249" fill="none" xmlns="http://www.w3.org/2000/svg">
<path d="M1045.11 137.972C1055.33 104.092 1080.81 103.737 1087.14 103.062C1082.36 115.868 1088.31 160.689 1097.01 186.231C1121.34 186.197 1109.75 135.823 1112.1 145.819C1113.98 153.816 1141.62 186.169 1153.04 207.152C1141.2 225.834 1122.46 234.749 1114.58 236.871C1125.53 253.122 1153.58 238.261 1166.23 228.799C1166.24 232.855 1167.79 243.363 1173.93 252.954C1167.02 264.964 1123.51 268.58 1102.62 268.887C1116.48 284.7 1164.81 281.466 1174.14 284.953C1179.39 319.744 1189.03 322.431 1193.19 319.425C1181.75 337.041 1124.98 328.409 1098.03 321.892C1086.35 356.44 1030.91 313.042 1004.65 287.024L1010.63 271.016C1030.64 278.488 1062.27 250.778 1052.75 239.625C1045.14 230.702 1025.82 245.273 1017.11 253.674C1004.54 231.959 1032.25 169.708 1038.28 156.255C1063.37 223.385 1085.99 150.62 1045.11 137.972Z" fill="#80AD42"/>
<path d="M1080.45 160.221C1083.79 184.523 1088.76 237.652 1081.88 255.757" stroke="#96B25D" stroke-width="2" stroke-linecap="round"/>
<path d="M1045.58 207.324C1051.53 215.463 1067.67 230.369 1084.58 224.885" stroke="#96B25D" stroke-width="2" stroke-linecap="round"/>
<path d="M46.7568 60.2485C52.4049 62.0589 63.751 66.8233 74.2853 67.5757C68.2657 78.8625 58.0323 107.531 65.2559 131.91C65.2559 122.881 74.2853 85.6345 87.8295 76.6051H120.561C105.136 94.2878 75.6397 135.522 81.0574 158.999C96.1064 137.178 128.462 90.1493 137.491 76.6051C148.778 79.6149 175.866 83.8286 193.925 76.6051C193.925 95.1819 198.157 133.014 214.815 140.32C215.558 140.532 216.127 140.741 216.499 140.94C215.924 140.767 215.363 140.56 214.815 140.32C204.82 137.473 163.33 134.21 146.521 149.969C137.491 154.86 137.491 168.028 128.462 168.028C137.491 171.414 199.569 158.999 216.499 149.969C220.261 155.613 225.528 168.931 216.499 177.058C178.124 178.939 100.019 185.636 94.6015 197.374C86.3246 203.393 78.3485 214.304 112.66 209.789C112.66 204.146 217.628 195.116 228.914 186.087V236.878H107.017C107.017 242.897 120.335 255.614 173.609 258.323H216.499C218.756 265.471 219.659 281.122 205.212 286.54C165.332 295.945 75.6397 309.113 35.9102 286.54C51.7117 255.689 63.9015 206.855 -13.7517 258.323C-32.1868 212.047 -62.5107 115.206 -36.3253 98.05C-32.9393 92.0304 -23.684 81.797 -13.7517 89.0206C-1.33625 98.05 -17.1378 177.058 2.04979 177.058C17.3998 177.058 17.4751 110.089 15.5939 76.6051L28.0094 67.5757C25.3758 86.0108 21.6888 126.493 28.0094 140.94C34.33 155.387 42.9946 93.3565 46.7568 60.2485Z" fill="#80AD42"/>
<path d="M127.765 136.582C98.9824 161.811 33.9544 215.681 4.10547 229.326" stroke="#96B25D" stroke-width="2" stroke-linecap="round"/>
<path d="M53.1702 108.862C52.9322 135.862 50.4581 192.645 42.4652 203.779C34.4723 214.912 132.386 218.408 182.342 218.765" stroke="#96B25D" stroke-width="2" stroke-linecap="round"/>
<path d="M1179.43 127.316C1164.47 104.143 1208.49 49.7466 1212.31 48.2909C1212.46 76.2319 1256.08 91.9798 1245.93 108.971C1235.78 125.963 1253.83 136.584 1260.71 133.964C1266.21 131.867 1268.06 101.995 1268.3 87.3214C1273.4 80.4811 1302.06 106.248 1315.75 119.986L1297.42 163.719C1279.23 198.648 1295.11 208.93 1305.32 209.705C1324.61 196.052 1336.2 169.063 1339.58 157.274C1348.87 161.435 1369.34 191.724 1378.41 206.348C1379.63 220.581 1348.8 246.505 1333.23 257.689C1325.31 266.305 1336.09 268.263 1342.47 268.165C1360.88 275.148 1388.24 236.726 1394.35 234.397C1399.24 232.533 1415.26 255.592 1422.66 267.355C1420.65 278.619 1390.05 295.822 1375 303.015C1393.11 310.114 1420.84 285.546 1432.44 272.374C1467.46 292.627 1443.96 350.812 1427.84 377.372C1364.39 379.854 1332.76 354.403 1324.87 341.367C1342.63 398.994 1310.65 437.198 1292.43 449.097C1227.91 450.59 1205.39 402.067 1202.2 377.619C1224.84 374.589 1240.92 318.53 1246.14 290.879C1239.53 286.398 1205.21 332.723 1188.88 356.446L1187.06 337.892C1195.58 329.043 1219.88 283.97 1230.96 262.54C1228.6 236.142 1195.27 287.514 1178.91 316.501C1163.56 296.449 1163.51 246.249 1165.4 223.656C1179.37 241.954 1229.65 213.17 1214.07 218.229C1201.62 222.276 1179.39 215.99 1169.83 212.341C1160.52 202.592 1169.85 161.88 1175.68 142.742C1177.58 153.22 1197.5 154.842 1207.23 154.344C1207.55 142.323 1188.83 131.317 1179.43 127.316Z" fill="#678E30"/>
<path d="M1225.3 136.393C1225.3 141.266 1290.6 304.034 1319.84 328.4" stroke="#96B25D" stroke-width="2" stroke-linecap="round"/>
<path d="M1340.73 214.088C1329.92 230.046 1299.92 262.566 1278.91 263.801" stroke="#96B25D" stroke-width="2" stroke-linecap="round"/>
<path d="M1185.76 179.055C1195.3 188.32 1221.79 205.85 1251.36 201.848" stroke="#96B25D" stroke-width="2" stroke-linecap="round"/>
<path d="M654.527 143.551C687.655 131.11 703.405 151.149 707.785 155.772C694.705 159.744 662.69 191.67 647.672 214.088C662.467 233.406 695.468 193.622 688.948 201.554C683.732 207.9 674.796 249.504 665.049 271.314C643.015 273.243 624.562 263.767 618.089 258.788C611.823 277.358 640.655 290.627 655.854 294.941C652.635 297.406 645.222 305.015 641.33 315.721C627.588 317.513 598.31 285.132 585.389 268.718C581.23 289.327 613.131 325.772 616.028 335.31C591.562 360.597 595.276 369.886 600.191 371.37C579.247 372.968 551.654 322.614 540.476 297.238C505.926 308.92 506.772 238.521 511.513 201.862L527.863 196.897C534.07 217.335 575.287 225.652 578.376 211.321C580.847 199.856 557.539 193.342 545.576 191.518C555.209 168.354 621.497 152.589 635.853 149.222C597.731 209.908 669.284 183.715 654.527 143.551Z" fill="#80AD42"/>
<path d="M658.295 185.144C641.01 202.551 601.799 238.743 583.234 244.263" stroke="#96B25D" stroke-width="2" stroke-linecap="round"/>
<path d="M599.696 186.019C596.84 195.689 594.785 217.558 609.411 227.676" stroke="#96B25D" stroke-width="2" stroke-linecap="round"/>
<path d="M801.484 161.183C797.732 143.935 836.335 121.235 838.951 121.222C832.759 137.998 855.359 157.241 845.458 165.141C835.557 173.041 843.983 183.462 848.692 183.438C852.46 183.418 860.288 165.936 863.73 157.197C868.32 154.243 879.701 176.126 884.818 187.436L864.002 209.521C845.253 226.362 852.454 236.092 858.399 238.852C873.03 235.009 886.041 221.441 890.717 215.138C895.346 219.718 900.801 242.469 902.95 253.272C900.484 262.075 876.18 270.678 864.337 273.879C857.656 277.263 863.675 280.859 867.519 282.234C876.981 290.557 902.01 273.683 906.195 273.662C909.544 273.644 913.96 291.063 915.75 299.775C912.015 306.073 889.812 309.502 879.177 310.429C888.43 318.753 910.572 310.266 920.486 304.982C936.915 324.99 909.755 354.573 894.122 366.863C855.544 354.087 842.312 331.725 840.518 322.142C838.206 360.665 810.451 376.367 796.862 379.403C757.862 365.792 755.277 331.654 758.86 316.287C773.109 319.562 795.349 289.586 804.688 274.189C801.736 270.018 770.759 290.063 755.639 300.606L758.719 289.079C765.817 285.693 790.508 264.146 801.965 253.796C806.485 237.447 774.967 260.739 758.643 274.428C753.958 258.964 765.208 228.871 771.419 215.758C775.678 229.863 812.275 223.917 801.808 223.448C793.434 223.073 781.528 214.31 776.622 209.975C773.232 202.039 787.976 179.742 795.772 169.585C794.551 176.289 806.126 181.74 812.066 183.628C814.959 176.497 806.217 165.694 801.484 161.183Z" fill="#678E30"/>
<path d="M826.929 176.933C825.834 179.853 828.373 292.066 840.417 313.24" stroke="#96B25D" stroke-width="2" stroke-linecap="round"/>
<path d="M878.631 249.438C868.566 256.57 843.279 269.313 830.416 265.331" stroke="#96B25D" stroke-width="2" stroke-linecap="round"/>
<path d="M793.648 193.609C797.284 201.307 809.211 217.764 827.833 222.014" stroke="#96B25D" stroke-width="2" stroke-linecap="round"/>
</svg>
