<svg width="775" height="1060" viewBox="0 0 775 1060" fill="none" xmlns="http://www.w3.org/2000/svg">
<ellipse cx="761.346" cy="289.277" rx="6.585" ry="3.18973" fill="#5EB9EC"/>
<ellipse cx="542.993" cy="610.474" rx="6.585" ry="3.18973" fill="#5EB9EC"/>
<ellipse cx="732.085" cy="488.889" rx="6.585" ry="3.18973" fill="#F7382C"/>
<ellipse cx="589.482" cy="533.952" rx="6.585" ry="3.18973" fill="#F7382C"/>
<ellipse cx="661.03" cy="148.529" rx="6.585" ry="3.18973" fill="#F7382C"/>
<ellipse cx="193.735" cy="83.4864" rx="6.585" ry="3.18973" fill="#F7382C"/>
<ellipse cx="231.063" cy="289.277" rx="6.585" ry="3.18973" fill="#F7382C"/>
<ellipse cx="51.877" cy="122.268" rx="6.585" ry="3.18973" fill="#F7382C"/>
<ellipse cx="42.73" cy="530.762" rx="6.585" ry="3.18973" fill="#F7382C"/>
<ellipse cx="114.038" cy="807.504" rx="6.585" ry="3.18973" fill="#F7382C"/>
<ellipse cx="95.1133" cy="411.576" rx="6.585" ry="3.18973" fill="#F9ED32"/>
<ellipse cx="323.841" cy="328.412" rx="6.585" ry="3.18973" fill="#F9ED32"/>
<ellipse cx="267.283" cy="174.901" rx="6.585" ry="3.18973" fill="#F9ED32"/>
<ellipse cx="114.038" cy="643.949" rx="6.585" ry="3.18973" fill="#F9ED32"/>
<ellipse cx="9.57719" cy="732.59" rx="6.585" ry="3.18973" fill="#F9ED32"/>
<ellipse cx="390.218" cy="4.14004" rx="6.585" ry="3.18973" fill="#F9ED32"/>
<ellipse cx="529.823" cy="153.695" rx="6.585" ry="3.18973" fill="#F9ED32"/>
<ellipse cx="639.783" cy="420.898" rx="6.585" ry="3.18973" fill="#F9ED32"/>
<ellipse cx="184.113" cy="351.364" rx="6.585" ry="3.18973" fill="#F7812C"/>
<ellipse cx="42.73" cy="351.364" rx="6.585" ry="3.18973" fill="#F7812C"/>
<ellipse cx="767.438" cy="562.33" rx="6.585" ry="3.18973" fill="#F7812C"/>
<ellipse cx="652.953" cy="621.019" rx="6.585" ry="3.18973" fill="#F7812C"/>
<ellipse cx="310.556" cy="430.22" rx="6.585" ry="3.18973" fill="#F7812C"/>
<ellipse cx="231.063" cy="599.282" rx="6.585" ry="3.18973" fill="#F7812C"/>
<ellipse cx="36.1451" cy="888.107" rx="6.585" ry="3.18973" fill="#F7812C"/>
<ellipse cx="457.207" cy="348.175" rx="6.585" ry="3.18973" fill="#F7812C"/>
<ellipse cx="415.407" cy="184.223" rx="6.585" ry="3.18973" fill="#5EB9EC"/>
<ellipse cx="549.067" cy="255.871" rx="6.585" ry="3.18973" fill="#5EB9EC"/>
<ellipse cx="523.238" cy="430.22" rx="6.585" ry="3.18973" fill="#5EB9EC"/>
<ellipse cx="220.765" cy="416.237" rx="6.585" ry="3.18973" fill="#5EB9EC"/>
<ellipse cx="16.1626" cy="677.573" rx="6.585" ry="3.18973" fill="#5EB9EC"/>
<ellipse cx="78.0201" cy="279.955" rx="6.585" ry="3.18973" fill="#5EB9EC"/>
<ellipse cx="7.30912" cy="219.245" rx="6.585" ry="3.18973" fill="#5EB9EC"/>
<ellipse cx="145.438" cy="523.251" rx="6.585" ry="3.18973" fill="#5EB9EC"/>
<ellipse cx="484.864" cy="1050" rx="6.585" ry="3.18973" fill="#F7382C"/>
<ellipse cx="122.113" cy="954.064" rx="6.585" ry="3.18973" fill="#F7382C"/>
<ellipse cx="732.265" cy="815.177" rx="6.585" ry="3.18973" fill="#5EB9EC"/>
<ellipse cx="591.644" cy="959.204" rx="6.585" ry="3.18973" fill="#5EB9EC"/>
<ellipse cx="760.853" cy="116.82" rx="6.585" ry="3.18973" fill="#F7812C"/>
<ellipse cx="661.03" cy="268.915" rx="6.585" ry="3.18973" fill="#F7382C"/>
<ellipse cx="723.728" cy="716.652" rx="6.585" ry="3.18973" fill="#F9ED32"/>
<ellipse cx="9.57768" cy="1056.37" rx="6.585" ry="3.18973" fill="#5EB9EC"/>
</svg>
