<svg width="1005" height="562" viewBox="0 0 1005 562" fill="none" xmlns="http://www.w3.org/2000/svg">
<ellipse cx="920.163" cy="189.785" rx="6.40526" ry="3.18973" fill="#5EB9EC"/>
<ellipse cx="837.16" cy="285.517" rx="6.40526" ry="3.18973" fill="#5EB9EC"/>
<ellipse cx="940.227" cy="510.169" rx="6.40526" ry="3.18973" fill="#5EB9EC"/>
<ellipse cx="964.708" cy="380.731" rx="6.40526" ry="3.18973" fill="#F7382C"/>
<ellipse cx="808.698" cy="485.129" rx="6.40526" ry="3.18973" fill="#F7382C"/>
<ellipse cx="739.583" cy="144.769" rx="6.40526" ry="3.18973" fill="#F7382C"/>
<ellipse cx="964.708" cy="26.6601" rx="6.40526" ry="3.18973" fill="#F7382C"/>
<ellipse cx="285.043" cy="79.7262" rx="6.40526" ry="3.18973" fill="#F7382C"/>
<ellipse cx="321.352" cy="285.517" rx="6.40526" ry="3.18973" fill="#F7382C"/>
<ellipse cx="147.057" cy="118.508" rx="6.40526" ry="3.18973" fill="#F7382C"/>
<ellipse cx="6.63768" cy="271.534" rx="6.40526" ry="3.18973" fill="#F7382C"/>
<ellipse cx="164.832" cy="510.169" rx="6.40526" ry="3.18973" fill="#F7382C"/>
<ellipse cx="13.0434" cy="540.501" rx="6.40526" ry="3.18973" fill="#F9ED32"/>
<ellipse cx="189.113" cy="407.816" rx="6.40526" ry="3.18973" fill="#F9ED32"/>
<ellipse cx="55.8286" cy="118.508" rx="6.40526" ry="3.18973" fill="#F9ED32"/>
<ellipse cx="411.598" cy="324.652" rx="6.40526" ry="3.18973" fill="#F9ED32"/>
<ellipse cx="356.583" cy="171.141" rx="6.40526" ry="3.18973" fill="#F9ED32"/>
<ellipse cx="495.102" cy="3.47" rx="6.40526" ry="3.18973" fill="#F9ED32"/>
<ellipse cx="611.957" cy="149.934" rx="6.40526" ry="3.18973" fill="#F9ED32"/>
<ellipse cx="997.802" cy="290.178" rx="6.40526" ry="3.18973" fill="#F9ED32"/>
<ellipse cx="718.916" cy="417.138" rx="6.40526" ry="3.18973" fill="#F9ED32"/>
<ellipse cx="964.708" cy="113.149" rx="6.40526" ry="3.18973" fill="#F7812C"/>
<ellipse cx="275.684" cy="347.604" rx="6.40526" ry="3.18973" fill="#F7812C"/>
<ellipse cx="68.6391" cy="33.6698" rx="6.40526" ry="3.18973" fill="#F7812C"/>
<ellipse cx="843.086" cy="558.57" rx="6.40526" ry="3.18973" fill="#F7812C"/>
<ellipse cx="398.675" cy="426.46" rx="6.40526" ry="3.18973" fill="#F7812C"/>
<ellipse cx="500.665" cy="180.463" rx="6.40526" ry="3.18973" fill="#5EB9EC"/>
<ellipse cx="630.677" cy="252.111" rx="6.40526" ry="3.18973" fill="#5EB9EC"/>
<ellipse cx="311.335" cy="412.477" rx="6.40526" ry="3.18973" fill="#5EB9EC"/>
<ellipse cx="172.487" cy="276.195" rx="6.40526" ry="3.18973" fill="#5EB9EC"/>
<ellipse cx="103.706" cy="215.485" rx="6.40526" ry="3.18973" fill="#5EB9EC"/>
<ellipse cx="46.4687" cy="451.452" rx="6.40526" ry="3.18973" fill="#5EB9EC"/>
<ellipse cx="238.064" cy="519.491" rx="6.40526" ry="3.18973" fill="#5EB9EC"/>
</svg>
