<svg width="374" height="656" viewBox="0 0 374 656" fill="none" xmlns="http://www.w3.org/2000/svg">
<ellipse cx="333.18" cy="415.025" rx="4.17972" ry="2.02463" fill="#5EB9EC"/>
<ellipse cx="369.18" cy="341.025" rx="4.17972" ry="2.02463" fill="#F7382C"/>
<ellipse cx="116.892" cy="40.3884" rx="4.17972" ry="2.02463" fill="#F7382C"/>
<ellipse cx="140.585" cy="171.011" rx="4.17972" ry="2.02463" fill="#F7382C"/>
<ellipse cx="26.8487" cy="65.0045" rx="4.17972" ry="2.02463" fill="#F7382C"/>
<ellipse cx="21.044" cy="324.29" rx="4.17972" ry="2.02463" fill="#F7382C"/>
<ellipse cx="66.3047" cy="499.947" rx="4.17972" ry="2.02463" fill="#F7382C"/>
<ellipse cx="82.1797" cy="243.025" rx="4.17972" ry="2.02463" fill="#F9ED32"/>
<ellipse cx="199.474" cy="195.851" rx="4.17972" ry="2.02463" fill="#F9ED32"/>
<ellipse cx="290.18" cy="394.025" rx="4.17972" ry="2.02463" fill="#F9ED32"/>
<ellipse cx="163.575" cy="98.4126" rx="4.17972" ry="2.02463" fill="#F9ED32"/>
<ellipse cx="66.3047" cy="396.133" rx="4.17972" ry="2.02463" fill="#F9ED32"/>
<ellipse cx="218.18" cy="2.02463" rx="4.17972" ry="2.02463" fill="#F9ED32"/>
<ellipse cx="330.218" cy="84.9519" rx="4.17972" ry="2.02463" fill="#F9ED32"/>
<ellipse cx="141.18" cy="260.025" rx="4.17972" ry="2.02463" fill="#F7812C"/>
<ellipse cx="21.044" cy="210.42" rx="4.17972" ry="2.02463" fill="#F7812C"/>
<ellipse cx="271.18" cy="299.025" rx="4.17972" ry="2.02463" fill="#F7812C"/>
<ellipse cx="119.18" cy="349.025" rx="4.17972" ry="2.02463" fill="#F7812C"/>
<ellipse cx="16.8643" cy="551.108" rx="4.17972" ry="2.02463" fill="#F7812C"/>
<ellipse cx="284.126" cy="208.395" rx="4.17972" ry="2.02463" fill="#F7812C"/>
<ellipse cx="257.594" cy="104.329" rx="4.17972" ry="2.02463" fill="#5EB9EC"/>
<ellipse cx="342.433" cy="149.807" rx="4.17972" ry="2.02463" fill="#5EB9EC"/>
<ellipse cx="326.038" cy="260.472" rx="4.17972" ry="2.02463" fill="#5EB9EC"/>
<ellipse cx="227.18" cy="260.025" rx="4.17972" ry="2.02463" fill="#5EB9EC"/>
<ellipse cx="4.17972" cy="417.475" rx="4.17972" ry="2.02463" fill="#5EB9EC"/>
<ellipse cx="43.4434" cy="165.094" rx="4.17972" ry="2.02463" fill="#5EB9EC"/>
<ellipse cx="175.18" cy="299.025" rx="4.17972" ry="2.02463" fill="#5EB9EC"/>
<ellipse cx="301.681" cy="653.864" rx="4.17972" ry="2.02463" fill="#F7382C"/>
<ellipse cx="71.4307" cy="592.974" rx="4.17972" ry="2.02463" fill="#F7382C"/>
<ellipse cx="369.457" cy="596.236" rx="4.17972" ry="2.02463" fill="#5EB9EC"/>
</svg>
