<svg width="274" height="480" viewBox="0 0 274 480" fill="none" xmlns="http://www.w3.org/2000/svg">
<ellipse cx="243.831" cy="303.728" rx="3.05885" ry="1.48168" fill="#5EB9EC"/>
<ellipse cx="270.177" cy="249.572" rx="3.05885" ry="1.48168" fill="#F7382C"/>
<ellipse cx="87.0589" cy="38.4817" rx="3.05885" ry="1.48168" fill="#F7382C"/>
<ellipse cx="102.884" cy="125.151" rx="3.05885" ry="1.48168" fill="#F7382C"/>
<ellipse cx="22.0589" cy="58.4817" rx="3.05885" ry="1.48168" fill="#F7382C"/>
<ellipse cx="15.4006" cy="237.325" rx="3.05885" ry="1.48168" fill="#F7382C"/>
<ellipse cx="48.5237" cy="365.877" rx="3.05885" ry="1.48168" fill="#F7382C"/>
<ellipse cx="60.1419" cy="177.853" rx="3.05885" ry="1.48168" fill="#F9ED32"/>
<ellipse cx="145.981" cy="143.33" rx="3.05885" ry="1.48168" fill="#F9ED32"/>
<ellipse cx="212.363" cy="288.359" rx="3.05885" ry="1.48168" fill="#F9ED32"/>
<ellipse cx="119.709" cy="72.0214" rx="3.05885" ry="1.48168" fill="#F9ED32"/>
<ellipse cx="48.5237" cy="289.902" rx="3.05885" ry="1.48168" fill="#F9ED32"/>
<ellipse cx="159.671" cy="1.48168" rx="3.05885" ry="1.48168" fill="#F9ED32"/>
<ellipse cx="241.663" cy="62.1705" rx="3.05885" ry="1.48168" fill="#F9ED32"/>
<ellipse cx="103.32" cy="190.294" rx="3.05885" ry="1.48168" fill="#F7812C"/>
<ellipse cx="15.4006" cy="153.992" rx="3.05885" ry="1.48168" fill="#F7812C"/>
<ellipse cx="198.457" cy="218.836" rx="3.05885" ry="1.48168" fill="#F7812C"/>
<ellipse cx="87.219" cy="255.427" rx="3.05885" ry="1.48168" fill="#F7812C"/>
<ellipse cx="12.3421" cy="403.318" rx="3.05885" ry="1.48168" fill="#F7812C"/>
<ellipse cx="207.932" cy="152.51" rx="3.05885" ry="1.48168" fill="#F7812C"/>
<ellipse cx="188.515" cy="76.3516" rx="3.05885" ry="1.48168" fill="#5EB9EC"/>
<ellipse cx="250.603" cy="109.633" rx="3.05885" ry="1.48168" fill="#5EB9EC"/>
<ellipse cx="238.605" cy="190.621" rx="3.05885" ry="1.48168" fill="#5EB9EC"/>
<ellipse cx="166.257" cy="190.294" rx="3.05885" ry="1.48168" fill="#5EB9EC"/>
<ellipse cx="3.05885" cy="305.521" rx="3.05885" ry="1.48168" fill="#5EB9EC"/>
<ellipse cx="31.7932" cy="120.821" rx="3.05885" ry="1.48168" fill="#5EB9EC"/>
<ellipse cx="128.202" cy="218.836" rx="3.05885" ry="1.48168" fill="#5EB9EC"/>
<ellipse cx="220.78" cy="478.518" rx="3.05885" ry="1.48168" fill="#F7382C"/>
<ellipse cx="52.2757" cy="433.957" rx="3.05885" ry="1.48168" fill="#F7382C"/>
<ellipse cx="270.38" cy="436.344" rx="3.05885" ry="1.48168" fill="#5EB9EC"/>
</svg>
