<svg width="1440" height="838" viewBox="0 0 1440 838" fill="none" xmlns="http://www.w3.org/2000/svg">
<g clip-path="url(#clip0_509_1587)">
<ellipse cx="1300.78" cy="303.741" rx="8.65753" ry="4.19364" fill="#5EB9EC"/>
<ellipse cx="1188.59" cy="429.603" rx="8.65753" ry="4.19364" fill="#5EB9EC"/>
<ellipse cx="1327.9" cy="724.961" rx="8.65753" ry="4.19364" fill="#5EB9EC"/>
<ellipse cx="1360.99" cy="554.784" rx="8.65753" ry="4.19364" fill="#F7382C"/>
<ellipse cx="1150.12" cy="692.04" rx="8.65753" ry="4.19364" fill="#F7382C"/>
<ellipse cx="1056.71" cy="244.557" rx="8.65753" ry="4.19364" fill="#F7382C"/>
<ellipse cx="1360.99" cy="89.275" rx="8.65753" ry="4.19364" fill="#F7382C"/>
<ellipse cx="442.336" cy="159.043" rx="8.65753" ry="4.19364" fill="#F7382C"/>
<ellipse cx="491.413" cy="429.603" rx="8.65753" ry="4.19364" fill="#F7382C"/>
<ellipse cx="255.831" cy="210.03" rx="8.65753" ry="4.19364" fill="#F7382C"/>
<ellipse cx="66.0357" cy="411.219" rx="8.65753" ry="4.19364" fill="#F7382C"/>
<ellipse cx="279.856" cy="724.961" rx="8.65753" ry="4.19364" fill="#F7382C"/>
<ellipse cx="74.6934" cy="764.84" rx="8.65753" ry="4.19364" fill="#F9ED32"/>
<ellipse cx="312.674" cy="590.393" rx="8.65753" ry="4.19364" fill="#F9ED32"/>
<ellipse cx="132.523" cy="210.03" rx="8.65753" ry="4.19364" fill="#F9ED32"/>
<ellipse cx="613.391" cy="481.055" rx="8.65753" ry="4.19364" fill="#F9ED32"/>
<ellipse cx="539.032" cy="279.229" rx="8.65753" ry="4.19364" fill="#F9ED32"/>
<ellipse cx="726.257" cy="58.7861" rx="8.65753" ry="4.19364" fill="#F9ED32"/>
<ellipse cx="884.203" cy="251.348" rx="8.65753" ry="4.19364" fill="#F9ED32"/>
<ellipse cx="1405.72" cy="435.731" rx="8.65753" ry="4.19364" fill="#F9ED32"/>
<ellipse cx="1028.77" cy="602.649" rx="8.65753" ry="4.19364" fill="#F9ED32"/>
<ellipse cx="1360.99" cy="202.985" rx="8.65753" ry="4.19364" fill="#F7812C"/>
<ellipse cx="429.686" cy="511.231" rx="8.65753" ry="4.19364" fill="#F7812C"/>
<ellipse cx="149.838" cy="98.4908" rx="8.65753" ry="4.19364" fill="#F7812C"/>
<ellipse cx="1196.6" cy="788.595" rx="8.65753" ry="4.19364" fill="#F7812C"/>
<ellipse cx="595.925" cy="614.905" rx="8.65753" ry="4.19364" fill="#F7812C"/>
<ellipse cx="733.776" cy="291.485" rx="8.65753" ry="4.19364" fill="#5EB9EC"/>
<ellipse cx="909.504" cy="385.682" rx="8.65753" ry="4.19364" fill="#5EB9EC"/>
<ellipse cx="477.873" cy="596.521" rx="8.65753" ry="4.19364" fill="#5EB9EC"/>
<ellipse cx="290.202" cy="417.347" rx="8.65753" ry="4.19364" fill="#5EB9EC"/>
<ellipse cx="197.235" cy="337.53" rx="8.65753" ry="4.19364" fill="#5EB9EC"/>
<ellipse cx="119.873" cy="647.764" rx="8.65753" ry="4.19364" fill="#5EB9EC"/>
<ellipse cx="378.838" cy="737.217" rx="8.65753" ry="4.19364" fill="#5EB9EC"/>
</g>
<defs>
<clipPath id="clip0_509_1587">
<rect width="1440" height="838" fill="white"/>
</clipPath>
</defs>
</svg>
