<svg width="113" height="113" viewBox="0 0 113 113" fill="none" xmlns="http://www.w3.org/2000/svg">
<circle cx="56.4658" cy="56.3613" r="56.3305" fill="white"/>
<circle cx="56.7741" cy="56.3353" r="47.6127" fill="#9064B1"/>
<mask id="mask0_482_16386" style="mask-type:alpha" maskUnits="userSpaceOnUse" x="9" y="8" width="96" height="96">
<circle cx="56.7741" cy="56.3353" r="47.6127" fill="#9064B1"/>
</mask>
<g mask="url(#mask0_482_16386)">
<path fill-rule="evenodd" clip-rule="evenodd" d="M30.8337 37.2488L29.726 38.1497C29.9334 38.5213 29.8505 38.9992 29.509 39.2769C29.1264 39.5881 28.564 39.5302 28.2528 39.1476L27.5984 38.3431C27.2872 37.9604 27.3452 37.398 27.7278 37.0868C28.0694 36.809 28.5542 36.8253 28.8757 37.1042L30.0609 36.1403L30.1855 36.2935C29.1046 34.2305 29.586 31.6244 31.4628 30.098L35.9162 26.4761C37.7938 24.949 40.4447 25.0094 42.2442 26.4898L42.1178 26.3345L43.303 25.3706C43.0956 24.999 43.1784 24.5211 43.5199 24.2433C43.9025 23.9321 44.465 23.99 44.7762 24.3727L45.4305 25.1772C45.7417 25.5598 45.6838 26.1223 45.3012 26.4335C44.9596 26.7113 44.4748 26.6949 44.1533 26.4161L43.0452 27.3173L44.6861 29.3348L45.7942 28.4336C45.5868 28.062 45.6697 27.5841 46.0112 27.3064C46.3938 26.9952 46.9563 27.0531 47.2675 27.4357L47.9218 28.2403C48.233 28.6229 48.1751 29.1853 47.7924 29.4965C47.4509 29.7743 46.966 29.758 46.6445 29.4791L45.5363 30.3803L47.1771 32.3977L48.2852 31.4965C48.0778 31.1249 48.1606 30.647 48.5021 30.3693C48.8848 30.0581 49.4472 30.116 49.7584 30.4986L50.4127 31.3032C50.7239 31.6858 50.666 32.2483 50.2834 32.5594C49.9418 32.8373 49.4569 32.8209 49.1354 32.542L48.0228 33.4469C48.9705 34.7348 49.2128 36.3429 48.7995 37.7873L61.6653 53.6065C70.4275 49.0657 80.3357 49.9541 85.5439 56.3579C88.2128 59.6394 89.2123 63.8341 88.714 68.1742C96.9858 66.9036 104.893 69.2127 109.715 75.1419C117.81 85.095 114.146 101.48 101.532 111.739C88.9186 121.998 72.1309 122.246 64.036 112.292C59.2139 106.363 58.5643 98.1518 61.4937 90.3126C57.1431 89.916 53.24 88.0828 50.5711 84.8013C45.355 78.3877 46.5156 68.4861 52.7715 60.8281L39.9114 45.0158C38.4131 45.1261 36.8881 44.5612 35.8205 43.3709L34.7082 44.2755C34.9156 44.6471 34.8328 45.125 34.4913 45.4028C34.1086 45.714 33.5462 45.656 33.235 45.2734L32.5807 44.4689C32.2695 44.0862 32.3274 43.5238 32.71 43.2126C33.0516 42.9348 33.5364 42.9511 33.8579 43.23L34.9656 42.3291L33.3247 40.3116L32.2169 41.2126C32.4243 41.5841 32.3415 42.0621 32 42.3399C31.6174 42.651 31.0549 42.5931 30.7437 42.2105L30.0894 41.406C29.7782 41.0233 29.8361 40.4609 30.2187 40.1497C30.5603 39.8719 31.0451 39.8882 31.3666 40.1671L32.4744 39.2661L30.8337 37.2488Z" fill="#8DC73F"/>
<ellipse cx="77.0966" cy="81.6931" rx="10.5683" ry="8.33901" transform="rotate(-39.1215 77.0966 81.6931)" fill="white"/>
<rect x="39.9907" y="37.2261" width="1.45984" height="75.6782" rx="0.729918" transform="rotate(-39.1215 39.9907 37.2261)" fill="#FFF200"/>
<rect x="42.0349" y="35.5635" width="1.45984" height="75.6782" rx="0.729918" transform="rotate(-39.1215 42.0349 35.5635)" fill="#FFF200"/>
<rect x="37.9463" y="38.8887" width="1.45984" height="75.6782" rx="0.729918" transform="rotate(-39.1215 37.9463 38.8887)" fill="#FFF200"/>
<rect x="79.7148" y="100.552" width="19.7356" height="3.41245" rx="1.70622" transform="rotate(-39.1215 79.7148 100.552)" fill="black"/>
</g>
</svg>
