<svg width="331" height="180" viewBox="0 0 331 180" fill="none" xmlns="http://www.w3.org/2000/svg">
<path d="M145.039 28.0531C99.8313 12.0744 72.6158 39.9071 64.659 55.8207C47.6088 48.0262 11.1701 42.57 1.81681 83.1008C-7.53645 123.632 31.6952 134.414 52.4802 134.739C48.7454 146.755 50.7265 172.346 88.5292 178.582C126.332 184.818 141.953 164.942 145.039 154.225C203.886 206.447 243.93 162.993 256.596 134.739C260.98 140.097 345.744 135.713 328.694 74.8193C315.053 26.1044 266.826 29.8392 244.417 37.796C246.69 34.5483 241.884 23.6687 204.471 6.13146C167.058 -11.4058 149.261 13.4387 145.039 28.0531Z" fill="white"/>
</svg>
