<svg width="496" height="495" viewBox="0 0 496 495" fill="none" xmlns="http://www.w3.org/2000/svg">
<rect width="11.1189" height="86.7632" transform="matrix(0.999361 -0.0357572 0.103409 0.994639 378.985 406.083)" fill="#2E2F35"/>
<rect width="11.1189" height="86.7631" transform="matrix(0.999361 0.0357549 -0.103403 0.99464 109.422 405.288)" fill="#2E2F35"/>
<path d="M50.062 269.577L445.071 269.577L437.833 414.644H75.4897L50.062 269.577Z" fill="white"/>
<path d="M64.3159 350.909H441.02L437.837 414.644H75.494L64.3159 350.909Z" fill="#2E2F35"/>
<path d="M70.5063 386.262H439.252L437.834 414.644H75.4907L70.5063 386.262Z" fill="#646672"/>
<ellipse cx="412.137" cy="369.246" rx="11.9399" ry="8.95495" fill="#F16B38"/>
<ellipse cx="378.986" cy="369.246" rx="11.9399" ry="8.95495" fill="#F16B38"/>
<ellipse cx="149.035" cy="369.246" rx="8.99005" ry="6.74254" fill="#F16B38"/>
<path fill-rule="evenodd" clip-rule="evenodd" d="M403.526 269.534L400.146 269.534L398.587 308.631L391.061 308.386L389.033 359.311L396.558 359.536L396.514 360.644L399.904 360.745L399.948 359.637L407.167 359.853L409.147 308.974L401.969 308.741L403.526 269.534ZM313.199 269.545L309.808 269.545L309.807 360.721L313.199 360.722L313.199 269.545ZM225.221 269.571L221.687 269.571L225.404 309.3L218.257 309.778L222.944 360.572L230.154 360.069L230.298 361.601L233.679 361.366L233.537 359.833L241.03 359.311L236.303 308.569L228.86 309.068L225.221 269.571ZM136.269 269.572L132.809 269.572L137.971 312.199L132.126 312.716L138.241 363.394L156.286 361.75L150.132 311.124L141.371 311.898L136.269 269.572ZM90.8798 269.597L87.4502 269.577L101.936 360.404L105.296 360L90.8798 269.597ZM176.751 269.573L180.198 269.573L190.61 361.077L187.235 361.366L176.751 269.573ZM264.93 269.575L268.315 269.575L269.684 309.554L277.643 309.37L279.417 360.254L271.428 360.46L271.436 360.722L268.046 360.809L268.037 360.547L261.281 360.721L259.55 309.788L266.298 309.632L264.93 269.575ZM354.548 269.577L358.018 269.577L355.131 361.316L351.74 361.238L354.548 269.577Z" fill="#2E2F35"/>
<rect x="223.908" y="360.332" width="27.7757" height="6.69595" fill="#646672"/>
<rect x="223.909" y="370.749" width="27.7757" height="6.69595" fill="#646672"/>
<rect x="259.62" y="360.332" width="27.7757" height="6.69595" fill="#646672"/>
<rect x="259.62" y="370.749" width="27.7757" height="6.69595" fill="#646672"/>
<rect x="295.331" y="360.332" width="27.7757" height="6.69595" fill="#646672"/>
<rect x="295.331" y="370.749" width="27.7757" height="6.69595" fill="#646672"/>
<ellipse cx="109.423" cy="369.246" rx="14.8898" ry="11.1674" fill="#F9ED32"/>
</svg>
