<svg width="395" height="215" viewBox="0 0 395 215" fill="none" xmlns="http://www.w3.org/2000/svg">
<path d="M173.186 33.9182C119.321 14.8795 86.8937 48.0424 77.413 67.0037C57.0975 57.7165 13.6802 51.2154 2.53572 99.5083C-8.60881 147.801 38.1362 160.648 62.9018 161.035C58.4517 175.353 60.8122 205.846 105.855 213.275C150.897 220.705 169.51 197.023 173.186 184.253C243.304 246.477 291.016 194.701 306.108 161.035C311.332 167.42 412.329 162.196 392.014 89.6408C375.761 31.5964 318.297 36.0464 291.597 45.527C294.306 41.6574 288.578 28.6943 244 7.79836C199.422 -13.0975 178.217 16.505 173.186 33.9182Z" fill="#B9F7FF"/>
</svg>
