<svg width="294" height="160" viewBox="0 0 294 160" fill="none" xmlns="http://www.w3.org/2000/svg">
<path d="M128.792 25.5401C88.8437 11.4202 64.7941 36.0152 57.7629 50.0777C42.6961 43.1899 10.4961 38.3684 2.23081 74.1844C-6.03443 110 28.6336 119.528 47.0008 119.815C43.7004 130.434 45.451 153.049 78.8564 158.559C112.262 164.069 126.066 146.505 128.792 137.035C180.794 183.182 216.18 144.783 227.372 119.815C231.247 124.551 306.15 120.676 291.084 66.8663C279.03 23.8182 236.412 27.1185 216.61 34.1497C218.619 31.2798 214.372 21.6658 181.311 6.16858C148.25 -9.32868 132.523 12.6258 128.792 25.5401Z" fill="#B9F7FF"/>
</svg>
