<svg width="296" height="185" viewBox="0 0 296 185" fill="none" xmlns="http://www.w3.org/2000/svg">
<path d="M99.3245 38.8878C30.6081 45.0546 30.6817 79.2659 39.308 95.6007C27.378 97.2526 2.85737 108.815 0.214429 141.852C-2.42851 174.889 38.3902 169.199 59.1299 162.225C104.06 200.547 171.455 181.863 199.536 167.731C213.632 178.743 226.332 168.649 230.921 162.225C243.034 170.117 271.776 178.082 289.836 146.808C307.896 115.533 279.742 94.8666 263.407 88.4428C264.288 63.7754 242.117 62.7476 230.921 65.3171C226.956 52.9834 212.751 49.5329 206.143 49.3494C205.409 34.4829 194.47 3.97907 156.588 0.89564C109.236 -2.95864 103.729 35.0336 99.3245 38.8878Z" fill="#B9F7FF"/>
</svg>
